<?xml version="1.0" encoding="UTF-8"?>
<svg width="502px" height="146px" viewBox="0 0 502 146" version="1.1" xmlns="http://www.w3.org/2000/svg" xmlns:xlink="http://www.w3.org/1999/xlink">
    <title>BG_wave</title>
    <g id="Drunk-Elephant_phone" stroke="none" stroke-width="1" fill="none" fill-rule="evenodd">
        <g id="Phone_品牌源起_btn" transform="translate(17.000000, -1102.000000)">
            <g id="BG_wave" transform="translate(-15.000000, 1103.000000)">
                <path d="M0,142.826087 C6.40600839,137.608696 13.4747073,135 21.2060968,135 C32.8031809,135 39.0987409,141.987578 53.3465871,141.987578 C67.5944334,141.987578 69.9138502,135 84.824387,135 C99.7349238,135 98.0781975,141.987578 115.308151,141.987578 C132.538105,141.987578 128.893307,135 146.785951,135 C164.678595,135 160.714463,142.093789 175.625,142.093789 C190.535537,142.093789 191.186216,135 205.102717,135 C219.019218,135 222.995361,141.987578 235.586481,141.987578 C248.177601,141.987578 253.810471,135 267.726972,135 C281.643472,135 287.939032,141.987578 299.867462,141.987578 C311.795891,141.987578 319.748178,135 332.339298,135 C344.930417,135 350.894632,141.987578 365.805169,141.987578 C380.715706,141.987578 385.023194,135 398.60835,135 C412.193506,135 418.489066,141.987578 434.393638,141.987578 C450.298211,141.987578 456.593771,135 473.161034,135 C489.728297,135 488.071571,141.987578 500,141.987578" id="Path-2-Copy" stroke="#F9FBA5" stroke-width="4.2" opacity="0.52" transform="translate(250.000000, 138.913043) scale(1, -1) translate(-250.000000, -138.913043) "></path>
                <path d="M0,120.826087 C6.40600839,115.608696 13.4747073,113 21.2060968,113 C32.8031809,113 39.0987409,119.987578 53.3465871,119.987578 C67.5944334,119.987578 69.9138502,113 84.824387,113 C99.7349238,113 98.0781975,119.987578 115.308151,119.987578 C132.538105,119.987578 128.893307,113 146.785951,113 C164.678595,113 160.714463,120.093789 175.625,120.093789 C190.535537,120.093789 191.186216,113 205.102717,113 C219.019218,113 222.995361,119.987578 235.586481,119.987578 C248.177601,119.987578 253.810471,113 267.726972,113 C281.643472,113 287.939032,119.987578 299.867462,119.987578 C311.795891,119.987578 319.748178,113 332.339298,113 C344.930417,113 350.894632,119.987578 365.805169,119.987578 C380.715706,119.987578 385.023194,113 398.60835,113 C412.193506,113 418.489066,119.987578 434.393638,119.987578 C450.298211,119.987578 456.593771,113 473.161034,113 C489.728297,113 488.071571,119.987578 500,119.987578" id="Path-2-Copy-3" stroke="#F9FBA5" stroke-width="4.2" opacity="0.457449777" transform="translate(250.000000, 116.913043) scale(1, -1) translate(-250.000000, -116.913043) "></path>
                <path d="M0,97.826087 C6.40600839,92.6086957 13.4747073,90 21.2060968,90 C32.8031809,90 39.0987409,96.9875776 53.3465871,96.9875776 C67.5944334,96.9875776 69.9138502,90 84.824387,90 C99.7349238,90 98.0781975,96.9875776 115.308151,96.9875776 C132.538105,96.9875776 128.893307,90 146.785951,90 C164.678595,90 160.714463,97.0937888 175.625,97.0937888 C190.535537,97.0937888 191.186216,90 205.102717,90 C219.019218,90 222.995361,96.9875776 235.586481,96.9875776 C248.177601,96.9875776 253.810471,90 267.726972,90 C281.643472,90 287.939032,96.9875776 299.867462,96.9875776 C311.795891,96.9875776 319.748178,90 332.339298,90 C344.930417,90 350.894632,96.9875776 365.805169,96.9875776 C380.715706,96.9875776 385.023194,90 398.60835,90 C412.193506,90 418.489066,96.9875776 434.393638,96.9875776 C450.298211,96.9875776 456.593771,90 473.161034,90 C489.728297,90 488.071571,96.9875776 500,96.9875776" id="Path-2-Copy-4" stroke="#F9FBA5" stroke-width="4" opacity="0.479561942" transform="translate(250.000000, 93.913043) scale(1, -1) translate(-250.000000, -93.913043) "></path>
                <path d="M0,52.826087 C6.40600839,47.6086957 13.4747073,45 21.2060968,45 C32.8031809,45 39.0987409,51.9875776 53.3465871,51.9875776 C67.5944334,51.9875776 69.9138502,45 84.824387,45 C99.7349238,45 98.0781975,51.9875776 115.308151,51.9875776 C132.538105,51.9875776 128.893307,45 146.785951,45 C164.678595,45 160.714463,52.0937888 175.625,52.0937888 C190.535537,52.0937888 191.186216,45 205.102717,45 C219.019218,45 222.995361,51.9875776 235.586481,51.9875776 C248.177601,51.9875776 253.810471,45 267.726972,45 C281.643472,45 287.939032,51.9875776 299.867462,51.9875776 C311.795891,51.9875776 319.748178,45 332.339298,45 C344.930417,45 350.894632,51.9875776 365.805169,51.9875776 C380.715706,51.9875776 385.023194,45 398.60835,45 C412.193506,45 418.489066,51.9875776 434.393638,51.9875776 C450.298211,51.9875776 456.593771,45 473.161034,45 C489.728297,45 488.071571,51.9875776 500,51.9875776" id="Path-2-Copy-6" stroke="#F9FBA5" stroke-width="3" opacity="0.397484189" transform="translate(250.000000, 48.913043) scale(1, -1) translate(-250.000000, -48.913043) "></path>
                <path d="M0,75.826087 C6.40600839,70.6086957 13.4747073,68 21.2060968,68 C32.8031809,68 39.0987409,74.9875776 53.3465871,74.9875776 C67.5944334,74.9875776 69.9138502,68 84.824387,68 C99.7349238,68 98.0781975,74.9875776 115.308151,74.9875776 C132.538105,74.9875776 128.893307,68 146.785951,68 C164.678595,68 160.714463,75.0937888 175.625,75.0937888 C190.535537,75.0937888 191.186216,68 205.102717,68 C219.019218,68 222.995361,74.9875776 235.586481,74.9875776 C248.177601,74.9875776 253.810471,68 267.726972,68 C281.643472,68 287.939032,74.9875776 299.867462,74.9875776 C311.795891,74.9875776 319.748178,68 332.339298,68 C344.930417,68 350.894632,74.9875776 365.805169,74.9875776 C380.715706,74.9875776 385.023194,68 398.60835,68 C412.193506,68 418.489066,74.9875776 434.393638,74.9875776 C450.298211,74.9875776 456.593771,68 473.161034,68 C489.728297,68 488.071571,74.9875776 500,74.9875776" id="Path-2-Copy-7" stroke="#F9FBA5" stroke-width="3.6" opacity="0.456821987" transform="translate(250.000000, 71.913043) scale(1, -1) translate(-250.000000, -71.913043) "></path>
                <path d="M0,30.826087 C6.40600839,25.6086957 13.4747073,23 21.2060968,23 C32.8031809,23 39.0987409,29.9875776 53.3465871,29.9875776 C67.5944334,29.9875776 69.9138502,23 84.824387,23 C99.7349238,23 98.0781975,29.9875776 115.308151,29.9875776 C132.538105,29.9875776 128.893307,23 146.785951,23 C164.678595,23 160.714463,30.0937888 175.625,30.0937888 C190.535537,30.0937888 191.186216,23 205.102717,23 C219.019218,23 222.995361,29.9875776 235.586481,29.9875776 C248.177601,29.9875776 253.810471,23 267.726972,23 C281.643472,23 287.939032,29.9875776 299.867462,29.9875776 C311.795891,29.9875776 319.748178,23 332.339298,23 C344.930417,23 350.894632,29.9875776 365.805169,29.9875776 C380.715706,29.9875776 385.023194,23 398.60835,23 C412.193506,23 418.489066,29.9875776 434.393638,29.9875776 C450.298211,29.9875776 456.593771,23 473.161034,23 C489.728297,23 488.071571,29.9875776 500,29.9875776" id="Path-2-Copy-5" stroke="#F9FBA5" stroke-width="2.4" opacity="0.361467634" transform="translate(250.000000, 26.913043) scale(1, -1) translate(-250.000000, -26.913043) "></path>
                <path d="M-2.84217094e-14,7.82608696 C6.40600839,2.60869565 13.4747073,-1.08801856e-13 21.2060968,-1.08801856e-13 C32.8031809,-1.08801856e-13 39.0987409,6.98757764 53.3465871,6.98757764 C67.5944334,6.98757764 69.9138502,-1.08801856e-13 84.824387,-1.08801856e-13 C99.7349238,-1.08801856e-13 98.0781975,6.98757764 115.308151,6.98757764 C132.538105,6.98757764 128.893307,-1.08801856e-13 146.785951,-1.08801856e-13 C164.678595,-1.08801856e-13 160.714463,7.09378882 175.625,7.09378882 C190.535537,7.09378882 191.186216,-1.08801856e-13 205.102717,-1.08801856e-13 C219.019218,-1.08801856e-13 222.995361,6.98757764 235.586481,6.98757764 C248.177601,6.98757764 253.810471,-1.08801856e-13 267.726972,-1.08801856e-13 C281.643472,-1.08801856e-13 287.939032,6.98757764 299.867462,6.98757764 C311.795891,6.98757764 319.748178,-1.08801856e-13 332.339298,-1.08801856e-13 C344.930417,-1.08801856e-13 350.894632,6.98757764 365.805169,6.98757764 C380.715706,6.98757764 385.023194,-1.08801856e-13 398.60835,-1.08801856e-13 C412.193506,-1.08801856e-13 418.489066,6.98757764 434.393638,6.98757764 C450.298211,6.98757764 456.593771,-1.08801856e-13 473.161034,-1.08801856e-13 C489.728297,-1.08801856e-13 488.071571,6.98757764 500,6.98757764" id="Path-2-Copy-2" stroke="#FDFED1" stroke-width="2" opacity="0.265438988" transform="translate(250.000000, 3.913043) scale(1, -1) translate(-250.000000, -3.913043) "></path>
            </g>
        </g>
    </g>
</svg>