<?xml version="1.0" encoding="UTF-8"?>
<svg width="89px" height="84px" viewBox="0 0 89 84" version="1.1" xmlns="http://www.w3.org/2000/svg" xmlns:xlink="http://www.w3.org/1999/xlink">
    <title>icon5</title>
    <g id="Drunk-Elephant_phone" stroke="none" stroke-width="1" fill="none" fill-rule="evenodd">
        <g id="Phone_index" transform="translate(-36.000000, -1396.000000)">
            <g id="6-info" transform="translate(4.000000, 876.000000)">
                <g id="Group-23" transform="translate(33.000000, 348.000000)">
                    <g id="6-icon" transform="translate(1.000000, 46.000000)">
                        <g id="icon5" transform="translate(0.456600, 128.456268)">
                            <ellipse id="Oval" stroke="#E5E520" stroke-width="3.6" fill="#FFFFFF" cx="42.005814" cy="39.5061728" rx="42.005814" ry="39.5061728"></ellipse>
                            <path d="M29.9045201,38.0149539 C27.5393346,40.6653921 26.2279446,44.0899497 26.2183099,47.6411059 C26.2183099,55.9429664 33.3345889,62.6645801 42.0990829,62.6645801 C47.4276894,62.7071371 52.4318394,60.1110359 55.4629872,55.731525 L29.9045201,38.0149539 Z M35.9850966,11.5179969 L32.9113986,9.96000696 L35.9850966,11.5179969 Z M35.9850966,15.1236307 L32.9113986,16.7372631 L35.9850966,15.1236307 Z M36.1298723,13.3987133 L31.2965935,13.3987133 L36.1298723,13.3987133 Z M62.0892565,47.6411059 C61.9382235,39.1831237 56.2304132,31.8349545 48.0682935,29.5906799 L48.0682935,21.5781603 C48.0258889,20.2670609 46.9304462,19.2370974 45.6182443,19.2745609 L38.5687848,19.2745609 C37.9395972,19.2566006 37.3290633,19.4892677 36.8716228,19.9213289 C36.4141824,20.3533901 36.1473464,20.9494155 36.1298723,21.5781603 L36.1298723,29.5906799 C27.9655861,31.8317179 22.2562671,39.1818294 22.1089093,47.6411059 C22.1567327,53.5874482 25.0560062,59.1500106 29.9045201,62.5978091 L29.9045201,65.6025039 C29.9470057,67.1041077 31.1969736,68.2884755 32.6998035,68.2510868 L51.5094989,68.2510868 C53.0123287,68.2884755 54.2622966,67.1041077 54.3047822,65.6025039 L54.3047822,62.5978091 C59.1490804,59.1476019 62.0440066,53.5854341 62.0892565,47.6411059 Z M45.6071078,11.0839854 L38.591058,11.0839854 L38.591058,19.2745609 L45.6071078,19.2745609 L45.6071078,11.0839854 Z" id="Shape" stroke="#4A4A4A" stroke-width="1.64948454" stroke-linecap="round" stroke-linejoin="round"></path>
                            <line x1="13.6089093" y1="68.7073552" x2="69.2236325" y2="9.96000696" id="Path" stroke="#E5E520" stroke-width="3.6"></line>
                        </g>
                    </g>
                </g>
            </g>
        </g>
    </g>
</svg>