<?xml version="1.0" encoding="UTF-8"?>
<svg width="36px" height="12px" viewBox="0 0 36 12" version="1.1" xmlns="http://www.w3.org/2000/svg" xmlns:xlink="http://www.w3.org/1999/xlink">
    <title>LINE icon</title>
    <g id="Drunk-Elephant_phone" stroke="none" stroke-width="1" fill="none" fill-rule="evenodd">
        <g id="Phone_index" transform="translate(-157.000000, -3867.000000)" fill="#06C755">
            <g id="Group-7" transform="translate(46.000000, 3462.000000)">
                <g id="LINE-icon" transform="translate(111.000000, 405.000000)">
                    <path d="M34.0116975,11.81034 L27.2765475,11.81034 L27.2675475,11.81034 C27.0144225,11.81034 26.8092225,11.605365 26.8092225,11.352015 L26.8092225,11.344815 L26.8092225,11.34414 L26.8092225,0.886365 L26.8092225,0.88569 L26.8092225,0.87579 C26.8092225,0.622665 27.0144225,0.417465 27.2675475,0.417465 L27.2765475,0.417465 L34.0116975,0.417465 C34.2636975,0.417465 34.4700225,0.623565 34.4700225,0.87579 L34.4700225,2.57814 C34.4700225,2.831265 34.2648225,3.036465 34.0116975,3.036465 L29.4284475,3.036465 L29.4284475,4.80429 L34.0116975,4.80429 C34.2636975,4.80429 34.4700225,5.010615 34.4700225,5.262615 L34.4700225,6.96519 C34.4700225,7.218315 34.2648225,7.423515 34.0116975,7.423515 L29.4284475,7.423515 L29.4284475,9.19134 L34.0116975,9.19134 C34.2636975,9.19134 34.4700225,9.39744 34.4700225,9.64944 L34.4700225,11.352015 C34.4700225,11.605365 34.2648225,11.81034 34.0116975,11.81034" id="Fill-6"></path>
                    <path d="M9.0650475,11.81034 C9.3181725,11.81034 9.5233725,11.605365 9.5233725,11.352015 L9.5233725,9.64944 C9.5233725,9.39744 9.3170475,9.19134 9.0650475,9.19134 L4.4815725,9.19134 L4.4815725,0.87579 C4.4815725,0.623565 4.2754725,0.417465 4.0234725,0.417465 L2.3208975,0.417465 C2.0677725,0.417465 1.8625725,0.622665 1.8625725,0.87579 L1.8625725,11.34414 L1.8625725,11.344815 L1.8625725,11.352015 C1.8625725,11.605365 2.0677725,11.81034 2.3208975,11.81034 L2.3298975,11.81034 L9.0650475,11.81034 Z" id="Fill-8"></path>
                    <path d="M13.124925,0.417285 L11.4228,0.417285 C11.169675,0.417285 10.96425,0.62271 10.96425,0.87561 L10.96425,11.35206 C10.96425,11.605185 11.169675,11.810385 11.4228,11.810385 L13.124925,11.810385 C13.378275,11.810385 13.58325,11.605185 13.58325,11.35206 L13.58325,0.87561 C13.58325,0.62271 13.378275,0.417285 13.124925,0.417285" id="Fill-10"></path>
                    <path d="M24.714405,0.417285 L23.012055,0.417285 C22.75893,0.417285 22.55373,0.62271 22.55373,0.87561 L22.55373,7.097985 L17.760555,0.62496 C17.749305,0.60831 17.736705,0.59256 17.723655,0.57771 C17.722755,0.576585 17.721855,0.57546 17.72073,0.574335 C17.711955,0.564435 17.70273,0.55476 17.693055,0.54576 L17.684505,0.537885 C17.676405,0.530685 17.668305,0.52371 17.659755,0.516735 L17.647155,0.50751 C17.639505,0.501885 17.631405,0.496485 17.622855,0.49086 C17.618355,0.487935 17.61363,0.485235 17.608905,0.482535 C17.60058,0.477585 17.592255,0.47286 17.583705,0.468585 C17.578755,0.46611 17.57403,0.463635 17.56908,0.461385 C17.560305,0.457335 17.551305,0.45351 17.542305,0.44991 C17.537355,0.44811 17.532405,0.44631 17.527455,0.44451 C17.51823,0.441135 17.509005,0.43821 17.499555,0.43551 C17.494155,0.433935 17.488755,0.432585 17.48313,0.431235 C17.47413,0.42921 17.46513,0.427185 17.455905,0.425385 C17.449605,0.42426 17.44308,0.42336 17.436555,0.422235 C17.42823,0.421335 17.42013,0.42021 17.411805,0.419535 C17.403705,0.418635 17.395605,0.41841 17.387505,0.418185 C17.382105,0.41796 17.37693,0.417285 17.37153,0.417285 L15.67863,0.417285 C15.425505,0.417285 15.220305,0.62271 15.220305,0.87561 L15.220305,11.35206 C15.220305,11.605185 15.425505,11.810385 15.67863,11.810385 L17.38098,11.810385 C17.634105,11.810385 17.839305,11.605185 17.839305,11.35206 L17.839305,5.13171 L22.638555,11.612835 C22.67163,11.659635 22.71213,11.697885 22.756905,11.72826 C22.758705,11.729385 22.76028,11.730735 22.76208,11.73186 C22.771305,11.73816 22.781205,11.74401 22.79088,11.74941 C22.79538,11.751885 22.799655,11.754585 22.80438,11.75661 C22.81158,11.76066 22.81878,11.76426 22.82643,11.76741 C22.83408,11.77101 22.84128,11.77416 22.84893,11.777085 C22.853655,11.77911 22.858605,11.78091 22.86333,11.782485 C22.87368,11.786085 22.884255,11.789685 22.895055,11.79261 C22.897305,11.793285 22.899555,11.79396 22.90158,11.794185 C22.93983,11.80431 22.97988,11.810385 23.021505,11.810385 L24.714405,11.810385 C24.96753,11.810385 25.17273,11.605185 25.17273,11.35206 L25.17273,0.87561 C25.17273,0.62271 24.96753,0.417285 24.714405,0.417285" id="Fill-12"></path>
                </g>
            </g>
        </g>
    </g>
</svg>