<?xml version="1.0" encoding="UTF-8"?>
<svg width="200px" height="113px" viewBox="0 0 200 113" version="1.1" xmlns="http://www.w3.org/2000/svg" xmlns:xlink="http://www.w3.org/1999/xlink">
    <title>full_logomark_gray copy</title>
    <g id="Drunk-Elephant_phone" stroke="none" stroke-width="1" fill="none" fill-rule="evenodd">
        <g id="Phone_index" transform="translate(-109.000000, -113.000000)" fill="#4A4A4A">
            <g id="full_logomark_gray-copy" transform="translate(109.000000, 113.000000)">
                <path d="M186,104.092941 L186.666667,104.092941 C186.933333,102.896471 187.066667,102.630588 187.733333,102.630588 L187.866667,102.630588 L187.866667,106.485882 L187.066667,106.485882 L187.066667,107.150588 L189.866667,107.150588 L189.866667,106.485882 L189.066667,106.485882 L189.066667,102.630588 L189.2,102.630588 C189.866667,102.630588 190,102.896471 190.266667,104.092941 L190.933333,104.092941 L190.933333,102.098824 L186,102.098824 L186,104.092941 L186,104.092941 Z" id="Path"></path>
                <g id="Group" transform="translate(191.444000, 101.722600)">
                    <polygon id="Path" points="7.33333333 1.06352941 7.33333333 0.398823529 4.93333333 0.398823529 3.86666667 3.45647059 3.86666667 3.45647059 2.8 0.398823529 0.266666667 0.398823529 0.266666667 1.06352941 0.933333333 1.06352941 0.933333333 4.78588235 0.266666667 4.78588235 0.266666667 5.45058824 2.26666667 5.45058824 2.26666667 4.78588235 1.6 4.78588235 1.6 1.19647059 1.73333333 1.19647059 3.2 5.45058824 3.73333333 5.45058824 5.33333333 1.19647059 5.33333333 1.19647059 5.33333333 4.78588235 4.66666667 4.78588235 4.66666667 5.45058824 7.33333333 5.45058824 7.33333333 4.78588235 6.66666667 4.78588235 6.66666667 1.06352941"></polygon>
                </g>
                <path d="M4.66666667,111.404706 L3.6,111.404706 L3.6,103.561176 L4.53333333,103.561176 C7.06666667,103.561176 8.13333333,104.757647 8.13333333,107.416471 C8.13333333,110.341176 7.06666667,111.404706 4.66666667,111.404706 L4.66666667,111.404706 Z M4.53333333,102.364706 L0,102.364706 L0,103.561176 L1.6,103.561176 L1.6,111.404706 L0,111.404706 L0,112.601176 L4.53333333,112.601176 C8.53333333,112.601176 10.2666667,110.341176 10.2666667,107.416471 C10.4,104.358824 8.4,102.364706 4.53333333,102.364706 L4.53333333,102.364706 Z M19.3333333,107.017647 L17.8666667,107.017647 L17.8666667,103.561176 L19.4666667,103.561176 C20.9333333,103.561176 21.3333333,104.092941 21.3333333,105.156471 C21.3333333,106.352941 20.8,107.017647 19.3333333,107.017647 L19.3333333,107.017647 Z M23.4666667,111.404706 C23.2,111.404706 23.0666667,111.271765 23.0666667,110.607059 L23.0666667,109.676471 C22.9333333,108.612941 22.4,107.815294 20.6666667,107.416471 L20.6666667,107.283529 C22.8,107.017647 23.4666667,105.954118 23.4666667,104.757647 C23.4666667,103.428235 22.5333333,102.098824 19.4666667,102.098824 L14.1333333,102.098824 L14.1333333,103.295294 L15.7333333,103.295294 L15.7333333,111.138824 L14.1333333,111.138824 L14.1333333,112.335294 L19.3333333,112.335294 L19.3333333,111.138824 L17.7333333,111.138824 L17.7333333,107.815294 L19.3333333,107.815294 C20.6666667,107.815294 20.9333333,108.347059 20.9333333,109.410588 L20.9333333,110.341176 C20.9333333,111.803529 21.7333333,112.468235 22.9333333,112.468235 C24,112.468235 24.5333333,111.803529 24.9333333,110.74 L24.1333333,110.474118 C24,111.138824 23.7333333,111.404706 23.4666667,111.404706 L23.4666667,111.404706 Z M34.5333333,103.561176 L36,103.561176 L36,108.48 C36,109.543529 35.8666667,110.341176 35.3333333,110.74 C34.9333333,111.138824 34.4,111.404706 33.6,111.404706 C31.8666667,111.404706 30.9333333,110.74 30.9333333,108.745882 L30.9333333,103.428235 L32.4,103.428235 L32.4,102.364706 L27.4666667,102.364706 L27.4666667,103.561176 L28.9333333,103.561176 L28.9333333,109.277647 C28.9333333,111.404706 30.4,112.734118 33.2,112.734118 C36,112.734118 37.3333333,111.138824 37.3333333,109.144706 L37.3333333,103.428235 L38.6666667,103.428235 L38.6666667,102.364706 L34.5333333,102.364706 L34.5333333,103.561176 L34.5333333,103.561176 Z" id="Shape"></path>
                <polygon id="Path" points="49.4666667 103.561176 50.9333333 103.561176 50.9333333 109.676471 50.8 109.676471 46 102.364706 42.2666667 102.364706 42.2666667 103.561176 43.7333333 103.561176 43.7333333 111.271765 42.2666667 111.271765 42.2666667 112.468235 46.5333333 112.468235 46.5333333 111.271765 44.9333333 111.271765 44.9333333 104.491765 45.0666667 104.491765 50.5333333 112.734118 52.2666667 112.734118 52.2666667 103.561176 53.7333333 103.561176 53.7333333 102.364706 49.4666667 102.364706"></polygon>
                <polygon id="Path" points="63.4666667 106.485882 66.4 103.561176 67.7333333 103.561176 67.7333333 102.364706 63.4666667 102.364706 63.4666667 103.428235 64.8 103.428235 60.8 107.549412 60.8 103.428235 62.2666667 103.428235 62.2666667 102.364706 57.2 102.364706 57.2 103.561176 58.8 103.561176 58.8 111.271765 57.2 111.271765 57.2 112.468235 62.2666667 112.468235 62.2666667 111.404706 60.8 111.404706 60.8 109.011765 62.1333333 107.682353 64.6666667 111.404706 63.4666667 111.404706 63.4666667 112.468235 68.2666667 112.468235 68.2666667 111.271765 67.0666667 111.271765"></polygon>
                <path d="M83.3333333,111.404706 L80.5333333,111.404706 L80.5333333,107.948235 L81.4666667,107.948235 C82.5333333,107.948235 82.6666667,108.081176 82.8,109.410588 L84,109.410588 L84,105.289412 L83.0666667,105.289412 C82.8,106.618824 82.6666667,106.751765 81.7333333,106.751765 L80.8,106.751765 L80.8,103.428235 L83.6,103.428235 C84.8,103.428235 85.0666667,103.827059 85.4666667,105.688235 L86.4,105.688235 L86.4,102.364706 L77.0666667,102.364706 L77.0666667,103.561176 L78.6666667,103.561176 L78.6666667,111.404706 L77.0666667,111.404706 L77.0666667,112.601176 L86.5333333,112.601176 L86.5333333,108.878824 L85.6,108.878824 C84.9333333,110.872941 84.8,111.404706 83.3333333,111.404706 M96.1333333,111.404706 L94.1333333,111.404706 L94.1333333,103.561176 L95.7333333,103.561176 L95.7333333,102.364706 L90.5333333,102.364706 L90.5333333,103.561176 L92.1333333,103.561176 L92.1333333,111.404706 L90.5333333,111.404706 L90.5333333,112.601176 L99.2,112.601176 L99.2,108.612941 L98.2666667,108.612941 C97.6,111.005882 97.3333333,111.404706 96.1333333,111.404706 M109.2,111.404706 L106.4,111.404706 L106.4,107.948235 L107.333333,107.948235 C108.4,107.948235 108.533333,108.081176 108.666667,109.410588 L109.6,109.410588 L109.6,105.289412 L108.666667,105.289412 C108.4,106.618824 108.266667,106.751765 107.333333,106.751765 L106.4,106.751765 L106.4,103.428235 L109.333333,103.428235 C110.533333,103.428235 110.8,103.827059 111.2,105.688235 L112.133333,105.688235 L112.133333,102.364706 L102.8,102.364706 L102.8,103.561176 L104.4,103.561176 L104.4,111.404706 L102.8,111.404706 L102.8,112.601176 L112.266667,112.601176 L112.266667,108.878824 L111.333333,108.878824 C110.933333,110.872941 110.666667,111.404706 109.2,111.404706 M121.066667,107.283529 L120,107.283529 L120,103.428235 L121.066667,103.428235 C122.8,103.428235 123.333333,104.225882 123.333333,105.289412 C123.333333,106.618824 122.933333,107.283529 121.066667,107.283529 M121.2,102.364706 L116.533333,102.364706 L116.533333,103.561176 L118.133333,103.561176 L118.133333,111.404706 L116.533333,111.404706 L116.533333,112.601176 L121.866667,112.601176 L121.866667,111.404706 L120,111.404706 L120,108.48 L121.2,108.48 C124.4,108.48 125.466667,106.884706 125.466667,105.422353 C125.466667,103.694118 124.4,102.364706 121.2,102.364706" id="Shape"></path>
                <polygon id="Path" points="135.6 103.561176 137.066667 103.561176 137.066667 106.751765 132.666667 106.751765 132.666667 103.561176 134.133333 103.561176 134.133333 102.364706 129.066667 102.364706 129.066667 103.561176 130.666667 103.561176 130.666667 111.271765 129.066667 111.271765 129.066667 112.468235 134.133333 112.468235 134.133333 111.271765 132.666667 111.271765 132.666667 107.815294 137.066667 107.815294 137.066667 111.271765 135.6 111.271765 135.6 112.468235 140.666667 112.468235 140.666667 111.271765 139.066667 111.271765 139.066667 103.561176 140.666667 103.561176 140.666667 102.364706 135.6 102.364706"></polygon>
                <path d="M147.333333,108.081176 L148.8,104.092941 L148.8,104.092941 L150.133333,108.081176 L147.333333,108.081176 Z M150.266667,102.231765 L148.266667,102.231765 L144.8,111.271765 L143.733333,111.271765 L143.733333,112.468235 L147.466667,112.468235 L147.466667,111.271765 L146.133333,111.271765 L146.933333,109.011765 L150.533333,109.011765 L151.333333,111.271765 L149.866667,111.271765 L149.866667,112.468235 L154.933333,112.468235 L154.933333,111.271765 L153.6,111.271765 L150.266667,102.231765 Z" id="Shape"></path>
                <polygon id="Path" points="165.2 103.561176 166.666667 103.561176 166.666667 109.676471 166.533333 109.676471 161.733333 102.364706 158 102.364706 158 103.561176 159.466667 103.561176 159.466667 111.271765 158 111.271765 158 112.468235 162.266667 112.468235 162.266667 111.271765 160.666667 111.271765 160.666667 104.491765 160.8 104.491765 166.133333 112.734118 168 112.734118 168 103.561176 169.466667 103.561176 169.466667 102.364706 165.2 102.364706"></polygon>
                <path d="M173.066667,106.087059 L174,106.087059 C174.666667,103.694118 174.933333,103.295294 176.266667,103.295294 L176.8,103.295294 L176.8,111.271765 L175.066667,111.271765 L175.066667,112.468235 L180.533333,112.468235 L180.533333,111.271765 L178.8,111.271765 L178.8,103.295294 L179.333333,103.295294 C180.666667,103.295294 180.933333,103.694118 181.6,106.087059 L182.533333,106.087059 L182.533333,102.364706 L172.933333,102.364706 L172.933333,106.087059 L173.066667,106.087059 Z M158.533333,45.7317647 L158.533333,45.2 C158.533333,45.0670588 158.4,45.0670588 158.4,45.0670588 L156.666667,45.0670588 C157.066667,44.5352941 157.733333,43.7376471 158,43.3388235 C158.266667,42.94 158.533333,42.5411765 158.533333,42.0094118 C158.533333,41.2117647 157.866667,40.4141176 156.8,40.4141176 C155.866667,40.4141176 155.2,41.2117647 155.2,41.2117647 C155.2,41.2117647 155.2,41.3447059 155.2,41.4776471 L155.6,41.8764706 C155.733333,41.8764706 155.733333,41.8764706 155.866667,41.8764706 C156,41.7435294 156.4,41.4776471 156.8,41.4776471 C157.333333,41.4776471 157.6,41.8764706 157.6,42.1423529 C157.6,42.4082353 157.466667,42.6741176 157.2,43.0729412 C156.666667,43.7376471 155.733333,45.0670588 155.2,45.7317647 L155.2,45.8647059 C155.2,45.9976471 155.333333,45.9976471 155.333333,45.9976471 L158.4,45.9976471 C158.4,45.8647059 158.533333,45.7317647 158.533333,45.7317647 L158.533333,45.7317647 Z M162,41.3447059 C162.666667,41.3447059 162.933333,42.0094118 162.933333,43.2058824 C162.933333,44.4023529 162.533333,45.0670588 162,45.0670588 C161.333333,45.0670588 161.066667,44.4023529 161.066667,43.2058824 C161.066667,42.0094118 161.466667,41.3447059 162,41.3447059 L162,41.3447059 Z M162,45.8647059 C163.333333,45.8647059 164,44.8011765 164,43.0729412 C164,41.3447059 163.333333,40.2811765 162,40.2811765 C160.8,40.2811765 160,41.3447059 160,43.0729412 C160.133333,44.9341176 160.8,45.8647059 162,45.8647059 L162,45.8647059 Z M165.6,42.1423529 L166.266667,42.0094118 L166.266667,45.7317647 C166.266667,45.8647059 166.266667,45.8647059 166.4,45.8647059 L167.066667,45.8647059 C167.2,45.8647059 167.2,45.7317647 167.2,45.7317647 L167.2,40.68 C167.2,40.5470588 167.2,40.5470588 167.066667,40.5470588 L166.533333,40.5470588 L165.333333,41.4776471 C165.333333,41.4776471 165.333333,41.6105882 165.333333,41.6105882 L165.333333,42.0094118 C165.466667,42.0094118 165.6,42.1423529 165.6,42.1423529 L165.6,42.1423529 Z M172.4,42.0094118 C172.4,41.2117647 171.733333,40.4141176 170.666667,40.4141176 C169.733333,40.4141176 169.066667,41.2117647 169.066667,41.2117647 C169.066667,41.2117647 169.066667,41.3447059 169.066667,41.4776471 L169.466667,41.8764706 C169.466667,41.8764706 169.6,41.8764706 169.733333,41.8764706 C169.866667,41.7435294 170.266667,41.4776471 170.666667,41.4776471 C171.2,41.4776471 171.466667,41.8764706 171.466667,42.1423529 C171.466667,42.4082353 171.333333,42.6741176 171.066667,43.0729412 C170.533333,43.7376471 169.6,45.0670588 169.066667,45.7317647 L169.066667,45.8647059 C169.066667,45.9976471 169.066667,45.9976471 169.2,45.9976471 L172.266667,45.9976471 C172.4,45.9976471 172.4,45.8647059 172.4,45.8647059 L172.4,45.2 C172.4,45.0670588 172.266667,45.0670588 172.266667,45.0670588 L170.533333,45.0670588 C170.933333,44.5352941 171.6,43.7376471 171.866667,43.3388235 C172.133333,42.8070588 172.4,42.5411765 172.4,42.0094118 L172.4,42.0094118 Z M65.4666667,5.71647059 C64.4,6.24823529 62.2666667,7.84352941 60.6666667,10.3694118 C58.9333333,12.8952941 58,16.2188235 57.4666667,19.5423529 C56.6666667,26.0564706 57.4666667,32.0388235 57.3333333,31.9058824 C57.2,31.9058824 58,37.8882353 56.1333333,43.8705882 C54.4,49.9858824 49.7333333,55.4364706 48,56.7658824 C46.4,58.0952941 45.0666667,59.0258824 43.6,59.8235294 C42.2666667,60.4882353 40.8,61.1529412 38.9333333,60.8870588 C40.6666667,61.5517647 42.4,61.2858824 44,60.7541176 C45.6,60.2223529 47.2,59.2917647 48.8,57.8294118 C50.8,56.3670588 55.6,50.6505882 57.3333333,44.2694118 C59.3333333,37.8882353 58.4,31.7729412 58.5333333,31.9058824 C58.6666667,31.9058824 58,25.9235294 58.6666667,19.6752941 C59.0666667,16.4847059 60.1333333,13.2941176 61.6,11.0341176 C63.0666667,8.77411765 64.9333333,7.44470588 66,6.91294118 C69.6,4.91882353 72.1333333,4.25411765 75.7333333,3.85529412 C72.2666667,3.32352941 69.4666667,3.58941176 65.4666667,5.71647059 L65.4666667,5.71647059 Z M90.4,2.92470588 C92,2.79176471 96.6666667,1.86117647 100.8,1.46235294 C105.066667,1.06352941 108.8,1.72823529 108.8,1.72823529 C108.8,1.72823529 112.666667,2.26 116.133333,4.78588235 C119.6,7.17882353 122,11.1670588 122.266667,12.6294118 C123.066667,15.2882353 123.466667,16.7505882 123.866667,19.2764706 C124.4,16.8835294 124.533333,15.1552941 123.6,12.2305882 C123.2,10.6352941 120.8,6.11529412 116.933333,3.72235294 C113.2,1.06352941 109.066667,0.531764706 109.066667,0.531764706 C109.066667,0.531764706 105.066667,-0.265882353 100.666667,0.265882353 C96.2666667,0.664705882 91.6,1.46235294 90.1333333,1.72823529 C87.3333333,2.12705882 85.7333333,2.52588235 83.3333333,3.19058824 C85.7333333,3.32352941 87.4666667,3.32352941 90.4,2.92470588 L90.4,2.92470588 Z M105.733333,30.1776471 C106.933333,28.8482353 107.2,27.6517647 107.2,27.6517647 C107.2,27.6517647 107.6,26.5882353 107.466667,24.86 C107.333333,23.1317647 106.533333,20.8717647 105.333333,18.8776471 C102.8,14.7564706 98.2666667,12.0976471 97.0666667,11.1670588 C94.5333333,9.43882353 92.9333333,8.77411765 90.6666667,7.57764706 C92.4,9.57176471 93.8666667,10.6352941 96.2666667,12.3635294 C97.6,13.2941176 101.866667,15.9529412 104.133333,19.6752941 C105.333333,21.5364706 106,23.5305882 106.133333,24.9929412 C106.266667,26.4552941 105.866667,27.3858824 105.866667,27.3858824 C105.866667,27.3858824 105.733333,28.3164706 104.8,29.38 C103.866667,30.4435294 102,31.64 100,32.5705882 C95.8666667,34.4317647 91.2,36.2929412 89.8666667,37.3564706 C87.2,39.0847059 86.1333333,40.4141176 84.4,42.2752941 C86.6666667,41.0788235 88.1333333,40.1482353 90.6666667,38.5529412 C91.8666667,37.4894118 96.4,35.6282353 100.666667,33.7670588 C102.533333,32.7035294 104.533333,31.5070588 105.733333,30.1776471 L105.733333,30.1776471 Z" id="Shape"></path>
                <path d="M73.3333333,17.5482353 C72.8,17.4152941 69.7333333,17.9470588 69.7333333,18.08 C69.7333333,18.08 68.9333333,18.3458824 68.2666667,18.8776471 C67.6,19.4094118 67.0666667,20.34 66.9333333,20.6058824 C66.6666667,21.1376471 66.8,21.5364706 67.2,22.0682353 C67.7333333,21.6694118 68,21.5364706 68.1333333,21.1376471 C68.2666667,21.0047059 68.5333333,20.34 69.0666667,19.9411765 C69.6,19.5423529 70.1333333,19.2764706 70.1333333,19.2764706 C70.1333333,19.1435294 72.5333333,18.6117647 73.2,18.7447059 C73.7333333,18.7447059 74,18.4788235 74.4,18.08 C74.1333333,17.8141176 73.8666667,17.5482353 73.3333333,17.5482353" id="Path"></path>
                <path d="M72.8,19.4094118 C72.6666667,19.6752941 71.4666667,20.0741176 71.4666667,20.0741176 C71.4666667,20.0741176 70.1333333,20.4729412 69.8666667,20.4729412 C69.6,20.4729412 69.4666667,20.7388235 69.3333333,21.2705882 C69.6,21.6694118 69.8666667,21.9352941 70.1333333,21.8023529 C70.4,21.8023529 72,21.4035294 72,21.4035294 C72,21.5364706 73.6,20.7388235 73.8666667,20.4729412 C74.1333333,20.2070588 74,19.9411765 73.8666667,19.4094118 C73.3333333,19.2764706 73.0666667,19.2764706 72.8,19.4094118 L72.8,19.4094118 Z M70.5333333,40.8129412 C69.8666667,42.2752941 68.2666667,46.6623529 67.3333333,50.7835294 C66.2666667,54.9047059 66.2666667,58.8929412 66.1333333,58.8929412 C66.1333333,58.8929412 65.4666667,62.7482353 65.8666667,67.1352941 C66.1333333,71.3894118 66.8,76.0423529 67.3333333,77.5047059 C68.1333333,80.2964706 69.3333333,81.7588235 71.3333333,83.2211765 C70,81.2270588 69.6,79.7647059 68.8,77.1058824 C68.2666667,75.6435294 67.6,71.2564706 67.4666667,67.0023529 C67.0666667,62.8811765 67.7333333,59.1588235 67.7333333,59.0258824 C67.8666667,59.0258824 68,55.1705882 68.9333333,51.1823529 C69.8666667,47.0611765 71.3333333,42.8070588 72,41.4776471 C73.2,38.9517647 73.6,37.4894118 75.3333333,35.7611765 C72.8,36.6917647 71.7333333,38.2870588 70.5333333,40.8129412 L70.5333333,40.8129412 Z M86.2666667,59.2917647 C85.7333333,55.9682353 84.2666667,52.6447059 83.6,51.7141176 C82.6666667,49.8529412 81.8666667,48.7894118 80.5333333,47.46 C81.0666667,49.3211765 81.3333333,50.3847059 82.2666667,52.3788235 C82.8,53.3094118 84.2666667,56.5 84.6666667,59.5576471 C85.2,62.6152941 85.2,65.54 85.2,65.54 C85.2,65.54 85.2,68.4647059 84.9333333,71.6552941 C84.6666667,74.8458824 84.1333333,78.3023529 83.8666667,79.3658824 C83.4666667,81.4929412 83.4666667,82.6894118 83.2,84.5505882 C84.1333333,82.9552941 84.8,81.7588235 85.2,79.6317647 C85.4666667,78.4352941 86,74.9788235 86.2666667,71.7882353 C86.5333333,68.5976471 86.5333333,65.54 86.5333333,65.6729412 C86.8,65.4070588 86.9333333,62.4823529 86.2666667,59.2917647 L86.2666667,59.2917647 Z M119.733333,69.3952941 C120.933333,65.8058824 121.466667,62.3494118 121.466667,62.3494118 C121.466667,62.3494118 122.133333,58.8929412 121.466667,55.0376471 C120.8,51.1823529 119.466667,48.3905882 118.933333,47.0611765 C118,44.6682353 117.066667,42.5411765 115.866667,40.8129412 C116.533333,43.2058824 117.333333,45.3329412 118.133333,47.5929412 C118.666667,48.7894118 119.466667,51.7141176 120,55.3035294 C120.533333,58.8929412 120,62.2164706 120,62.2164706 C120,62.2164706 119.6,65.54 118.4,68.9964706 C117.2,72.5858824 115.6,76.3082353 115.2,77.6376471 C114.533333,79.3658824 113.866667,80.2964706 113.6,81.6258824 C113.466667,83.2211765 113.6,82.8223529 113.733333,83.4870588 C114.933333,81.6258824 115.6,80.4294118 116.533333,78.0364706 C117.066667,76.84 118.666667,73.1176471 119.733333,69.3952941 L119.733333,69.3952941 Z M151.466667,57.8294118 C150,56.1011765 149.333333,54.9047059 147.866667,52.7776471 C147.066667,51.7141176 145.2,47.9917647 144.266667,44.2694118 C143.2,40.5470588 142.4,37.0905882 142.266667,37.0905882 C142.266667,37.0905882 141.466667,33.6341176 139.466667,30.0447059 C137.6,26.4552941 134,23.6635294 132.4,23.1317647 C129.6,22.3341176 128,22.7329412 126,23.6635294 C128.266667,23.6635294 129.733333,23.7964706 132,24.4611765 C133.2,24.86 136.533333,27.3858824 138.266667,30.7094118 C140.133333,34.0329412 140.933333,37.4894118 140.933333,37.3564706 C140.933333,37.3564706 141.866667,40.68 142.8,44.5352941 C143.733333,48.3905882 145.733333,52.2458824 146.533333,53.4423529 C148.133333,55.7023529 149.466667,56.8988235 151.466667,57.8294118 L151.466667,57.8294118 Z M136.266667,74.4470588 C135.2,73.1176471 134.533333,72.32 133.466667,70.8576471 C132.8,70.06 131.066667,67.5341176 130,64.8752941 C128.933333,62.2164706 128.4,59.6905882 128.533333,59.6905882 C128.533333,59.6905882 128,57.1647059 128,54.3729412 C128,51.5811765 128.266667,48.2576471 128.133333,47.1941176 C128,45.2 127.466667,44.0035294 126.4,42.6741176 C126.533333,44.4023529 126.533333,45.3329412 126.666667,47.1941176 C126.8,48.2576471 126.666667,51.3152941 126.533333,54.24 C126.533333,57.1647059 127.066667,59.8235294 127.066667,59.8235294 C127.066667,59.8235294 127.466667,62.4823529 128.666667,65.2741176 C129.866667,68.0658824 131.6,70.7247059 132.4,71.5223529 C133.6,73.2505882 134.8,73.9152941 136.266667,74.4470588 L136.266667,74.4470588 Z M30.8,45.7317647 L30.8,45.0670588 C30.8,44.9341176 30.8,44.9341176 30.6666667,44.9341176 L28.2666667,44.9341176 L28.2666667,43.6047059 L30.2666667,43.6047059 C30.4,43.6047059 30.4,43.6047059 30.4,43.4717647 L30.4,42.8070588 C30.4,42.6741176 30.2666667,42.6741176 30.2666667,42.6741176 L28.2666667,42.6741176 L28.2666667,41.3447059 L30.6666667,41.3447059 C30.8,41.3447059 30.8,41.2117647 30.8,41.2117647 L30.8,40.5470588 C30.8,40.4141176 30.8,40.4141176 30.6666667,40.4141176 L27.4666667,40.4141176 C27.3333333,40.4141176 27.3333333,40.5470588 27.3333333,40.5470588 L27.3333333,45.7317647 C27.3333333,45.8647059 27.3333333,45.8647059 27.4666667,45.8647059 L30.6666667,45.8647059 C30.6666667,45.8647059 30.8,45.7317647 30.8,45.7317647 L30.8,45.7317647 Z M33.8666667,45.0670588 C33.3333333,45.0670588 32.6666667,44.6682353 32.6666667,44.5352941 C32.5333333,44.5352941 32.4,44.5352941 32.4,44.5352941 L32.1333333,45.0670588 C32,45.2 32.1333333,45.2 32.1333333,45.3329412 C32.2666667,45.4658824 32.9333333,45.9976471 33.8666667,45.9976471 C34.9333333,45.9976471 35.7333333,45.2 35.7333333,44.4023529 C35.7333333,43.3388235 34.8,42.94 34.1333333,42.6741176 C33.4666667,42.4082353 33.2,42.1423529 33.2,41.7435294 C33.2,41.4776471 33.4666667,41.2117647 33.8666667,41.2117647 C34.2666667,41.2117647 34.9333333,41.6105882 34.9333333,41.6105882 C35.0666667,41.6105882 35.2,41.6105882 35.2,41.4776471 L35.4666667,41.0788235 C35.4666667,40.9458824 35.4666667,40.8129412 35.4666667,40.8129412 C35.3333333,40.68 34.6666667,40.2811765 33.8666667,40.2811765 C32.6666667,40.2811765 32.1333333,41.0788235 32.1333333,41.7435294 C32.1333333,42.6741176 32.9333333,43.0729412 33.6,43.4717647 C34.2666667,43.7376471 34.6666667,44.0035294 34.6666667,44.4023529 C34.6666667,44.8011765 34.2666667,45.0670588 33.8666667,45.0670588 L33.8666667,45.0670588 Z M36.9333333,41.3447059 L38.1333333,41.3447059 L38.1333333,45.7317647 C38.1333333,45.8647059 38.2666667,45.8647059 38.2666667,45.8647059 L38.9333333,45.8647059 C39.0666667,45.8647059 39.0666667,45.7317647 39.0666667,45.7317647 L39.0666667,41.3447059 L40.2666667,41.3447059 C40.4,41.3447059 40.4,41.2117647 40.4,41.2117647 L40.4,40.5470588 C40.4,40.4141176 40.4,40.4141176 40.2666667,40.4141176 L36.8,40.4141176 C36.6666667,40.4141176 36.6666667,40.5470588 36.6666667,40.5470588 L36.6666667,41.2117647 C36.8,41.2117647 36.8,41.3447059 36.9333333,41.3447059 L36.9333333,41.3447059 Z M42.2666667,41.0788235 L42.8,41.0788235 C43.4666667,41.0788235 43.8666667,41.6105882 43.8666667,42.1423529 C43.8666667,42.8070588 43.4666667,43.2058824 42.8,43.2058824 L42.2666667,43.2058824 L42.2666667,41.0788235 L42.2666667,41.0788235 Z M41.4666667,44.1364706 L42.8,44.1364706 C43.8666667,44.1364706 44.8,43.2058824 44.8,42.1423529 C44.8,41.0788235 43.8666667,40.1482353 42.8,40.1482353 L41.4666667,40.1482353 C41.4666667,40.1482353 41.3333333,40.1482353 41.3333333,40.2811765 L41.4666667,44.1364706 C41.4666667,44.0035294 41.4666667,44.1364706 41.4666667,44.1364706 L41.4666667,44.1364706 Z" id="Shape"></path>
                <polygon id="Path" points="41.2 45.8647059 44.5333333 45.8647059 44.5333333 45.3329412 41.2 45.3329412"></polygon>
            </g>
        </g>
    </g>
</svg>