<?xml version="1.0" encoding="UTF-8"?>
<svg width="212px" height="113px" viewBox="0 0 212 113" version="1.1" xmlns="http://www.w3.org/2000/svg" xmlns:xlink="http://www.w3.org/1999/xlink">
    <!-- Generator: Sketch 55.2 (78181) - https://sketchapp.com -->
    <title>banner text</title>
    <desc>Created with Sketch.</desc>
    <g id="Drunk-Elephant_phone" stroke="none" stroke-width="1" fill="none" fill-rule="evenodd">
        <g id="Phone_index-轉外框" transform="translate(-99.000000, -198.000000)" fill="#F12E9C" fill-rule="nonzero">
            <path d="M145.552,203.954 L145.552,209.258 L120.613,209.258 L120.613,203.954 L130.15,203.954 C129.793,202.577 129.334,201.2 128.824,199.925 L134.434,198.599 C135.148,200.231 135.964,202.322 136.321,203.954 L145.552,203.954 Z M105.058,230.576 L112.81,230.576 L112.81,234.86 L105.058,234.86 L105.058,230.576 Z M109.648,210.482 L109.648,205.535 L108.067,205.535 L108.067,210.482 L109.648,210.482 Z M113.932,223.283 L113.932,215.378 L112.402,215.378 L112.402,222.518 C112.402,223.181 112.504,223.283 112.861,223.283 L113.932,223.283 Z M103.834,238.328 L113.932,238.328 L113.932,226.19 L112.504,226.19 C110.26,226.19 109.648,225.527 109.648,222.62 L109.648,215.378 L108.067,215.378 L108.067,219.764 C108.067,222.569 107.608,226.241 105.415,228.791 C105.058,228.383 104.395,227.771 103.834,227.312 L103.834,238.328 Z M105.415,215.378 L103.834,215.378 L103.834,226.241 C105.262,224.201 105.415,221.753 105.415,219.713 L105.415,215.378 Z M99.04,205.535 L99.04,200.792 L118.879,200.792 L118.879,205.535 L113.371,205.535 L113.371,210.482 L118.267,210.482 L118.267,245.366 L113.932,245.366 L113.932,242.969 L103.834,242.969 L103.834,246.029 L99.754,246.029 L99.754,210.482 L104.395,210.482 L104.395,205.535 L99.04,205.535 Z M132.649,218.846 L129.844,223.487 C129.181,222.569 128.059,221.447 126.886,220.325 C125.764,222.926 124.387,225.221 122.806,226.955 C122.092,225.986 120.307,224.099 119.236,223.232 C122.092,220.019 124.081,214.919 125.101,209.615 L129.997,210.635 C129.64,212.267 129.283,213.797 128.773,215.327 C130.303,216.551 131.833,217.877 132.649,218.846 Z M135.505,225.425 L135.505,229.301 L146.062,229.301 L146.062,234.707 L135.505,234.707 L135.505,246.488 L129.742,246.488 L129.742,234.707 L119.848,234.707 L119.848,229.301 L129.742,229.301 L129.742,225.119 L134.026,225.119 C133.159,224.15 132.088,222.977 131.272,222.365 C134.077,219.305 136.015,214.613 136.984,209.615 L141.931,210.686 C141.523,212.471 141.064,214.205 140.452,215.888 C142.645,218.081 144.889,220.58 146.062,222.365 L142.594,226.139 C141.727,224.711 140.095,222.671 138.412,220.733 C137.596,222.467 136.576,224.048 135.505,225.425 Z M201.113,213.644 L196.421,216.551 C196.013,215.633 195.401,214.562 194.636,213.389 C178.265,214.766 175.868,215.021 174.287,215.633 C173.93,214.562 172.961,211.91 172.247,210.533 C173.165,210.278 174.083,209.564 175.001,208.391 C175.97,207.269 178.928,203.138 180.56,199.007 L186.884,200.435 C185.099,203.699 182.702,206.963 180.356,209.717 L191.321,208.901 C190.352,207.626 189.332,206.402 188.312,205.331 L192.596,202.781 C195.809,205.994 199.481,210.431 201.113,213.644 Z M160.058,224.354 L171.737,224.354 C171.737,224.354 171.686,225.935 171.584,226.7 C170.972,237.716 170.258,242.357 168.779,243.989 C167.708,245.366 166.484,245.825 164.852,246.029 C163.424,246.233 161.129,246.233 158.63,246.131 C158.528,244.448 157.865,242.102 156.947,240.623 C158.987,240.827 161.078,240.827 161.996,240.827 C162.812,240.827 163.22,240.725 163.73,240.215 C164.546,239.348 165.107,236.492 165.566,229.76 L153.734,229.76 C154.601,225.374 155.366,218.438 155.774,212.981 L165.566,212.981 L165.566,206.963 L154.805,206.963 L154.805,201.455 L171.176,201.455 L171.176,218.489 L160.67,218.489 C160.466,220.478 160.262,222.467 160.058,224.354 Z M188.873,238.583 L193.004,238.328 C192.392,237.206 191.729,236.033 191.168,235.064 L195.809,233.126 L188.873,233.126 L188.873,238.583 Z M178.724,228.281 L183.161,228.281 L183.161,223.538 L178.724,223.538 L178.724,228.281 Z M193.412,223.538 L188.873,223.538 L188.873,228.281 L193.412,228.281 L193.412,223.538 Z M201.929,244.397 L196.523,246.692 C196.268,245.825 195.962,244.805 195.503,243.632 C187.19,244.295 178.622,244.958 172.349,245.366 L171.635,239.45 C174.848,239.348 178.826,239.144 183.161,238.889 L183.161,233.126 L173.471,233.126 L173.471,218.642 L183.161,218.642 L183.161,214.562 L188.873,214.562 L188.873,218.642 L198.869,218.642 L198.869,233.126 L196.217,233.126 C198.512,236.696 201.062,241.286 201.929,244.397 Z M240.915,216.194 L240.915,214.46 L235.56,214.46 L235.56,216.194 L240.915,216.194 Z M240.915,220.937 L240.915,219.203 L235.56,219.203 L235.56,220.937 L240.915,220.937 Z M240.915,225.782 L240.915,223.946 L235.56,223.946 L235.56,225.782 L240.915,225.782 Z M234.693,207.932 L234.744,205.79 L227.706,205.79 L227.706,201.302 L234.744,201.302 L234.744,198.803 L240.048,198.803 L240.048,208.187 L235.662,208.187 L236.886,208.493 C236.58,209.258 236.274,210.074 235.917,210.839 L240.405,210.839 C240.15,210.023 239.895,209.156 239.64,208.442 L243.873,207.422 L243.873,198.803 L249.228,198.803 L249.228,201.251 L255.96,201.251 L255.96,205.739 L249.228,205.739 L249.228,208.187 L245.454,208.187 C245.76,209.003 246.066,209.972 246.321,210.839 L254.685,210.839 L254.685,214.46 L245.964,214.46 L245.964,216.194 L253.308,216.194 L253.308,219.203 L245.964,219.203 L245.964,220.937 L253.308,220.937 L253.308,223.946 L245.964,223.946 L245.964,225.782 L255.705,225.782 L255.705,229.301 L235.56,229.301 L235.56,230.066 L230.562,230.066 L230.562,219.662 C230.001,220.376 229.389,221.039 228.777,221.6 C228.216,220.631 226.788,218.336 225.87,217.214 L225.87,218.897 L210.876,218.897 L210.876,214.307 L225.87,214.307 L225.87,217.01 C228.369,214.562 230.715,210.89 232.041,207.116 L234.693,207.932 Z M210.876,225.731 L210.876,221.141 L225.87,221.141 L225.87,225.731 L210.876,225.731 Z M227.604,207.218 L227.604,212.012 L208.683,212.012 L208.683,207.218 L217.251,207.218 C216.486,205.28 215.211,202.73 214.038,200.792 L218.577,198.599 C219.954,200.69 221.484,203.495 222.3,205.382 L218.985,207.218 L227.604,207.218 Z M245.964,234.911 L238.11,234.911 C239.079,235.931 240.354,236.849 241.833,237.614 C243.414,236.849 244.791,235.931 245.964,234.911 Z M221.076,238.736 L221.076,233.024 L215.721,233.024 L215.721,238.736 L221.076,238.736 Z M250.86,230.627 L254.43,232.31 C252.747,235.37 250.401,237.818 247.443,239.909 C250.248,240.725 253.512,241.286 256.878,241.592 C255.705,242.765 254.226,245.009 253.563,246.386 C249.075,245.774 245.097,244.652 241.68,243.02 C237.702,244.652 233.265,245.774 228.624,246.488 C228.216,245.162 227.094,243.02 226.125,241.796 L226.125,243.632 L215.721,243.632 L215.721,245.774 L210.774,245.774 L210.774,228.179 L226.125,228.179 L226.125,241.745 C229.695,241.337 233.265,240.725 236.376,239.756 C234.846,238.532 233.52,237.104 232.347,235.523 L234.285,234.911 L228.726,234.911 L228.726,230.831 L249.942,230.831 L250.86,230.627 Z M304.942,230.984 L304.942,241.745 C304.942,244.091 304.483,244.907 302.953,245.57 C301.474,246.131 299.281,246.131 296.476,246.131 C296.17,244.907 295.507,243.53 294.946,242.408 C296.374,242.51 297.955,242.51 298.414,242.459 C298.924,242.459 299.128,242.306 299.128,241.796 L299.128,240.623 C294.283,241.439 289.54,242.255 285.562,242.867 L284.338,239.042 C287.143,238.838 290.917,238.481 294.946,238.073 C292.243,237.206 288.214,236.288 285.001,235.829 L286.276,233.483 C289.897,233.891 294.844,234.911 297.445,235.778 L296.476,237.869 L299.128,237.614 L299.128,233.483 L284.134,233.483 L284.134,236.339 C284.134,240.062 283.522,244.295 280.156,246.998 C279.187,245.978 276.637,244.04 275.362,243.326 C278.116,241.184 278.422,238.634 278.422,236.186 L278.422,230.984 L304.942,230.984 Z M281.176,225.986 L281.176,227.414 L288.622,227.414 L288.622,225.986 L281.176,225.986 Z M281.176,222.263 L281.176,223.742 L288.622,223.742 L288.622,222.263 L281.176,222.263 Z M301.678,223.742 L301.678,222.263 L294.079,222.263 L294.079,223.742 L301.678,223.742 Z M301.678,227.414 L301.678,225.986 L294.079,225.986 L294.079,227.414 L301.678,227.414 Z M275.719,229.76 L275.719,219.917 L307.492,219.917 L307.492,229.76 L275.719,229.76 Z M291.682,215.327 L301.882,215.327 C303.871,215.327 307.594,215.123 308.767,214.868 C308.92,216.398 309.022,217.367 309.226,218.489 C307.9,218.846 305.044,218.897 302.647,218.897 L290.458,218.897 C285.664,218.897 284.287,217.367 284.083,214.511 L275.566,214.766 L275.515,212.114 L284.032,211.859 L284.032,210.227 L273.832,210.227 L273.832,219.407 C273.832,227.21 273.118,238.736 268.732,246.131 C267.61,245.162 265.009,243.632 263.53,243.071 C267.61,236.288 267.967,226.394 267.967,219.356 L267.967,206.3 L284.032,206.3 L284.032,198.701 L290.152,198.701 L290.152,200.996 L306.268,200.996 L306.268,204.77 L290.152,204.77 L290.152,206.3 L304.84,206.3 L305.809,206.045 L310.297,207.167 C309.379,209.819 308.155,212.726 307.084,214.562 L301.984,212.93 C302.341,212.216 302.698,211.247 303.004,210.227 L289.438,210.227 L289.438,211.655 L300.709,211.298 L300.76,213.95 L289.489,214.307 C289.642,214.97 290.203,215.276 291.682,215.327 Z M121.735,271.575 L117.043,272.901 C116.533,270.606 115.564,267.138 114.901,264.435 L119.491,263.415 C120.205,266.016 121.174,269.382 121.735,271.575 Z M122.194,286.059 L124.387,286.824 C123.622,291.516 122.347,296.514 120.664,300.441 C121.531,300.951 122.449,301.665 123.673,302.481 C126.376,304.164 129.691,304.674 134.077,304.674 C137.494,304.674 143.104,304.368 146.827,303.858 C146.317,305.337 145.501,308.04 145.45,309.519 C142.747,309.723 137.443,309.927 133.975,309.927 C129.13,309.927 125.917,309.111 122.908,307.275 C121.072,306.051 119.542,304.572 118.471,304.572 C117.349,304.572 115.513,307.836 114.187,310.692 L110.515,305.439 C112.351,303.297 114.187,301.512 115.972,300.543 C117.145,297.84 118.114,294.27 118.828,290.802 L114.799,290.802 L114.799,290.904 C114.799,294.015 114.136,296.259 112.657,297.381 C111.943,297.942 111.025,298.299 110.005,298.401 C109.138,298.554 107.965,298.554 106.945,298.503 C106.894,297.228 106.486,295.341 105.721,294.015 C106.639,294.117 107.353,294.117 107.914,294.066 C108.424,294.066 108.934,293.964 109.291,293.658 C109.954,293.199 110.158,291.873 110.158,290.343 C110.158,287.844 109.495,284.427 106.639,280.653 C107.659,277.491 108.628,273.462 109.444,270.198 L105.211,270.198 L105.211,310.284 L100.417,310.284 L100.417,264.792 L111.229,264.792 L111.943,264.639 L115.36,266.526 C114.085,270.759 112.504,276.012 111.076,280.092 C113.524,283.407 114.442,286.569 114.697,289.17 C115.615,286.416 116.584,282.897 117.4,279.531 L113.728,279.531 L113.728,274.686 L122.194,274.686 C123.673,273.36 125.05,271.83 126.172,270.045 L122.755,270.045 L122.755,266.169 L128.11,266.169 C128.569,265.047 128.977,263.823 129.283,262.65 L134.077,263.568 C133.822,264.435 133.567,265.302 133.261,266.169 L145.858,266.169 L145.858,270.045 L131.629,270.045 C131.272,270.81 130.864,271.524 130.456,272.238 L144.328,272.238 L144.328,275.553 L138.922,275.553 L138.922,277.95 L145.45,277.95 L145.45,281.265 L126.733,281.265 L126.733,277.95 L133.771,277.95 L133.771,275.553 L129.946,275.553 L129.946,273.054 C128.161,275.808 126.019,278.205 123.469,279.99 C123.214,279.531 122.806,278.766 122.296,278.001 C121.582,280.806 120.817,283.611 120.052,286.212 L121.429,286.212 L122.194,286.059 Z M136.984,292.995 L139.228,292.689 L139.228,286.569 L130.354,286.569 L130.354,290.394 C130.354,291.465 130.303,292.689 130.252,293.964 C132.037,293.76 134.077,293.454 136.321,293.097 C134.893,292.077 132.649,290.598 130.813,289.629 L132.955,286.875 C135.097,287.895 137.596,289.068 138.973,290.088 L136.984,292.995 Z M144.379,283.152 L144.379,298.707 C144.379,300.9 143.92,301.767 142.492,302.43 C141.115,303.042 139.024,303.042 136.219,303.042 C135.964,301.869 135.352,300.39 134.842,299.319 C136.321,299.421 138.055,299.421 138.514,299.421 C139.024,299.37 139.228,299.217 139.228,298.758 L139.228,296.208 C136.372,297.024 133.72,297.738 131.221,298.401 L130.15,295.188 C129.844,297.993 129.283,300.849 128.11,302.94 C127.294,302.124 125.05,300.645 123.928,300.135 C125.458,297.177 125.509,293.352 125.509,290.292 L125.509,283.152 L144.379,283.152 Z M189.026,303.042 L201.062,303.042 L201.062,308.805 L169.34,308.805 L169.34,303.042 L182.957,303.042 L182.957,292.842 L173.114,292.842 L173.114,287.181 L182.957,287.181 L182.957,278.817 L177.347,278.817 C176.582,281.469 175.562,283.917 174.491,285.855 C173.267,285.09 170.513,283.713 169.085,283.101 C169.595,282.183 170.105,281.214 170.615,280.143 L167.708,281.469 C167.402,279.939 166.637,277.695 165.77,275.604 L165.77,310.437 L159.701,310.437 L159.701,273.972 C159.395,278.256 158.579,283.866 157.406,287.487 L152.918,285.855 C154.142,282.489 155.06,276.777 155.417,272.595 L159.701,273.207 L159.701,262.803 L165.77,262.803 L165.77,272.442 L168.728,271.218 C169.748,273.207 170.819,275.655 171.533,277.644 C172.808,273.921 173.726,269.535 174.236,265.2 L180.152,266.016 C179.795,268.413 179.387,270.81 178.877,273.105 L182.957,273.105 L182.957,263.109 L189.026,263.109 L189.026,273.105 L199.43,273.105 L199.43,278.817 L189.026,278.817 L189.026,287.181 L198.359,287.181 L198.359,292.842 L189.026,292.842 L189.026,303.042 Z M239.334,292.74 L239.334,295.851 L249.126,295.851 L249.126,292.74 L239.334,292.74 Z M239.334,285.396 L239.334,288.507 L249.126,288.507 L249.126,285.396 L239.334,285.396 Z M239.334,278.103 L239.334,281.163 L249.126,281.163 L249.126,278.103 L239.334,278.103 Z M216.741,293.505 L216.741,295.647 L225.309,295.647 L225.309,293.505 L216.741,293.505 Z M225.309,277.134 L216.741,277.134 L216.741,279.531 L225.309,279.531 L225.309,277.134 Z M216.741,288.201 L216.741,290.445 L225.309,290.445 L225.309,288.201 L216.741,288.201 Z M225.309,285.09 L225.309,282.642 L216.741,282.642 L216.741,285.09 L225.309,285.09 Z M254.583,300.339 L238.365,300.339 L243.108,303.348 C240.813,305.949 236.784,308.856 233.571,310.437 C232.755,309.519 231.327,308.091 230.154,307.122 L228.012,308.703 C226.89,307.224 224.391,304.725 222.453,303.042 L226.023,300.492 L216.282,300.492 L220.209,302.991 C218.118,305.643 214.65,308.703 211.794,310.437 C210.876,309.315 209.193,307.734 207.969,306.714 C210.468,305.235 213.324,302.685 215.007,300.492 L208.683,300.492 L208.683,295.647 L211.743,295.647 L211.743,273.615 L217.812,273.615 C217.965,272.901 218.067,272.136 218.22,271.32 L209.652,271.32 L209.652,266.73 L218.883,266.73 C219.087,265.302 219.189,263.925 219.291,262.701 L225.003,262.956 C224.799,264.18 224.544,265.455 224.289,266.73 L231.99,266.73 L231.99,271.32 L223.32,271.32 L222.861,273.615 L230.562,273.615 L230.562,295.647 L232.908,295.647 L232.908,300.492 L227.043,300.492 C228.777,301.971 230.919,303.807 232.143,305.235 C234.489,303.756 236.784,301.92 238.11,300.339 L234.081,300.339 L234.081,273.615 L240.609,273.615 C240.813,272.442 241.017,271.167 241.119,269.943 L232.755,269.943 L232.755,264.843 L255.807,264.843 L255.807,269.943 L247.188,269.943 C246.831,271.218 246.525,272.442 246.117,273.615 L254.583,273.615 L254.583,300.339 Z M244.842,303.45 L249.279,300.594 C251.829,302.481 255.246,305.286 256.929,307.224 L252.186,310.437 C250.656,308.499 247.341,305.541 244.842,303.45 Z M298.873,301.512 L289.948,301.512 C291.427,302.226 293.11,302.889 294.946,303.45 C296.374,302.889 297.7,302.277 298.873,301.512 Z M288.214,296.769 L283.267,296.769 C283.879,297.432 284.542,298.044 285.256,298.656 C286.276,298.044 287.296,297.432 288.214,296.769 Z M288.163,292.689 L288.163,294.117 L301.627,294.117 L301.627,292.689 L288.163,292.689 Z M288.163,288.762 L288.163,290.139 L301.627,290.139 L301.627,288.762 L288.163,288.762 Z M273.067,273.258 L273.067,275.247 L278.728,275.247 L278.728,273.258 L273.067,273.258 Z M284.134,268.158 L284.134,269.688 L290.203,269.688 L290.203,268.158 L284.134,268.158 Z M302.137,273.258 L295.864,273.258 L295.864,275.247 L302.137,275.247 L302.137,273.258 Z M284.134,275.247 L290.203,275.247 L290.203,273.258 L284.134,273.258 L284.134,275.247 Z M303.973,297.993 L307.135,299.727 C305.605,301.869 303.514,303.603 301.066,304.98 C304.126,305.541 307.339,305.949 310.705,306.204 C309.736,307.224 308.512,309.111 307.951,310.335 C303.157,309.825 298.669,308.958 294.64,307.734 C289.897,309.213 284.389,310.029 278.677,310.488 C278.269,309.315 277.351,307.632 276.586,306.612 C280.666,306.408 284.695,305.949 288.316,305.235 C287.143,304.623 285.97,304.062 284.95,303.348 C283.624,303.96 282.247,304.419 280.819,304.878 C280.156,304.011 278.779,302.328 277.861,301.614 C278.983,301.257 280.105,300.849 281.227,300.441 C280.36,299.676 279.595,298.86 278.932,297.993 L283.012,296.463 L283.165,296.616 L283.165,289.374 C282.502,290.088 281.788,290.7 281.125,291.261 C280.564,290.649 279.595,289.833 278.677,289.017 C277.657,290.496 276.484,291.873 275.209,293.301 L275.209,310.386 L269.905,310.386 L269.905,298.299 C268.834,299.166 267.712,299.931 266.641,300.645 C265.876,299.574 264.346,297.738 263.428,296.82 C267.61,294.321 272.047,290.088 274.138,286.467 L277.249,287.487 C280.207,285.345 282.706,282.183 284.236,278.817 L267.61,278.817 L267.61,269.688 L278.728,269.688 L278.728,268.158 L265.213,268.158 L265.213,264.078 L309.787,264.078 L309.787,268.158 L295.864,268.158 L295.864,269.688 L307.951,269.688 L307.951,278.817 L286.378,278.817 L289.591,279.684 C289.438,280.092 289.234,280.5 289.03,280.908 L309.277,280.908 L309.277,284.784 L286.786,284.784 C286.48,285.243 286.174,285.702 285.868,286.11 L306.829,286.11 L306.829,296.769 L294.487,296.769 C294.079,297.228 293.62,297.687 293.161,298.146 L303.004,298.146 L303.973,297.993 Z M272.863,278.919 L278.167,280.653 C275.413,284.427 271.129,288.252 267.1,290.496 C266.233,289.425 264.601,287.64 263.53,286.773 C267.151,284.937 271.078,281.673 272.863,278.919 Z" id="banner-text"></path>
        </g>
    </g>
</svg>