<?xml version="1.0" encoding="UTF-8"?>
<svg width="321px" height="99px" viewBox="0 0 321 99" version="1.1" xmlns="http://www.w3.org/2000/svg" xmlns:xlink="http://www.w3.org/1999/xlink">
    <title>DRUNKELEPHANT</title>
    <g id="Drunk-Elephant_phone" stroke="none" stroke-width="1" fill="none" fill-rule="evenodd" opacity="0.660714286">
        <g id="Phone_獨特之處_btn_轉外框" transform="translate(-27.000000, -120.000000)" fill="#FFEBFD" fill-rule="nonzero">
            <path d="M45.3193359,120.12207 C49.6715712,120.12207 53.5623201,121.079092 56.9916992,122.993164 C60.4210783,124.907236 63.104157,127.578922 65.0410156,131.008301 C66.9778743,134.43768 67.9462891,138.328429 67.9462891,142.680664 C67.9462891,147.010113 66.9892674,150.866682 65.0751953,154.250488 C63.1611232,157.634294 60.4894377,160.2718 57.0600586,162.163086 C53.6306795,164.054371 49.7171444,165 45.3193359,165 L27.9560547,165 L27.9560547,120.12207 L45.3193359,120.12207 Z M44.4990234,156.728516 C48.7373259,156.728516 52.1039914,155.44679 54.5991211,152.883301 C57.0942508,150.319811 58.3417969,146.918967 58.3417969,142.680664 C58.3417969,138.396788 57.0828576,134.944675 54.5649414,132.324219 C52.0470252,129.703763 48.6917527,128.393555 44.4990234,128.393555 L37.0820312,128.393555 L37.0820312,156.728516 L44.4990234,156.728516 Z M75.2607422,120.12207 L93.1367188,120.12207 C98.8333618,120.12207 103.12287,121.34683 106.005371,123.796387 C108.887872,126.245943 110.329102,129.783506 110.329102,134.40918 C110.329102,137.485367 109.645515,140.122873 108.27832,142.321777 C106.911126,144.520682 104.940117,146.155594 102.365234,147.226562 L110.705078,165 L100.485352,165 L93.2734375,148.764648 L84.3867188,148.764648 L84.3867188,165 L75.2607422,165 L75.2607422,120.12207 Z M93.1367188,140.834961 C95.7116014,140.834961 97.6256448,140.242519 98.8789062,139.057617 C100.132168,137.872715 100.758789,136.346038 100.758789,134.477539 C100.758789,132.563467 100.126471,131.014003 98.8618164,129.829102 C97.5971616,128.6442 95.6888148,128.051758 93.1367188,128.051758 L84.3867188,128.051758 L84.3867188,140.834961 L93.1367188,140.834961 Z M117.746094,120.12207 L126.837891,120.12207 L126.837891,148.183594 C126.837891,151.3965 127.760733,153.777662 129.606445,155.327148 C131.452158,156.876635 133.844712,157.651367 136.78418,157.651367 C139.90594,157.651367 142.35546,156.848153 144.132812,155.241699 C145.910165,153.635246 146.798828,151.282568 146.798828,148.183594 L146.798828,120.12207 L155.890625,120.12207 L155.890625,148.55957 C155.890625,152.250995 155.076017,155.401191 153.446777,158.010254 C151.817537,160.619316 149.567397,162.590325 146.696289,163.92334 C143.825181,165.256354 140.521178,165.922852 136.78418,165.922852 C130.99639,165.922852 126.376482,164.390478 122.924316,161.325684 C119.472151,158.26089 117.746094,154.005561 117.746094,148.55957 L117.746094,120.12207 Z M202.511719,120.12207 L202.511719,165 L194.035156,165 L174.450195,135.878906 L174.450195,165 L165.392578,165 L165.392578,120.12207 L173.869141,120.12207 L193.556641,149.448242 L193.556641,120.12207 L202.511719,120.12207 Z M234.777344,139.433594 L250.226562,165 L239.254883,165 L228.522461,147.226562 L221.481445,156.044922 L221.481445,165.136719 L212.355469,165.136719 L212.355469,120.12207 L221.481445,120.12207 L221.481445,141.962891 L238.913086,120.12207 L250.226562,120.12207 L234.777344,139.433594 Z M37.0136719,182.393555 L37.0136719,192.408203 L54.9238281,192.408203 L54.9238281,200.303711 L37.0136719,200.303711 L37.0136719,210.728516 L57.0771484,210.728516 L57.0771484,219 L27.9560547,219 L27.9560547,174.12207 L57.0771484,174.12207 L57.0771484,182.393555 L37.0136719,182.393555 Z M93.1708984,210.796875 L93.1708984,219 L65.5878906,219 L65.5878906,174.12207 L74.7822266,174.12207 L74.7822266,210.796875 L93.1708984,210.796875 Z M108.791016,182.393555 L108.791016,192.408203 L126.701172,192.408203 L126.701172,200.303711 L108.791016,200.303711 L108.791016,210.728516 L128.854492,210.728516 L128.854492,219 L99.7333984,219 L99.7333984,174.12207 L128.854492,174.12207 L128.854492,182.393555 L108.791016,182.393555 Z M155.993164,174.12207 C160.801131,174.12207 164.583645,175.455065 167.34082,178.121094 C170.097996,180.787123 171.476562,184.39874 171.476562,188.956055 C171.476562,191.895523 170.855638,194.487456 169.61377,196.731934 C168.371901,198.976411 166.571789,200.730951 164.213379,201.995605 C161.854969,203.26026 159.069352,203.892578 155.856445,203.892578 L146.491211,203.892578 L146.491211,219 L137.365234,219 L137.365234,174.12207 L155.993164,174.12207 Z M154.181641,196.03125 C156.756523,196.03125 158.693353,195.330573 159.992188,193.929199 C161.291022,192.527825 161.94043,190.801768 161.94043,188.750977 C161.94043,186.973624 161.302415,185.42416 160.026367,184.102539 C158.750319,182.780918 156.847669,182.120117 154.318359,182.120117 L146.491211,182.120117 L146.491211,196.03125 L154.181641,196.03125 Z M178.141602,174.12207 L187.267578,174.12207 L187.267578,192.408203 L206.032227,192.408203 L206.032227,174.12207 L215.192383,174.12207 L215.192383,219 L206.032227,219 L206.032227,200.303711 L187.267578,200.303711 L187.267578,219 L178.141602,219 L178.141602,174.12207 Z M236.862305,174.12207 L245.885742,174.12207 L262.53125,219 L252.960938,219 L249.44043,209.19043 L233.136719,209.19043 L229.582031,219 L220.182617,219 L236.862305,174.12207 Z M246.808594,201.636719 L244.484375,195.074219 C243.777991,193.160147 243.145673,191.337248 242.587402,189.605469 C242.029131,187.873689 241.658855,186.700198 241.476562,186.084961 C241.29427,186.700198 240.861332,187.98762 240.177734,189.947266 C239.494137,191.906911 238.856123,193.638664 238.263672,195.142578 L235.802734,201.636719 L246.808594,201.636719 Z M305.22168,174.12207 L305.22168,219 L296.745117,219 L277.160156,189.878906 L277.160156,219 L268.102539,219 L268.102539,174.12207 L276.579102,174.12207 L296.266602,203.448242 L296.266602,174.12207 L305.22168,174.12207 Z M347.433594,182.393555 L333.898438,182.393555 L333.898438,219 L324.806641,219 L324.806641,182.393555 L311.237305,182.393555 L311.237305,174.12207 L347.433594,174.12207 L347.433594,182.393555 Z" id="DRUNKELEPHANT"></path>
        </g>
    </g>
</svg>