<?xml version="1.0" encoding="UTF-8"?>
<svg width="1555px" height="355px" viewBox="0 0 1555 355" version="1.1" xmlns="http://www.w3.org/2000/svg" xmlns:xlink="http://www.w3.org/1999/xlink">
    <!-- Generator: Sketch 55.2 (78181) - https://sketchapp.com -->
    <title>top 10 text</title>
    <desc>Created with Sketch.</desc>
    <defs>
        <path d="M564.962,108.634 C561.415316,105.26465 557.248024,102.427345 552.46,100.122 C547.671976,97.8166551 542.618027,96.664 537.298,96.664 C533.219313,96.664 529.451017,97.461992 525.993,99.058 C522.534983,100.654008 520.806,103.402647 520.806,107.304 C520.806,111.028019 522.712314,113.687992 526.525,115.284 C530.337686,116.880008 536.499957,118.653324 545.012,120.604 C549.977358,121.668005 554.986975,123.175324 560.041,125.126 C565.095025,127.076676 569.661313,129.647984 573.74,132.84 C577.818687,136.032016 581.099321,139.93331 583.582,144.544 C586.064679,149.15469 587.306,154.651968 587.306,161.036 C587.306,169.370708 585.62135,176.419638 582.252,182.183 C578.88265,187.946362 574.493694,192.601316 569.085,196.148 C563.676306,199.694684 557.6027,202.265992 550.864,203.862 C544.1253,205.458008 537.3867,206.256 530.648,206.256 C519.830613,206.256 509.235052,204.527017 498.861,201.069 C488.486948,197.610983 479.842035,192.5127 472.926,185.774 L497.398,159.972 C501.299353,164.228021 506.087305,167.774652 511.762,170.612 C517.436695,173.449348 523.465968,174.868 529.85,174.868 C533.396684,174.868 536.898983,174.025675 540.357,172.341 C543.815017,170.656325 545.544,167.686021 545.544,163.43 C545.544,159.351313 543.416021,156.336676 539.16,154.386 C534.903979,152.435324 528.254045,150.396011 519.21,148.268 C514.59931,147.203995 509.98869,145.785342 505.378,144.012 C500.76731,142.238658 496.644352,139.844682 493.009,136.83 C489.373648,133.815318 486.403345,130.091355 484.098,125.658 C481.792655,121.224644 480.64,115.904698 480.64,109.698 C480.64,101.71796 482.32465,94.9350279 485.694,89.349 C489.06335,83.7629721 493.407973,79.1966844 498.728,75.65 C504.048027,72.1033156 509.944301,69.4876751 516.417,67.803 C522.889699,66.1183249 529.317968,65.276 535.702,65.276 C545.632716,65.276 555.341619,66.8276512 564.829,69.931 C574.316381,73.0343489 582.340634,77.6893023 588.902,83.896 L564.962,108.634 Z M753.024,135.234 C753.024,146.051387 751.073353,155.848956 747.172,164.627 C743.270647,173.405044 737.9507,180.852969 731.212,186.971 C724.4733,193.089031 716.670711,197.83265 707.804,201.202 C698.937289,204.57135 689.450051,206.256 679.342,206.256 C669.411284,206.256 659.968378,204.57135 651.013,201.202 C642.057622,197.83265 634.255033,193.089031 627.605,186.971 C620.954967,180.852969 615.679353,173.405044 611.778,164.627 C607.876647,155.848956 605.926,146.051387 605.926,135.234 C605.926,124.416613 607.876647,114.663377 611.778,105.974 C615.679353,97.2846232 620.954967,89.9253635 627.605,83.896 C634.255033,77.8666365 642.057622,73.256016 651.013,70.064 C659.968378,66.871984 669.411284,65.276 679.342,65.276 C689.450051,65.276 698.937289,66.871984 707.804,70.064 C716.670711,73.256016 724.4733,77.8666365 731.212,83.896 C737.9507,89.9253635 743.270647,97.2846232 747.172,105.974 C751.073353,114.663377 753.024,124.416613 753.024,135.234 Z M710.996,135.234 C710.996,130.977979 710.286674,126.810687 708.868,122.732 C707.449326,118.653313 705.410013,115.062349 702.75,111.959 C700.089987,108.855651 696.809353,106.328676 692.908,104.378 C689.006647,102.427324 684.484692,101.452 679.342,101.452 C674.199308,101.452 669.677353,102.427324 665.776,104.378 C661.874647,106.328676 658.638346,108.855651 656.067,111.959 C653.495654,115.062349 651.545007,118.653313 650.215,122.732 C648.884993,126.810687 648.22,130.977979 648.22,135.234 C648.22,139.490021 648.884993,143.657313 650.215,147.736 C651.545007,151.814687 653.539987,155.494317 656.2,158.775 C658.860013,162.055683 662.140647,164.671324 666.042,166.622 C669.943353,168.572676 674.465308,169.548 679.608,169.548 C684.750692,169.548 689.272647,168.572676 693.174,166.622 C697.075353,164.671324 700.355987,162.055683 703.016,158.775 C705.676013,155.494317 707.670993,151.814687 709.001,147.736 C710.331007,143.657313 710.996,139.490021 710.996,135.234 Z M847.72,202 L847.72,0.904 L891.876,0.904 L891.876,202 L847.72,202 Z M1066.904,135.234 C1066.904,146.051387 1064.95335,155.848956 1061.052,164.627 C1057.15065,173.405044 1051.8307,180.852969 1045.092,186.971 C1038.3533,193.089031 1030.55071,197.83265 1021.684,201.202 C1012.81729,204.57135 1003.33005,206.256 993.222,206.256 C983.291284,206.256 973.848378,204.57135 964.893,201.202 C955.937622,197.83265 948.135033,193.089031 941.485,186.971 C934.834967,180.852969 929.559353,173.405044 925.658,164.627 C921.756647,155.848956 919.806,146.051387 919.806,135.234 C919.806,124.416613 921.756647,114.663377 925.658,105.974 C929.559353,97.2846232 934.834967,89.9253635 941.485,83.896 C948.135033,77.8666365 955.937622,73.256016 964.893,70.064 C973.848378,66.871984 983.291284,65.276 993.222,65.276 C1003.33005,65.276 1012.81729,66.871984 1021.684,70.064 C1030.55071,73.256016 1038.3533,77.8666365 1045.092,83.896 C1051.8307,89.9253635 1057.15065,97.2846232 1061.052,105.974 C1064.95335,114.663377 1066.904,124.416613 1066.904,135.234 Z M1024.876,135.234 C1024.876,130.977979 1024.16667,126.810687 1022.748,122.732 C1021.32933,118.653313 1019.29001,115.062349 1016.63,111.959 C1013.96999,108.855651 1010.68935,106.328676 1006.788,104.378 C1002.88665,102.427324 998.364692,101.452 993.222,101.452 C988.079308,101.452 983.557353,102.427324 979.656,104.378 C975.754647,106.328676 972.518346,108.855651 969.947,111.959 C967.375654,115.062349 965.425007,118.653313 964.095,122.732 C962.764993,126.810687 962.1,130.977979 962.1,135.234 C962.1,139.490021 962.764993,143.657313 964.095,147.736 C965.425007,151.814687 967.419987,155.494317 970.08,158.775 C972.740013,162.055683 976.020647,164.671324 979.922,166.622 C983.823353,168.572676 988.345308,169.548 993.488,169.548 C998.630692,169.548 1003.15265,168.572676 1007.054,166.622 C1010.95535,164.671324 1014.23599,162.055683 1016.896,158.775 C1019.55601,155.494317 1021.55099,151.814687 1022.881,147.736 C1024.21101,143.657313 1024.876,139.490021 1024.876,135.234 Z M1176.496,202 L1129.414,202 L1077.278,69.532 L1125.424,69.532 L1153.354,155.45 L1154.152,155.45 L1182.082,69.532 L1228.632,69.532 L1176.496,202 Z M1336.628,120.604 C1336.628,113.687965 1334.45569,107.747358 1330.111,102.782 C1325.76631,97.8166418 1319.24938,95.334 1310.56,95.334 C1306.30398,95.334 1302.40268,95.9989934 1298.856,97.329 C1295.30932,98.6590067 1292.20601,100.476655 1289.546,102.782 C1286.88599,105.087345 1284.75801,107.791651 1283.162,110.895 C1281.56599,113.998349 1280.67933,117.23465 1280.502,120.604 L1336.628,120.604 Z M1376.794,137.362 L1376.794,142.682 C1376.794,144.455342 1376.70533,146.139992 1376.528,147.736 L1280.502,147.736 C1280.85667,151.460019 1281.96499,154.829318 1283.827,157.844 C1285.68901,160.858682 1288.08299,163.474322 1291.009,165.691 C1293.93501,167.907678 1297.21565,169.63666 1300.851,170.878 C1304.48635,172.11934 1308.25465,172.74 1312.156,172.74 C1319.07203,172.74 1324.92398,171.454346 1329.712,168.883 C1334.50002,166.311654 1338.40132,162.986687 1341.416,158.908 L1371.74,178.06 C1365.5333,187.104045 1357.33172,194.064309 1347.135,198.941 C1336.93828,203.817691 1325.1014,206.256 1311.624,206.256 C1301.69328,206.256 1292.29471,204.704349 1283.428,201.601 C1274.56129,198.497651 1266.80303,193.975696 1260.153,188.035 C1253.50297,182.094304 1248.27169,174.779377 1244.459,166.09 C1240.64631,157.400623 1238.74,147.470056 1238.74,136.298 C1238.74,125.480613 1240.60198,115.683044 1244.326,106.905 C1248.05002,98.1269561 1253.10397,90.6790306 1259.488,84.561 C1265.87203,78.4429694 1273.40862,73.6993502 1282.098,70.33 C1290.78738,66.9606498 1300.18595,65.276 1310.294,65.276 C1320.04738,65.276 1329.00263,66.9163169 1337.16,70.197 C1345.31737,73.4776831 1352.32197,78.2213023 1358.174,84.428 C1364.02603,90.6346977 1368.59232,98.171289 1371.873,107.038 C1375.15368,115.904711 1376.794,126.01261 1376.794,137.362 Z M1504.208,202 L1504.208,184.71 L1503.676,184.71 C1499.41998,191.4487 1493.34637,196.635648 1485.455,200.271 C1477.56363,203.906352 1469.18471,205.724 1460.318,205.724 C1450.38728,205.724 1441.52071,203.773353 1433.718,199.872 C1425.91529,195.970647 1419.30969,190.783699 1413.901,184.311 C1408.49231,177.838301 1404.36935,170.346043 1401.532,161.834 C1398.69465,153.321957 1397.276,144.455379 1397.276,135.234 C1397.276,126.012621 1398.73899,117.190375 1401.665,108.767 C1404.59101,100.343625 1408.75831,92.9400319 1414.167,86.556 C1419.57569,80.1719681 1426.13696,75.1180186 1433.851,71.394 C1441.56504,67.6699814 1450.20995,65.808 1459.786,65.808 C1469.53938,65.808 1477.7853,67.6699814 1484.524,71.394 C1491.2627,75.1180186 1496.49398,79.1966445 1500.218,83.63 L1500.75,83.63 L1500.75,0.904 L1544.374,0.904 L1544.374,202 L1504.208,202 Z M1502.612,135.5 C1502.612,131.243979 1501.85834,127.076687 1500.351,122.998 C1498.84366,118.919313 1496.71568,115.284016 1493.967,112.092 C1491.21832,108.899984 1487.89335,106.328676 1483.992,104.378 C1480.09065,102.427324 1475.65736,101.452 1470.692,101.452 C1465.54931,101.452 1461.02735,102.427324 1457.126,104.378 C1453.22465,106.328676 1449.94401,108.855651 1447.284,111.959 C1444.62399,115.062349 1442.62901,118.653313 1441.299,122.732 C1439.96899,126.810687 1439.304,130.977979 1439.304,135.234 C1439.304,139.490021 1439.96899,143.701646 1441.299,147.869 C1442.62901,152.036354 1444.62399,155.715984 1447.284,158.908 C1449.94401,162.100016 1453.22465,164.671324 1457.126,166.622 C1461.02735,168.572676 1465.54931,169.548 1470.692,169.548 C1475.65736,169.548 1480.09065,168.572676 1483.992,166.622 C1487.89335,164.671324 1491.21832,162.100016 1493.967,158.908 C1496.71568,155.715984 1498.84366,152.080687 1500.351,148.002 C1501.85834,143.923313 1502.612,139.756021 1502.612,135.5 Z" id="path-1"></path>
        <path d="M27.39,141.12 L57.84,141.12 L57.84,162.12 L27.39,162.12 L27.39,141.12 Z M23.61,172.41 L61.83,172.41 L61.83,126 L57.63,126 C47.55,126 44.82,122.64 44.82,109.2 L44.82,81.9 L40.41,81.9 L40.41,100.38 C40.41,111.3 38.94,125.79 30.96,135.45 C29.49,133.56 26.34,130.83 23.61,128.94 L23.61,172.41 Z M27.81,81.9 L23.61,81.9 L23.61,122.85 C27.6,115.5 27.81,107.31 27.81,100.17 L27.81,81.9 Z M40.41,40.74 L40.41,57.54 L44.82,57.54 L44.82,40.74 L40.41,40.74 Z M61.83,111.93 L61.83,81.9 L57.84,81.9 L57.84,108.78 C57.84,111.72 58.26,111.93 59.52,111.93 L61.83,111.93 Z M63.09,40.74 L63.09,57.54 L83.04,57.54 L83.04,204.12 L61.83,204.12 L61.83,195.3 L23.61,195.3 L23.61,207.06 L3.45,207.06 L3.45,57.54 L22.56,57.54 L22.56,40.74 L0.93,40.74 L0.93,17.22 L85.14,17.22 L85.14,40.74 L63.09,40.74 Z M141.42,91.77 L127.56,115.08 C125.25,111.72 121.68,107.73 117.48,103.74 C112.86,113.61 107.61,122.22 101.73,129.15 C98.16,124.32 89.13,114.66 83.88,110.46 C95.22,97.44 102.99,76.86 106.98,55.86 L131.55,60.9 C130.29,66.78 128.82,72.87 126.93,78.54 C132.6,83.16 138.27,87.99 141.42,91.77 Z M195.6,29.4 L195.6,55.86 L90.6,55.86 L90.6,29.4 L127.35,29.4 C126.3,24.57 124.62,19.53 123.15,15.12 L151.29,8.4 C154.02,14.91 156.96,22.89 158.43,29.4 L195.6,29.4 Z M155.28,123.06 L155.28,135.24 L197.28,135.24 L197.28,162.33 L155.28,162.33 L155.28,208.95 L126.51,208.95 L126.51,162.33 L87.45,162.33 L87.45,135.24 L126.51,135.24 L126.51,119.07 L147.51,119.07 C143.52,114.66 138.69,109.62 135.33,106.89 C146.25,94.71 154.02,75.6 158.01,55.86 L182.58,61.11 C181.11,68.04 179.01,74.76 176.91,81.27 C185.31,89.88 194.13,99.75 198.54,106.89 L181.53,126 C178.38,120.33 172.71,112.98 166.62,105.63 C163.05,112.14 159.27,118.02 155.28,123.06 Z M332.78,107.73 L328.58,110.04 C336.56,115.71 342.86,121.8 347.9,128.1 C362.39,122.22 377.93,114.45 389.06,107.73 L332.78,107.73 Z M327.32,178.92 C332.15,175.98 334.88,169.89 334.04,161.91 C323.12,169.26 310.73,175.98 297.71,181.65 C303.59,182.07 309.26,182.28 313.67,182.28 C319.13,182.28 323.96,181.86 327.32,178.92 Z M329.42,44.31 L295.4,44.31 C292.67,47.25 289.73,50.19 286.79,52.92 L323.12,52.92 C325.43,50.19 327.53,47.25 329.42,44.31 Z M341.18,74.55 L341.18,86.1 L375.41,86.1 L375.41,74.55 L341.18,74.55 Z M284.48,86.1 L314.09,86.1 L314.09,74.55 L284.48,74.55 L284.48,86.1 Z M392.21,107.73 L415.52,125.37 C406.91,129.57 397.67,133.77 388.43,137.55 C396.62,153.09 410.27,169.05 429.17,176.61 C422.66,182.49 413,194.88 408.8,203.07 C387.17,191.1 372.26,168 363.44,147 L359.66,148.05 C368.27,170.73 361.97,192.36 346.22,201.6 C337.19,207.48 330.47,208.95 318.71,209.16 C313.25,209.16 306.95,208.95 300.44,208.53 C300.02,201.39 297.71,191.1 293.51,183.54 C278.39,190.05 262.64,195.51 247.94,199.29 C244.16,192.99 236.6,182.7 231.14,177.24 C264.74,170.52 303.17,156.66 325.01,141.54 C324.38,140.49 323.54,139.65 322.7,138.6 C301.49,150.57 274.4,160.23 249.83,165.48 C246.47,159.39 239.33,150.15 234.08,144.9 C259.28,141.12 287.42,133.56 306.95,124.32 C305.69,123.27 304.43,122.43 303.17,121.59 C287,127.89 269.57,133.14 254.45,136.29 C250.88,130.62 243.95,121.17 238.7,116.13 C251.93,114.24 266.63,111.3 280.49,107.73 L255.92,107.73 L255.92,76.86 L251.51,79.59 C247.1,72.66 237.65,62.37 231.14,57.96 C257.81,44.1 276.71,25.41 287.42,8.4 L318.92,14.91 C317.24,17.22 315.56,19.74 313.88,22.05 L346.22,22.05 L350.84,20.79 L371.63,34.44 C368.06,40.11 363.23,46.62 358.19,52.92 L405.65,52.92 L405.65,107.73 L392.21,107.73 Z" id="path-2"></path>
        <path d="M47.8,261.16 L47.8,272.44 L4.96,272.44 L4.96,261.16 L24.4,261.16 C22.6,256.72 19.6,250.72 17.08,246.16 L27.52,241.84 C30.64,246.76 34.36,253.6 36.16,257.8 L29.08,261.16 L47.8,261.16 Z M44.08,277.84 L44.08,288.64 L10.12,288.64 L10.12,277.84 L44.08,277.84 Z M10,304.72 L10,293.92 L43.96,293.92 L43.96,304.72 L10,304.72 Z M86.68,312.4 L76.48,312.4 L76.48,322.36 L86.68,322.36 L86.68,312.4 Z M97.12,332.2 L76.48,332.2 L76.48,337.72 L66.76,337.72 L66.76,302.44 L97.12,302.44 L97.12,332.2 Z M88.12,286 L101.32,286 L101.32,277.96 L88.12,277.96 L88.12,286 Z M63.64,277.96 L63.64,286 L76.6,286 L76.6,277.96 L63.64,277.96 Z M76.6,258.16 L63.64,258.16 L63.64,266.8 L76.6,266.8 L76.6,258.16 Z M101.32,266.8 L101.32,258.16 L88.12,258.16 L88.12,266.8 L101.32,266.8 Z M33.16,335.44 L33.16,322 L20.92,322 L20.92,335.44 L33.16,335.44 Z M112.96,245.68 L112.96,338.44 C112.96,344.44 111.88,347.8 108.28,349.96 C104.8,352 99.52,352.24 91.72,352.24 C91.24,348.88 89.68,343.48 88,340.36 C92.92,340.6 97.72,340.48 99.28,340.36 C100.84,340.36 101.32,339.88 101.32,338.2 L101.32,297.16 L63.64,297.16 C63.4,315.28 61.48,338.8 52.72,353.8 C50.68,351.88 45.64,348.04 43,346.84 L20.92,346.84 L20.92,351.52 L9.64,351.52 L9.64,310.48 L44.44,310.48 L44.44,344.08 C51.64,328.96 52.24,308.56 52.24,292.6 L52.24,245.68 L112.96,245.68 Z M269.96,242.32 L269.96,290.2 C269.96,296.32 268.76,299.2 264.44,301.12 C260.24,302.92 254.24,303.04 246.08,303.04 C245.36,299.56 243.44,294.88 241.88,291.76 C247.28,292 253.04,292 254.72,291.88 C256.4,291.88 257,291.4 257,289.84 L257,242.32 L269.96,242.32 Z M246.44,247.24 L246.44,286.84 L233.72,286.84 L233.72,247.24 L246.44,247.24 Z M258.56,317.2 L233.96,317.2 C236.36,320.92 239.36,324.04 242.6,326.92 C248.12,324.04 254.12,320.44 258.56,317.2 Z M177.08,262.96 L191.72,262.96 L191.72,258.16 L180.2,258.16 C179.24,259.84 178.16,261.52 177.08,262.96 Z M213.02,299.8 L209.24,299.8 C208.64,297.04 206.96,293.92 205.88,291.64 C208.64,291.76 211.4,291.76 212.24,291.76 C213.32,291.76 213.68,291.4 213.68,290.44 L213.68,285.4 L203.84,285.4 L203.84,303.04 L191.72,303.04 L191.72,285.4 L182.48,285.4 L182.48,300.28 L171.68,300.28 L171.68,276.76 L191.72,276.76 L191.72,272.56 L166.88,272.56 L166.88,262.96 L174.32,262.96 C171.92,261.52 168.8,259.72 166.76,258.76 C170.84,254.2 174.2,247.72 176.24,241.6 L186.68,244.24 C186.08,245.92 185.48,247.36 184.76,249.04 L191.72,249.04 L191.72,241.36 L203.84,241.36 L203.84,249.04 L223.64,249.04 L223.64,258.16 L203.84,258.16 L203.84,262.96 L226.88,262.96 L226.88,272.56 L203.84,272.56 L203.84,276.76 L225.08,276.76 L225.08,290.44 C225.08,293.44 224.72,295.48 223.52,296.8 L226.28,296.08 C228.08,298.96 229.76,302.68 230.96,305.92 L275,305.92 L275,317.2 L262.88,317.2 L270.92,323.2 C265.28,326.92 258.68,330.64 252.56,333.52 C259.52,336.88 267.56,339.28 277.04,340.6 C274.4,343.36 271.04,348.52 269.36,351.88 C245.12,347.2 230.12,336.4 221.12,317.92 C216.32,321.88 210.32,325.24 203.84,328.12 L203.84,338.8 L226.16,334.24 C225.56,337.36 225.2,342.4 225.2,344.92 C196.64,351.4 192.44,352.6 190.04,354.16 L189.92,353.08 C189.2,350.2 187.04,346 185.72,344.32 C187.88,342.64 191,339.64 191,333.52 L191,333.16 C185.12,335.08 178.88,336.52 172.76,337.6 C171.08,334.6 167.72,329.92 165.2,327.28 C178.28,325.48 191.84,322.12 202.16,317.2 L167.12,317.2 L167.12,305.92 L215.72,305.92 C214.88,303.76 213.92,301.72 212.96,299.8 L213.02,299.8 Z M349.68,241.84 L363.24,246.04 C360.12,254.32 356.28,262.72 351.84,270.64 L351.84,353.2 L338.16,353.2 L338.16,291.88 C335.52,295.48 332.76,298.72 330.12,301.6 C328.8,298 324.84,290.2 322.44,286.72 C333.24,275.92 343.68,258.88 349.68,241.84 Z M371.88,294.76 L385.8,297.64 C382.32,312.88 376.2,328 369.48,337.72 C366.72,335.44 360.72,331.84 357.24,330.04 C364.08,321.64 369.12,308.08 371.88,294.76 Z M421.8,276.04 L405.72,276.04 L405.72,337.48 C405.72,344.32 404.52,348.28 400.2,350.68 C396,352.96 390.24,353.56 382.56,353.56 C381.96,349.36 379.8,343 377.64,339.16 C382.68,339.28 387.72,339.28 389.4,339.28 C390.96,339.28 391.56,338.8 391.56,337.24 L391.56,276.04 L377.64,276.04 C374.28,283 370.32,289.36 366.36,294.4 C363.84,291.88 358.08,287.2 354.84,285.04 C363.96,274.84 371.16,258.28 375.24,241.84 L389.16,244.96 C387.6,251.08 385.68,256.96 383.52,262.84 L424.8,262.84 L427.08,262.36 L437.16,264.28 C435.72,274 433.68,285.16 432,292.12 L419.88,290.08 C420.48,286.36 421.2,281.32 421.8,276.04 Z M410.04,297.88 L422.76,293.56 C429,305.92 434.16,321.88 435.84,332.68 L422.16,337.36 C420.84,326.68 415.8,310.24 410.04,297.88 Z M503.08,328.48 L522.16,328.48 L522.16,304.96 L503.08,304.96 L503.08,328.48 Z M522.16,292.6 L522.16,273.16 L503.08,273.16 L503.08,292.6 L522.16,292.6 Z M560.2,259.84 L594.04,259.84 C594.04,259.84 594.04,264.64 593.92,266.32 C592.36,319.96 591.04,339.04 586.12,345.4 C582.76,349.84 579.4,351.16 574.6,352 C570.04,352.6 562.84,352.48 555.76,352.24 C555.52,348.28 553.6,342.28 551.08,338.32 C558.76,339.04 565.84,339.04 568.96,339.04 C571.36,339.04 572.68,338.56 574.24,337 C577.72,333.16 579.28,315.16 580.6,272.8 L554.92,272.8 C551.8,280 548.08,286.6 544.36,291.76 C542.44,289.96 538.36,287.2 535.12,285.04 L535.12,341.08 L503.08,341.08 L503.08,349.84 L490.12,349.84 L490.12,260.68 L503.68,260.68 C505.24,254.68 506.68,247 507.16,241.36 L522.76,243.52 C520.72,249.52 518.56,255.52 516.52,260.68 L535.12,260.68 L535.12,280.12 C542.08,270.04 547.84,255.52 551.32,241.48 L564.88,244.6 C563.68,249.76 562,254.8 560.2,259.84 Z M574.12,314.56 L562,322 C558.64,314.8 551.2,303.04 545.32,294.28 L556.48,287.92 C562.48,296.2 570.4,307.6 574.12,314.56 Z M707.72,298.72 L707.72,302.92 L722.84,302.8 C721.16,302.08 719.48,301.24 717.92,300.64 L720.32,298.72 L707.72,298.72 Z M672.56,289.96 L693.8,289.96 L693.8,285.4 L672.56,285.4 L672.56,289.96 Z M672.56,272.8 L672.56,277.24 L693.8,277.24 L693.8,272.8 L672.56,272.8 Z M730.04,272.8 L707.72,272.8 L707.72,277.24 L730.04,277.24 L730.04,272.8 Z M707.72,289.96 L730.04,289.96 L730.04,285.4 L707.72,285.4 L707.72,289.96 Z M755.6,316.72 L755.6,328 L728.84,328 L728.84,339.64 C728.84,346.24 727.64,349.6 722.72,351.52 C717.92,353.32 711.2,353.44 702.08,353.44 C701.48,349.6 699.68,344.56 698,340.96 C703.76,341.2 710.6,341.2 712.52,341.2 C714.44,341.08 715.04,340.72 715.04,339.16 L715.04,328 L681.2,328 C686.24,331.6 691.28,335.8 694.04,339.04 L683.48,348.16 C680,343.48 671.96,336.64 665.48,332.2 L670.52,328 L646.52,328 L646.52,316.72 L715.04,316.72 L715.04,312.28 C691.4,312.76 668.72,313.12 651.92,313.24 L651.56,303.04 C662.84,303.16 677.6,303.04 693.8,303.04 L693.8,298.72 L659.24,298.72 L659.24,264.16 L693.8,264.16 L693.8,259.84 L649.76,259.84 L649.76,249.04 L693.8,249.04 L693.8,241.48 L707.72,241.48 L707.72,249.04 L751.52,249.04 L751.52,259.84 L707.72,259.84 L707.72,264.16 L743.96,264.16 L743.96,298.72 L735.92,298.72 C741.92,301.84 747.56,305.44 751.4,308.32 L742.64,315.64 C741.2,314.44 739.52,313 737.6,311.68 L728.84,311.92 L728.84,316.72 L755.6,316.72 Z M877.44,271.24 L877.44,288.4 L864.36,288.4 L864.36,271.24 L877.44,271.24 Z M890.4,336.76 L886.44,336.76 C888.24,338.92 889.92,341.08 891.12,343.36 L893.76,343.36 C894.96,343.36 895.8,343.12 896.52,342.04 C897.84,340.36 898.8,334.36 899.52,318.28 L869.76,318.28 L869.76,321.64 L890.4,321.64 L890.4,336.76 Z M869.76,340.24 L877.44,339.88 C876.84,339.04 876.36,338.44 875.76,337.72 L878.16,336.76 L869.76,336.76 L869.76,340.24 Z M879.6,331.12 L879.6,327.28 L869.76,327.28 L869.76,331.12 L879.6,331.12 Z M847.68,331.12 L857.76,331.12 L857.76,327.28 L847.68,327.28 L847.68,331.12 Z M857.76,318.28 L848.04,318.28 C846.84,319.48 845.64,320.56 844.32,321.64 L857.76,321.64 L857.76,318.28 Z M828.84,269.56 L828.84,281.32 C828.84,292.48 828.36,306.64 826.2,320.44 C833.64,316.36 839.4,311.56 843.36,306.76 L833.52,306.76 L833.52,289.96 L835.92,289.96 L833.88,282.88 C838.92,282.04 845.76,280.96 853.08,279.52 C848.28,278.2 841.92,276.76 836.28,276.04 L838.32,269.8 C845.52,270.64 853.68,272.08 858.72,273.76 L856.68,278.92 L861.24,278.08 L861.36,285.16 C853.68,286.96 845.76,288.76 839.16,289.96 L901.44,289.96 C895.8,288.28 888,286.72 880.8,285.76 L882.84,279.64 L885.36,279.76 L882.6,274.12 C886.92,273.4 893.28,271.24 898.08,269.56 L828.84,269.56 Z M896.52,254.8 L828.84,254.8 L828.84,260.44 L896.52,260.44 L896.52,254.8 Z M896.16,301 L896.16,295.72 L885.96,295.72 L885.96,301 L896.16,301 Z M875.16,301 L875.16,295.72 L865.2,295.72 L865.2,301 L875.16,301 Z M854.4,301 L854.4,295.72 L844.68,295.72 L844.68,301 L854.4,301 Z M855.36,310.36 L912.6,310.36 C912.6,310.36 912.6,313.36 912.48,314.8 C911.52,337.12 910.32,345.64 907.68,348.88 C905.76,351.4 903.36,352.24 900.72,352.6 C898.2,353.08 894.12,353.08 889.92,352.96 C889.8,351.64 889.56,349.96 889.08,348.4 L883.92,350.56 C883.56,349.6 883.08,348.64 882.6,347.68 C864.12,349 845.04,350.2 831.24,351.04 L830.4,341.8 C837.84,341.56 847.32,341.08 857.76,340.6 L857.76,336.76 L837.48,336.76 L837.48,326.68 C835.92,327.76 834.24,328.84 832.68,329.8 C831.12,327.64 828.24,325 825.84,323.2 C823.92,334.12 821.16,344.56 816.6,353.08 C813.96,350.92 807.84,347.44 804.24,346.12 C814.2,327.64 815.04,300.4 815.04,281.32 L815.04,245.8 L910.44,245.8 L910.44,269.56 L902.16,269.56 L905.28,275.08 C899.4,277.36 891.36,278.92 885.72,279.88 C893.04,280.72 900.96,282.28 905.64,283.72 L903.36,289.96 L907.92,289.96 L907.92,306.76 L858,306.76 C857.16,307.96 856.32,309.16 855.36,310.36 Z M991.72,241.6 L1004.92,245.92 C1001.68,254.2 997.72,262.72 993.04,270.76 L993.04,353.08 L979.48,353.08 L979.48,291.4 C976.72,294.88 973.84,298.12 971.08,301.12 C969.76,297.64 965.8,289.96 963.4,286.48 C974.56,275.68 985.48,258.64 991.72,241.6 Z M1013.08,315.04 L1025.92,318.88 C1021,329.2 1013.68,340.84 1007.56,348.16 C1005.04,346 999.76,342.16 996.52,340.48 C1002.52,333.88 1009,323.92 1013.08,315.04 Z M1020.88,259.12 L1020.88,275.2 L1056.04,275.2 L1056.04,259.12 L1020.88,259.12 Z M1076.32,311.32 L1045.24,311.32 L1045.24,353.44 L1030.84,353.44 L1030.84,311.32 L999.52,311.32 L999.52,298.36 L1030.84,298.36 L1030.84,287.8 L1007.32,287.8 L1007.32,246.52 L1070.32,246.52 L1070.32,287.8 L1045.24,287.8 L1045.24,298.36 L1076.32,298.36 L1076.32,311.32 Z M1049.32,320.8 L1059.88,314.92 C1066.72,322.84 1074.04,333.16 1077.52,340.24 L1066.24,347.08 C1063,340 1055.68,328.96 1049.32,320.8 Z M1154.72,301.72 L1208,301.72 C1204.52,298.6 1201.28,295.24 1198.4,291.64 L1198.4,297.76 L1163.6,297.76 L1163.6,292.36 C1160.96,295.6 1157.84,298.72 1154.72,301.72 Z M1213.64,330.88 L1186.04,330.88 C1191.68,332.32 1198.04,334.12 1204.52,336.04 C1207.52,334.48 1210.64,332.68 1213.64,330.88 Z M1178.48,334.96 L1178.48,336.88 L1182.8,330.88 L1160.36,330.88 L1160.36,338.2 L1178.48,334.96 Z M1160.36,319.48 L1160.36,323.32 L1199.48,323.32 L1199.48,319.48 L1160.36,319.48 Z M1160.36,309.28 L1160.36,313 L1199.48,313 L1199.48,309.28 L1160.36,309.28 Z M1195.28,287.32 L1167.2,287.32 L1164.68,290.92 L1197.8,290.92 C1196.96,289.72 1196,288.52 1195.28,287.32 Z M1234.04,287.32 L1210.52,287.32 C1217.72,294.4 1227.56,300.04 1238,303.28 C1234.88,305.92 1230.92,310.96 1228.88,314.44 C1223.6,312.4 1218.68,309.64 1214,306.4 L1214,330.64 C1217.24,328.72 1220.12,326.92 1222.52,325.12 L1231.76,332.32 C1227.08,334.84 1221.8,337.48 1216.88,339.64 C1222.52,341.44 1227.56,343.12 1231.52,344.56 L1225.52,354.16 C1214.96,350.08 1194.08,343.12 1178.6,338.92 C1178.84,341.32 1179.08,343.72 1179.32,345.4 C1152.32,351.04 1148.12,352.24 1145.36,353.92 C1144.4,350.8 1141.64,344.92 1139.48,342.52 C1142,341.08 1144.76,338.32 1144.76,332.8 L1144.76,309.52 C1141.04,312.04 1137.32,314.32 1133.48,316.12 C1131.44,313.48 1126.76,308.2 1123.64,305.8 C1134.08,301.72 1144.04,295.12 1150.88,287.32 L1128.08,287.32 L1128.08,277.84 L1173.44,277.84 L1173.44,273.76 L1139.96,273.76 L1139.96,265.24 L1173.44,265.24 L1173.44,261.28 L1134.32,261.28 L1134.32,252.04 L1153.52,252.04 C1152.2,249.76 1150.76,247.36 1149.44,245.44 L1162.28,241.48 C1164.8,244.72 1167.44,248.92 1169.12,252.04 L1193.84,252.04 C1195.76,248.56 1197.92,244.36 1199,241.24 L1214.84,244.36 C1212.8,247.12 1210.88,249.76 1208.96,252.04 L1227.68,252.04 L1227.68,261.28 L1188.2,261.28 L1188.2,265.24 L1222.04,265.24 L1222.04,273.76 L1188.2,273.76 L1188.2,277.84 L1234.04,277.84 L1234.04,287.32 Z M1314.36,285.16 L1333.68,285.16 L1333.68,277.48 L1314.36,277.48 L1314.36,285.16 Z M1314.36,258.76 L1314.36,266.44 L1333.68,266.44 L1333.68,258.76 L1314.36,258.76 Z M1367.88,266.44 L1367.88,258.76 L1348.8,258.76 L1348.8,266.44 L1367.88,266.44 Z M1367.88,285.16 L1367.88,277.48 L1348.8,277.48 L1348.8,285.16 L1367.88,285.16 Z M1394.64,317.2 L1359.24,317.2 C1369.8,325.72 1384.44,333.4 1398.12,337.36 C1394.88,340.24 1390.56,345.88 1388.52,349.48 C1374.6,344.2 1359.96,334.84 1348.8,323.92 L1348.8,353.44 L1333.68,353.44 L1333.68,324.52 C1322.64,335.56 1308,344.92 1293.72,350.2 C1291.56,346.84 1287.24,341.32 1284,338.32 C1298.28,334.12 1313.16,326.2 1323.24,317.2 L1287.72,317.2 L1287.72,304.12 L1333.68,304.12 L1333.68,297.04 L1299.36,297.04 L1299.36,246.88 L1383.6,246.88 L1383.6,297.04 L1348.8,297.04 L1348.8,304.12 L1394.64,304.12 L1394.64,317.2 Z M1523.68,310.12 L1478.2,310.12 L1478.2,318.04 L1523.68,318.04 L1523.68,310.12 Z M1478.2,337.6 L1523.68,337.6 L1523.68,329.2 L1478.2,329.2 L1478.2,337.6 Z M1463.68,353.32 L1463.68,298.12 L1538.92,298.12 L1538.92,353.32 L1523.68,353.32 L1523.68,349.48 L1478.2,349.48 L1478.2,353.32 L1463.68,353.32 Z M1488.52,267.04 L1488.52,277.6 L1513,277.6 L1513,267.04 L1488.52,267.04 Z M1527.88,277.6 L1554.52,277.6 L1554.52,290.8 L1447.84,290.8 L1447.84,277.6 L1473.76,277.6 L1473.76,267.04 L1453.84,267.04 L1453.84,254.08 L1473.76,254.08 L1473.76,241.48 L1488.52,241.48 L1488.52,254.08 L1513,254.08 L1513,241.48 L1527.88,241.48 L1527.88,254.08 L1548.76,254.08 L1548.76,267.04 L1527.88,267.04 L1527.88,277.6 Z" id="path-3"></path>
    </defs>
    <g id="Drunk-Elephant_1920" stroke="none" stroke-width="1" fill="none" fill-rule="evenodd">
        <g id="Drunkelephant_index_v06-轉外框" transform="translate(-163.000000, -3659.000000)" fill-rule="nonzero">
            <g id="top-10-text" transform="translate(163.000000, 3659.000000)">
                <g id="Group-22">
                    <g id="soloved">
                        <use fill="#EAFAFF" xlink:href="#path-1"></use>
                        <use fill="#EDBAFF" xlink:href="#path-1"></use>
                    </g>
                    <g id="醉象">
                        <use fill="#98C9D9" xlink:href="#path-2"></use>
                        <use fill="#EDBAFF" xlink:href="#path-2"></use>
                    </g>
                </g>
                <g id="調製你的專屬保養果昔">
                    <use fill="#98C9D9" xlink:href="#path-3"></use>
                    <use fill="#EDBAFF" xlink:href="#path-3"></use>
                </g>
            </g>
        </g>
    </g>
</svg>