<?xml version="1.0" encoding="UTF-8"?>
<svg width="1555px" height="355px" viewBox="0 0 1555 355" version="1.1" xmlns="http://www.w3.org/2000/svg" xmlns:xlink="http://www.w3.org/1999/xlink">
    <!-- Generator: Sketch 55.2 (78181) - https://sketchapp.com -->
    <title>TOP 10 BG</title>
    <desc>Created with Sketch.</desc>
    <g id="Drunk-Elephant_1920" stroke="none" stroke-width="1" fill="none" fill-rule="evenodd" fill-opacity="0.1">
        <g id="Drunkelephant_index_轉外框" transform="translate(-163.000000, -3659.000000)" fill="#7270DC" fill-rule="nonzero">
            <g id="TOP-10-BG" transform="translate(163.930000, 3659.904000)">
                <path d="M564.032,107.73 C560.485316,104.36065 556.318024,101.523345 551.53,99.218 C546.741976,96.9126551 541.688027,95.76 536.368,95.76 C532.289313,95.76 528.521017,96.557992 525.063,98.154 C521.604983,99.750008 519.876,102.498647 519.876,106.4 C519.876,110.124019 521.782314,112.783992 525.595,114.38 C529.407686,115.976008 535.569957,117.749324 544.082,119.7 C549.047358,120.764005 554.056975,122.271324 559.111,124.222 C564.165025,126.172676 568.731313,128.743984 572.81,131.936 C576.888687,135.128016 580.169321,139.02931 582.652,143.64 C585.134679,148.25069 586.376,153.747968 586.376,160.132 C586.376,168.466708 584.69135,175.515638 581.322,181.279 C577.95265,187.042362 573.563694,191.697316 568.155,195.244 C562.746306,198.790684 556.6727,201.361992 549.934,202.958 C543.1953,204.554008 536.4567,205.352 529.718,205.352 C518.900613,205.352 508.305052,203.623017 497.931,200.165 C487.556948,196.706983 478.912035,191.6087 471.996,184.87 L496.468,159.068 C500.369353,163.324021 505.157305,166.870652 510.832,169.708 C516.506695,172.545348 522.535968,173.964 528.92,173.964 C532.466684,173.964 535.968983,173.121675 539.427,171.437 C542.885017,169.752325 544.614,166.782021 544.614,162.526 C544.614,158.447313 542.486021,155.432676 538.23,153.482 C533.973979,151.531324 527.324045,149.492011 518.28,147.364 C513.66931,146.299995 509.05869,144.881342 504.448,143.108 C499.83731,141.334658 495.714352,138.940682 492.079,135.926 C488.443648,132.911318 485.473345,129.187356 483.168,124.754 C480.862655,120.320645 479.71,115.000698 479.71,108.794 C479.71,100.81396 481.39465,94.0310279 484.764,88.445 C488.13335,82.8589721 492.477973,78.2926844 497.798,74.746 C503.118027,71.1993156 509.014301,68.5836751 515.487,66.899 C521.959699,65.2143249 528.387968,64.372 534.772,64.372 C544.702716,64.372 554.411619,65.9236511 563.899,69.027 C573.386381,72.1303489 581.410634,76.7853023 587.972,82.992 L564.032,107.73 Z M752.094,134.33 C752.094,145.147387 750.143353,154.944956 746.242,163.723 C742.340647,172.501044 737.0207,179.948969 730.282,186.067 C723.5433,192.185031 715.740711,196.92865 706.874,200.298 C698.007289,203.66735 688.520051,205.352 678.412,205.352 C668.481284,205.352 659.038378,203.66735 650.083,200.298 C641.127622,196.92865 633.325033,192.185031 626.675,186.067 C620.024967,179.948969 614.749353,172.501044 610.848,163.723 C606.946647,154.944956 604.996,145.147387 604.996,134.33 C604.996,123.512613 606.946647,113.759377 610.848,105.07 C614.749353,96.3806232 620.024967,89.0213635 626.675,82.992 C633.325033,76.9626365 641.127622,72.352016 650.083,69.16 C659.038378,65.967984 668.481284,64.372 678.412,64.372 C688.520051,64.372 698.007289,65.967984 706.874,69.16 C715.740711,72.352016 723.5433,76.9626365 730.282,82.992 C737.0207,89.0213635 742.340647,96.3806232 746.242,105.07 C750.143353,113.759377 752.094,123.512613 752.094,134.33 Z M710.066,134.33 C710.066,130.073979 709.356674,125.906687 707.938,121.828 C706.519326,117.749313 704.480013,114.158349 701.82,111.055 C699.159987,107.951651 695.879353,105.424676 691.978,103.474 C688.076647,101.523324 683.554692,100.548 678.412,100.548 C673.269308,100.548 668.747353,101.523324 664.846,103.474 C660.944647,105.424676 657.708346,107.951651 655.137,111.055 C652.565654,114.158349 650.615007,117.749313 649.285,121.828 C647.954993,125.906687 647.29,130.073979 647.29,134.33 C647.29,138.586021 647.954993,142.753313 649.285,146.832 C650.615007,150.910687 652.609987,154.590317 655.27,157.871 C657.930013,161.151683 661.210647,163.767324 665.112,165.718 C669.013353,167.668676 673.535308,168.644 678.678,168.644 C683.820692,168.644 688.342647,167.668676 692.244,165.718 C696.145353,163.767324 699.425987,161.151683 702.086,157.871 C704.746013,154.590317 706.740993,150.910687 708.071,146.832 C709.401007,142.753313 710.066,138.586021 710.066,134.33 Z M846.79,201.096 L846.79,-1.42108547e-14 L890.946,-1.42108547e-14 L890.946,201.096 L846.79,201.096 Z M1065.974,134.33 C1065.974,145.147387 1064.02335,154.944956 1060.122,163.723 C1056.22065,172.501044 1050.9007,179.948969 1044.162,186.067 C1037.4233,192.185031 1029.62071,196.92865 1020.754,200.298 C1011.88729,203.66735 1002.40005,205.352 992.292,205.352 C982.361284,205.352 972.918378,203.66735 963.963,200.298 C955.007622,196.92865 947.205033,192.185031 940.555,186.067 C933.904967,179.948969 928.629353,172.501044 924.728,163.723 C920.826647,154.944956 918.876,145.147387 918.876,134.33 C918.876,123.512613 920.826647,113.759377 924.728,105.07 C928.629353,96.3806232 933.904967,89.0213635 940.555,82.992 C947.205033,76.9626365 955.007622,72.352016 963.963,69.16 C972.918378,65.967984 982.361284,64.372 992.292,64.372 C1002.40005,64.372 1011.88729,65.967984 1020.754,69.16 C1029.62071,72.352016 1037.4233,76.9626365 1044.162,82.992 C1050.9007,89.0213635 1056.22065,96.3806232 1060.122,105.07 C1064.02335,113.759377 1065.974,123.512613 1065.974,134.33 Z M1023.946,134.33 C1023.946,130.073979 1023.23667,125.906687 1021.818,121.828 C1020.39933,117.749313 1018.36001,114.158349 1015.7,111.055 C1013.03999,107.951651 1009.75935,105.424676 1005.858,103.474 C1001.95665,101.523324 997.434692,100.548 992.292,100.548 C987.149308,100.548 982.627353,101.523324 978.726,103.474 C974.824647,105.424676 971.588346,107.951651 969.017,111.055 C966.445654,114.158349 964.495007,117.749313 963.165,121.828 C961.834993,125.906687 961.17,130.073979 961.17,134.33 C961.17,138.586021 961.834993,142.753313 963.165,146.832 C964.495007,150.910687 966.489987,154.590317 969.15,157.871 C971.810013,161.151683 975.090647,163.767324 978.992,165.718 C982.893353,167.668676 987.415308,168.644 992.558,168.644 C997.700692,168.644 1002.22265,167.668676 1006.124,165.718 C1010.02535,163.767324 1013.30599,161.151683 1015.966,157.871 C1018.62601,154.590317 1020.62099,150.910687 1021.951,146.832 C1023.28101,142.753313 1023.946,138.586021 1023.946,134.33 Z M1175.566,201.096 L1128.484,201.096 L1076.348,68.628 L1124.494,68.628 L1152.424,154.546 L1153.222,154.546 L1181.152,68.628 L1227.702,68.628 L1175.566,201.096 Z M1335.698,119.7 C1335.698,112.783965 1333.52569,106.843358 1329.181,101.878 C1324.83631,96.9126418 1318.31938,94.43 1309.63,94.43 C1305.37398,94.43 1301.47268,95.0949934 1297.926,96.425 C1294.37932,97.7550066 1291.27601,99.5726551 1288.616,101.878 C1285.95599,104.183345 1283.82801,106.887651 1282.232,109.991 C1280.63599,113.094349 1279.74933,116.33065 1279.572,119.7 L1335.698,119.7 Z M1375.864,136.458 L1375.864,141.778 C1375.864,143.551342 1375.77533,145.235992 1375.598,146.832 L1279.572,146.832 C1279.92667,150.556019 1281.03499,153.925318 1282.897,156.94 C1284.75901,159.954682 1287.15299,162.570322 1290.079,164.787 C1293.00501,167.003678 1296.28565,168.73266 1299.921,169.974 C1303.55635,171.21534 1307.32465,171.836 1311.226,171.836 C1318.14203,171.836 1323.99398,170.550346 1328.782,167.979 C1333.57002,165.407654 1337.47132,162.082687 1340.486,158.004 L1370.81,177.156 C1364.6033,186.200045 1356.40172,193.160309 1346.205,198.037 C1336.00828,202.913691 1324.1714,205.352 1310.694,205.352 C1300.76328,205.352 1291.36471,203.800349 1282.498,200.697 C1273.63129,197.593651 1265.87303,193.071696 1259.223,187.131 C1252.57297,181.190304 1247.34169,173.875377 1243.529,165.186 C1239.71631,156.496623 1237.81,146.566056 1237.81,135.394 C1237.81,124.576613 1239.67198,114.779044 1243.396,106.001 C1247.12002,97.2229561 1252.17397,89.7750306 1258.558,83.657 C1264.94203,77.5389694 1272.47862,72.7953502 1281.168,69.426 C1289.85738,66.0566498 1299.25595,64.372 1309.364,64.372 C1319.11738,64.372 1328.07263,66.0123169 1336.23,69.293 C1344.38737,72.5736831 1351.39197,77.3173023 1357.244,83.524 C1363.09603,89.7306977 1367.66232,97.267289 1370.943,106.134 C1374.22368,115.000711 1375.864,125.10861 1375.864,136.458 Z M1503.278,201.096 L1503.278,183.806 L1502.746,183.806 C1498.48998,190.5447 1492.41637,195.731648 1484.525,199.367 C1476.63363,203.002352 1468.25471,204.82 1459.388,204.82 C1449.45728,204.82 1440.59071,202.869353 1432.788,198.968 C1424.98529,195.066647 1418.37969,189.879699 1412.971,183.407 C1407.56231,176.934301 1403.43935,169.442043 1400.602,160.93 C1397.76465,152.417957 1396.346,143.551379 1396.346,134.33 C1396.346,125.108621 1397.80899,116.286375 1400.735,107.863 C1403.66101,99.4396246 1407.82831,92.0360319 1413.237,85.652 C1418.64569,79.2679681 1425.20696,74.2140186 1432.921,70.49 C1440.63504,66.7659814 1449.27995,64.904 1458.856,64.904 C1468.60938,64.904 1476.8553,66.7659814 1483.594,70.49 C1490.3327,74.2140186 1495.56398,78.2926445 1499.288,82.726 L1499.82,82.726 L1499.82,-1.42108547e-14 L1543.444,-1.42108547e-14 L1543.444,201.096 L1503.278,201.096 Z M1501.682,134.596 C1501.682,130.339979 1500.92834,126.172687 1499.421,122.094 C1497.91366,118.015313 1495.78568,114.380016 1493.037,111.188 C1490.28832,107.995984 1486.96335,105.424676 1483.062,103.474 C1479.16065,101.523324 1474.72736,100.548 1469.762,100.548 C1464.61931,100.548 1460.09735,101.523324 1456.196,103.474 C1452.29465,105.424676 1449.01401,107.951651 1446.354,111.055 C1443.69399,114.158349 1441.69901,117.749313 1440.369,121.828 C1439.03899,125.906687 1438.374,130.073979 1438.374,134.33 C1438.374,138.586021 1439.03899,142.797646 1440.369,146.965 C1441.69901,151.132354 1443.69399,154.811984 1446.354,158.004 C1449.01401,161.196016 1452.29465,163.767324 1456.196,165.718 C1460.09735,167.668676 1464.61931,168.644 1469.762,168.644 C1474.72736,168.644 1479.16065,167.668676 1483.062,165.718 C1486.96335,163.767324 1490.28832,161.196016 1493.037,158.004 C1495.78568,154.811984 1497.91366,151.176687 1499.421,147.098 C1500.92834,143.019313 1501.682,138.852021 1501.682,134.596 Z" id="soloved"></path>
                <path d="M26.46,140.216 L56.91,140.216 L56.91,161.216 L26.46,161.216 L26.46,140.216 Z M22.68,171.506 L60.9,171.506 L60.9,125.096 L56.7,125.096 C46.62,125.096 43.89,121.736 43.89,108.296 L43.89,80.996 L39.48,80.996 L39.48,99.476 C39.48,110.396 38.01,124.886 30.03,134.546 C28.56,132.656 25.41,129.926 22.68,128.036 L22.68,171.506 Z M26.88,80.996 L22.68,80.996 L22.68,121.946 C26.67,114.596 26.88,106.406 26.88,99.266 L26.88,80.996 Z M39.48,39.836 L39.48,56.636 L43.89,56.636 L43.89,39.836 L39.48,39.836 Z M60.9,111.026 L60.9,80.996 L56.91,80.996 L56.91,107.876 C56.91,110.816 57.33,111.026 58.59,111.026 L60.9,111.026 Z M62.16,39.836 L62.16,56.636 L82.11,56.636 L82.11,203.216 L60.9,203.216 L60.9,194.396 L22.68,194.396 L22.68,206.156 L2.52,206.156 L2.52,56.636 L21.63,56.636 L21.63,39.836 L3.41060513e-13,39.836 L3.41060513e-13,16.316 L84.21,16.316 L84.21,39.836 L62.16,39.836 Z M140.49,90.866 L126.63,114.176 C124.32,110.816 120.75,106.826 116.55,102.836 C111.93,112.706 106.68,121.316 100.8,128.246 C97.23,123.416 88.2,113.756 82.95,109.556 C94.29,96.536 102.06,75.956 106.05,54.956 L130.62,59.996 C129.36,65.876 127.89,71.966 126,77.636 C131.67,82.256 137.34,87.086 140.49,90.866 Z M194.67,28.496 L194.67,54.956 L89.67,54.956 L89.67,28.496 L126.42,28.496 C125.37,23.666 123.69,18.626 122.22,14.216 L150.36,7.496 C153.09,14.006 156.03,21.986 157.5,28.496 L194.67,28.496 Z M154.35,122.156 L154.35,134.336 L196.35,134.336 L196.35,161.426 L154.35,161.426 L154.35,208.046 L125.58,208.046 L125.58,161.426 L86.52,161.426 L86.52,134.336 L125.58,134.336 L125.58,118.166 L146.58,118.166 C142.59,113.756 137.76,108.716 134.4,105.986 C145.32,93.806 153.09,74.696 157.08,54.956 L181.65,60.206 C180.18,67.136 178.08,73.856 175.98,80.366 C184.38,88.976 193.2,98.846 197.61,105.986 L180.6,125.096 C177.45,119.426 171.78,112.076 165.69,104.726 C162.12,111.236 158.34,117.116 154.35,122.156 Z M331.85,106.826 L327.65,109.136 C335.63,114.806 341.93,120.896 346.97,127.196 C361.46,121.316 377,113.546 388.13,106.826 L331.85,106.826 Z M326.39,178.016 C331.22,175.076 333.95,168.986 333.11,161.006 C322.19,168.356 309.8,175.076 296.78,180.746 C302.66,181.166 308.33,181.376 312.74,181.376 C318.2,181.376 323.03,180.956 326.39,178.016 Z M328.49,43.406 L294.47,43.406 C291.74,46.346 288.8,49.286 285.86,52.016 L322.19,52.016 C324.5,49.286 326.6,46.346 328.49,43.406 Z M340.25,73.646 L340.25,85.196 L374.48,85.196 L374.48,73.646 L340.25,73.646 Z M283.55,85.196 L313.16,85.196 L313.16,73.646 L283.55,73.646 L283.55,85.196 Z M391.28,106.826 L414.59,124.466 C405.98,128.666 396.74,132.866 387.5,136.646 C395.69,152.186 409.34,168.146 428.24,175.706 C421.73,181.586 412.07,193.976 407.87,202.166 C386.24,190.196 371.33,167.096 362.51,146.096 L358.73,147.146 C367.34,169.826 361.04,191.456 345.29,200.696 C336.26,206.576 329.54,208.046 317.78,208.256 C312.32,208.256 306.02,208.046 299.51,207.626 C299.09,200.486 296.78,190.196 292.58,182.636 C277.46,189.146 261.71,194.606 247.01,198.386 C243.23,192.086 235.67,181.796 230.21,176.336 C263.81,169.616 302.24,155.756 324.08,140.636 C323.45,139.586 322.61,138.746 321.77,137.696 C300.56,149.666 273.47,159.326 248.9,164.576 C245.54,158.486 238.4,149.246 233.15,143.996 C258.35,140.216 286.49,132.656 306.02,123.416 C304.76,122.366 303.5,121.526 302.24,120.686 C286.07,126.986 268.64,132.236 253.52,135.386 C249.95,129.716 243.02,120.266 237.77,115.226 C251,113.336 265.7,110.396 279.56,106.826 L254.99,106.826 L254.99,75.956 L250.58,78.686 C246.17,71.756 236.72,61.466 230.21,57.056 C256.88,43.196 275.78,24.506 286.49,7.496 L317.99,14.006 C316.31,16.316 314.63,18.836 312.95,21.146 L345.29,21.146 L349.91,19.886 L370.7,33.536 C367.13,39.206 362.3,45.716 357.26,52.016 L404.72,52.016 L404.72,106.826 L391.28,106.826 Z" id="醉象"></path>
                <path d="M46.87,260.256 L46.87,271.536 L4.03,271.536 L4.03,260.256 L23.47,260.256 C21.67,255.816 18.67,249.816 16.15,245.256 L26.59,240.936 C29.71,245.856 33.43,252.696 35.23,256.896 L28.15,260.256 L46.87,260.256 Z M43.15,276.936 L43.15,287.736 L9.19,287.736 L9.19,276.936 L43.15,276.936 Z M9.07,303.816 L9.07,293.016 L43.03,293.016 L43.03,303.816 L9.07,303.816 Z M85.75,311.496 L75.55,311.496 L75.55,321.456 L85.75,321.456 L85.75,311.496 Z M96.19,331.296 L75.55,331.296 L75.55,336.816 L65.83,336.816 L65.83,301.536 L96.19,301.536 L96.19,331.296 Z M87.19,285.096 L100.39,285.096 L100.39,277.056 L87.19,277.056 L87.19,285.096 Z M62.71,277.056 L62.71,285.096 L75.67,285.096 L75.67,277.056 L62.71,277.056 Z M75.67,257.256 L62.71,257.256 L62.71,265.896 L75.67,265.896 L75.67,257.256 Z M100.39,265.896 L100.39,257.256 L87.19,257.256 L87.19,265.896 L100.39,265.896 Z M32.23,334.536 L32.23,321.096 L19.99,321.096 L19.99,334.536 L32.23,334.536 Z M112.03,244.776 L112.03,337.536 C112.03,343.536 110.95,346.896 107.35,349.056 C103.87,351.096 98.59,351.336 90.79,351.336 C90.31,347.976 88.75,342.576 87.07,339.456 C91.99,339.696 96.79,339.576 98.35,339.456 C99.91,339.456 100.39,338.976 100.39,337.296 L100.39,296.256 L62.71,296.256 C62.47,314.376 60.55,337.896 51.79,352.896 C49.75,350.976 44.71,347.136 42.07,345.936 L19.99,345.936 L19.99,350.616 L8.71,350.616 L8.71,309.576 L43.51,309.576 L43.51,343.176 C50.71,328.056 51.31,307.656 51.31,291.696 L51.31,244.776 L112.03,244.776 Z M269.03,241.416 L269.03,289.296 C269.03,295.416 267.83,298.296 263.51,300.216 C259.31,302.016 253.31,302.136 245.15,302.136 C244.43,298.656 242.51,293.976 240.95,290.856 C246.35,291.096 252.11,291.096 253.79,290.976 C255.47,290.976 256.07,290.496 256.07,288.936 L256.07,241.416 L269.03,241.416 Z M245.51,246.336 L245.51,285.936 L232.79,285.936 L232.79,246.336 L245.51,246.336 Z M257.63,316.296 L233.03,316.296 C235.43,320.016 238.43,323.136 241.67,326.016 C247.19,323.136 253.19,319.536 257.63,316.296 Z M176.15,262.056 L190.79,262.056 L190.79,257.256 L179.27,257.256 C178.31,258.936 177.23,260.616 176.15,262.056 Z M212.09,298.896 L208.31,298.896 C207.71,296.136 206.03,293.016 204.95,290.736 C207.71,290.856 210.47,290.856 211.31,290.856 C212.39,290.856 212.75,290.496 212.75,289.536 L212.75,284.496 L202.91,284.496 L202.91,302.136 L190.79,302.136 L190.79,284.496 L181.55,284.496 L181.55,299.376 L170.75,299.376 L170.75,275.856 L190.79,275.856 L190.79,271.656 L165.95,271.656 L165.95,262.056 L173.39,262.056 C170.99,260.616 167.87,258.816 165.83,257.856 C169.91,253.296 173.27,246.816 175.31,240.696 L185.75,243.336 C185.15,245.016 184.55,246.456 183.83,248.136 L190.79,248.136 L190.79,240.456 L202.91,240.456 L202.91,248.136 L222.71,248.136 L222.71,257.256 L202.91,257.256 L202.91,262.056 L225.95,262.056 L225.95,271.656 L202.91,271.656 L202.91,275.856 L224.15,275.856 L224.15,289.536 C224.15,292.536 223.79,294.576 222.59,295.896 L225.35,295.176 C227.15,298.056 228.83,301.776 230.03,305.016 L274.07,305.016 L274.07,316.296 L261.95,316.296 L269.99,322.296 C264.35,326.016 257.75,329.736 251.63,332.616 C258.59,335.976 266.63,338.376 276.11,339.696 C273.47,342.456 270.11,347.616 268.43,350.976 C244.19,346.296 229.19,335.496 220.19,317.016 C215.39,320.976 209.39,324.336 202.91,327.216 L202.91,337.896 L225.23,333.336 C224.63,336.456 224.27,341.496 224.27,344.016 C195.71,350.496 191.51,351.696 189.11,353.256 L188.99,352.176 C188.27,349.296 186.11,345.096 184.79,343.416 C186.95,341.736 190.07,338.736 190.07,332.616 L190.07,332.256 C184.19,334.176 177.95,335.616 171.83,336.696 C170.15,333.696 166.79,329.016 164.27,326.376 C177.35,324.576 190.91,321.216 201.23,316.296 L166.19,316.296 L166.19,305.016 L214.79,305.016 C213.95,302.856 212.99,300.816 212.03,298.896 L212.09,298.896 Z M348.75,240.936 L362.31,245.136 C359.19,253.416 355.35,261.816 350.91,269.736 L350.91,352.296 L337.23,352.296 L337.23,290.976 C334.59,294.576 331.83,297.816 329.19,300.696 C327.87,297.096 323.91,289.296 321.51,285.816 C332.31,275.016 342.75,257.976 348.75,240.936 Z M370.95,293.856 L384.87,296.736 C381.39,311.976 375.27,327.096 368.55,336.816 C365.79,334.536 359.79,330.936 356.31,329.136 C363.15,320.736 368.19,307.176 370.95,293.856 Z M420.87,275.136 L404.79,275.136 L404.79,336.576 C404.79,343.416 403.59,347.376 399.27,349.776 C395.07,352.056 389.31,352.656 381.63,352.656 C381.03,348.456 378.87,342.096 376.71,338.256 C381.75,338.376 386.79,338.376 388.47,338.376 C390.03,338.376 390.63,337.896 390.63,336.336 L390.63,275.136 L376.71,275.136 C373.35,282.096 369.39,288.456 365.43,293.496 C362.91,290.976 357.15,286.296 353.91,284.136 C363.03,273.936 370.23,257.376 374.31,240.936 L388.23,244.056 C386.67,250.176 384.75,256.056 382.59,261.936 L423.87,261.936 L426.15,261.456 L436.23,263.376 C434.79,273.096 432.75,284.256 431.07,291.216 L418.95,289.176 C419.55,285.456 420.27,280.416 420.87,275.136 Z M409.11,296.976 L421.83,292.656 C428.07,305.016 433.23,320.976 434.91,331.776 L421.23,336.456 C419.91,325.776 414.87,309.336 409.11,296.976 Z M502.15,327.576 L521.23,327.576 L521.23,304.056 L502.15,304.056 L502.15,327.576 Z M521.23,291.696 L521.23,272.256 L502.15,272.256 L502.15,291.696 L521.23,291.696 Z M559.27,258.936 L593.11,258.936 C593.11,258.936 593.11,263.736 592.99,265.416 C591.43,319.056 590.11,338.136 585.19,344.496 C581.83,348.936 578.47,350.256 573.67,351.096 C569.11,351.696 561.91,351.576 554.83,351.336 C554.59,347.376 552.67,341.376 550.15,337.416 C557.83,338.136 564.91,338.136 568.03,338.136 C570.43,338.136 571.75,337.656 573.31,336.096 C576.79,332.256 578.35,314.256 579.67,271.896 L553.99,271.896 C550.87,279.096 547.15,285.696 543.43,290.856 C541.51,289.056 537.43,286.296 534.19,284.136 L534.19,340.176 L502.15,340.176 L502.15,348.936 L489.19,348.936 L489.19,259.776 L502.75,259.776 C504.31,253.776 505.75,246.096 506.23,240.456 L521.83,242.616 C519.79,248.616 517.63,254.616 515.59,259.776 L534.19,259.776 L534.19,279.216 C541.15,269.136 546.91,254.616 550.39,240.576 L563.95,243.696 C562.75,248.856 561.07,253.896 559.27,258.936 Z M573.19,313.656 L561.07,321.096 C557.71,313.896 550.27,302.136 544.39,293.376 L555.55,287.016 C561.55,295.296 569.47,306.696 573.19,313.656 Z M706.79,297.816 L706.79,302.016 L721.91,301.896 C720.23,301.176 718.55,300.336 716.99,299.736 L719.39,297.816 L706.79,297.816 Z M671.63,289.056 L692.87,289.056 L692.87,284.496 L671.63,284.496 L671.63,289.056 Z M671.63,271.896 L671.63,276.336 L692.87,276.336 L692.87,271.896 L671.63,271.896 Z M729.11,271.896 L706.79,271.896 L706.79,276.336 L729.11,276.336 L729.11,271.896 Z M706.79,289.056 L729.11,289.056 L729.11,284.496 L706.79,284.496 L706.79,289.056 Z M754.67,315.816 L754.67,327.096 L727.91,327.096 L727.91,338.736 C727.91,345.336 726.71,348.696 721.79,350.616 C716.99,352.416 710.27,352.536 701.15,352.536 C700.55,348.696 698.75,343.656 697.07,340.056 C702.83,340.296 709.67,340.296 711.59,340.296 C713.51,340.176 714.11,339.816 714.11,338.256 L714.11,327.096 L680.27,327.096 C685.31,330.696 690.35,334.896 693.11,338.136 L682.55,347.256 C679.07,342.576 671.03,335.736 664.55,331.296 L669.59,327.096 L645.59,327.096 L645.59,315.816 L714.11,315.816 L714.11,311.376 C690.47,311.856 667.79,312.216 650.99,312.336 L650.63,302.136 C661.91,302.256 676.67,302.136 692.87,302.136 L692.87,297.816 L658.31,297.816 L658.31,263.256 L692.87,263.256 L692.87,258.936 L648.83,258.936 L648.83,248.136 L692.87,248.136 L692.87,240.576 L706.79,240.576 L706.79,248.136 L750.59,248.136 L750.59,258.936 L706.79,258.936 L706.79,263.256 L743.03,263.256 L743.03,297.816 L734.99,297.816 C740.99,300.936 746.63,304.536 750.47,307.416 L741.71,314.736 C740.27,313.536 738.59,312.096 736.67,310.776 L727.91,311.016 L727.91,315.816 L754.67,315.816 Z M876.51,270.336 L876.51,287.496 L863.43,287.496 L863.43,270.336 L876.51,270.336 Z M889.47,335.856 L885.51,335.856 C887.31,338.016 888.99,340.176 890.19,342.456 L892.83,342.456 C894.03,342.456 894.87,342.216 895.59,341.136 C896.91,339.456 897.87,333.456 898.59,317.376 L868.83,317.376 L868.83,320.736 L889.47,320.736 L889.47,335.856 Z M868.83,339.336 L876.51,338.976 C875.91,338.136 875.43,337.536 874.83,336.816 L877.23,335.856 L868.83,335.856 L868.83,339.336 Z M878.67,330.216 L878.67,326.376 L868.83,326.376 L868.83,330.216 L878.67,330.216 Z M846.75,330.216 L856.83,330.216 L856.83,326.376 L846.75,326.376 L846.75,330.216 Z M856.83,317.376 L847.11,317.376 C845.91,318.576 844.71,319.656 843.39,320.736 L856.83,320.736 L856.83,317.376 Z M827.91,268.656 L827.91,280.416 C827.91,291.576 827.43,305.736 825.27,319.536 C832.71,315.456 838.47,310.656 842.43,305.856 L832.59,305.856 L832.59,289.056 L834.99,289.056 L832.95,281.976 C837.99,281.136 844.83,280.056 852.15,278.616 C847.35,277.296 840.99,275.856 835.35,275.136 L837.39,268.896 C844.59,269.736 852.75,271.176 857.79,272.856 L855.75,278.016 L860.31,277.176 L860.43,284.256 C852.75,286.056 844.83,287.856 838.23,289.056 L900.51,289.056 C894.87,287.376 887.07,285.816 879.87,284.856 L881.91,278.736 L884.43,278.856 L881.67,273.216 C885.99,272.496 892.35,270.336 897.15,268.656 L827.91,268.656 Z M895.59,253.896 L827.91,253.896 L827.91,259.536 L895.59,259.536 L895.59,253.896 Z M895.23,300.096 L895.23,294.816 L885.03,294.816 L885.03,300.096 L895.23,300.096 Z M874.23,300.096 L874.23,294.816 L864.27,294.816 L864.27,300.096 L874.23,300.096 Z M853.47,300.096 L853.47,294.816 L843.75,294.816 L843.75,300.096 L853.47,300.096 Z M854.43,309.456 L911.67,309.456 C911.67,309.456 911.67,312.456 911.55,313.896 C910.59,336.216 909.39,344.736 906.75,347.976 C904.83,350.496 902.43,351.336 899.79,351.696 C897.27,352.176 893.19,352.176 888.99,352.056 C888.87,350.736 888.63,349.056 888.15,347.496 L882.99,349.656 C882.63,348.696 882.15,347.736 881.67,346.776 C863.19,348.096 844.11,349.296 830.31,350.136 L829.47,340.896 C836.91,340.656 846.39,340.176 856.83,339.696 L856.83,335.856 L836.55,335.856 L836.55,325.776 C834.99,326.856 833.31,327.936 831.75,328.896 C830.19,326.736 827.31,324.096 824.91,322.296 C822.99,333.216 820.23,343.656 815.67,352.176 C813.03,350.016 806.91,346.536 803.31,345.216 C813.27,326.736 814.11,299.496 814.11,280.416 L814.11,244.896 L909.51,244.896 L909.51,268.656 L901.23,268.656 L904.35,274.176 C898.47,276.456 890.43,278.016 884.79,278.976 C892.11,279.816 900.03,281.376 904.71,282.816 L902.43,289.056 L906.99,289.056 L906.99,305.856 L857.07,305.856 C856.23,307.056 855.39,308.256 854.43,309.456 Z M990.79,240.696 L1003.99,245.016 C1000.75,253.296 996.79,261.816 992.11,269.856 L992.11,352.176 L978.55,352.176 L978.55,290.496 C975.79,293.976 972.91,297.216 970.15,300.216 C968.83,296.736 964.87,289.056 962.47,285.576 C973.63,274.776 984.55,257.736 990.79,240.696 Z M1012.15,314.136 L1024.99,317.976 C1020.07,328.296 1012.75,339.936 1006.63,347.256 C1004.11,345.096 998.83,341.256 995.59,339.576 C1001.59,332.976 1008.07,323.016 1012.15,314.136 Z M1019.95,258.216 L1019.95,274.296 L1055.11,274.296 L1055.11,258.216 L1019.95,258.216 Z M1075.39,310.416 L1044.31,310.416 L1044.31,352.536 L1029.91,352.536 L1029.91,310.416 L998.59,310.416 L998.59,297.456 L1029.91,297.456 L1029.91,286.896 L1006.39,286.896 L1006.39,245.616 L1069.39,245.616 L1069.39,286.896 L1044.31,286.896 L1044.31,297.456 L1075.39,297.456 L1075.39,310.416 Z M1048.39,319.896 L1058.95,314.016 C1065.79,321.936 1073.11,332.256 1076.59,339.336 L1065.31,346.176 C1062.07,339.096 1054.75,328.056 1048.39,319.896 Z M1153.79,300.816 L1207.07,300.816 C1203.59,297.696 1200.35,294.336 1197.47,290.736 L1197.47,296.856 L1162.67,296.856 L1162.67,291.456 C1160.03,294.696 1156.91,297.816 1153.79,300.816 Z M1212.71,329.976 L1185.11,329.976 C1190.75,331.416 1197.11,333.216 1203.59,335.136 C1206.59,333.576 1209.71,331.776 1212.71,329.976 Z M1177.55,334.056 L1177.55,335.976 L1181.87,329.976 L1159.43,329.976 L1159.43,337.296 L1177.55,334.056 Z M1159.43,318.576 L1159.43,322.416 L1198.55,322.416 L1198.55,318.576 L1159.43,318.576 Z M1159.43,308.376 L1159.43,312.096 L1198.55,312.096 L1198.55,308.376 L1159.43,308.376 Z M1194.35,286.416 L1166.27,286.416 L1163.75,290.016 L1196.87,290.016 C1196.03,288.816 1195.07,287.616 1194.35,286.416 Z M1233.11,286.416 L1209.59,286.416 C1216.79,293.496 1226.63,299.136 1237.07,302.376 C1233.95,305.016 1229.99,310.056 1227.95,313.536 C1222.67,311.496 1217.75,308.736 1213.07,305.496 L1213.07,329.736 C1216.31,327.816 1219.19,326.016 1221.59,324.216 L1230.83,331.416 C1226.15,333.936 1220.87,336.576 1215.95,338.736 C1221.59,340.536 1226.63,342.216 1230.59,343.656 L1224.59,353.256 C1214.03,349.176 1193.15,342.216 1177.67,338.016 C1177.91,340.416 1178.15,342.816 1178.39,344.496 C1151.39,350.136 1147.19,351.336 1144.43,353.016 C1143.47,349.896 1140.71,344.016 1138.55,341.616 C1141.07,340.176 1143.83,337.416 1143.83,331.896 L1143.83,308.616 C1140.11,311.136 1136.39,313.416 1132.55,315.216 C1130.51,312.576 1125.83,307.296 1122.71,304.896 C1133.15,300.816 1143.11,294.216 1149.95,286.416 L1127.15,286.416 L1127.15,276.936 L1172.51,276.936 L1172.51,272.856 L1139.03,272.856 L1139.03,264.336 L1172.51,264.336 L1172.51,260.376 L1133.39,260.376 L1133.39,251.136 L1152.59,251.136 C1151.27,248.856 1149.83,246.456 1148.51,244.536 L1161.35,240.576 C1163.87,243.816 1166.51,248.016 1168.19,251.136 L1192.91,251.136 C1194.83,247.656 1196.99,243.456 1198.07,240.336 L1213.91,243.456 C1211.87,246.216 1209.95,248.856 1208.03,251.136 L1226.75,251.136 L1226.75,260.376 L1187.27,260.376 L1187.27,264.336 L1221.11,264.336 L1221.11,272.856 L1187.27,272.856 L1187.27,276.936 L1233.11,276.936 L1233.11,286.416 Z M1313.43,284.256 L1332.75,284.256 L1332.75,276.576 L1313.43,276.576 L1313.43,284.256 Z M1313.43,257.856 L1313.43,265.536 L1332.75,265.536 L1332.75,257.856 L1313.43,257.856 Z M1366.95,265.536 L1366.95,257.856 L1347.87,257.856 L1347.87,265.536 L1366.95,265.536 Z M1366.95,284.256 L1366.95,276.576 L1347.87,276.576 L1347.87,284.256 L1366.95,284.256 Z M1393.71,316.296 L1358.31,316.296 C1368.87,324.816 1383.51,332.496 1397.19,336.456 C1393.95,339.336 1389.63,344.976 1387.59,348.576 C1373.67,343.296 1359.03,333.936 1347.87,323.016 L1347.87,352.536 L1332.75,352.536 L1332.75,323.616 C1321.71,334.656 1307.07,344.016 1292.79,349.296 C1290.63,345.936 1286.31,340.416 1283.07,337.416 C1297.35,333.216 1312.23,325.296 1322.31,316.296 L1286.79,316.296 L1286.79,303.216 L1332.75,303.216 L1332.75,296.136 L1298.43,296.136 L1298.43,245.976 L1382.67,245.976 L1382.67,296.136 L1347.87,296.136 L1347.87,303.216 L1393.71,303.216 L1393.71,316.296 Z M1522.75,309.216 L1477.27,309.216 L1477.27,317.136 L1522.75,317.136 L1522.75,309.216 Z M1477.27,336.696 L1522.75,336.696 L1522.75,328.296 L1477.27,328.296 L1477.27,336.696 Z M1462.75,352.416 L1462.75,297.216 L1537.99,297.216 L1537.99,352.416 L1522.75,352.416 L1522.75,348.576 L1477.27,348.576 L1477.27,352.416 L1462.75,352.416 Z M1487.59,266.136 L1487.59,276.696 L1512.07,276.696 L1512.07,266.136 L1487.59,266.136 Z M1526.95,276.696 L1553.59,276.696 L1553.59,289.896 L1446.91,289.896 L1446.91,276.696 L1472.83,276.696 L1472.83,266.136 L1452.91,266.136 L1452.91,253.176 L1472.83,253.176 L1472.83,240.576 L1487.59,240.576 L1487.59,253.176 L1512.07,253.176 L1512.07,240.576 L1526.95,240.576 L1526.95,253.176 L1547.83,253.176 L1547.83,266.136 L1526.95,266.136 L1526.95,276.696 Z" id="調製你的專屬保養果昔"></path>
            </g>
        </g>
    </g>
</svg>