<?xml version="1.0" encoding="UTF-8"?>
<svg width="379px" height="104px" viewBox="0 0 379 104" version="1.1" xmlns="http://www.w3.org/2000/svg" xmlns:xlink="http://www.w3.org/1999/xlink">
    <!-- Generator: Sketch 55.2 (78181) - https://sketchapp.com -->
    <title>top 10 text</title>
    <desc>Created with Sketch.</desc>
    <g id="Drunk-Elephant_phone" stroke="none" stroke-width="1" fill="none" fill-rule="evenodd">
        <g id="Phone_index-轉外框" transform="translate(-18.000000, -2323.000000)" fill="#EDBAFF" fill-rule="nonzero">
            <g id="top-10-text" transform="translate(18.221000, 2323.370041)">
                <path d="M152.536333,29.2189585 C151.722995,28.446288 150.767338,27.7956278 149.669333,27.2669585 C148.571327,26.7382892 147.412339,26.4739585 146.192333,26.4739585 C145.256995,26.4739585 144.392837,26.6569567 143.599833,27.0229585 C142.806829,27.3889603 142.410333,28.0192874 142.410333,28.9139585 C142.410333,29.7679628 142.847495,30.3779567 143.721833,30.7439585 C144.59617,31.1099603 146.009323,31.5166229 147.961333,31.9639585 C149.100005,32.2079597 150.248827,32.5536229 151.407833,33.0009585 C152.566838,33.4482941 153.613995,34.0379548 154.549333,34.7699585 C155.484671,35.5019622 156.236996,36.3966199 156.806333,37.4539585 C157.375669,38.5112971 157.660333,39.7719512 157.660333,41.2359585 C157.660333,43.1473014 157.274003,44.7637852 156.501333,46.0854585 C155.728662,47.4071318 154.722172,48.4746211 153.481833,49.2879585 C152.241493,50.1012959 150.848674,50.6909567 149.303333,51.0569585 C147.757992,51.4229603 146.212674,51.6059585 144.667333,51.6059585 C142.186654,51.6059585 139.756845,51.2094625 137.377833,50.4164585 C134.998821,49.6234545 133.016341,48.4542996 131.430333,46.9089585 L137.042333,40.9919585 C137.937004,41.9679634 139.034993,42.7812886 140.336333,43.4319585 C141.637673,44.0826284 143.020325,44.4079585 144.484333,44.4079585 C145.29767,44.4079585 146.100829,44.2147938 146.893833,43.8284585 C147.686837,43.4421232 148.083333,42.7609634 148.083333,41.7849585 C148.083333,40.8496205 147.595338,40.1582941 146.619333,39.7109585 C145.643328,39.2636229 144.118343,38.7959609 142.044333,38.3079585 C140.986994,38.0639573 139.929671,37.7386272 138.872333,37.3319585 C137.814994,36.9252898 136.869504,36.3762953 136.035833,35.6849585 C135.202162,34.9936217 134.521002,34.1396303 133.992333,33.1229585 C133.463663,32.1062868 133.199333,30.886299 133.199333,29.4629585 C133.199333,27.6329494 133.585662,26.0774649 134.358333,24.7964585 C135.131003,23.5154521 136.127327,22.4682959 137.347333,21.6549585 C138.567339,20.8416211 139.919492,20.2417938 141.403833,19.8554585 C142.888173,19.4691232 144.362325,19.2759585 145.826333,19.2759585 C148.103677,19.2759585 150.330155,19.6317883 152.505833,20.3434585 C154.68151,21.0551287 156.521658,22.1226181 158.026333,23.5459585 L152.536333,29.2189585 Z M195.663333,35.3189585 C195.663333,37.7996376 195.216004,40.0464484 194.321333,42.0594585 C193.426662,44.0724686 192.206674,45.7804515 190.661333,47.1834585 C189.115992,48.5864655 187.326676,49.674288 185.293333,50.4469585 C183.259989,51.219629 181.084344,51.6059585 178.766333,51.6059585 C176.488988,51.6059585 174.32351,51.219629 172.269833,50.4469585 C170.216156,49.674288 168.42684,48.5864655 166.901833,47.1834585 C165.376825,45.7804515 164.167004,44.0724686 163.272333,42.0594585 C162.377662,40.0464484 161.930333,37.7996376 161.930333,35.3189585 C161.930333,32.8382794 162.377662,30.6016351 163.272333,28.6089585 C164.167004,26.6162819 165.376825,24.9286321 166.901833,23.5459585 C168.42684,22.1632849 170.216156,21.1059622 172.269833,20.3739585 C174.32351,19.6419548 176.488988,19.2759585 178.766333,19.2759585 C181.084344,19.2759585 183.259989,19.6419548 185.293333,20.3739585 C187.326676,21.1059622 189.115992,22.1632849 190.661333,23.5459585 C192.206674,24.9286321 193.426662,26.6162819 194.321333,28.6089585 C195.216004,30.6016351 195.663333,32.8382794 195.663333,35.3189585 Z M186.025333,35.3189585 C186.025333,34.3429536 185.862668,33.3872965 185.537333,32.4519585 C185.211998,31.5166205 184.744336,30.6931287 184.134333,29.9814585 C183.52433,29.2697883 182.772004,28.6902941 181.877333,28.2429585 C180.982662,27.7956229 179.945672,27.5719585 178.766333,27.5719585 C177.586993,27.5719585 176.550004,27.7956229 175.655333,28.2429585 C174.760662,28.6902941 174.018502,29.2697883 173.428833,29.9814585 C172.839163,30.6931287 172.391834,31.5166205 172.086833,32.4519585 C171.781831,33.3872965 171.629333,34.3429536 171.629333,35.3189585 C171.629333,36.2949634 171.781831,37.2506205 172.086833,38.1859585 C172.391834,39.1212965 172.84933,39.9651214 173.459333,40.7174585 C174.069336,41.4697956 174.821662,42.0696229 175.716333,42.5169585 C176.611004,42.9642941 177.647993,43.1879585 178.827333,43.1879585 C180.006672,43.1879585 181.043662,42.9642941 181.938333,42.5169585 C182.833004,42.0696229 183.58533,41.4697956 184.195333,40.7174585 C184.805336,39.9651214 185.262831,39.1212965 185.567833,38.1859585 C185.872834,37.2506205 186.025333,36.2949634 186.025333,35.3189585 Z M217.379333,50.6299585 L217.379333,4.5139585 L227.505333,4.5139585 L227.505333,50.6299585 L217.379333,50.6299585 Z M267.643333,35.3189585 C267.643333,37.7996376 267.196004,40.0464484 266.301333,42.0594585 C265.406662,44.0724686 264.186674,45.7804515 262.641333,47.1834585 C261.095992,48.5864655 259.306676,49.674288 257.273333,50.4469585 C255.239989,51.219629 253.064344,51.6059585 250.746333,51.6059585 C248.468988,51.6059585 246.30351,51.219629 244.249833,50.4469585 C242.196156,49.674288 240.40684,48.5864655 238.881833,47.1834585 C237.356825,45.7804515 236.147004,44.0724686 235.252333,42.0594585 C234.357662,40.0464484 233.910333,37.7996376 233.910333,35.3189585 C233.910333,32.8382794 234.357662,30.6016351 235.252333,28.6089585 C236.147004,26.6162819 237.356825,24.9286321 238.881833,23.5459585 C240.40684,22.1632849 242.196156,21.1059622 244.249833,20.3739585 C246.30351,19.6419548 248.468988,19.2759585 250.746333,19.2759585 C253.064344,19.2759585 255.239989,19.6419548 257.273333,20.3739585 C259.306676,21.1059622 261.095992,22.1632849 262.641333,23.5459585 C264.186674,24.9286321 265.406662,26.6162819 266.301333,28.6089585 C267.196004,30.6016351 267.643333,32.8382794 267.643333,35.3189585 Z M258.005333,35.3189585 C258.005333,34.3429536 257.842668,33.3872965 257.517333,32.4519585 C257.191998,31.5166205 256.724336,30.6931287 256.114333,29.9814585 C255.50433,29.2697883 254.752004,28.6902941 253.857333,28.2429585 C252.962662,27.7956229 251.925672,27.5719585 250.746333,27.5719585 C249.566993,27.5719585 248.530004,27.7956229 247.635333,28.2429585 C246.740662,28.6902941 245.998502,29.2697883 245.408833,29.9814585 C244.819163,30.6931287 244.371834,31.5166205 244.066833,32.4519585 C243.761831,33.3872965 243.609333,34.3429536 243.609333,35.3189585 C243.609333,36.2949634 243.761831,37.2506205 244.066833,38.1859585 C244.371834,39.1212965 244.82933,39.9651214 245.439333,40.7174585 C246.049336,41.4697956 246.801662,42.0696229 247.696333,42.5169585 C248.591004,42.9642941 249.627993,43.1879585 250.807333,43.1879585 C251.986672,43.1879585 253.023662,42.9642941 253.918333,42.5169585 C254.813004,42.0696229 255.56533,41.4697956 256.175333,40.7174585 C256.785336,39.9651214 257.242831,39.1212965 257.547833,38.1859585 C257.852834,37.2506205 258.005333,36.2949634 258.005333,35.3189585 Z M292.775333,50.6299585 L281.978333,50.6299585 L270.022333,20.2519585 L281.063333,20.2519585 L287.468333,39.9549585 L287.651333,39.9549585 L294.056333,20.2519585 L304.731333,20.2519585 L292.775333,50.6299585 Z M329.497333,31.9639585 C329.497333,30.3779506 328.999171,29.0156309 328.002833,27.8769585 C327.006494,26.7382861 325.512009,26.1689585 323.519333,26.1689585 C322.543328,26.1689585 321.64867,26.321457 320.835333,26.6264585 C320.021995,26.93146 319.310336,27.3482892 318.700333,27.8769585 C318.09033,28.4056278 317.602335,29.0257883 317.236333,29.7374585 C316.870331,30.4491287 316.667,31.191288 316.626333,31.9639585 L329.497333,31.9639585 Z M338.708333,35.8069585 L338.708333,37.0269585 C338.708333,37.4336272 338.688,37.8199567 338.647333,38.1859585 L316.626333,38.1859585 C316.707666,39.0399628 316.961831,39.8126217 317.388833,40.5039585 C317.815835,41.1952953 318.364829,41.7951226 319.035833,42.3034585 C319.706836,42.8117944 320.459162,43.2082904 321.292833,43.4929585 C322.126504,43.7776266 322.990662,43.9199585 323.885333,43.9199585 C325.471341,43.9199585 326.813327,43.6251281 327.911333,43.0354585 C329.009338,42.4457889 329.903996,41.6832965 330.595333,40.7479585 L337.549333,45.1399585 C336.125992,47.2139689 334.245178,48.8101196 331.906833,49.9284585 C329.568488,51.0467974 326.854015,51.6059585 323.763333,51.6059585 C321.485988,51.6059585 319.330676,51.2501287 317.297333,50.5384585 C315.263989,49.8267883 313.48484,48.7897986 311.959833,47.4274585 C310.434825,46.0651184 309.23517,44.3876351 308.360833,42.3949585 C307.486495,40.4022819 307.049333,38.1249713 307.049333,35.5629585 C307.049333,33.0822794 307.476328,30.8354686 308.330333,28.8224585 C309.184337,26.8094484 310.343325,25.1014655 311.807333,23.6984585 C313.27134,22.2954515 314.999656,21.207629 316.992333,20.4349585 C318.985009,19.662288 321.140321,19.2759585 323.458333,19.2759585 C325.695011,19.2759585 327.748657,19.6521214 329.619333,20.4044585 C331.490009,21.1567956 333.096326,22.2446181 334.438333,23.6679585 C335.780339,25.091299 336.827496,26.819615 337.579833,28.8529585 C338.33217,30.886302 338.708333,33.2042788 338.708333,35.8069585 Z M367.927333,50.6299585 L367.927333,46.6649585 L367.805333,46.6649585 C366.829328,48.2102996 365.436508,49.3997877 363.626833,50.2334585 C361.817157,51.0671293 359.895676,51.4839585 357.862333,51.4839585 C355.584988,51.4839585 353.551675,51.0366296 351.762333,50.1419585 C349.97299,49.2472874 348.458172,48.0577993 347.217833,46.5734585 C345.977493,45.0891177 345.032003,43.3709683 344.381333,41.4189585 C343.730663,39.4669487 343.405333,37.4336357 343.405333,35.3189585 C343.405333,33.2042813 343.740829,31.1811348 344.411833,29.2494585 C345.082836,27.3177822 346.038493,25.6199658 347.278833,24.1559585 C348.519172,22.6919512 350.023824,21.5329628 351.792833,20.6789585 C353.561842,19.8249542 355.544322,19.3979585 357.740333,19.3979585 C359.977011,19.3979585 361.867992,19.8249542 363.413333,20.6789585 C364.958674,21.5329628 366.158328,22.4682868 367.012333,23.4849585 L367.134333,23.4849585 L367.134333,4.5139585 L377.138333,4.5139585 L377.138333,50.6299585 L367.927333,50.6299585 Z M367.561333,35.3799585 C367.561333,34.4039536 367.388501,33.4482965 367.042833,32.5129585 C366.697164,31.5776205 366.209169,30.7439622 365.578833,30.0119585 C364.948496,29.2799548 364.186004,28.6902941 363.291333,28.2429585 C362.396662,27.7956229 361.380005,27.5719585 360.241333,27.5719585 C359.061993,27.5719585 358.025004,27.7956229 357.130333,28.2429585 C356.235662,28.6902941 355.483336,29.2697883 354.873333,29.9814585 C354.26333,30.6931287 353.805834,31.5166205 353.500833,32.4519585 C353.195831,33.3872965 353.043333,34.3429536 353.043333,35.3189585 C353.043333,36.2949634 353.195831,37.2607871 353.500833,38.2164585 C353.805834,39.1721299 354.26333,40.0159548 354.873333,40.7479585 C355.483336,41.4799622 356.235662,42.0696229 357.130333,42.5169585 C358.025004,42.9642941 359.061993,43.1879585 360.241333,43.1879585 C361.380005,43.1879585 362.396662,42.9642941 363.291333,42.5169585 C364.186004,42.0696229 364.948496,41.4799622 365.578833,40.7479585 C366.209169,40.0159548 366.697164,39.1822965 367.042833,38.2469585 C367.388501,37.3116205 367.561333,36.3559634 367.561333,35.3799585 Z" id="soloved"></path>
                <path d="M7.683,35.392 L15.803,35.392 L15.803,40.992 L7.683,40.992 L7.683,35.392 Z M6.675,43.736 L16.867,43.736 L16.867,31.36 L15.747,31.36 C13.059,31.36 12.331,30.464 12.331,26.88 L12.331,19.6 L11.155,19.6 L11.155,24.528 C11.155,27.44 10.763,31.304 8.635,33.88 C8.243,33.376 7.403,32.648 6.675,32.144 L6.675,43.736 Z M7.795,19.6 L6.675,19.6 L6.675,30.52 C7.739,28.56 7.795,26.376 7.795,24.472 L7.795,19.6 Z M11.155,8.624 L11.155,13.104 L12.331,13.104 L12.331,8.624 L11.155,8.624 Z M16.867,27.608 L16.867,19.6 L15.803,19.6 L15.803,26.768 C15.803,27.552 15.915,27.608 16.251,27.608 L16.867,27.608 Z M17.203,8.624 L17.203,13.104 L22.523,13.104 L22.523,52.192 L16.867,52.192 L16.867,49.84 L6.675,49.84 L6.675,52.976 L1.299,52.976 L1.299,13.104 L6.395,13.104 L6.395,8.624 L0.627,8.624 L0.627,2.352 L23.083,2.352 L23.083,8.624 L17.203,8.624 Z M38.091,22.232 L34.395,28.448 C33.779,27.552 32.827,26.488 31.707,25.424 C30.475,28.056 29.075,30.352 27.507,32.2 C26.555,30.912 24.147,28.336 22.747,27.216 C25.771,23.744 27.843,18.256 28.907,12.656 L35.459,14 C35.123,15.568 34.731,17.192 34.227,18.704 C35.739,19.936 37.251,21.224 38.091,22.232 Z M52.539,5.6 L52.539,12.656 L24.539,12.656 L24.539,5.6 L34.339,5.6 C34.059,4.312 33.611,2.968 33.219,1.792 L40.723,0 C41.451,1.736 42.235,3.864 42.627,5.6 L52.539,5.6 Z M41.787,30.576 L41.787,33.824 L52.987,33.824 L52.987,41.048 L41.787,41.048 L41.787,53.48 L34.115,53.48 L34.115,41.048 L23.699,41.048 L23.699,33.824 L34.115,33.824 L34.115,29.512 L39.715,29.512 C38.651,28.336 37.363,26.992 36.467,26.264 C39.379,23.016 41.451,17.92 42.515,12.656 L49.067,14.056 C48.675,15.904 48.115,17.696 47.555,19.432 C49.795,21.728 52.147,24.36 53.323,26.264 L48.787,31.36 C47.947,29.848 46.435,27.888 44.811,25.928 C43.859,27.664 42.851,29.232 41.787,30.576 Z M89.8242632,26.488 L88.7042632,27.104 C90.8322632,28.616 92.5122632,30.24 93.8562632,31.92 C97.7202632,30.352 101.864263,28.28 104.832263,26.488 L89.8242632,26.488 Z M88.3682632,45.472 C89.6562632,44.688 90.3842632,43.064 90.1602632,40.936 C87.2482632,42.896 83.9442632,44.688 80.4722632,46.2 C82.0402632,46.312 83.5522632,46.368 84.7282632,46.368 C86.1842632,46.368 87.4722632,46.256 88.3682632,45.472 Z M88.9282632,9.576 L79.8562632,9.576 C79.1282632,10.36 78.3442632,11.144 77.5602632,11.872 L87.2482632,11.872 C87.8642632,11.144 88.4242632,10.36 88.9282632,9.576 Z M92.0642632,17.64 L92.0642632,20.72 L101.192263,20.72 L101.192263,17.64 L92.0642632,17.64 Z M76.9442632,20.72 L84.8402632,20.72 L84.8402632,17.64 L76.9442632,17.64 L76.9442632,20.72 Z M105.672263,26.488 L111.888263,31.192 C109.592263,32.312 107.128263,33.432 104.664263,34.44 C106.848263,38.584 110.488263,42.84 115.528263,44.856 C113.792263,46.424 111.216263,49.728 110.096263,51.912 C104.328263,48.72 100.352263,42.56 98.0002632,36.96 L96.9922632,37.24 C99.2882632,43.288 97.6082632,49.056 93.4082632,51.52 C91.0002632,53.088 89.2082632,53.48 86.0722632,53.536 C84.6162632,53.536 82.9362632,53.48 81.2002632,53.368 C81.0882632,51.464 80.4722632,48.72 79.3522632,46.704 C75.3202632,48.44 71.1202632,49.896 67.2002632,50.904 C66.1922632,49.224 64.1762632,46.48 62.7202632,45.024 C71.6802632,43.232 81.9282632,39.536 87.7522632,35.504 C87.5842632,35.224 87.3602632,35 87.1362632,34.72 C81.4802632,37.912 74.2562632,40.488 67.7042632,41.888 C66.8082632,40.264 64.9042632,37.8 63.5042632,36.4 C70.2242632,35.392 77.7282632,33.376 82.9362632,30.912 C82.6002632,30.632 82.2642632,30.408 81.9282632,30.184 C77.6162632,31.864 72.9682632,33.264 68.9362632,34.104 C67.9842632,32.592 66.1362632,30.072 64.7362632,28.728 C68.2642632,28.224 72.1842632,27.44 75.8802632,26.488 L69.3282632,26.488 L69.3282632,18.256 L68.1522632,18.984 C66.9762632,17.136 64.4562632,14.392 62.7202632,13.216 C69.8322632,9.52 74.8722632,4.536 77.7282632,0 L86.1282632,1.736 C85.6802632,2.352 85.2322632,3.024 84.7842632,3.64 L93.4082632,3.64 L94.6402632,3.304 L100.184263,6.944 C99.2322632,8.456 97.9442632,10.192 96.6002632,11.872 L109.256263,11.872 L109.256263,26.488 L105.672263,26.488 Z" id="醉象"></path>
                <path d="M13.209,74.3959585 L13.209,77.8739585 L-2.84217094e-14,77.8739585 L-2.84217094e-14,74.3959585 L5.994,74.3959585 C5.439,73.0269585 4.514,71.1769585 3.737,69.7709585 L6.956,68.4389585 C7.918,69.9559585 9.065,72.0649585 9.62,73.3599585 L7.437,74.3959585 L13.209,74.3959585 Z M12.062,79.5389585 L12.062,82.8689585 L1.591,82.8689585 L1.591,79.5389585 L12.062,79.5389585 Z M1.554,87.8269585 L1.554,84.4969585 L12.025,84.4969585 L12.025,87.8269585 L1.554,87.8269585 Z M25.197,90.1949585 L22.052,90.1949585 L22.052,93.2659585 L25.197,93.2659585 L25.197,90.1949585 Z M28.416,96.2999585 L22.052,96.2999585 L22.052,98.0019585 L19.055,98.0019585 L19.055,87.1239585 L28.416,87.1239585 L28.416,96.2999585 Z M25.641,82.0549585 L29.711,82.0549585 L29.711,79.5759585 L25.641,79.5759585 L25.641,82.0549585 Z M18.093,79.5759585 L18.093,82.0549585 L22.089,82.0549585 L22.089,79.5759585 L18.093,79.5759585 Z M22.089,73.4709585 L18.093,73.4709585 L18.093,76.1349585 L22.089,76.1349585 L22.089,73.4709585 Z M29.711,76.1349585 L29.711,73.4709585 L25.641,73.4709585 L25.641,76.1349585 L29.711,76.1349585 Z M8.695,97.2989585 L8.695,93.1549585 L4.921,93.1549585 L4.921,97.2989585 L8.695,97.2989585 Z M33.3,69.6229585 L33.3,98.2239585 C33.3,100.073959 32.967,101.109959 31.857,101.775959 C30.784,102.404959 29.156,102.478959 26.751,102.478959 C26.603,101.442959 26.122,99.7779585 25.604,98.8159585 C27.121,98.8899585 28.601,98.8529585 29.082,98.8159585 C29.563,98.8159585 29.711,98.6679585 29.711,98.1499585 L29.711,85.4959585 L18.093,85.4959585 C18.019,91.0829585 17.427,98.3349585 14.726,102.959959 C14.097,102.367959 12.543,101.183959 11.729,100.813959 L4.921,100.813959 L4.921,102.256959 L1.443,102.256959 L1.443,89.6029585 L12.173,89.6029585 L12.173,99.9629585 C14.393,95.3009585 14.578,89.0109585 14.578,84.0899585 L14.578,69.6229585 L33.3,69.6229585 Z M70.6,68.5869585 L70.6,83.3499585 C70.6,85.2369585 70.23,86.1249585 68.898,86.7169585 C67.603,87.2719585 65.753,87.3089585 63.237,87.3089585 C63.015,86.2359585 62.423,84.7929585 61.942,83.8309585 C63.607,83.9049585 65.383,83.9049585 65.901,83.8679585 C66.419,83.8679585 66.604,83.7199585 66.604,83.2389585 L66.604,68.5869585 L70.6,68.5869585 Z M63.348,70.1039585 L63.348,82.3139585 L59.426,82.3139585 L59.426,70.1039585 L63.348,70.1039585 Z M67.085,91.6749585 L59.5,91.6749585 C60.24,92.8219585 61.165,93.7839585 62.164,94.6719585 C63.866,93.7839585 65.716,92.6739585 67.085,91.6749585 Z M41.962,74.9509585 L46.476,74.9509585 L46.476,73.4709585 L42.924,73.4709585 C42.628,73.9889585 42.295,74.5069585 41.962,74.9509585 Z M53.0435,86.3099585 L51.878,86.3099585 C51.693,85.4589585 51.175,84.4969585 50.842,83.7939585 C51.693,83.8309585 52.544,83.8309585 52.803,83.8309585 C53.136,83.8309585 53.247,83.7199585 53.247,83.4239585 L53.247,81.8699585 L50.213,81.8699585 L50.213,87.3089585 L46.476,87.3089585 L46.476,81.8699585 L43.627,81.8699585 L43.627,86.4579585 L40.297,86.4579585 L40.297,79.2059585 L46.476,79.2059585 L46.476,77.9109585 L38.817,77.9109585 L38.817,74.9509585 L41.111,74.9509585 C40.371,74.5069585 39.409,73.9519585 38.78,73.6559585 C40.038,72.2499585 41.074,70.2519585 41.703,68.3649585 L44.922,69.1789585 C44.737,69.6969585 44.552,70.1409585 44.33,70.6589585 L46.476,70.6589585 L46.476,68.2909585 L50.213,68.2909585 L50.213,70.6589585 L56.318,70.6589585 L56.318,73.4709585 L50.213,73.4709585 L50.213,74.9509585 L57.317,74.9509585 L57.317,77.9109585 L50.213,77.9109585 L50.213,79.2059585 L56.762,79.2059585 L56.762,83.4239585 C56.762,84.3489585 56.651,84.9779585 56.281,85.3849585 L57.132,85.1629585 C57.687,86.0509585 58.205,87.1979585 58.575,88.1969585 L72.154,88.1969585 L72.154,91.6749585 L68.417,91.6749585 L70.896,93.5249585 C69.157,94.6719585 67.122,95.8189585 65.235,96.7069585 C67.381,97.7429585 69.86,98.4829585 72.783,98.8899585 C71.969,99.7409585 70.933,101.331959 70.415,102.367959 C62.941,100.924959 58.316,97.5949585 55.541,91.8969585 C54.061,93.1179585 52.211,94.1539585 50.213,95.0419585 L50.213,98.3349585 L57.095,96.9289585 C56.91,97.8909585 56.799,99.4449585 56.799,100.221959 C47.993,102.219959 46.698,102.589959 45.958,103.070959 L45.921,102.737959 C45.699,101.849959 45.033,100.554959 44.626,100.036959 C45.292,99.5189585 46.254,98.5939585 46.254,96.7069585 L46.254,96.5959585 C44.441,97.1879585 42.517,97.6319585 40.63,97.9649585 C40.112,97.0399585 39.076,95.5969585 38.299,94.7829585 C42.332,94.2279585 46.513,93.1919585 49.695,91.6749585 L38.891,91.6749585 L38.891,88.1969585 L53.876,88.1969585 C53.617,87.5309585 53.321,86.9019585 53.025,86.3099585 L53.0435,86.3099585 Z M84.072,68.4389585 L88.253,69.7339585 C87.291,72.2869585 86.107,74.8769585 84.738,77.3189585 L84.738,102.774959 L80.52,102.774959 L80.52,83.8679585 C79.706,84.9779585 78.855,85.9769585 78.041,86.8649585 C77.634,85.7549585 76.413,83.3499585 75.673,82.2769585 C79.003,78.9469585 82.222,73.6929585 84.072,68.4389585 Z M90.917,84.7559585 L95.209,85.6439585 C94.136,90.3429585 92.249,95.0049585 90.177,98.0019585 C89.326,97.2989585 87.476,96.1889585 86.403,95.6339585 C88.512,93.0439585 90.066,88.8629585 90.917,84.7559585 Z M106.309,78.9839585 L101.351,78.9839585 L101.351,97.9279585 C101.351,100.036959 100.981,101.257959 99.649,101.997959 C98.354,102.700959 96.578,102.885959 94.21,102.885959 C94.025,101.590959 93.359,99.6299585 92.693,98.4459585 C94.247,98.4829585 95.801,98.4829585 96.319,98.4829585 C96.8,98.4829585 96.985,98.3349585 96.985,97.8539585 L96.985,78.9839585 L92.693,78.9839585 C91.657,81.1299585 90.436,83.0909585 89.215,84.6449585 C88.438,83.8679585 86.662,82.4249585 85.663,81.7589585 C88.475,78.6139585 90.695,73.5079585 91.953,68.4389585 L96.245,69.4009585 C95.764,71.2879585 95.172,73.1009585 94.506,74.9139585 L107.234,74.9139585 L107.937,74.7659585 L111.045,75.3579585 C110.601,78.3549585 109.972,81.7959585 109.454,83.9419585 L105.717,83.3129585 C105.902,82.1659585 106.124,80.6119585 106.309,78.9839585 Z M102.683,85.7179585 L106.605,84.3859585 C108.529,88.1969585 110.12,93.1179585 110.638,96.4479585 L106.42,97.8909585 C106.013,94.5979585 104.459,89.5289585 102.683,85.7179585 Z M120.262,95.1529585 L126.145,95.1529585 L126.145,87.9009585 L120.262,87.9009585 L120.262,95.1529585 Z M126.145,84.0899585 L126.145,78.0959585 L120.262,78.0959585 L120.262,84.0899585 L126.145,84.0899585 Z M137.874,73.9889585 L148.308,73.9889585 C148.308,73.9889585 148.308,75.4689585 148.271,75.9869585 C147.79,92.5259585 147.383,98.4089585 145.866,100.369959 C144.83,101.738959 143.794,102.145959 142.314,102.404959 C140.908,102.589959 138.688,102.552959 136.505,102.478959 C136.431,101.257959 135.839,99.4079585 135.062,98.1869585 C137.43,98.4089585 139.613,98.4089585 140.575,98.4089585 C141.315,98.4089585 141.722,98.2609585 142.203,97.7799585 C143.276,96.5959585 143.757,91.0459585 144.164,77.9849585 L136.246,77.9849585 C135.284,80.2049585 134.137,82.2399585 132.99,83.8309585 C132.398,83.2759585 131.14,82.4249585 130.141,81.7589585 L130.141,99.0379585 L120.262,99.0379585 L120.262,101.738959 L116.266,101.738959 L116.266,74.2479585 L120.447,74.2479585 C120.928,72.3979585 121.372,70.0299585 121.52,68.2909585 L126.33,68.9569585 C125.701,70.8069585 125.035,72.6569585 124.406,74.2479585 L130.141,74.2479585 L130.141,80.2419585 C132.287,77.1339585 134.063,72.6569585 135.136,68.3279585 L139.317,69.2899585 C138.947,70.8809585 138.429,72.4349585 137.874,73.9889585 Z M142.166,90.8609585 L138.429,93.1549585 C137.393,90.9349585 135.099,87.3089585 133.286,84.6079585 L136.727,82.6469585 C138.577,85.1999585 141.019,88.7149585 142.166,90.8609585 Z M172.251,85.9769585 L172.251,87.2719585 L176.913,87.2349585 C176.395,87.0129585 175.877,86.7539585 175.396,86.5689585 L176.136,85.9769585 L172.251,85.9769585 Z M161.41,83.2759585 L167.959,83.2759585 L167.959,81.8699585 L161.41,81.8699585 L161.41,83.2759585 Z M161.41,77.9849585 L161.41,79.3539585 L167.959,79.3539585 L167.959,77.9849585 L161.41,77.9849585 Z M179.133,77.9849585 L172.251,77.9849585 L172.251,79.3539585 L179.133,79.3539585 L179.133,77.9849585 Z M172.251,83.2759585 L179.133,83.2759585 L179.133,81.8699585 L172.251,81.8699585 L172.251,83.2759585 Z M187.014,91.5269585 L187.014,95.0049585 L178.763,95.0049585 L178.763,98.5939585 C178.763,100.628959 178.393,101.664959 176.876,102.256959 C175.396,102.811959 173.324,102.848959 170.512,102.848959 C170.327,101.664959 169.772,100.110959 169.254,99.0009585 C171.03,99.0749585 173.139,99.0749585 173.731,99.0749585 C174.323,99.0379585 174.508,98.9269585 174.508,98.4459585 L174.508,95.0049585 L164.074,95.0049585 C165.628,96.1149585 167.182,97.4099585 168.033,98.4089585 L164.777,101.220959 C163.704,99.7779585 161.225,97.6689585 159.227,96.2999585 L160.781,95.0049585 L153.381,95.0049585 L153.381,91.5269585 L174.508,91.5269585 L174.508,90.1579585 C167.219,90.3059585 160.226,90.4169585 155.046,90.4539585 L154.935,87.3089585 C158.413,87.3459585 162.964,87.3089585 167.959,87.3089585 L167.959,85.9769585 L157.303,85.9769585 L157.303,75.3209585 L167.959,75.3209585 L167.959,73.9889585 L154.38,73.9889585 L154.38,70.6589585 L167.959,70.6589585 L167.959,68.3279585 L172.251,68.3279585 L172.251,70.6589585 L185.756,70.6589585 L185.756,73.9889585 L172.251,73.9889585 L172.251,75.3209585 L183.425,75.3209585 L183.425,85.9769585 L180.946,85.9769585 C182.796,86.9389585 184.535,88.0489585 185.719,88.9369585 L183.018,91.1939585 C182.574,90.8239585 182.056,90.3799585 181.464,89.9729585 L178.763,90.0469585 L178.763,91.5269585 L187.014,91.5269585 Z M213.473,77.5039585 L213.473,82.7949585 L209.44,82.7949585 L209.44,77.5039585 L213.473,77.5039585 Z M217.469,97.7059585 L216.248,97.7059585 C216.803,98.3719585 217.321,99.0379585 217.691,99.7409585 L218.505,99.7409585 C218.875,99.7409585 219.134,99.6669585 219.356,99.3339585 C219.763,98.8159585 220.059,96.9659585 220.281,92.0079585 L211.105,92.0079585 L211.105,93.0439585 L217.469,93.0439585 L217.469,97.7059585 Z M211.105,98.7789585 L213.473,98.6679585 C213.288,98.4089585 213.14,98.2239585 212.955,98.0019585 L213.695,97.7059585 L211.105,97.7059585 L211.105,98.7789585 Z M214.139,95.9669585 L214.139,94.7829585 L211.105,94.7829585 L211.105,95.9669585 L214.139,95.9669585 Z M204.297,95.9669585 L207.405,95.9669585 L207.405,94.7829585 L204.297,94.7829585 L204.297,95.9669585 Z M207.405,92.0079585 L204.408,92.0079585 C204.038,92.3779585 203.668,92.7109585 203.261,93.0439585 L207.405,93.0439585 L207.405,92.0079585 Z M198.488,76.9859585 L198.488,80.6119585 C198.488,84.0529585 198.34,88.4189585 197.674,92.6739585 C199.968,91.4159585 201.744,89.9359585 202.965,88.4559585 L199.931,88.4559585 L199.931,83.2759585 L200.671,83.2759585 L200.042,81.0929585 C201.596,80.8339585 203.705,80.5009585 205.962,80.0569585 C204.482,79.6499585 202.521,79.2059585 200.782,78.9839585 L201.411,77.0599585 C203.631,77.3189585 206.147,77.7629585 207.701,78.2809585 L207.072,79.8719585 L208.478,79.6129585 L208.515,81.7959585 C206.147,82.3509585 203.705,82.9059585 201.67,83.2759585 L220.873,83.2759585 C219.134,82.7579585 216.729,82.2769585 214.509,81.9809585 L215.138,80.0939585 L215.915,80.1309585 L215.064,78.3919585 C216.396,78.1699585 218.357,77.5039585 219.837,76.9859585 L198.488,76.9859585 Z M219.356,72.4349585 L198.488,72.4349585 L198.488,74.1739585 L219.356,74.1739585 L219.356,72.4349585 Z M219.245,86.6799585 L219.245,85.0519585 L216.1,85.0519585 L216.1,86.6799585 L219.245,86.6799585 Z M212.77,86.6799585 L212.77,85.0519585 L209.699,85.0519585 L209.699,86.6799585 L212.77,86.6799585 Z M206.369,86.6799585 L206.369,85.0519585 L203.372,85.0519585 L203.372,86.6799585 L206.369,86.6799585 Z M206.665,89.5659585 L224.314,89.5659585 C224.314,89.5659585 224.314,90.4909585 224.277,90.9349585 C223.981,97.8169585 223.611,100.443959 222.797,101.442959 C222.205,102.219959 221.465,102.478959 220.651,102.589959 C219.874,102.737959 218.616,102.737959 217.321,102.700959 C217.284,102.293959 217.21,101.775959 217.062,101.294959 L215.471,101.960959 C215.36,101.664959 215.212,101.368959 215.064,101.072959 C209.366,101.479959 203.483,101.849959 199.228,102.108959 L198.969,99.2599585 C201.263,99.1859585 204.186,99.0379585 207.405,98.8899585 L207.405,97.7059585 L201.152,97.7059585 L201.152,94.5979585 C200.671,94.9309585 200.153,95.2639585 199.672,95.5599585 C199.191,94.8939585 198.303,94.0799585 197.563,93.5249585 C196.971,96.8919585 196.12,100.110959 194.714,102.737959 C193.9,102.071959 192.013,100.998959 190.903,100.591959 C193.974,94.8939585 194.233,86.4949585 194.233,80.6119585 L194.233,69.6599585 L223.648,69.6599585 L223.648,76.9859585 L221.095,76.9859585 L222.057,78.6879585 C220.244,79.3909585 217.765,79.8719585 216.026,80.1679585 C218.283,80.4269585 220.725,80.9079585 222.168,81.3519585 L221.465,83.2759585 L222.871,83.2759585 L222.871,88.4559585 L207.479,88.4559585 C207.22,88.8259585 206.961,89.1959585 206.665,89.5659585 Z M237.601,68.3649585 L241.671,69.6969585 C240.672,72.2499585 239.451,74.8769585 238.008,77.3559585 L238.008,102.737959 L233.827,102.737959 L233.827,83.7199585 C232.976,84.7929585 232.088,85.7919585 231.237,86.7169585 C230.83,85.6439585 229.609,83.2759585 228.869,82.2029585 C232.31,78.8729585 235.677,73.6189585 237.601,68.3649585 Z M244.187,91.0089585 L248.146,92.1929585 C246.629,95.3749585 244.372,98.9639585 242.485,101.220959 C241.708,100.554959 240.08,99.3709585 239.081,98.8529585 C240.931,96.8179585 242.929,93.7469585 244.187,91.0089585 Z M246.592,73.7669585 L246.592,78.7249585 L257.433,78.7249585 L257.433,73.7669585 L246.592,73.7669585 Z M263.686,89.8619585 L254.103,89.8619585 L254.103,102.848959 L249.663,102.848959 L249.663,89.8619585 L240.006,89.8619585 L240.006,85.8659585 L249.663,85.8659585 L249.663,82.6099585 L242.411,82.6099585 L242.411,69.8819585 L261.836,69.8819585 L261.836,82.6099585 L254.103,82.6099585 L254.103,85.8659585 L263.686,85.8659585 L263.686,89.8619585 Z M255.361,92.7849585 L258.617,90.9719585 C260.726,93.4139585 262.983,96.5959585 264.056,98.7789585 L260.578,100.887959 C259.579,98.7049585 257.322,95.3009585 255.361,92.7849585 Z M276.751,86.9019585 L293.179,86.9019585 C292.106,85.9399585 291.107,84.9039585 290.219,83.7939585 L290.219,85.6809585 L279.489,85.6809585 L279.489,84.0159585 C278.675,85.0149585 277.713,85.9769585 276.751,86.9019585 Z M294.918,95.8929585 L286.408,95.8929585 C288.147,96.3369585 290.108,96.8919585 292.106,97.4839585 C293.031,97.0029585 293.993,96.4479585 294.918,95.8929585 Z M284.077,97.1509585 L284.077,97.7429585 L285.409,95.8929585 L278.49,95.8929585 L278.49,98.1499585 L284.077,97.1509585 Z M278.49,92.3779585 L278.49,93.5619585 L290.552,93.5619585 L290.552,92.3779585 L278.49,92.3779585 Z M278.49,89.2329585 L278.49,90.3799585 L290.552,90.3799585 L290.552,89.2329585 L278.49,89.2329585 Z M289.257,82.4619585 L280.599,82.4619585 L279.822,83.5719585 L290.034,83.5719585 C289.775,83.2019585 289.479,82.8319585 289.257,82.4619585 Z M301.208,82.4619585 L293.956,82.4619585 C296.176,84.6449585 299.21,86.3839585 302.429,87.3829585 C301.467,88.1969585 300.246,89.7509585 299.617,90.8239585 C297.989,90.1949585 296.472,89.3439585 295.029,88.3449585 L295.029,95.8189585 C296.028,95.2269585 296.916,94.6719585 297.656,94.1169585 L300.505,96.3369585 C299.062,97.1139585 297.434,97.9279585 295.917,98.5939585 C297.656,99.1489585 299.21,99.6669585 300.431,100.110959 L298.581,103.070959 C295.325,101.812959 288.887,99.6669585 284.114,98.3719585 C284.188,99.1119585 284.262,99.8519585 284.336,100.369959 C276.011,102.108959 274.716,102.478959 273.865,102.996959 C273.569,102.034959 272.718,100.221959 272.052,99.4819585 C272.829,99.0379585 273.68,98.1869585 273.68,96.4849585 L273.68,89.3069585 C272.533,90.0839585 271.386,90.7869585 270.202,91.3419585 C269.573,90.5279585 268.13,88.8999585 267.168,88.1599585 C270.387,86.9019585 273.458,84.8669585 275.567,82.4619585 L268.537,82.4619585 L268.537,79.5389585 L282.523,79.5389585 L282.523,78.2809585 L272.2,78.2809585 L272.2,75.6539585 L282.523,75.6539585 L282.523,74.4329585 L270.461,74.4329585 L270.461,71.5839585 L276.381,71.5839585 C275.974,70.8809585 275.53,70.1409585 275.123,69.5489585 L279.082,68.3279585 C279.859,69.3269585 280.673,70.6219585 281.191,71.5839585 L288.813,71.5839585 C289.405,70.5109585 290.071,69.2159585 290.404,68.2539585 L295.288,69.2159585 C294.659,70.0669585 294.067,70.8809585 293.475,71.5839585 L299.247,71.5839585 L299.247,74.4329585 L287.074,74.4329585 L287.074,75.6539585 L297.508,75.6539585 L297.508,78.2809585 L287.074,78.2809585 L287.074,79.5389585 L301.208,79.5389585 L301.208,82.4619585 Z M314.865,81.7959585 L320.822,81.7959585 L320.822,79.4279585 L314.865,79.4279585 L314.865,81.7959585 Z M314.865,73.6559585 L314.865,76.0239585 L320.822,76.0239585 L320.822,73.6559585 L314.865,73.6559585 Z M331.367,76.0239585 L331.367,73.6559585 L325.484,73.6559585 L325.484,76.0239585 L331.367,76.0239585 Z M331.367,81.7959585 L331.367,79.4279585 L325.484,79.4279585 L325.484,81.7959585 L331.367,81.7959585 Z M339.618,91.6749585 L328.703,91.6749585 C331.959,94.3019585 336.473,96.6699585 340.691,97.8909585 C339.692,98.7789585 338.36,100.517959 337.731,101.627959 C333.439,99.9999585 328.925,97.1139585 325.484,93.7469585 L325.484,102.848959 L320.822,102.848959 L320.822,93.9319585 C317.418,97.3359585 312.904,100.221959 308.501,101.849959 C307.835,100.813959 306.503,99.1119585 305.504,98.1869585 C309.907,96.8919585 314.495,94.4499585 317.603,91.6749585 L306.651,91.6749585 L306.651,87.6419585 L320.822,87.6419585 L320.822,85.4589585 L310.24,85.4589585 L310.24,69.9929585 L336.214,69.9929585 L336.214,85.4589585 L325.484,85.4589585 L325.484,87.6419585 L339.618,87.6419585 L339.618,91.6749585 Z M368.297,89.4919585 L354.274,89.4919585 L354.274,91.9339585 L368.297,91.9339585 L368.297,89.4919585 Z M354.274,97.9649585 L368.297,97.9649585 L368.297,95.3749585 L354.274,95.3749585 L354.274,97.9649585 Z M349.797,102.811959 L349.797,85.7919585 L372.996,85.7919585 L372.996,102.811959 L368.297,102.811959 L368.297,101.627959 L354.274,101.627959 L354.274,102.811959 L349.797,102.811959 Z M357.456,76.2089585 L357.456,79.4649585 L365.004,79.4649585 L365.004,76.2089585 L357.456,76.2089585 Z M369.592,79.4649585 L377.806,79.4649585 L377.806,83.5349585 L344.913,83.5349585 L344.913,79.4649585 L352.905,79.4649585 L352.905,76.2089585 L346.763,76.2089585 L346.763,72.2129585 L352.905,72.2129585 L352.905,68.3279585 L357.456,68.3279585 L357.456,72.2129585 L365.004,72.2129585 L365.004,68.3279585 L369.592,68.3279585 L369.592,72.2129585 L376.03,72.2129585 L376.03,76.2089585 L369.592,76.2089585 L369.592,79.4649585 Z" id="調製你的專屬保養果昔"></path>
            </g>
        </g>
    </g>
</svg>