<?xml version="1.0" encoding="UTF-8"?>
<svg width="289px" height="27px" viewBox="0 0 289 27" version="1.1" xmlns="http://www.w3.org/2000/svg" xmlns:xlink="http://www.w3.org/1999/xlink">
    <title>fall#drunkinlove</title>
    <defs>
        <path d="M10.368,4.48 C9.04532672,4.39466624 8.117336,4.58666432 7.584,5.056 C7.050664,5.52533568 6.784,6.3466608 6.784,7.52 L6.784,7.552 L10.368,7.552 L10.368,11.36 L6.784,11.36 L6.784,25.28 L2.272,25.28 L2.272,11.36 L0,11.36 L0,7.552 L2.272,7.552 L2.272,7.136 C2.272,5.02398944 2.87466064,3.39733904 4.08,2.256 C5.28533936,1.11466096 7.07198816,0.544 9.44,0.544 C9.84533536,0.544 10.1546656,0.55466656 10.368,0.576 L10.368,4.48 Z M20.7218045,7.328 C22.2151453,7.328 23.4951325,7.67999648 24.5618045,8.384 C25.6284765,9.08800352 26.3858023,10.0373274 26.8338045,11.232 L26.8338045,7.552 L31.3138045,7.552 L31.3138045,25.28 L26.8338045,25.28 L26.8338045,21.568 C26.3858023,22.7626726 25.6284765,23.7173298 24.5618045,24.432 C23.4951325,25.1466702 22.2151453,25.504 20.7218045,25.504 C19.2284637,25.504 17.8844771,25.141337 16.6898045,24.416 C15.4951319,23.690663 14.5618079,22.6400069 13.8898045,21.264 C13.2178011,19.8879931 12.8818045,18.2720093 12.8818045,16.416 C12.8818045,14.5599907 13.2178011,12.9440069 13.8898045,11.568 C14.5618079,10.1919931 15.4951319,9.14133696 16.6898045,8.416 C17.8844771,7.69066304 19.2284637,7.328 20.7218045,7.328 Z M22.1298045,11.264 C20.7217975,11.264 19.5911421,11.7226621 18.7378045,12.64 C17.8844669,13.5573379 17.4578045,14.815992 17.4578045,16.416 C17.4578045,18.016008 17.8844669,19.2693288 18.7378045,20.176 C19.5911421,21.0826712 20.7217975,21.536 22.1298045,21.536 C23.4951447,21.536 24.6204667,21.0720046 25.5058045,20.144 C26.3911423,19.2159954 26.8338045,17.9733411 26.8338045,16.416 C26.8338045,14.8373254 26.3911423,13.5840046 25.5058045,12.656 C24.6204667,11.7279954 23.4951447,11.264 22.1298045,11.264 Z M40.643609,1.6 L40.643609,25.28 L36.131609,25.28 L36.131609,1.6 L40.643609,1.6 Z M49.9734135,1.6 L49.9734135,25.28 L45.4614135,25.28 L45.4614135,1.6 L49.9734135,1.6 Z M82.0410225,11.232 L81.0810225,15.616 L85.2090225,15.616 L85.2090225,19.712 L80.2170225,19.712 L79.0330225,25.28 L74.8410225,25.28 L76.0250225,19.712 L70.1370225,19.712 L68.9530225,25.28 L64.7610225,25.28 L65.9450225,19.712 L61.1450225,19.712 L61.1450225,15.616 L66.8090225,15.616 L67.7690225,11.232 L63.0970225,11.232 L63.0970225,7.136 L68.6330225,7.136 L69.8170225,1.6 L74.0090225,1.6 L72.8250225,7.136 L78.7130225,7.136 L79.8970225,1.6 L84.0890225,1.6 L82.9050225,7.136 L87.1610225,7.136 L87.1610225,11.232 L82.0410225,11.232 Z M77.8490225,11.232 L71.9610225,11.232 L71.0010225,15.616 L76.8890225,15.616 L77.8490225,11.232 Z M97.578827,7.328 C99.0721678,7.328 100.346822,7.67999648 101.402827,8.384 C102.458832,9.08800352 103.221491,10.0373274 103.690827,11.232 L103.690827,1.6 L108.170827,1.6 L108.170827,25.28 L103.690827,25.28 L103.690827,21.568 C103.221491,22.7626726 102.458832,23.7173298 101.402827,24.432 C100.346822,25.1466702 99.0721678,25.504 97.578827,25.504 C96.0854862,25.504 94.7414997,25.141337 93.546827,24.416 C92.3521544,23.690663 91.4188304,22.6400069 90.746827,21.264 C90.0748237,19.8879931 89.738827,18.2720093 89.738827,16.416 C89.738827,14.5599907 90.0748237,12.9440069 90.746827,11.568 C91.4188304,10.1919931 92.3521544,9.14133696 93.546827,8.416 C94.7414997,7.69066304 96.0854862,7.328 97.578827,7.328 Z M98.986827,11.264 C97.57882,11.264 96.4481646,11.7226621 95.594827,12.64 C94.7414894,13.5573379 94.314827,14.815992 94.314827,16.416 C94.314827,18.016008 94.7414894,19.2693288 95.594827,20.176 C96.4481646,21.0826712 97.57882,21.536 98.986827,21.536 C100.352167,21.536 101.477489,21.0720046 102.362827,20.144 C103.248165,19.2159954 103.690827,17.9733411 103.690827,16.416 C103.690827,14.8373254 103.248165,13.5840046 102.362827,12.656 C101.477489,11.7279954 100.352167,11.264 98.986827,11.264 Z M117.500632,10.944 C118.161968,9.81332768 119.036626,8.92266992 120.124632,8.272 C121.212637,7.62133008 122.428625,7.296 123.772632,7.296 L123.772632,12.128 L122.460632,12.128 C119.153948,12.128 117.500632,13.6639846 117.500632,16.736 L117.500632,25.28 L112.988632,25.28 L112.988632,7.552 L117.500632,7.552 L117.500632,10.944 Z M143.950436,7.552 L143.950436,25.28 L139.438436,25.28 L139.438436,21.696 C138.9691,22.8906726 138.195775,23.8239966 137.118436,24.496 C136.041097,25.1680034 134.798443,25.504 133.390436,25.504 C131.342426,25.504 129.710442,24.8320067 128.494436,23.488 C127.27843,22.1439933 126.670436,20.2666787 126.670436,17.856 L126.670436,7.552 L131.150436,7.552 L131.150436,17.344 C131.150436,18.752007 131.513099,19.8453294 132.238436,20.624 C132.963773,21.4026706 133.945097,21.792 135.182436,21.792 C136.483776,21.792 137.518432,21.3760042 138.286436,20.544 C139.05444,19.7119958 139.438436,18.5173411 139.438436,16.96 L139.438436,7.552 L143.950436,7.552 Z M159.328241,7.296 C161.376251,7.296 163.008234,7.96799328 164.224241,9.312 C165.440247,10.6560067 166.048241,12.5439878 166.048241,14.976 L166.048241,25.28 L161.568241,25.28 L161.568241,15.488 C161.568241,14.079993 161.205578,12.9866706 160.480241,12.208 C159.754904,11.4293294 158.762914,11.04 157.504241,11.04 C156.224234,11.04 155.200244,11.4559958 154.432241,12.288 C153.664237,13.1200042 153.280241,14.3146589 153.280241,15.872 L153.280241,25.28 L148.768241,25.28 L148.768241,7.552 L153.280241,7.552 L153.280241,11.104 C153.749576,9.90932736 154.522902,8.97600336 155.600241,8.304 C156.677579,7.63199664 157.920234,7.296 159.328241,7.296 Z M181.106045,25.28 L175.250045,17.536 L175.250045,25.28 L170.738045,25.28 L170.738045,1.6 L175.250045,1.6 L175.250045,14.912 L181.074045,7.552 L186.418045,7.552 L178.962045,16.384 L186.610045,25.28 L181.106045,25.28 Z M188.99585,2.464 C188.99585,1.73866304 189.251847,1.14666896 189.76385,0.688 C190.275852,0.22933104 190.947845,-4.54747351e-13 191.77985,-4.54747351e-13 C192.611854,-4.54747351e-13 193.283847,0.22933104 193.79585,0.688 C194.307852,1.14666896 194.56385,1.73866304 194.56385,2.464 C194.56385,3.16800352 194.307852,3.74933104 193.79585,4.208 C193.283847,4.66666896 192.611854,4.896 191.77985,4.896 C190.947845,4.896 190.275852,4.66666896 189.76385,4.208 C189.251847,3.74933104 188.99585,3.16800352 188.99585,2.464 Z M194.01985,7.552 L194.01985,25.28 L189.50785,25.28 L189.50785,7.552 L194.01985,7.552 Z M209.397654,7.296 C211.445664,7.296 213.077648,7.96799328 214.293654,9.312 C215.50966,10.6560067 216.117654,12.5439878 216.117654,14.976 L216.117654,25.28 L211.637654,25.28 L211.637654,15.488 C211.637654,14.079993 211.274991,12.9866706 210.549654,12.208 C209.824317,11.4293294 208.832327,11.04 207.573654,11.04 C206.293648,11.04 205.269658,11.4559958 204.501654,12.288 C203.73365,13.1200042 203.349654,14.3146589 203.349654,15.872 L203.349654,25.28 L198.837654,25.28 L198.837654,7.552 L203.349654,7.552 L203.349654,11.104 C203.81899,9.90932736 204.592315,8.97600336 205.669654,8.304 C206.746993,7.63199664 207.989647,7.296 209.397654,7.296 Z M225.319459,1.6 L225.319459,25.28 L220.807459,25.28 L220.807459,1.6 L225.319459,1.6 Z M238.329263,7.328 C240.057272,7.328 241.609256,7.69066304 242.985263,8.416 C244.36127,9.14133696 245.443926,10.1919931 246.233263,11.568 C247.0226,12.9440069 247.417263,14.5599907 247.417263,16.416 C247.417263,18.2720093 247.0226,19.8826598 246.233263,21.248 C245.443926,22.6133402 244.36127,23.6639963 242.985263,24.4 C241.609256,25.1360037 240.057272,25.504 238.329263,25.504 C236.601254,25.504 235.04927,25.1360037 233.673263,24.4 C232.297256,23.6639963 231.2146,22.6133402 230.425263,21.248 C229.635926,19.8826598 229.241263,18.2720093 229.241263,16.416 C229.241263,14.5599907 229.635926,12.9440069 230.425263,11.568 C231.2146,10.1919931 232.297256,9.14133696 233.673263,8.416 C235.04927,7.69066304 236.601254,7.328 238.329263,7.328 Z M238.329263,11.232 C237.07059,11.232 236.003934,11.6746622 235.129263,12.56 C234.254592,13.4453378 233.817263,14.7306582 233.817263,16.416 C233.817263,18.1013418 234.254592,19.3866622 235.129263,20.272 C236.003934,21.1573378 237.07059,21.6 238.329263,21.6 C239.587936,21.6 240.654592,21.1573378 241.529263,20.272 C242.403934,19.3866622 242.841263,18.1013418 242.841263,16.416 C242.841263,14.7306582 242.403934,13.4453378 241.529263,12.56 C240.654592,11.6746622 239.587936,11.232 238.329263,11.232 Z M259.051068,20.768 L263.531068,7.552 L268.331068,7.552 L261.771068,25.28 L256.267068,25.28 L249.707068,7.552 L254.539068,7.552 L259.051068,20.768 Z M288.220872,15.744 C288.220872,16.1920022 288.167539,16.7039971 288.060872,17.28 L275.068872,17.28 C275.132872,18.8586746 275.559535,20.0213296 276.348872,20.768 C277.138209,21.5146704 278.119533,21.888 279.292872,21.888 C280.338211,21.888 281.207535,21.6320026 281.900872,21.12 C282.594209,20.6079974 283.036871,19.914671 283.228872,19.04 L287.996872,19.04 C287.762204,20.2773395 287.260876,21.3866618 286.492872,22.368 C285.724868,23.3493382 284.738211,24.1173306 283.532872,24.672 C282.327533,25.2266694 280.988879,25.504 279.516872,25.504 C277.788863,25.504 276.252879,25.1360037 274.908872,24.4 C273.564865,23.6639963 272.519543,22.6133402 271.772872,21.248 C271.026202,19.8826598 270.652872,18.2720093 270.652872,16.416 C270.652872,14.5599907 271.026202,12.9440069 271.772872,11.568 C272.519543,10.1919931 273.564865,9.14133696 274.908872,8.416 C276.252879,7.69066304 277.788863,7.328 279.516872,7.328 C281.266214,7.328 282.796866,7.69066304 284.108872,8.416 C285.420879,9.14133696 286.434202,10.1386603 287.148872,11.408 C287.863542,12.6773397 288.220872,14.1226586 288.220872,15.744 Z M283.676872,15.296 C283.740872,13.8453261 283.36221,12.7466704 282.540872,12 C281.719535,11.2533296 280.711545,10.88 279.516872,10.88 C278.300866,10.88 277.276876,11.2533296 276.444872,12 C275.612868,12.7466704 275.154206,13.8453261 275.068872,15.296 L283.676872,15.296 Z" id="path-1"></path>
    </defs>
    <g id="Drunk-Elephant_phone" stroke="none" stroke-width="1" fill="none" fill-rule="evenodd">
        <g id="Phone_index_轉外框" transform="translate(-62.000000, -2882.000000)" fill-rule="nonzero">
            <g id="fall#drunkinlove" transform="translate(62.676662, 2882.720000)">
                <use fill="#4A4A4A" xlink:href="#path-1"></use>
                <use fill="#5B5D63" xlink:href="#path-1"></use>
            </g>
        </g>
    </g>
</svg>