<?xml version="1.0" encoding="UTF-8"?>
<svg width="88px" height="83px" viewBox="0 0 88 83" version="1.1" xmlns="http://www.w3.org/2000/svg" xmlns:xlink="http://www.w3.org/1999/xlink">
    <title>icon1</title>
    <g id="Drunk-Elephant_phone" stroke="none" stroke-width="1" fill="none" fill-rule="evenodd">
        <g id="Phone_index" transform="translate(-27.000000, -1164.000000)">
            <g id="6" transform="translate(28.000000, 804.000000)">
                <g id="Group-23" transform="translate(0.000000, 316.000000)">
                    <g id="icon1" transform="translate(1.000000, 46.000000)">
                        <ellipse id="Oval" stroke="#FF25AE" stroke-width="3.2" fill="#FFFFFF" cx="42" cy="39.5" rx="42" ry="39.5"></ellipse>
                        <path d="M42.5240186,49.6752093 L42.5240186,54.0934867 L42.5240186,49.6752093 Z M34.0367604,43.5462339 L28.2957453,45.3184677 L34.0367604,43.5462339 Z M50.8248802,43.5462339 L56.5658953,45.3184677 L50.8248802,43.5462339 Z M47.5815795,33.7743334 L50.6384836,29.7498857 L47.5815795,33.7743334 Z M37.0936645,33.7620262 L33.912496,29.4052846 L37.0936645,33.7620262 Z M64.7797718,33.8112549 C63.2518067,29.2050856 58.2577982,26.682585 53.5959762,28.1622595 C52.5185935,28.5036822 51.5154218,29.0421997 50.6384836,29.7498857 C51.0341178,28.7414645 51.2363988,27.6688128 51.2349527,26.5869405 C51.2349527,21.7202402 47.2514821,17.775 42.337622,17.775 C37.4237619,17.775 33.4402913,21.7202402 33.4402913,26.5869405 C33.4433972,27.5454457 33.6028536,28.4971576 33.912496,29.4052846 C33.1560039,28.8658028 32.3168709,28.450263 31.4272081,28.1745667 C28.1122112,27.0940989 24.4655444,28.035752 22.105213,30.5817199 C19.7448816,33.1276878 19.1080548,36.8064186 20.4772891,39.9856803 C21.8465234,43.1649419 24.9682158,45.255887 28.457289,45.3307749 C27.8271342,45.8007041 27.266629,46.35583 26.7921461,46.979937 C24.5232218,49.8497101 24.2724014,53.806803 26.1611394,56.9350755 C28.0498774,60.063348 31.6883228,61.717099 35.3146339,61.0955338 C38.940945,60.4739686 41.8066213,57.7053835 42.5240186,54.1304083 C43.2414159,57.7053835 46.1070922,60.4739686 49.7334033,61.0955338 C53.3597143,61.717099 56.9981597,60.063348 58.8868977,56.9350755 C60.7756357,53.806803 60.5248153,49.8497101 58.2558911,46.979937 C57.7720121,46.3628356 57.2031399,45.815994 56.5658953,45.3553893 C57.4103444,45.3351324 58.2474136,45.1941964 59.0511832,44.9369452 C61.3055507,44.221114 63.1782493,42.6438271 64.2537453,40.5550692 C65.3292412,38.4663113 65.5185882,36.0388282 64.7797718,33.8112549 Z M51.2349615,40.8263472 C51.2399803,37.2611342 49.0754058,34.0442057 45.7511023,32.6764061 C42.4267987,31.3086066 38.5978618,32.0594779 36.0506658,34.5787044 C33.5034698,37.0979308 32.7399716,40.8890672 34.1163781,44.1833749 C35.4927845,47.4776826 38.7378576,49.6259806 42.337622,49.6259806 C47.2466333,49.6259806 51.2280966,45.6882406 51.2349615,40.8263472 L51.2349615,40.8263472 Z" id="Shape" stroke="#4A4A4A" stroke-width="1.96687724" stroke-linecap="round" stroke-linejoin="round"></path>
                        <line x1="14.0635626" y1="69.1528169" x2="67.6941176" y2="8.39375" id="Path" stroke="#FF25AE" stroke-width="3.2"></line>
                    </g>
                </g>
            </g>
        </g>
    </g>
</svg>