<?xml version="1.0" encoding="UTF-8"?>
<svg width="88px" height="83px" viewBox="0 0 88 83" version="1.1" xmlns="http://www.w3.org/2000/svg" xmlns:xlink="http://www.w3.org/1999/xlink">
    <title>icon2</title>
    <g id="Drunk-Elephant_phone" stroke="none" stroke-width="1" fill="none" fill-rule="evenodd">
        <g id="Phone_index" transform="translate(-158.000000, -1164.000000)">
            <g id="6" transform="translate(28.000000, 804.000000)">
                <g id="Group-23" transform="translate(0.000000, 316.000000)">
                    <g id="6-icon" transform="translate(1.000000, 46.000000)">
                        <g id="icon2" transform="translate(131.000000, 0.000000)">
                            <ellipse id="Oval" stroke="#FF25AE" stroke-width="3.2" fill="#FFFFFF" cx="41.9544186" cy="39.4629108" rx="41.5116279" ry="39.0123457"></ellipse>
                            <path d="M49.0748837,15.7258216 C49.0748837,16.5390367 46.0971163,17.1984003 42.4330233,17.1984003 C38.7689302,17.1984003 35.7911628,16.5390367 35.7911628,15.7258216 L35.7911628,11.3300643 C35.8206817,10.7446958 36.3077518,10.2853389 36.8981395,10.2860711 L47.9789767,10.2860711 C48.5693645,10.2853389 49.0564345,10.7446958 49.0859535,11.3300643 L49.0748837,15.7258216 Z M51.5877209,57.4855156 L33.2340465,57.4855156 L33.2340465,31.5065902 L51.5877209,31.5065902 L51.5877209,57.4855156 Z M48.1450233,16.4840897 L53.9455814,24.4843679 C54.836721,25.5991589 55.3827786,26.9467559 55.5174884,28.3636237 L55.5174884,64.0242045 C55.4810964,66.1442261 53.7233356,67.835154 51.5877209,67.8049645 L33.2340465,67.8049645 C31.0984318,67.835154 29.340671,66.1442261 29.3042791,64.0242045 L29.3042791,28.3416449 C29.4357848,26.9259382 29.9779523,25.5784523 30.8651163,24.4623891 L36.6767442,16.4840897 L48.1450233,16.4840897 Z" id="Shape" stroke="#4A4A4A" stroke-width="1.8029708"></path>
                            <line x1="14.6342326" y1="68.2331421" x2="68.2340465" y2="9.90144323" id="Path" stroke="#FF25AE" stroke-width="3.2" fill="#FFFFFF"></line>
                        </g>
                    </g>
                </g>
            </g>
        </g>
    </g>
</svg>