<?xml version="1.0" encoding="UTF-8"?>
<svg width="88px" height="83px" viewBox="0 0 88 83" version="1.1" xmlns="http://www.w3.org/2000/svg" xmlns:xlink="http://www.w3.org/1999/xlink">
    <title>icon3 copy</title>
    <g id="Drunk-Elephant_phone" stroke="none" stroke-width="1" fill="none" fill-rule="evenodd">
        <g id="Phone_index" transform="translate(-289.000000, -1164.000000)">
            <g id="6" transform="translate(28.000000, 804.000000)">
                <g id="Group-23" transform="translate(0.000000, 316.000000)">
                    <g id="6-icon" transform="translate(1.000000, 46.000000)">
                        <g id="icon3-copy" transform="translate(262.000000, 0.000000)">
                            <ellipse id="Oval" stroke="#FF25AE" stroke-width="3.2" fill="#FFFFFF" cx="42" cy="39.5" rx="42" ry="39.5"></ellipse>
                            <path d="M48.6675105,18.4401554 L48.4809806,18.4401554 C47.3300544,18.472355 46.4116979,19.4339471 46.4058357,20.6129965 C46.4046935,20.8063193 46.4282085,20.9989671 46.4757844,21.1860535 L48.6675105,18.4401554 Z M51.7219372,20.1712651 C51.7219372,18.1206695 50.0986675,16.4583333 48.0962627,16.4583333 C46.093858,16.4583333 44.4705882,18.1206695 44.4705882,20.1712651 C44.4705882,22.2218607 46.093858,23.8841969 48.0962627,23.8841969 C50.0986675,23.8841969 51.7219372,22.2218607 51.7219372,20.1712651 Z M62.1442942,57.0498705 L61.9577643,57.0498705 C60.7795004,57.0498705 59.8243288,58.0280297 59.8243288,59.2346503 C59.8249183,59.4278639 59.8484063,59.62029 59.8942775,59.8077073 L62.1442942,57.0498705 Z M65.0588235,58.8287349 C65.0588235,56.7781393 63.4355538,55.1158031 61.433149,55.1158031 C59.4307443,55.1158031 57.8074745,56.7781393 57.8074745,58.8287349 C57.8074745,60.8793305 59.4307443,62.5416667 61.433149,62.5416667 C63.4355538,62.5416667 65.0588235,60.8793305 65.0588235,58.8287349 Z" id="Shape" stroke="#4A4A4A" stroke-width="1.75885215" stroke-linecap="round" stroke-linejoin="round"></path>
                            <path d="M46.1502505,59.0348069 C47.2462237,59.7928292 48.6144688,60.043453 49.9075367,59.7230353 C51.4939393,59.6276237 52.802936,58.4452418 53.0603384,56.8751936 L46.1502505,59.0348069 Z M53.9492863,33.2618401 C55.6087839,33.3983756 57.2225325,33.8749684 58.6903414,34.6620289 C59.5381681,35.2771205 60.109001,36.2025718 60.2785949,37.2369524 L53.9492863,33.2618401 Z M24.0687861,44.7837327 C22.9232284,46.4273686 22.6118422,48.5129353 23.2272489,50.4200859 C23.5222586,51.2574039 23.9204188,52.0546225 24.4125126,52.7932873 L24.0687861,44.7837327 Z M40.2594895,25.976112 C39.3195011,24.9216878 37.9731513,24.3211952 36.5614665,24.326737 C34.9748962,24.2969247 33.5127242,25.1835294 32.8041803,26.6050103 L40.2594895,25.976112 Z M65.055208,39.6101538 C65.2448502,30.1885444 57.9436252,28.9307476 50.357937,28.9307476 C42.7722487,28.9307476 42.7248382,21.3958333 36.3244137,21.3958333 C30.587737,21.3958333 30.3151263,27.5305588 28.0275672,28.7052935 C25.7400081,29.8800282 22.3501536,27.744147 20.4537316,31.6955272 C18.7232465,35.2553293 23.1205751,37.4742725 22.7057328,40.6187643 C22.4094168,42.9089036 18.4506358,45.9347354 20.2166788,51.0252523 C23.9028492,61.7046584 32.7212118,53.9205579 37.6044986,55.2495507 C44.7160814,57.2074418 43.1041226,63.6744155 50.2631159,62.3691548 C57.4221092,61.063894 54.2337496,52.9119474 56.3198138,49.4352074 C58.4058781,45.9584674 64.9366816,45.5194251 65.055208,39.6101538 Z" id="Shape" stroke="#4A4A4A" stroke-width="1.75885215" stroke-linecap="round" stroke-linejoin="round"></path>
                            <line x1="14.3754392" y1="69.1528169" x2="70.7048509" y2="9.9584507" id="Path" stroke="#FF25AE" stroke-width="3.2"></line>
                        </g>
                    </g>
                </g>
            </g>
        </g>
    </g>
</svg>