<?xml version="1.0" encoding="UTF-8"?>
<svg width="89px" height="84px" viewBox="0 0 89 84" version="1.1" xmlns="http://www.w3.org/2000/svg" xmlns:xlink="http://www.w3.org/1999/xlink">
    <title>icon6</title>
    <g id="Drunk-Elephant_phone" stroke="none" stroke-width="1" fill="none" fill-rule="evenodd">
        <g id="Phone_index" transform="translate(-158.000000, -1292.000000)">
            <g id="6" transform="translate(28.000000, 804.000000)">
                <g id="Group-23" transform="translate(0.000000, 316.000000)">
                    <g id="6-icon" transform="translate(1.000000, 46.000000)">
                        <g id="icon6" transform="translate(131.000000, 128.000000)">
                            <ellipse id="Oval" stroke="#FF25AE" stroke-width="3.2" fill="#FFFFFF" cx="42.4499044" cy="39.9624413" rx="42.005814" ry="39.5061728"></ellipse>
                            <path d="M59.83036,34.1422361 C57.5302608,33.7517875 55.174865,34.389424 53.3835954,35.8874598 C51.5923258,37.3854955 50.5444586,39.5940021 50.5155495,41.9321857 C50.5136883,42.949393 50.7176394,43.9564156 51.1150844,44.8923665 L59.83036,34.1422361 Z M44.1539662,14.4002782 C42.2413991,14.7288835 40.8383965,16.3836514 40.8232831,18.3286385 C40.8229173,18.5823717 40.8452109,18.8356286 40.8899012,19.0853765 L44.1539662,14.4002782 Z M36.1381332,24.4826987 C31.5629377,25.4306006 28.2666084,29.4483727 28.2222205,34.1311076 C28.2222205,34.3091636 28.2222205,34.4983481 28.2222205,34.6764041 L36.1381332,24.4826987 Z M42.1888659,55.9540949 L41.8002867,55.9540949 C40.6071727,55.9301715 39.4546588,56.3885742 38.6025181,57.2259807 C37.7503773,58.0633871 37.2703252,59.2093218 37.2705638,60.4054947 C37.2788864,60.7820125 37.3348447,61.1559497 37.4370978,61.5183446 L42.1888659,55.9540949 Z M49.4941542,60.4054947 C49.5890869,57.266744 47.7759219,54.3837273 44.9097436,53.1160685 C42.0435654,51.8484096 38.6967968,52.4492811 36.4477662,54.6353132 C34.1987356,56.8213454 33.4966114,60.1559516 34.6725137,63.0665394 C35.8484161,65.9771271 38.6674978,67.8824042 41.8002867,67.8838463 C43.8162779,67.9105737 45.7601232,67.1326187 47.2033611,65.7214579 C48.646599,64.310297 49.4707496,62.3817768 49.4941542,60.3609807 L49.4941542,60.4054947 Z M21.6385792,37.4919144 L21.25,37.4919144 C20.056886,37.467991 18.9043721,37.9263937 18.0522314,38.7638002 C17.2000906,39.6012066 16.7200385,40.7471414 16.7202771,41.9433142 C16.7285997,42.319832 16.784558,42.6937692 16.8868111,43.0561641 L21.6385792,37.4919144 Z M47.6178719,24.8944531 C44.0236432,26.333663 39.933351,24.7132032 38.291972,21.1997913 C33.5746844,21.0613322 29.1553946,23.5048431 26.7559716,27.5782693 C24.3565486,31.6516955 24.3565486,36.7106762 26.7559716,40.7841025 C29.1553946,44.8575287 33.5746844,47.3010396 38.291972,47.1625804 C41.6620058,47.1693309 44.911473,45.9061936 47.3958267,43.6237176 C47.2967851,43.0541724 47.2484849,42.476925 47.2514973,41.8988002 C47.2566845,38.5136661 48.8425655,35.326172 51.5369704,33.2853417 C51.3177168,30.0970124 49.9203347,27.1051821 47.6178719,24.8944531 Z M52.1697993,18.3286385 C52.246602,15.3679316 50.5258627,12.6558564 47.8182637,11.4701378 C45.1106648,10.2844192 41.9562837,10.8615694 39.8412266,12.9296787 C37.7261694,14.9977881 37.0723209,18.1443364 38.1877251,20.8869079 C39.3031293,23.6294793 41.9652996,25.4210205 44.9200223,25.4174926 C48.8707194,25.460774 52.1099292,22.2886069 52.158697,18.3286385 L52.1697993,18.3286385 Z M69.711373,41.8988002 C69.8287923,37.32824 67.1724663,33.1418457 62.9930178,31.3106101 C58.8135693,29.4793746 53.9439681,30.3682656 50.6768673,33.5587851 C47.4097664,36.7493046 46.3963036,41.6055776 48.1136265,45.8412263 C49.8309493,50.0768749 53.936793,52.8477285 58.4980886,52.8492436 C64.6041579,52.9112302 69.6139841,48.0188352 69.711373,41.8988002 L69.711373,41.8988002 Z M25.1135871,35.3997566 C23.9356097,34.7296018 22.6044823,34.3768629 21.25,34.3759346 C17.310764,34.47826 14.1213142,37.6168805 13.9466732,41.5628707 C13.7720322,45.5088608 16.6716813,48.9182469 20.5864031,49.3698165 C24.501125,49.821386 28.0975957,47.1613379 28.8217426,43.2787341 C26.6982113,41.1723459 25.384952,38.3819718 25.1135871,35.3997566 Z" id="Shape" stroke="#4A4A4A" stroke-width="1.64948454" stroke-linecap="round"></path>
                            <line x1="14.3774291" y1="69.1079812" x2="72.6913826" y2="10.0156495" id="Path" stroke="#FF25AE" stroke-width="3.2"></line>
                        </g>
                    </g>
                </g>
            </g>
        </g>
    </g>
</svg>