<?xml version="1.0" encoding="UTF-8"?>
<svg width="89px" height="84px" viewBox="0 0 89 84" version="1.1" xmlns="http://www.w3.org/2000/svg" xmlns:xlink="http://www.w3.org/1999/xlink">
    <title>icon5</title>
    <g id="Drunk-Elephant_phone" stroke="none" stroke-width="1" fill="none" fill-rule="evenodd">
        <g id="Phone_index" transform="translate(-27.000000, -1292.000000)">
            <g id="6" transform="translate(28.000000, 804.000000)">
                <g id="Group-23" transform="translate(0.000000, 316.000000)">
                    <g id="6-icon" transform="translate(1.000000, 46.000000)">
                        <g id="icon5" transform="translate(0.000000, 128.000000)">
                            <ellipse id="Oval" stroke="#FF25AE" stroke-width="3.2" fill="#FFFFFF" cx="42.462414" cy="39.9624413" rx="42.005814" ry="39.5061728"></ellipse>
                            <path d="M30.3611202,38.4712224 C27.9959347,41.1216606 26.6845447,44.5462182 26.6749099,48.0973744 C26.6749099,56.3992349 33.791189,63.1208485 42.5556829,63.1208485 C47.8842895,63.1634056 52.8884395,60.5673044 55.9195873,56.1877934 L30.3611202,38.4712224 Z M36.4416967,11.9742653 L33.3679987,10.4162754 L36.4416967,11.9742653 Z M36.4416967,15.5798991 L33.3679987,17.1935316 L36.4416967,15.5798991 Z M36.5864723,13.8549817 L31.7531936,13.8549817 L36.5864723,13.8549817 Z M62.5458565,48.0973744 C62.3948236,39.6393922 56.6870133,32.291223 48.5248935,30.0469484 L48.5248935,22.0344288 C48.482489,20.7233294 47.3870463,19.6933659 46.0748444,19.7308294 L39.0253849,19.7308294 C38.3961972,19.712869 37.7856634,19.9455361 37.3282229,20.3775974 C36.8707824,20.8096586 36.6039465,21.405684 36.5864723,22.0344288 L36.5864723,30.0469484 C28.4221862,32.2879864 22.7128671,39.6380979 22.5655093,48.0973744 C22.6133328,54.0437167 25.5126062,59.6062791 30.3611202,63.0540776 L30.3611202,66.0587724 C30.4036058,67.5603762 31.6535737,68.7447439 33.1564035,68.7073552 L51.9660989,68.7073552 C53.4689287,68.7447439 54.7188966,67.5603762 54.7613822,66.0587724 L54.7613822,63.0540776 C59.6056805,59.6038703 62.5006067,54.0417026 62.5458565,48.0973744 Z M46.0637078,11.5402539 L39.047658,11.5402539 L39.047658,19.7308294 L46.0637078,19.7308294 L46.0637078,11.5402539 Z" id="Shape" stroke="#4A4A4A" stroke-width="1.64948454" stroke-linecap="round" stroke-linejoin="round"></path>
                            <line x1="14.0655093" y1="69.1636237" x2="69.6802326" y2="10.4162754" id="Path" stroke="#FF25AE" stroke-width="3.2"></line>
                        </g>
                    </g>
                </g>
            </g>
        </g>
    </g>
</svg>