<?xml version="1.0" encoding="UTF-8"?>
<svg width="89px" height="84px" viewBox="0 0 89 84" version="1.1" xmlns="http://www.w3.org/2000/svg" xmlns:xlink="http://www.w3.org/1999/xlink">
    <title>icon4</title>
    <g id="Drunk-Elephant_phone" stroke="none" stroke-width="1" fill="none" fill-rule="evenodd">
        <g id="Phone_index" transform="translate(-289.000000, -1292.000000)">
            <g id="6" transform="translate(28.000000, 804.000000)">
                <g id="Group-23" transform="translate(0.000000, 316.000000)">
                    <g id="6-icon" transform="translate(1.000000, 46.000000)">
                        <g id="icon4" transform="translate(262.000000, 128.000000)">
                            <ellipse id="Oval" stroke="#FF25AE" stroke-width="3.2" fill="#FFFFFF" cx="42.453876" cy="39.9624413" rx="42.005814" ry="39.5061728"></ellipse>
                            <path d="M50.4965891,24.1043297 L48.1666667,24.1043297 C47.8905336,24.1043297 47.6353761,23.9579752 47.4973096,23.7203965 C47.359243,23.4828178 47.359243,23.1901087 47.4973096,22.95253 C47.6353761,22.7149513 47.8905336,22.5685968 48.1666667,22.5685968 L50.474186,22.5685968 C50.7503191,22.5685968 51.0054766,22.7149513 51.1435432,22.95253 C51.2816097,23.1901087 51.2816097,23.4828178 51.1435432,23.7203965 C51.0054766,23.9579752 50.7503191,24.1043297 50.474186,24.1043297" id="Path" stroke="#4A4A4A" stroke-width="0.2" fill="#4A4A4A" fill-rule="nonzero"></path>
                            <path d="M37.7406206,24.1043297 L35.4331012,24.1043297 C35.1569681,24.1043297 34.9018106,23.9579752 34.7637441,23.7203965 C34.6256775,23.4828178 34.6256775,23.1901087 34.7637441,22.95253 C34.9018106,22.7149513 35.1569681,22.5685968 35.4331012,22.5685968 L37.7406206,22.5685968 C38.0167537,22.5685968 38.2719111,22.7149513 38.4099777,22.95253 C38.5480442,23.1901087 38.5480442,23.4828178 38.4099777,23.7203965 C38.2719111,23.9579752 38.0167537,24.1043297 37.7406206,24.1043297" id="Path" stroke="#4A4A4A" stroke-width="0.2" fill="#4A4A4A" fill-rule="nonzero"></path>
                            <path d="M42.9157752,69.4418362 C33.4728682,69.4418362 25.6989922,62.3195966 25.6989922,53.4167971 C25.7922045,46.9680682 29.7965952,41.2138546 35.8363953,38.8495914 L35.8363953,23.4700052 C35.8475041,23.0222304 36.2038591,22.6584999 36.6541085,22.6353678 C36.858772,22.6137051 37.0634091,22.676498 37.2201282,22.8090509 C37.3768474,22.9416038 37.4718937,23.1322829 37.4830233,23.3364632 L37.4830233,39.3837593 C37.4783814,39.6989499 37.2775584,39.9782686 36.9789535,40.0848548 C31.2883224,42.1172769 27.4542355,47.4322763 27.3456202,53.4390541 C27.3456202,61.3959311 34.3129845,67.9061033 42.870969,67.9061033 L42.870969,67.9061033 C51.4513566,67.9061033 58.4299225,61.4181881 58.4299225,53.4390541 C58.3230436,47.4351243 54.494011,42.1209522 48.8077907,40.0848548 C48.5026854,39.9848225 48.2955158,39.7029405 48.2925194,39.3837593 L48.2925194,23.4477482 C48.3042872,22.9978683 48.6686011,22.6359303 49.1214341,22.6242393 C49.3272459,22.6058164 49.5317596,22.6712594 49.6880586,22.8055554 C49.8443576,22.9398514 49.9390269,23.1314737 49.9503488,23.3364632 L49.9503488,38.9163624 C55.9858914,41.2587106 60.0083301,46.9807511 60.1437597,53.4167971 C60.1437597,62.2194401 52.4482946,69.3861937 42.9717829,69.4084507 L42.9717829,69.4084507" id="Path" stroke="#4A4A4A" stroke-width="0.2" fill="#4A4A4A" fill-rule="nonzero"></path>
                            <path d="M58.1268774,48.6092853 L27.6682388,48.6092853 C27.3929011,48.6092853 27.1384786,48.4629308 27.0008097,48.2253521 C26.8631409,47.9877734 26.8631409,47.6950644 27.0008097,47.4574856 C27.1384786,47.2199069 27.3929011,47.0735524 27.6682388,47.0735524 L58.1268774,47.0735524 C58.4022151,47.0735524 58.6566376,47.2199069 58.7943064,47.4574856 C58.9319753,47.6950644 58.9319753,47.9877734 58.7943064,48.2253521 C58.6566376,48.4629308 58.4022151,48.6092853 58.1268774,48.6092853" id="Path" stroke="#4A4A4A" stroke-width="0.2" fill="#4A4A4A" fill-rule="nonzero"></path>
                            <path d="M42.9157752,44.2469136 C41.9592201,44.3193026 41.2348639,45.1356349 41.2825435,46.087527 C41.3302231,47.0394192 42.1325777,47.7802737 43.0916409,47.7579582 C44.0507042,47.7356427 44.8172676,46.9582825 44.8200388,46.0052165 C44.8025362,45.5210657 44.5919928,45.0636937 44.2348008,44.7338802 C43.8776088,44.4040668 43.4030803,44.2288772 42.9157752,44.2469136 M42.9157752,49.2992523 C41.0882375,49.1961993 39.6798798,47.6589701 39.7480736,45.8416909 C39.8162674,44.0244116 41.3359254,42.5956285 43.1661136,42.628048 C44.9963019,42.6604675 46.4637252,44.1421632 46.4666667,45.9607025 C46.446222,46.8728291 46.0594042,47.7389402 45.3923999,48.366058 C44.7253956,48.9931758 43.8336222,49.3291968 42.9157752,49.2992523" id="Shape" stroke="#4A4A4A" stroke-width="0.2" fill="#4A4A4A" fill-rule="nonzero"></path>
                            <path d="M42.9157752,11.2063989 C41.0412682,11.1500119 39.4714142,12.6053225 39.3984884,14.4670492 C39.5449698,16.289036 41.0759877,17.6934252 42.9157752,17.6934252 C44.7555627,17.6934252 46.2865806,16.289036 46.433062,14.4670492 C46.3661283,12.6009216 44.7944907,11.138985 42.9157752,11.1952704 M42.9157752,19.2634324 C40.160715,19.3448186 37.8552337,17.2034254 37.7518605,14.4670492 C37.9692285,11.7907993 40.2188026,9.72896921 42.921376,9.72896921 C45.6239493,9.72896921 47.8735235,11.7907993 48.0908915,14.4670492 C47.9875394,17.2079002 45.6751437,19.3510667 42.9157752,19.2634324" id="Shape" stroke="#4A4A4A" stroke-width="0.2" fill="#4A4A4A" fill-rule="nonzero"></path>
                            <line x1="14.8084496" y1="69.0968527" x2="69.0463566" y2="10.026778" id="Path" stroke="#FF25AE" stroke-width="3.2"></line>
                        </g>
                    </g>
                </g>
            </g>
        </g>
    </g>
</svg>