<?xml version="1.0" encoding="UTF-8"?>
<svg width="376px" height="128px" viewBox="0 0 376 128" version="1.1" xmlns="http://www.w3.org/2000/svg" xmlns:xlink="http://www.w3.org/1999/xlink">
    <title>Mixingisthenewlayering</title>
    <g id="Drunk-Elephant_phone" stroke="none" stroke-width="1" fill="none" fill-rule="evenodd">
        <g id="Phone_index_轉外框" transform="translate(-20.000000, -1737.000000)" fill="#BDE2F5" fill-rule="nonzero">
            <g id="Group-11" transform="translate(-87.000000, 1562.000000)">
                <path d="M149.458,180.69 L149.458,221 L142.788,221 L142.788,190.782 L131.13,221 L125.33,221 L113.614,190.782 L113.614,221 L107.002,221 L107.002,180.69 L115.006,180.69 L128.346,212.88 L141.454,180.69 L149.458,180.69 Z M157.176,179.762 C157.176,178.640661 157.562663,177.71267 158.336,176.978 C159.109337,176.24333 160.133994,175.876 161.41,175.876 C162.686006,175.876 163.720329,176.24333 164.513,176.978 C165.305671,177.71267 165.702,178.640661 165.702,179.762 C165.702,180.883339 165.305671,181.791997 164.513,182.488 C163.720329,183.184003 162.686006,183.532 161.41,183.532 C160.133994,183.532 159.109337,183.184003 158.336,182.488 C157.562663,181.791997 157.176,180.883339 157.176,179.762 Z M164.716,189.042 L164.716,221 L158.104,221 L158.104,189.042 L164.716,189.042 Z M192.328,221 L184.498,209.69 L177.654,221 L170.288,221 L180.844,204.412 L170.172,189.042 L177.654,189.042 L185.31,200.062 L192.096,189.042 L199.404,189.042 L188.848,205.166 L199.81,221 L192.328,221 Z M204.164,179.762 C204.164,178.640661 204.550663,177.71267 205.324,176.978 C206.097337,176.24333 207.121994,175.876 208.398,175.876 C209.674006,175.876 210.708329,176.24333 211.501,176.978 C212.293671,177.71267 212.69,178.640661 212.69,179.762 C212.69,180.883339 212.293671,181.791997 211.501,182.488 C210.708329,183.184003 209.674006,183.532 208.398,183.532 C207.121994,183.532 206.097337,183.184003 205.324,182.488 C204.550663,181.791997 204.164,180.883339 204.164,179.762 Z M211.704,189.042 L211.704,221 L205.092,221 L205.092,189.042 L211.704,189.042 Z M238.272,188.52 C241.984019,188.52 244.961322,189.718655 247.204,192.116 C249.446678,194.513345 250.568,197.935311 250.568,202.382 L250.568,221 L243.956,221 L243.956,203.078 C243.956,200.216652 243.221341,198.003008 241.752,196.437 C240.282659,194.870992 238.272013,194.088 235.72,194.088 C233.090654,194.088 230.983341,194.928992 229.398,196.611 C227.812659,198.293008 227.02,200.757984 227.02,204.006 L227.02,221 L220.408,221 L220.408,189.042 L227.02,189.042 L227.02,196.06 C227.870671,193.662655 229.301323,191.806673 231.312,190.492 C233.322677,189.177327 235.642654,188.52 238.272,188.52 Z M271.8,188.636 C274.700015,188.636 277.174656,189.351326 279.224,190.782 C281.273344,192.212674 282.723329,194.107322 283.574,196.466 L283.574,189.042 L290.186,189.042 L290.186,221.348 C290.186,224.325348 289.577006,226.964322 288.359,229.265 C287.140994,231.565678 285.391345,233.373327 283.11,234.688 C280.828655,236.002673 278.122016,236.66 274.99,236.66 C270.504644,236.66 266.87968,235.596677 264.115,233.47 C261.35032,231.343323 259.620003,228.462685 258.924,224.828 L265.478,224.828 C266.019336,226.722676 267.063326,228.201661 268.61,229.265 C270.156674,230.328339 272.128655,230.86 274.526,230.86 C277.155346,230.86 279.320658,230.048008 281.022,228.424 C282.723342,226.799992 283.574,224.441349 283.574,221.348 L283.574,213.576 C282.723329,215.934678 281.273344,217.829326 279.224,219.26 C277.174656,220.690674 274.700015,221.406 271.8,221.406 C269.015986,221.406 266.531678,220.748673 264.347,219.434 C262.162322,218.119327 260.45134,216.224679 259.214,213.75 C257.97666,211.275321 257.358,208.356017 257.358,204.992 C257.358,201.66665 257.97666,198.766679 259.214,196.292 C260.45134,193.817321 262.162322,191.922673 264.347,190.608 C266.531678,189.293327 269.015986,188.636 271.8,188.636 Z M273.83,194.436 C270.891319,194.436 268.542342,195.373657 266.783,197.249 C265.023658,199.124343 264.144,201.705317 264.144,204.992 C264.144,208.278683 265.023658,210.859657 266.783,212.735 C268.542342,214.610343 270.891319,215.548 273.83,215.548 C275.686009,215.548 277.348659,215.113004 278.818,214.243 C280.287341,213.372996 281.447329,212.145341 282.298,210.56 C283.148671,208.974659 283.574,207.118677 283.574,204.992 C283.574,202.90399 283.148671,201.057675 282.298,199.453 C281.447329,197.848325 280.287341,196.611004 278.818,195.741 C277.348659,194.870996 275.686009,194.436 273.83,194.436 Z M312.176,179.762 C312.176,178.640661 312.562663,177.71267 313.336,176.978 C314.109337,176.24333 315.133994,175.876 316.41,175.876 C317.686006,175.876 318.720329,176.24333 319.513,176.978 C320.305671,177.71267 320.702,178.640661 320.702,179.762 C320.702,180.883339 320.305671,181.791997 319.513,182.488 C318.720329,183.184003 317.686006,183.532 316.41,183.532 C315.133994,183.532 314.109337,183.184003 313.336,182.488 C312.562663,181.791997 312.176,180.883339 312.176,179.762 Z M319.716,189.042 L319.716,221 L313.104,221 L313.104,189.042 L319.716,189.042 Z M338.918,188.636 C342.668685,188.636 345.674989,189.59299 347.937,191.507 C350.199011,193.42101 351.581331,195.982651 352.084,199.192 L345.82,199.192 C345.549332,197.451991 344.805006,196.050339 343.587,194.987 C342.368994,193.923661 340.754677,193.392 338.744,193.392 C337.081325,193.392 335.795671,193.788329 334.887,194.581 C333.978329,195.373671 333.524,196.44666 333.524,197.8 C333.524,198.805338 333.852663,199.61733 334.51,200.236 C335.167337,200.85467 335.988995,201.337998 336.975,201.686 C337.961005,202.034002 339.362658,202.420665 341.18,202.846 C343.577345,203.387336 345.520326,203.947997 347.009,204.528 C348.497674,205.108003 349.773661,206.026327 350.837,207.283 C351.900339,208.539673 352.432,210.250656 352.432,212.416 C352.432,215.084013 351.41701,217.249325 349.387,218.912 C347.35699,220.574675 344.621351,221.406 341.18,221.406 C337.197313,221.406 333.978346,220.478009 331.523,218.622 C329.067654,216.765991 327.588669,214.17535 327.086,210.85 L333.524,210.85 C333.717334,212.590009 334.49066,214.001328 335.844,215.084 C337.19734,216.166672 338.975989,216.708 341.18,216.708 C342.765341,216.708 344.012329,216.292337 344.921,215.461 C345.829671,214.629663 346.284,213.576006 346.284,212.3 C346.284,211.178661 345.936003,210.289337 345.24,209.632 C344.543997,208.974663 343.674005,208.462335 342.63,208.095 C341.586,207.727665 340.155342,207.350669 338.338,206.964 C336.017988,206.422664 334.133007,205.881336 332.683,205.34 C331.232993,204.798664 329.995672,203.919006 328.971,202.701 C327.946328,201.482994 327.434,199.83001 327.434,197.742 C327.434,195.03532 328.44899,192.841008 330.479,191.159 C332.50901,189.476992 335.321982,188.636 338.918,188.636 Z M390.082,215.258 L390.082,221 L386.022,221 C382.619316,221 380.038342,220.178342 378.279,218.535 C376.519658,216.891658 375.64,214.156019 375.64,210.328 L375.64,194.668 L371.058,194.668 L371.058,189.042 L375.64,189.042 L375.64,181.096 L382.31,181.096 L382.31,189.042 L390.024,189.042 L390.024,194.668 L382.31,194.668 L382.31,210.444 C382.31,212.261342 382.64833,213.517997 383.325,214.214 C384.00167,214.910003 385.190658,215.258 386.892,215.258 L390.082,215.258 Z M414.852,188.52 C418.564019,188.52 421.541322,189.718655 423.784,192.116 C426.026678,194.513345 427.148,197.935311 427.148,202.382 L427.148,221 L420.536,221 L420.536,203.078 C420.536,200.216652 419.801341,198.003008 418.332,196.437 C416.862659,194.870992 414.852013,194.088 412.3,194.088 C409.670654,194.088 407.563341,194.928992 405.978,196.611 C404.392659,198.293008 403.6,200.757984 403.6,204.006 L403.6,221 L396.988,221 L396.988,178.08 L403.6,178.08 L403.6,196.06 C404.450671,193.662655 405.881323,191.806673 407.892,190.492 C409.902677,189.177327 412.222654,188.52 414.852,188.52 Z M465.258,203.484 C465.258,204.566672 465.180667,205.513996 465.026,206.326 L440.434,206.326 C440.550001,209.612683 441.458658,212.048659 443.16,213.634 C444.861342,215.219341 446.968654,216.012 449.482,216.012 C451.686011,216.012 453.551659,215.451339 455.079,214.33 C456.606341,213.208661 457.543998,211.720009 457.892,209.864 L464.968,209.864 C464.542665,212.106678 463.65334,214.097991 462.3,215.838 C460.94666,217.578009 459.187344,218.940995 457.022,219.927 C454.856656,220.913005 452.440013,221.406 449.772,221.406 C446.678651,221.406 443.943012,220.748673 441.565,219.434 C439.186988,218.119327 437.32134,216.224679 435.968,213.75 C434.61466,211.275321 433.938,208.356017 433.938,204.992 C433.938,201.66665 434.61466,198.766679 435.968,196.292 C437.32134,193.817321 439.186988,191.922673 441.565,190.608 C443.943012,189.293327 446.678651,188.636 449.772,188.636 C452.904016,188.636 455.639655,189.28366 457.979,190.579 C460.318345,191.87434 462.116327,193.652989 463.373,195.915 C464.629673,198.177011 465.258,200.699986 465.258,203.484 Z M458.588,203.31 C458.665334,201.22199 458.307671,199.47234 457.515,198.061 C456.722329,196.64966 455.639674,195.60567 454.267,194.929 C452.894326,194.25233 451.396008,193.914 449.772,193.914 C447.18132,193.914 445.016009,194.706659 443.276,196.292 C441.535991,197.877341 440.588667,200.216651 440.434,203.31 L458.588,203.31 Z M124.866,254.52 C128.578019,254.52 131.555322,255.718655 133.798,258.116 C136.040678,260.513345 137.162,263.935311 137.162,268.382 L137.162,287 L130.55,287 L130.55,269.078 C130.55,266.216652 129.815341,264.003008 128.346,262.437 C126.876659,260.870992 124.866013,260.088 122.314,260.088 C119.684654,260.088 117.577341,260.928992 115.992,262.611 C114.406659,264.293008 113.614,266.757984 113.614,270.006 L113.614,287 L107.002,287 L107.002,255.042 L113.614,255.042 L113.614,262.06 C114.464671,259.662655 115.895323,257.806673 117.906,256.492 C119.916677,255.177327 122.236654,254.52 124.866,254.52 Z M175.272,269.484 C175.272,270.566672 175.194667,271.513996 175.04,272.326 L150.448,272.326 C150.564001,275.612683 151.472658,278.048659 153.174,279.634 C154.875342,281.219341 156.982654,282.012 159.496,282.012 C161.700011,282.012 163.565659,281.451339 165.093,280.33 C166.620341,279.208661 167.557998,277.720009 167.906,275.864 L174.982,275.864 C174.556665,278.106678 173.66734,280.097991 172.314,281.838 C170.96066,283.578009 169.201344,284.940995 167.036,285.927 C164.870656,286.913005 162.454013,287.406 159.786,287.406 C156.692651,287.406 153.957012,286.748673 151.579,285.434 C149.200988,284.119327 147.33534,282.224679 145.982,279.75 C144.62866,277.275321 143.952,274.356017 143.952,270.992 C143.952,267.66665 144.62866,264.766679 145.982,262.292 C147.33534,259.817321 149.200988,257.922673 151.579,256.608 C153.957012,255.293327 156.692651,254.636 159.786,254.636 C162.918016,254.636 165.653655,255.28366 167.993,256.579 C170.332345,257.87434 172.130327,259.652989 173.387,261.915 C174.643673,264.177011 175.272,266.699986 175.272,269.484 Z M168.602,269.31 C168.679334,267.22199 168.321671,265.47234 167.529,264.061 C166.736329,262.64966 165.653674,261.60567 164.281,260.929 C162.908326,260.25233 161.410008,259.914 159.786,259.914 C157.19532,259.914 155.030009,260.706659 153.29,262.292 C151.549991,263.877341 150.602667,266.216651 150.448,269.31 L168.602,269.31 Z M227.128,255.042 L218.254,287 L210.946,287 L203.058,262.292 L195.054,287 L187.804,287 L178.93,255.042 L185.6,255.042 L191.69,280.91 L199.694,255.042 L206.654,255.042 L214.774,280.91 L220.864,255.042 L227.128,255.042 Z M253.236,244.08 L253.236,287 L246.624,287 L246.624,244.08 L253.236,244.08 Z M274.758,254.636 C277.658014,254.636 280.132656,255.351326 282.182,256.782 C284.231344,258.212674 285.681329,260.107322 286.532,262.466 L286.532,255.042 L293.144,255.042 L293.144,287 L286.532,287 L286.532,279.576 C285.681329,281.934678 284.231344,283.829326 282.182,285.26 C280.132656,286.690674 277.658014,287.406 274.758,287.406 C271.973986,287.406 269.489678,286.748673 267.305,285.434 C265.120322,284.119327 263.40934,282.224679 262.172,279.75 C260.93466,277.275321 260.316,274.356017 260.316,270.992 C260.316,267.66665 260.93466,264.766679 262.172,262.292 C263.40934,259.817321 265.120322,257.922673 267.305,256.608 C269.489678,255.293327 271.973986,254.636 274.758,254.636 Z M276.788,260.436 C273.849319,260.436 271.500342,261.373657 269.741,263.249 C267.981658,265.124343 267.102,267.705317 267.102,270.992 C267.102,274.278683 267.981658,276.859657 269.741,278.735 C271.500342,280.610343 273.849319,281.548 276.788,281.548 C278.644009,281.548 280.306659,281.113004 281.776,280.243 C283.245341,279.372996 284.405329,278.145341 285.256,276.56 C286.106671,274.974659 286.532,273.118677 286.532,270.992 C286.532,268.90399 286.106671,267.057675 285.256,265.453 C284.405329,263.848325 283.245341,262.611004 281.776,261.741 C280.306659,260.870996 278.644009,260.436 276.788,260.436 Z M305.56,255.042 L315.13,278.532 L324.004,255.042 L331.37,255.042 L312.056,302.196 L304.69,302.196 L311.592,286.246 L298.136,255.042 L305.56,255.042 Z M366.116,269.484 C366.116,270.566672 366.038667,271.513996 365.884,272.326 L341.292,272.326 C341.408001,275.612683 342.316658,278.048659 344.018,279.634 C345.719342,281.219341 347.826654,282.012 350.34,282.012 C352.544011,282.012 354.409659,281.451339 355.937,280.33 C357.464341,279.208661 358.401998,277.720009 358.75,275.864 L365.826,275.864 C365.400665,278.106678 364.51134,280.097991 363.158,281.838 C361.80466,283.578009 360.045344,284.940995 357.88,285.927 C355.714656,286.913005 353.298013,287.406 350.63,287.406 C347.536651,287.406 344.801012,286.748673 342.423,285.434 C340.044988,284.119327 338.17934,282.224679 336.826,279.75 C335.47266,277.275321 334.796,274.356017 334.796,270.992 C334.796,267.66665 335.47266,264.766679 336.826,262.292 C338.17934,259.817321 340.044988,257.922673 342.423,256.608 C344.801012,255.293327 347.536651,254.636 350.63,254.636 C353.762016,254.636 356.497655,255.28366 358.837,256.579 C361.176345,257.87434 362.974327,259.652989 364.231,261.915 C365.487673,264.177011 366.116,266.699986 366.116,269.484 Z M359.446,269.31 C359.523334,267.22199 359.165671,265.47234 358.373,264.061 C357.580329,262.64966 356.497674,261.60567 355.125,260.929 C353.752326,260.25233 352.254008,259.914 350.63,259.914 C348.03932,259.914 345.874009,260.706659 344.134,262.292 C342.393991,263.877341 341.446667,266.216651 341.292,269.31 L359.446,269.31 Z M379.808,261.306 C380.890672,259.21799 382.437323,257.565006 384.448,256.347 C386.458677,255.128994 388.778654,254.52 391.408,254.52 L391.408,261.712 L389.436,261.712 C386.535986,261.712 384.206342,262.41766 382.447,263.829 C380.687658,265.24034 379.808,267.569984 379.808,270.818 L379.808,287 L373.196,287 L373.196,255.042 L379.808,255.042 L379.808,261.306 Z M396.11,245.762 C396.11,244.640661 396.496663,243.71267 397.27,242.978 C398.043337,242.24333 399.067994,241.876 400.344,241.876 C401.620006,241.876 402.654329,242.24333 403.447,242.978 C404.239671,243.71267 404.636,244.640661 404.636,245.762 C404.636,246.883339 404.239671,247.791997 403.447,248.488 C402.654329,249.184003 401.620006,249.532 400.344,249.532 C399.067994,249.532 398.043337,249.184003 397.27,248.488 C396.496663,247.791997 396.11,246.883339 396.11,245.762 Z M403.65,255.042 L403.65,287 L397.038,287 L397.038,255.042 L403.65,255.042 Z M430.218,254.52 C433.930019,254.52 436.907322,255.718655 439.15,258.116 C441.392678,260.513345 442.514,263.935311 442.514,268.382 L442.514,287 L435.902,287 L435.902,269.078 C435.902,266.216652 435.167341,264.003008 433.698,262.437 C432.228659,260.870992 430.218013,260.088 427.666,260.088 C425.036654,260.088 422.929341,260.928992 421.344,262.611 C419.758659,264.293008 418.966,266.757984 418.966,270.006 L418.966,287 L412.354,287 L412.354,255.042 L418.966,255.042 L418.966,262.06 C419.816671,259.662655 421.247323,257.806673 423.258,256.492 C425.268677,255.177327 427.588654,254.52 430.218,254.52 Z M463.746,254.636 C466.646015,254.636 469.120656,255.351326 471.17,256.782 C473.219344,258.212674 474.669329,260.107322 475.52,262.466 L475.52,255.042 L482.132,255.042 L482.132,287.348 C482.132,290.325348 481.523006,292.964322 480.305,295.265 C479.086994,297.565678 477.337345,299.373327 475.056,300.688 C472.774655,302.002673 470.068016,302.66 466.936,302.66 C462.450644,302.66 458.82568,301.596677 456.061,299.47 C453.29632,297.343323 451.566003,294.462685 450.87,290.828 L457.424,290.828 C457.965336,292.722676 459.009326,294.201661 460.556,295.265 C462.102674,296.328339 464.074655,296.86 466.472,296.86 C469.101346,296.86 471.266658,296.048008 472.968,294.424 C474.669342,292.799992 475.52,290.441349 475.52,287.348 L475.52,279.576 C474.669329,281.934678 473.219344,283.829326 471.17,285.26 C469.120656,286.690674 466.646015,287.406 463.746,287.406 C460.961986,287.406 458.477678,286.748673 456.293,285.434 C454.108322,284.119327 452.39734,282.224679 451.16,279.75 C449.92266,277.275321 449.304,274.356017 449.304,270.992 C449.304,267.66665 449.92266,264.766679 451.16,262.292 C452.39734,259.817321 454.108322,257.922673 456.293,256.608 C458.477678,255.293327 460.961986,254.636 463.746,254.636 Z M465.776,260.436 C462.837319,260.436 460.488342,261.373657 458.729,263.249 C456.969658,265.124343 456.09,267.705317 456.09,270.992 C456.09,274.278683 456.969658,276.859657 458.729,278.735 C460.488342,280.610343 462.837319,281.548 465.776,281.548 C467.632009,281.548 469.294659,281.113004 470.764,280.243 C472.233341,279.372996 473.393329,278.145341 474.244,276.56 C475.094671,274.974659 475.52,273.118677 475.52,270.992 C475.52,268.90399 475.094671,267.057675 474.244,265.453 C473.393329,263.848325 472.233341,262.611004 470.764,261.741 C469.294659,260.870996 467.632009,260.436 465.776,260.436 Z" id="Mixingisthenewlayering"></path>
            </g>
        </g>
    </g>
</svg>