<?xml version="1.0" encoding="UTF-8"?>
<svg width="1112px" height="519px" viewBox="0 0 1112 519" version="1.1" xmlns="http://www.w3.org/2000/svg" xmlns:xlink="http://www.w3.org/1999/xlink">
    <!-- Generator: Sketch 55.2 (78181) - https://sketchapp.com -->
    <title>mixing</title>
    <desc>Created with Sketch.</desc>
    <g id="Drunk-Elephant_1920" stroke="none" stroke-width="1" fill="none" fill-rule="evenodd">
        <g id="Drunkelephant_index_v06-轉外框" transform="translate(-592.000000, -2690.000000)" fill-rule="nonzero">
            <g id="mixing" transform="translate(592.000000, 2692.000000)">
                <path d="M71.16,437.2 L71.16,427 L48.6,427 L48.6,414.04 L71.16,414.04 L71.16,403.36 L85.32,403.36 L85.32,414.04 L109.32,414.04 L109.32,427 L85.32,427 L85.32,437.2 L105.24,437.2 L105.24,450.4 L53.04,450.4 L53.04,437.2 L71.16,437.2 Z M44.88,461.44 L46.44,474.64 L34.92,477.64 L34.92,515.44 L21.36,515.44 L21.36,481 L5.52,485.08 L2.04,470.56 C7.32,469.6 14.16,468.16 21.36,466.72 L21.36,440.32 L14.4,440.32 C13.2,446.32 11.76,451.96 10.08,456.28 C7.68,455.2 2.64,453.28 -2.27373675e-13,452.44 C3.84,442.72 6.12,427.24 7.2,412.6 L18,414.28 C17.64,418.48 17.16,422.56 16.56,426.76 L21.36,426.76 L21.36,403.48 L34.92,403.48 L34.92,426.76 L45.24,426.76 L45.24,440.32 L34.92,440.32 L34.92,463.72 L44.88,461.44 Z M53.64,481.24 L64.2,474.76 C69.36,480.04 75.72,487.72 78.6,492.76 L67.32,500.08 C64.8,495.04 58.8,487 53.64,481.24 Z M111.96,461.32 L111.96,474.4 L100.44,474.4 L100.44,499.48 C100.44,506.56 99.12,510.28 94.32,512.56 C89.76,514.72 83.04,515.08 74.28,515.08 C73.68,510.88 71.76,505 69.96,500.92 C75.6,501.16 82.08,501.16 84,501.16 C85.8,501.16 86.28,500.68 86.28,499.12 L86.28,474.4 L48.12,474.4 L48.12,461.32 L86.28,461.32 L86.28,452.92 L100.44,452.92 L100.44,461.32 L111.96,461.32 Z M180.1,423.16 L180.1,434.44 L137.26,434.44 L137.26,423.16 L156.7,423.16 C154.9,418.72 151.9,412.72 149.38,408.16 L159.82,403.84 C162.94,408.76 166.66,415.6 168.46,419.8 L161.38,423.16 L180.1,423.16 Z M176.38,439.84 L176.38,450.64 L142.42,450.64 L142.42,439.84 L176.38,439.84 Z M142.3,466.72 L142.3,455.92 L176.26,455.92 L176.26,466.72 L142.3,466.72 Z M218.98,474.4 L208.78,474.4 L208.78,484.36 L218.98,484.36 L218.98,474.4 Z M229.42,494.2 L208.78,494.2 L208.78,499.72 L199.06,499.72 L199.06,464.44 L229.42,464.44 L229.42,494.2 Z M220.42,448 L233.62,448 L233.62,439.96 L220.42,439.96 L220.42,448 Z M195.94,439.96 L195.94,448 L208.9,448 L208.9,439.96 L195.94,439.96 Z M208.9,420.16 L195.94,420.16 L195.94,428.8 L208.9,428.8 L208.9,420.16 Z M233.62,428.8 L233.62,420.16 L220.42,420.16 L220.42,428.8 L233.62,428.8 Z M165.46,497.44 L165.46,484 L153.22,484 L153.22,497.44 L165.46,497.44 Z M245.26,407.68 L245.26,500.44 C245.26,506.44 244.18,509.8 240.58,511.96 C237.1,514 231.82,514.24 224.02,514.24 C223.54,510.88 221.98,505.48 220.3,502.36 C225.22,502.6 230.02,502.48 231.58,502.36 C233.14,502.36 233.62,501.88 233.62,500.2 L233.62,459.16 L195.94,459.16 C195.7,477.28 193.78,500.8 185.02,515.8 C182.98,513.88 177.94,510.04 175.3,508.84 L153.22,508.84 L153.22,513.52 L141.94,513.52 L141.94,472.48 L176.74,472.48 L176.74,506.08 C183.94,490.96 184.54,470.56 184.54,454.6 L184.54,407.68 L245.26,407.68 Z M361.64,425.92 L361.64,419.2 L325.28,419.2 L325.28,425.92 L361.64,425.92 Z M361.64,442.6 L361.64,435.88 L325.28,435.88 L325.28,442.6 L361.64,442.6 Z M376.52,408.52 L376.52,453.28 L311,453.28 L311,408.52 L376.52,408.52 Z M310.16,416.8 L302.24,428.56 C297.44,424.96 287.6,419.08 280.88,415.12 L288.44,404.8 C294.92,408.16 305,413.56 310.16,416.8 Z M303.32,449.2 L295.52,461.08 C290.96,457.72 281,451.96 274.04,448.12 L281.36,437.68 C287.96,440.8 298.04,446.08 303.32,449.2 Z M299.96,466.6 L310.04,476.2 C303.92,488.68 296.6,502.36 289.64,514 L278.12,504.4 C284.24,495.28 293.12,480.52 299.96,466.6 Z M326.24,497.68 L342.44,494.44 C342.68,498.04 343.64,503.44 344.36,506.44 C319.52,512.08 315.08,513.76 312.2,515.68 C311.6,511.96 309.92,505.6 308,502.48 C310.28,501.64 312.2,500.56 312.2,496.36 L312.2,456.52 L326.24,456.52 L326.24,468.88 L343.28,468.88 L343.28,480.88 L326.24,480.88 L326.24,497.68 Z M363.44,502.84 L371.12,502.84 C373.76,502.84 374.24,500.92 374.6,490.12 C377.36,492.16 383,494.44 386.72,495.28 C385.4,510.52 381.8,514.96 372.56,514.96 L361.16,514.96 C349.28,514.96 346.52,511 346.52,498.4 L346.52,456.04 L360.2,456.04 L360.2,469 L382.76,469 L382.76,481 L360.2,481 L360.2,498.28 C360.2,502.24 360.56,502.84 363.44,502.84 Z M495.42,436.36 L495.42,425.44 L484.86,425.44 L484.86,413.08 L495.42,413.08 L495.42,404.08 L508.38,404.08 L508.38,413.08 L519.66,413.08 L519.66,425.44 L508.38,425.44 L508.38,436.36 L495.42,436.36 Z M457.98,436.36 L457.98,425.44 L446.94,425.44 L446.94,413.08 L457.98,413.08 L457.98,404.08 L470.94,404.08 L470.94,413.08 L481.5,413.08 L481.5,425.44 L470.94,425.44 L470.94,436.36 L457.98,436.36 Z M498.42,486.76 L468.66,486.76 L468.66,499.12 L498.42,499.12 L498.42,486.76 Z M455.58,515.08 L455.58,475 L512.22,475 L512.22,515.08 L498.42,515.08 L498.42,510.88 L468.66,510.88 L468.66,515.08 L455.58,515.08 Z M471.66,457.12 L496.38,457.12 C491.7,453.52 487.14,449.8 483.3,446.2 C479.58,450.04 475.62,453.64 471.66,457.12 Z M480.78,430.12 L491.82,435.4 L490.38,437.56 C498.54,444.64 511.62,452.68 522.54,457.12 C520.5,460.6 518.34,466.96 517.62,470.68 C512.7,468.04 507.3,464.68 502.14,461.2 L502.14,468.88 L465.06,468.88 L465.06,462.28 C460.38,465.52 455.58,468.52 451.14,471.04 C450.18,469.12 448.5,465.76 446.7,463 L447.06,464.44 C443.7,465.76 440.46,467.2 437.1,468.52 L437.1,498.76 C437.1,505.48 436.02,509.32 432.18,511.6 C428.46,514 423.06,514.6 415.38,514.6 C415.02,510.76 413.22,504.64 411.42,500.68 C415.74,500.8 419.94,500.8 421.38,500.68 C422.82,500.68 423.42,500.2 423.42,498.64 L423.42,474.04 L414.06,477.88 L410.58,463.72 C414.3,462.64 418.62,461.2 423.42,459.4 L423.42,439.24 L411.54,439.24 L411.54,426.04 L423.42,426.04 L423.42,403.48 L437.1,403.48 L437.1,426.04 L445.86,426.04 L445.86,439.24 L437.1,439.24 L437.1,454.36 L444.42,451.6 L445.74,458.08 C459.06,451.84 472.98,441.64 480.78,430.12 Z M619.46,428.68 L638.66,428.68 C634.82,426.28 630.86,423.76 627.26,421.48 C624.74,423.88 622.1,426.4 619.46,428.68 Z M639.62,450.88 L612.38,450.88 L612.38,455.56 L639.62,455.56 L639.62,450.88 Z M611.9,468.88 L639.62,468.88 L639.62,463.96 L612.14,463.96 C612.14,465.52 612.02,467.2 611.9,468.88 Z M642.98,492.16 L620.78,492.16 L620.78,500.68 L642.98,500.68 L642.98,492.16 Z M639.5,437.08 L614.78,437.08 L614.78,432.4 C610.58,435.52 606.38,438.52 601.94,441.04 L652.58,441.04 L652.58,478.72 L610.94,478.72 C610.7,479.92 610.58,481.24 610.34,482.44 L655.46,482.44 L655.46,514.48 L642.98,514.48 L642.98,511.24 L620.78,511.24 L620.78,514.96 L608.9,514.96 L608.9,490.12 C607.22,497.68 604.7,505 601.22,511.12 C598.46,509.32 592.22,506.68 588.74,505.6 C598.22,490.36 599.18,468.88 599.18,454.84 L599.18,442.72 L596.42,444.16 C595.1,440.8 591.38,433.6 588.98,430.48 C602.9,424.6 616.94,414.76 624.62,403.24 L637.7,408.4 C636.98,409.48 636.26,410.44 635.54,411.4 C644.42,416.56 654.38,422.44 659.9,426.4 L652.58,438.4 C649.34,435.76 644.66,432.64 639.5,429.28 L639.5,437.08 Z M675.62,415.72 L675.62,482.68 L662.18,482.68 L662.18,415.72 L675.62,415.72 Z M683.9,403.72 L697.58,403.72 L697.58,498.28 C697.58,505.96 696.14,509.8 691.7,512.08 C687.5,514.48 680.66,514.96 671.06,514.96 C670.46,511 668.78,504.64 666.86,500.68 C672.98,500.8 679.22,500.8 681.14,500.8 C683.06,500.8 683.9,500.2 683.9,498.16 L683.9,403.72 Z M736.08,478.6 L747,481.72 C744,490.36 739.08,500.2 734.88,506.32 C732.72,504.52 728.16,501.4 725.52,499.84 C729.6,494.2 733.56,486.04 736.08,478.6 Z M764.28,426.88 L746.52,426.88 C748.32,430.84 749.88,436 750.48,439.36 L741.84,441.76 L759.12,441.76 C760.92,437.44 763.08,431.32 764.28,426.88 Z M782.4,474.76 L763.8,474.76 L763.8,514.6 L750,514.6 L750,474.76 L727.68,474.76 L727.68,462.76 L750,462.76 L750,453.52 L726.96,453.52 L726.96,441.76 L738.6,441.76 C738,438.16 736.56,433 735.12,429.28 L744.96,426.88 L728.76,426.88 L728.76,415.24 L749.28,415.24 C748.2,412 746.88,408.64 745.68,405.76 L759.96,402.28 C761.76,406.24 763.92,411.16 765.36,415.24 L782.52,415.24 L782.52,426.88 L767.52,426.88 L777.24,428.8 C775.44,433.36 773.64,438.04 771.84,441.76 L784.32,441.76 L784.32,453.52 L763.8,453.52 L763.8,462.76 L782.4,462.76 L782.4,474.76 Z M837.84,442.84 L837.84,456.04 L826.68,456.04 L826.68,514.96 L812.76,514.96 L812.76,456.04 L801.6,456.04 L801.6,457.48 C801.6,475.12 800.04,499.84 789.84,515.2 C787.44,512.68 781.8,508.12 778.8,506.68 C781.08,503.2 782.88,499.24 784.2,495.04 L775.68,500.32 C773.76,495.52 769.68,487.84 766.32,482.32 L775.68,477.28 C778.92,482.08 782.64,488.44 784.68,493 C788.04,481.48 788.4,468.52 788.4,457.48 L788.4,414.76 C801.48,412.36 816,408.64 824.76,404.56 L835.68,415 C825.84,418.96 813.36,421.84 801.6,424 L801.6,442.84 L837.84,442.84 Z M889.06,403.6 L902.26,407.92 C899.02,416.2 895.06,424.72 890.38,432.76 L890.38,515.08 L876.82,515.08 L876.82,453.4 C874.06,456.88 871.18,460.12 868.42,463.12 C867.1,459.64 863.14,451.96 860.74,448.48 C871.9,437.68 882.82,420.64 889.06,403.6 Z M910.42,477.04 L923.26,480.88 C918.34,491.2 911.02,502.84 904.9,510.16 C902.38,508 897.1,504.16 893.86,502.48 C899.86,495.88 906.34,485.92 910.42,477.04 Z M918.22,421.12 L918.22,437.2 L953.38,437.2 L953.38,421.12 L918.22,421.12 Z M973.66,473.32 L942.58,473.32 L942.58,515.44 L928.18,515.44 L928.18,473.32 L896.86,473.32 L896.86,460.36 L928.18,460.36 L928.18,449.8 L904.66,449.8 L904.66,408.52 L967.66,408.52 L967.66,449.8 L942.58,449.8 L942.58,460.36 L973.66,460.36 L973.66,473.32 Z M946.66,482.8 L957.22,476.92 C964.06,484.84 971.38,495.16 974.86,502.24 L963.58,509.08 C960.34,502 953.02,490.96 946.66,482.8 Z M1028.36,463.72 L1081.64,463.72 C1078.16,460.6 1074.92,457.24 1072.04,453.64 L1072.04,459.76 L1037.24,459.76 L1037.24,454.36 C1034.6,457.6 1031.48,460.72 1028.36,463.72 Z M1087.28,492.88 L1059.68,492.88 C1065.32,494.32 1071.68,496.12 1078.16,498.04 C1081.16,496.48 1084.28,494.68 1087.28,492.88 Z M1052.12,496.96 L1052.12,498.88 L1056.44,492.88 L1034,492.88 L1034,500.2 L1052.12,496.96 Z M1034,481.48 L1034,485.32 L1073.12,485.32 L1073.12,481.48 L1034,481.48 Z M1034,471.28 L1034,475 L1073.12,475 L1073.12,471.28 L1034,471.28 Z M1068.92,449.32 L1040.84,449.32 L1038.32,452.92 L1071.44,452.92 C1070.6,451.72 1069.64,450.52 1068.92,449.32 Z M1107.68,449.32 L1084.16,449.32 C1091.36,456.4 1101.2,462.04 1111.64,465.28 C1108.52,467.92 1104.56,472.96 1102.52,476.44 C1097.24,474.4 1092.32,471.64 1087.64,468.4 L1087.64,492.64 C1090.88,490.72 1093.76,488.92 1096.16,487.12 L1105.4,494.32 C1100.72,496.84 1095.44,499.48 1090.52,501.64 C1096.16,503.44 1101.2,505.12 1105.16,506.56 L1099.16,516.16 C1088.6,512.08 1067.72,505.12 1052.24,500.92 C1052.48,503.32 1052.72,505.72 1052.96,507.4 C1025.96,513.04 1021.76,514.24 1019,515.92 C1018.04,512.8 1015.28,506.92 1013.12,504.52 C1015.64,503.08 1018.4,500.32 1018.4,494.8 L1018.4,471.52 C1014.68,474.04 1010.96,476.32 1007.12,478.12 C1005.08,475.48 1000.4,470.2 997.28,467.8 C1007.72,463.72 1017.68,457.12 1024.52,449.32 L1001.72,449.32 L1001.72,439.84 L1047.08,439.84 L1047.08,435.76 L1013.6,435.76 L1013.6,427.24 L1047.08,427.24 L1047.08,423.28 L1007.96,423.28 L1007.96,414.04 L1027.16,414.04 C1025.84,411.76 1024.4,409.36 1023.08,407.44 L1035.92,403.48 C1038.44,406.72 1041.08,410.92 1042.76,414.04 L1067.48,414.04 C1069.4,410.56 1071.56,406.36 1072.64,403.24 L1088.48,406.36 C1086.44,409.12 1084.52,411.76 1082.6,414.04 L1101.32,414.04 L1101.32,423.28 L1061.84,423.28 L1061.84,427.24 L1095.68,427.24 L1095.68,435.76 L1061.84,435.76 L1061.84,439.84 L1107.68,439.84 L1107.68,449.32 Z" id="特調混搭創新保養" fill="#98E0F6"></path>
                <g transform="translate(8.000000, 0.000000)">
                    <polygon id="Path" stroke="#98E0F6" stroke-width="5.03232443" fill="#FFFFFF" points="95.9206463 117.849727 165.450596 3.25841204 191.32513 3.25841204 191.32513 194.66461 154.547226 194.66461 154.547226 88.0240142 108.753074 163.24034 83.130155 163.24034 37.3360027 88.0240142 37.3360027 194.66461 0.516162217 194.66461 0.516162217 3.25841204 26.4326331 3.25841204"></polygon>
                    <polygon id="Path" stroke="#98E0F6" stroke-width="5.03232443" fill="#FFFFFF" points="262.197033 3.25841204 298.974937 3.25841204 298.974937 194.66461 262.197033 194.66461"></polygon>
                    <polygon id="Path" stroke="#98E0F6" stroke-width="5.03232443" fill="#FFFFFF" points="463.07065 92.6934841 529.329588 194.66461 487.058063 194.66461 440.718742 121.930255 394.589101 194.66461 352.149832 194.66461 418.115218 92.6934841 360.327359 3.25841204 402.556948 3.25841204 440.718742 63.7091169 478.880536 3.25841204 521.152061 3.25841204"></polygon>
                    <polygon id="Path" stroke="#98E0F6" stroke-width="5.03232443" fill="#FFFFFF" points="582.462547 3.25841204 619.282387 3.25841204 619.282387 194.66461 582.462547 194.66461"></polygon>
                    <polygon id="Path" stroke="#98E0F6" stroke-width="5.03232443" fill="#FFFFFF" points="690.15429 3.25841204 716.028825 3.25841204 822.336678 127.945878 822.336678 3.25841204 859.156519 3.25841204 859.156519 194.66461 833.240048 194.66461 726.932194 69.977144 726.932194 194.66461 690.15429 194.66461"></polygon>
                    <path d="M953.177114,98.9615112 C952.845334,116.422288 959.596398,133.269662 971.883001,145.642309 C984.169604,158.014956 1000.93827,164.852024 1018.34572,164.586494 C1033.79637,164.74912 1048.82491,159.530651 1060.86886,149.820872 L1060.86886,108.552855 L1011.80369,108.552855 L1011.80369,75.7403636 L1097.6887,75.7403636 L1097.6887,160.75837 C1080.91428,182.38096 1052.39778,197.398985 1017.50699,197.398985 C958.08363,197.398985 916.399209,153.943468 916.399209,98.9615112 C916.399209,43.9795549 957.538462,0.52403778 1017.0457,0.52403778 C1042.97455,0.141051691 1068.0225,9.95603172 1086.82726,27.8677804 L1063.1334,53.1081582 C1050.9152,40.5585469 1034.19694,33.438241 1016.71021,33.3365289 C980.435538,33.3365289 953.177114,62.5732999 953.177114,98.9615112 Z" id="Path" stroke="#98E0F6" stroke-width="5.03232443" fill="#FFFFFF"></path>
                    <polygon id="Path" fill="#FF27C8" points="373.914635 68.126183 386.914807 68.126183 386.914807 135.85453 373.914635 135.85453"></polygon>
                    <path d="M419.541043,117.765593 C423.591181,122.336631 429.340937,125.030279 435.434801,125.211504 C437.865322,125.481499 440.298865,124.730468 442.157775,123.136682 C444.016686,121.542896 445.135207,119.248474 445.247834,116.798045 C445.247834,108.048047 432.667023,106.996365 423.650775,101.695885 C417.822458,98.8129103 414.13182,92.8600496 414.131295,86.3413223 C414.131295,74.2680083 425.202408,67.2848371 436.39933,67.2848371 C443.465171,67.1465683 450.369001,69.4155021 455.98346,73.7211334 L449.231758,83.3966116 C445.981753,80.5662781 441.835215,78.98596 437.531603,78.9374782 C432.625087,78.9374782 427.131466,81.0829103 427.131466,86.299255 C427.131466,97.2367521 458.289942,93.8293011 458.289942,116.671843 C458.289942,128.661022 447.596252,136.990347 435.434801,136.990347 C426.308044,136.817662 417.586102,133.179661 411.028028,126.810061 L419.541043,117.765593 Z" id="Path" fill="#FF27C8"></path>
                    <polygon id="Path" fill="#FF27C8" points="567.742998 68.126183 567.742998 79.7367568 549.920182 79.7367568 549.920182 135.85453 536.920011 135.85453 536.920011 79.7367568 519.055259 79.7367568 519.055259 68.126183"></polygon>
                    <polygon id="Path" fill="#FF27C8" points="640.082662 105.35574 606.324152 105.35574 606.324152 135.85453 593.491725 135.85453 593.491725 68.126183 606.491896 68.126183 606.491896 93.7872338 640.250406 93.7872338 640.250406 68.126183 653.292513 68.126183 653.292513 135.85453 640.250406 135.85453"></polygon>
                    <polygon id="Path" fill="#FF27C8" points="696.989864 79.7367568 696.989864 93.7872338 717.748202 93.7872338 717.748202 105.35574 696.989864 105.35574 696.989864 124.201889 725.464433 124.201889 725.464433 135.812463 683.989692 135.812463 683.989692 68.126183 724.499904 68.126183 724.499904 79.7367568"></polygon>
                    <polygon id="Path" fill="#FF27C8" points="111.2273 248.847288 120.453228 248.847288 158.195661 292.975882 158.195661 248.847288 171.237769 248.847288 171.237769 316.575635 161.927968 316.575635 124.185535 272.447041 124.185535 316.575635 111.2273 316.575635"></polygon>
                    <polygon id="Path" fill="#FF27C8" points="214.977055 260.457862 214.977055 274.466272 235.735393 274.466272 235.735393 286.076845 214.977055 286.076845 214.977055 305.091263 243.451624 305.091263 243.451624 316.701837 201.976884 316.701837 201.976884 248.847288 242.487095 248.847288 242.487095 260.457862"></polygon>
                    <polygon id="Path" fill="#FF27C8" points="264.671259 248.847288 277.797239 248.847288 291.761939 291.124921 306.607296 248.847288 315.791288 248.847288 330.636645 291.124921 344.601345 248.847288 357.727325 248.847288 335.333481 316.575635 326.191425 316.575635 311.136388 273.70906 296.207159 316.575635 287.023167 316.575635"></polygon>
                    <polygon id="Path" fill="#FF27C8" points="421.553973 248.847288 434.596081 248.847288 434.596081 305.091263 463.028714 305.091263 463.028714 316.701837 421.553973 316.701837"></polygon>
                    <path d="M485.045133,316.575635 L513.980999,248.847288 L523.164991,248.847288 L552.05892,316.575635 L538.471644,316.575635 L532.097367,301.55761 L505.006687,301.55761 L498.674345,316.575635 L485.045133,316.575635 Z M509.955139,289.947037 L527.106978,289.947037 L518.719771,269.923004 L509.955139,289.947037 Z" id="Shape" fill="#FF27C8"></path>
                    <polygon id="Path" fill="#FF27C8" points="596.93048 285.908576 596.93048 316.575635 583.930308 316.575635 583.930308 285.908576 560.781616 248.847288 575.626973 248.847288 590.47233 272.657378 605.233815 248.847288 620.079172 248.847288"></polygon>
                    <polygon id="Path" fill="#FF27C8" points="656.731268 260.457862 656.731268 274.466272 677.363799 274.466272 677.363799 286.076845 656.60546 286.076845 656.60546 305.091263 685.080029 305.091263 685.080029 316.701837 643.814969 316.701837 643.814969 248.847288 684.325181 248.847288 684.325181 260.457862"></polygon>
                    <path d="M725.212817,286.581653 L725.212817,316.575635 L712.212645,316.575635 L712.212645,248.847288 L736.787163,248.847288 C742.180239,248.500243 747.489932,250.316032 751.548648,253.895364 C755.348368,257.480863 757.503039,262.481479 757.503039,267.71447 C757.503039,272.947462 755.348368,277.948078 751.548648,281.533577 C749.639984,283.366745 747.326587,284.721652 744.796946,285.487903 L769.958568,316.575635 L753.85513,316.575635 L729.867717,286.581653 L725.212817,286.581653 Z M736.07425,274.971079 C738.453203,275.308549 740.856943,274.551165 742.616272,272.909782 C743.86979,271.513882 744.557841,269.698345 744.54533,267.819639 C744.571444,265.888057 743.884332,264.015061 742.616272,262.561227 C740.855113,260.920466 738.458089,260.149784 736.07425,260.457862 L725.254753,260.457862 L725.254753,274.971079 L736.07425,274.971079 Z" id="Shape" fill="#FF27C8"></path>
                    <polygon id="Path" fill="#FF27C8" points="792.26854 248.847288 805.268711 248.847288 805.268711 316.575635 792.26854 316.575635"></polygon>
                    <polygon id="Path" fill="#FF27C8" points="836.133635 248.847288 845.317627 248.847288 883.06006 292.975882 883.06006 248.847288 896.060231 248.847288 896.060231 316.575635 886.876239 316.575635 849.133806 272.447041 849.133806 316.575635 836.091699 316.575635"></polygon>
                    <path d="M935.01881,282.711462 C934.892939,288.885959 937.273961,294.846652 941.615399,299.225477 C945.956837,303.604301 951.885868,306.025224 958.041694,305.932609 C963.490437,306.043355 968.809593,304.259799 973.096731,300.884534 L973.096731,286.076845 L955.735212,286.076845 L955.735212,274.466272 L986.096903,274.466272 L986.096903,304.544388 C979.193933,313.105616 968.721871,317.969543 957.748142,317.711452 C945.342795,317.711453 933.879781,311.072564 927.677107,300.295592 C921.474434,289.51862 921.474434,276.240842 927.677107,265.46387 C933.879781,254.686898 945.342795,248.048009 957.748142,248.048009 C966.913198,247.911427 975.76626,251.385199 982.406531,257.723488 L974.019324,266.599687 C969.704325,262.196896 963.819054,259.69918 957.66427,259.658583 C951.589108,259.623256 945.757435,262.051709 941.493277,266.392584 C937.229119,270.733459 934.894261,276.618463 935.01881,282.711462 Z" id="Path" fill="#FF27C8"></path>
                </g>
            </g>
        </g>
    </g>
</svg>