<?xml version="1.0" encoding="UTF-8"?>
<svg width="378px" height="177px" viewBox="0 0 378 177" version="1.1" xmlns="http://www.w3.org/2000/svg" xmlns:xlink="http://www.w3.org/1999/xlink">
    <!-- Generator: Sketch 55.2 (78181) - https://sketchapp.com -->
    <title>mixing</title>
    <desc>Created with Sketch.</desc>
    <g id="Drunk-Elephant_phone" stroke="none" stroke-width="1" fill="none" fill-rule="evenodd">
        <g id="Phone_index-轉外框" transform="translate(-19.000000, -1742.000000)" fill-rule="nonzero">
            <g id="mixing" transform="translate(19.000000, 1742.000000)">
                <path d="M26.574,148.705 L26.574,145.05 L18.49,145.05 L18.49,140.406 L26.574,140.406 L26.574,136.579 L31.648,136.579 L31.648,140.406 L40.248,140.406 L40.248,145.05 L31.648,145.05 L31.648,148.705 L38.786,148.705 L38.786,153.435 L20.081,153.435 L20.081,148.705 L26.574,148.705 Z M17.157,157.391 L17.716,162.121 L13.588,163.196 L13.588,176.741 L8.729,176.741 L8.729,164.4 L3.053,165.862 L1.806,160.659 C3.698,160.315 6.149,159.799 8.729,159.283 L8.729,149.823 L6.235,149.823 C5.805,151.973 5.289,153.994 4.687,155.542 C3.827,155.155 2.021,154.467 1.075,154.166 C2.451,150.683 3.268,145.136 3.655,139.89 L7.525,140.492 C7.396,141.997 7.224,143.459 7.009,144.964 L8.729,144.964 L8.729,136.622 L13.588,136.622 L13.588,144.964 L17.286,144.964 L17.286,149.823 L13.588,149.823 L13.588,158.208 L17.157,157.391 Z M20.296,164.486 L24.08,162.164 C25.929,164.056 28.208,166.808 29.24,168.614 L25.198,171.237 C24.295,169.431 22.145,166.55 20.296,164.486 Z M41.194,157.348 L41.194,162.035 L37.066,162.035 L37.066,171.022 C37.066,173.559 36.593,174.892 34.873,175.709 C33.239,176.483 30.831,176.612 27.692,176.612 C27.477,175.107 26.789,173 26.144,171.538 C28.165,171.624 30.487,171.624 31.175,171.624 C31.82,171.624 31.992,171.452 31.992,170.893 L31.992,162.035 L18.318,162.035 L18.318,157.348 L31.992,157.348 L31.992,154.338 L37.066,154.338 L37.066,157.348 L41.194,157.348 Z M61.37,143.674 L61.37,147.716 L46.019,147.716 L46.019,143.674 L52.985,143.674 C52.34,142.083 51.265,139.933 50.362,138.299 L54.103,136.751 C55.221,138.514 56.554,140.965 57.199,142.47 L54.662,143.674 L61.37,143.674 Z M60.037,149.651 L60.037,153.521 L47.868,153.521 L47.868,149.651 L60.037,149.651 Z M47.825,159.283 L47.825,155.413 L59.994,155.413 L59.994,159.283 L47.825,159.283 Z M75.302,162.035 L71.647,162.035 L71.647,165.604 L75.302,165.604 L75.302,162.035 Z M79.043,169.13 L71.647,169.13 L71.647,171.108 L68.164,171.108 L68.164,158.466 L79.043,158.466 L79.043,169.13 Z M75.818,152.575 L80.548,152.575 L80.548,149.694 L75.818,149.694 L75.818,152.575 Z M67.046,149.694 L67.046,152.575 L71.69,152.575 L71.69,149.694 L67.046,149.694 Z M71.69,142.599 L67.046,142.599 L67.046,145.695 L71.69,145.695 L71.69,142.599 Z M80.548,145.695 L80.548,142.599 L75.818,142.599 L75.818,145.695 L80.548,145.695 Z M56.124,170.291 L56.124,165.475 L51.738,165.475 L51.738,170.291 L56.124,170.291 Z M84.719,138.127 L84.719,171.366 C84.719,173.516 84.332,174.72 83.042,175.494 C81.795,176.225 79.903,176.311 77.108,176.311 C76.936,175.107 76.377,173.172 75.775,172.054 C77.538,172.14 79.258,172.097 79.817,172.054 C80.376,172.054 80.548,171.882 80.548,171.28 L80.548,156.574 L67.046,156.574 C66.96,163.067 66.272,171.495 63.133,176.87 C62.402,176.182 60.596,174.806 59.65,174.376 L51.738,174.376 L51.738,176.053 L47.696,176.053 L47.696,161.347 L60.166,161.347 L60.166,173.387 C62.746,167.969 62.961,160.659 62.961,154.94 L62.961,138.127 L84.719,138.127 Z M122.181,144.663 L122.181,142.255 L109.152,142.255 L109.152,144.663 L122.181,144.663 Z M122.181,150.64 L122.181,148.232 L109.152,148.232 L109.152,150.64 L122.181,150.64 Z M127.513,138.428 L127.513,154.467 L104.035,154.467 L104.035,138.428 L127.513,138.428 Z M103.734,141.395 L100.896,145.609 C99.176,144.319 95.65,142.212 93.242,140.793 L95.951,137.095 C98.273,138.299 101.885,140.234 103.734,141.395 Z M101.283,153.005 L98.488,157.262 C96.854,156.058 93.285,153.994 90.791,152.618 L93.414,148.877 C95.779,149.995 99.391,151.887 101.283,153.005 Z M100.079,159.24 L103.691,162.68 C101.498,167.152 98.875,172.054 96.381,176.225 L92.253,172.785 C94.446,169.517 97.628,164.228 100.079,159.24 Z M109.496,170.377 L115.301,169.216 C115.387,170.506 115.731,172.441 115.989,173.516 C107.088,175.537 105.497,176.139 104.465,176.827 C104.25,175.494 103.648,173.215 102.96,172.097 C103.777,171.796 104.465,171.409 104.465,169.904 L104.465,155.628 L109.496,155.628 L109.496,160.057 L115.602,160.057 L115.602,164.357 L109.496,164.357 L109.496,170.377 Z M122.826,172.226 L125.578,172.226 C126.524,172.226 126.696,171.538 126.825,167.668 C127.814,168.399 129.835,169.216 131.168,169.517 C130.695,174.978 129.405,176.569 126.094,176.569 L122.009,176.569 C117.752,176.569 116.763,175.15 116.763,170.635 L116.763,155.456 L121.665,155.456 L121.665,160.1 L129.749,160.1 L129.749,164.4 L121.665,164.4 L121.665,170.592 C121.665,172.011 121.794,172.226 122.826,172.226 Z M165.878,148.404 L165.878,144.491 L162.094,144.491 L162.094,140.062 L165.878,140.062 L165.878,136.837 L170.522,136.837 L170.522,140.062 L174.564,140.062 L174.564,144.491 L170.522,144.491 L170.522,148.404 L165.878,148.404 Z M152.462,148.404 L152.462,144.491 L148.506,144.491 L148.506,140.062 L152.462,140.062 L152.462,136.837 L157.106,136.837 L157.106,140.062 L160.89,140.062 L160.89,144.491 L157.106,144.491 L157.106,148.404 L152.462,148.404 Z M166.953,166.464 L156.289,166.464 L156.289,170.893 L166.953,170.893 L166.953,166.464 Z M151.602,176.612 L151.602,162.25 L171.898,162.25 L171.898,176.612 L166.953,176.612 L166.953,175.107 L156.289,175.107 L156.289,176.612 L151.602,176.612 Z M157.364,155.843 L166.222,155.843 C164.545,154.553 162.911,153.22 161.535,151.93 C160.202,153.306 158.783,154.596 157.364,155.843 Z M160.632,146.168 L164.588,148.06 L164.072,148.834 C166.996,151.371 171.683,154.252 175.596,155.843 C174.865,157.09 174.091,159.369 173.833,160.702 C172.07,159.756 170.135,158.552 168.286,157.305 L168.286,160.057 L154.999,160.057 L154.999,157.692 C153.322,158.853 151.602,159.928 150.011,160.831 C149.667,160.143 149.065,158.939 148.42,157.95 L148.549,158.466 C147.345,158.939 146.184,159.455 144.98,159.928 L144.98,170.764 C144.98,173.172 144.593,174.548 143.217,175.365 C141.884,176.225 139.949,176.44 137.197,176.44 C137.068,175.064 136.423,172.871 135.778,171.452 C137.326,171.495 138.831,171.495 139.347,171.452 C139.863,171.452 140.078,171.28 140.078,170.721 L140.078,161.906 L136.724,163.282 L135.477,158.208 C136.81,157.821 138.358,157.305 140.078,156.66 L140.078,149.436 L135.821,149.436 L135.821,144.706 L140.078,144.706 L140.078,136.622 L144.98,136.622 L144.98,144.706 L148.119,144.706 L148.119,149.436 L144.98,149.436 L144.98,154.854 L147.603,153.865 L148.076,156.187 C152.849,153.951 157.837,150.296 160.632,146.168 Z M213.205,145.652 L220.085,145.652 C218.709,144.792 217.29,143.889 216,143.072 C215.097,143.932 214.151,144.835 213.205,145.652 Z M220.429,153.607 L210.668,153.607 L210.668,155.284 L220.429,155.284 L220.429,153.607 Z M210.496,160.057 L220.429,160.057 L220.429,158.294 L210.582,158.294 C210.582,158.853 210.539,159.455 210.496,160.057 Z M221.633,168.399 L213.678,168.399 L213.678,171.452 L221.633,171.452 L221.633,168.399 Z M220.386,148.662 L211.528,148.662 L211.528,146.985 C210.023,148.103 208.518,149.178 206.927,150.081 L225.073,150.081 L225.073,163.583 L210.152,163.583 C210.066,164.013 210.023,164.486 209.937,164.916 L226.105,164.916 L226.105,176.397 L221.633,176.397 L221.633,175.236 L213.678,175.236 L213.678,176.569 L209.421,176.569 L209.421,167.668 C208.819,170.377 207.916,173 206.669,175.193 C205.68,174.548 203.444,173.602 202.197,173.215 C205.594,167.754 205.938,160.057 205.938,155.026 L205.938,150.683 L204.949,151.199 C204.476,149.995 203.143,147.415 202.283,146.297 C207.271,144.19 212.302,140.664 215.054,136.536 L219.741,138.385 C219.483,138.772 219.225,139.116 218.967,139.46 C222.149,141.309 225.718,143.416 227.696,144.835 L225.073,149.135 C223.912,148.189 222.235,147.071 220.386,145.867 L220.386,148.662 Z M233.329,141.008 L233.329,165.002 L228.513,165.002 L228.513,141.008 L233.329,141.008 Z M236.296,136.708 L241.198,136.708 L241.198,170.592 C241.198,173.344 240.682,174.72 239.091,175.537 C237.586,176.397 235.135,176.569 231.695,176.569 C231.48,175.15 230.878,172.871 230.19,171.452 C232.383,171.495 234.619,171.495 235.307,171.495 C235.995,171.495 236.296,171.28 236.296,170.549 L236.296,136.708 Z M250.753,163.54 L254.666,164.658 C253.591,167.754 251.828,171.28 250.323,173.473 C249.549,172.828 247.915,171.71 246.969,171.151 C248.431,169.13 249.85,166.206 250.753,163.54 Z M260.858,145.007 L254.494,145.007 C255.139,146.426 255.698,148.275 255.913,149.479 L252.817,150.339 L259.009,150.339 C259.654,148.791 260.428,146.598 260.858,145.007 Z M267.351,162.164 L260.686,162.164 L260.686,176.44 L255.741,176.44 L255.741,162.164 L247.743,162.164 L247.743,157.864 L255.741,157.864 L255.741,154.553 L247.485,154.553 L247.485,150.339 L251.656,150.339 C251.441,149.049 250.925,147.2 250.409,145.867 L253.935,145.007 L248.13,145.007 L248.13,140.836 L255.483,140.836 C255.096,139.675 254.623,138.471 254.193,137.439 L259.31,136.192 C259.955,137.611 260.729,139.374 261.245,140.836 L267.394,140.836 L267.394,145.007 L262.019,145.007 L265.502,145.695 C264.857,147.329 264.212,149.006 263.567,150.339 L268.039,150.339 L268.039,154.553 L260.686,154.553 L260.686,157.864 L267.351,157.864 L267.351,162.164 Z M287.217,150.726 L287.217,155.456 L283.218,155.456 L283.218,176.569 L278.23,176.569 L278.23,155.456 L274.231,155.456 L274.231,155.972 C274.231,162.293 273.672,171.151 270.017,176.655 C269.157,175.752 267.136,174.118 266.061,173.602 C266.878,172.355 267.523,170.936 267.996,169.431 L264.943,171.323 C264.255,169.603 262.793,166.851 261.589,164.873 L264.943,163.067 C266.104,164.787 267.437,167.066 268.168,168.7 C269.372,164.572 269.501,159.928 269.501,155.972 L269.501,140.664 C274.188,139.804 279.391,138.471 282.53,137.009 L286.443,140.75 C282.917,142.169 278.445,143.201 274.231,143.975 L274.231,150.726 L287.217,150.726 Z M301.33,136.665 L306.06,138.213 C304.899,141.18 303.48,144.233 301.803,147.114 L301.803,176.612 L296.944,176.612 L296.944,154.51 C295.955,155.757 294.923,156.918 293.934,157.993 C293.461,156.746 292.042,153.994 291.182,152.747 C295.181,148.877 299.094,142.771 301.33,136.665 Z M308.984,162.981 L313.585,164.357 C311.822,168.055 309.199,172.226 307.006,174.849 C306.103,174.075 304.211,172.699 303.05,172.097 C305.2,169.732 307.522,166.163 308.984,162.981 Z M311.779,142.943 L311.779,148.705 L324.378,148.705 L324.378,142.943 L311.779,142.943 Z M331.645,161.648 L320.508,161.648 L320.508,176.741 L315.348,176.741 L315.348,161.648 L304.125,161.648 L304.125,157.004 L315.348,157.004 L315.348,153.22 L306.92,153.22 L306.92,138.428 L329.495,138.428 L329.495,153.22 L320.508,153.22 L320.508,157.004 L331.645,157.004 L331.645,161.648 Z M321.97,165.045 L325.754,162.938 C328.205,165.776 330.828,169.474 332.075,172.011 L328.033,174.462 C326.872,171.925 324.249,167.969 321.97,165.045 Z M347.005,158.208 L366.097,158.208 C364.85,157.09 363.689,155.886 362.657,154.596 L362.657,156.789 L350.187,156.789 L350.187,154.854 C349.241,156.015 348.123,157.133 347.005,158.208 Z M368.118,168.657 L358.228,168.657 C360.249,169.173 362.528,169.818 364.85,170.506 C365.925,169.947 367.043,169.302 368.118,168.657 Z M355.519,170.119 L355.519,170.807 L357.067,168.657 L349.026,168.657 L349.026,171.28 L355.519,170.119 Z M349.026,164.572 L349.026,165.948 L363.044,165.948 L363.044,164.572 L349.026,164.572 Z M349.026,160.917 L349.026,162.25 L363.044,162.25 L363.044,160.917 L349.026,160.917 Z M361.539,153.048 L351.477,153.048 L350.574,154.338 L362.442,154.338 C362.141,153.908 361.797,153.478 361.539,153.048 Z M375.428,153.048 L367,153.048 C369.58,155.585 373.106,157.606 376.847,158.767 C375.729,159.713 374.31,161.519 373.579,162.766 C371.687,162.035 369.924,161.046 368.247,159.885 L368.247,168.571 C369.408,167.883 370.44,167.238 371.3,166.593 L374.611,169.173 C372.934,170.076 371.042,171.022 369.279,171.796 C371.3,172.441 373.106,173.043 374.525,173.559 L372.375,176.999 C368.591,175.537 361.109,173.043 355.562,171.538 C355.648,172.398 355.734,173.258 355.82,173.86 C346.145,175.881 344.64,176.311 343.651,176.913 C343.307,175.795 342.318,173.688 341.544,172.828 C342.447,172.312 343.436,171.323 343.436,169.345 L343.436,161.003 C342.103,161.906 340.77,162.723 339.394,163.368 C338.663,162.422 336.986,160.53 335.868,159.67 C339.609,158.208 343.178,155.843 345.629,153.048 L337.459,153.048 L337.459,149.651 L353.713,149.651 L353.713,148.189 L341.716,148.189 L341.716,145.136 L353.713,145.136 L353.713,143.717 L339.695,143.717 L339.695,140.406 L346.575,140.406 C346.102,139.589 345.586,138.729 345.113,138.041 L349.714,136.622 C350.617,137.783 351.563,139.288 352.165,140.406 L361.023,140.406 C361.711,139.159 362.485,137.654 362.872,136.536 L368.548,137.654 C367.817,138.643 367.129,139.589 366.441,140.406 L373.149,140.406 L373.149,143.717 L359.002,143.717 L359.002,145.136 L371.128,145.136 L371.128,148.189 L359.002,148.189 L359.002,149.651 L375.428,149.651 L375.428,153.048 Z" id="特調混搭創新保養" fill="#98E0F6"></path>
                <g>
                    <polygon id="Path" stroke="#98E0F6" stroke-width="1.72471483" fill="#FFFFFF" points="33.560076 41.07 57.3898859 1.80194805 66.2577947 1.80194805 66.2577947 67.3928571 53.6530038 67.3928571 53.6530038 30.8493506 37.9580989 56.6244156 29.1764259 56.6244156 13.4815209 30.8493506 13.4815209 67.3928571 0.862357414 67.3928571 0.862357414 1.80194805 9.74463878 1.80194805"></polygon>
                    <polygon id="Path" stroke="#98E0F6" stroke-width="1.72471483" fill="#FFFFFF" points="90.5475285 1.80194805 103.152319 1.80194805 103.152319 67.3928571 90.5475285 67.3928571"></polygon>
                    <polygon id="Path" stroke="#98E0F6" stroke-width="1.72471483" fill="#FFFFFF" points="159.392395 32.4494805 182.101141 67.3928571 167.613536 67.3928571 151.731787 42.4683117 135.921901 67.3928571 121.376806 67.3928571 143.984943 32.4494805 124.179468 1.80194805 138.6527 1.80194805 151.731787 22.5171429 164.810875 1.80194805 179.298479 1.80194805"></polygon>
                    <polygon id="Path" stroke="#98E0F6" stroke-width="1.72471483" fill="#FFFFFF" points="200.311255 1.80194805 212.930418 1.80194805 212.930418 67.3928571 200.311255 67.3928571"></polygon>
                    <polygon id="Path" stroke="#98E0F6" stroke-width="1.72471483" fill="#FFFFFF" points="237.220152 1.80194805 246.088061 1.80194805 282.522662 44.5297403 282.522662 1.80194805 295.141825 1.80194805 295.141825 67.3928571 286.259544 67.3928571 249.824943 24.6650649 249.824943 67.3928571 237.220152 67.3928571"></polygon>
                    <path d="M327.365247,34.5974026 C327.251537,40.5808465 329.565311,46.3540898 333.776265,50.5939377 C337.987219,54.8337857 343.734298,57.1767059 349.700304,57.0857143 C354.995665,57.1414428 360.146355,55.3531826 364.274144,52.0258442 L364.274144,37.8841558 L347.458175,37.8841558 L347.458175,26.64 L376.893308,26.64 L376.893308,55.7738961 C371.144259,63.1835065 361.370875,68.3298701 349.412852,68.3298701 C329.046844,68.3298701 314.760456,53.4385714 314.760456,34.5974026 C314.760456,15.7562338 328.86,0.864935065 349.254753,0.864935065 C358.141277,0.733693726 366.725892,4.09708252 373.170798,10.2350649 L365.050266,18.8844156 C360.862755,14.5839257 355.13295,12.1439455 349.139772,12.1090909 C336.707452,12.1090909 327.365247,22.1279221 327.365247,34.5974026 Z" id="Path" stroke="#98E0F6" stroke-width="1.72471483" fill="#FFFFFF"></path>
                    <polygon id="Path" fill="#FF27C8" points="128.836198 24.0307792 133.291711 24.0307792 133.291711 47.2398701 128.836198 47.2398701"></polygon>
                    <path d="M144.473612,41.0411688 C145.861705,42.6075683 147.832303,43.5306251 149.920837,43.5927273 C150.753842,43.685249 151.587884,43.4278861 152.224983,42.881729 C152.862082,42.3355719 153.24543,41.5493214 153.28403,40.7096104 C153.28403,37.7111688 148.972243,37.3507792 145.882129,35.5344156 C143.884606,34.5464802 142.619724,32.5065591 142.619544,30.2727273 C142.619544,26.1354545 146.413916,23.7424675 150.251407,23.7424675 C152.673063,23.6950857 155.039194,24.472602 156.963422,25.9480519 L154.64943,29.2636364 C153.535564,28.2937402 152.114433,27.7521981 150.639468,27.7355844 C148.957871,27.7355844 147.075057,28.4707792 147.075057,30.2583117 C147.075057,34.0063636 157.753916,32.8387013 157.753916,40.6663636 C157.753916,44.7748052 154.088897,47.6290909 149.920837,47.6290909 C146.792848,47.5699153 143.8036,46.3232484 141.55597,44.1405195 L144.473612,41.0411688 Z" id="Path" fill="#FF27C8"></path>
                    <polygon id="Path" fill="#FF27C8" points="195.266464 24.0307792 195.266464 28.0094805 189.158099 28.0094805 189.158099 47.2398701 184.702586 47.2398701 184.702586 28.0094805 178.579848 28.0094805 178.579848 24.0307792"></polygon>
                    <polygon id="Path" fill="#FF27C8" points="220.05924 36.7885714 208.489278 36.7885714 208.489278 47.2398701 204.091255 47.2398701 204.091255 24.0307792 208.546768 24.0307792 208.546768 32.8242857 220.11673 32.8242857 220.11673 24.0307792 224.586616 24.0307792 224.586616 47.2398701 220.11673 47.2398701"></polygon>
                    <polygon id="Path" fill="#FF27C8" points="239.56289 28.0094805 239.56289 32.8242857 246.677338 32.8242857 246.677338 36.7885714 239.56289 36.7885714 239.56289 43.2467532 249.321901 43.2467532 249.321901 47.2254545 235.107376 47.2254545 235.107376 24.0307792 248.991331 24.0307792 248.991331 28.0094805"></polygon>
                    <polygon id="Path" fill="#FF27C8" points="38.8060837 85.9601299 41.9680608 85.9601299 54.9034221 101.082078 54.9034221 85.9601299 59.373308 85.9601299 59.373308 109.169221 56.1825856 109.169221 43.2472243 94.0472727 43.2472243 109.169221 38.8060837 109.169221"></polygon>
                    <polygon id="Path" fill="#FF27C8" points="74.3639544 89.9388312 74.3639544 94.7392208 81.478403 94.7392208 81.478403 98.7179221 74.3639544 98.7179221 74.3639544 105.233766 84.1229658 105.233766 84.1229658 109.212468 69.9084411 109.212468 69.9084411 85.9601299 83.7923954 85.9601299 83.7923954 89.9388312"></polygon>
                    <polygon id="Path" fill="#FF27C8" points="91.3955133 85.9601299 95.8941445 85.9601299 100.680228 100.447792 105.768137 85.9601299 108.915741 85.9601299 114.00365 100.447792 118.789734 85.9601299 123.288365 85.9601299 115.613384 109.169221 112.480152 109.169221 107.32038 94.4797403 102.203726 109.169221 99.0561217 109.169221"></polygon>
                    <polygon id="Path" fill="#FF27C8" points="145.163498 85.9601299 149.633384 85.9601299 149.633384 105.233766 159.378023 105.233766 159.378023 109.212468 145.163498 109.212468"></polygon>
                    <path d="M166.92365,109.169221 L176.84076,85.9601299 L179.988365,85.9601299 L189.891103,109.169221 L185.234373,109.169221 L183.049734,104.022857 L173.765019,104.022857 L171.594753,109.169221 L166.92365,109.169221 Z M175.460989,100.044156 L181.339392,100.044156 L178.464867,93.1823377 L175.460989,100.044156 Z" id="Shape" fill="#FF27C8"></path>
                    <polygon id="Path" fill="#FF27C8" points="205.26981 98.6602597 205.26981 109.169221 200.814297 109.169221 200.814297 98.6602597 192.880608 85.9601299 197.968517 85.9601299 203.056426 94.1193506 208.115589 85.9601299 213.203498 85.9601299"></polygon>
                    <polygon id="Path" fill="#FF27C8" points="225.765171 89.9388312 225.765171 94.7392208 232.836502 94.7392208 232.836502 98.7179221 225.722053 98.7179221 225.722053 105.233766 235.481065 105.233766 235.481065 109.212468 221.338403 109.212468 221.338403 85.9601299 235.222357 85.9601299 235.222357 89.9388312"></polygon>
                    <path d="M249.235665,98.8909091 L249.235665,109.169221 L244.780152,109.169221 L244.780152,85.9601299 L253.20251,85.9601299 C255.050864,85.8412049 256.870641,86.4634377 258.261673,87.69 C259.563941,88.9186756 260.302405,90.6322825 260.302405,92.4255195 C260.302405,94.2187564 259.563941,95.9323633 258.261673,97.161039 C257.607522,97.7892274 256.814658,98.2535256 255.947681,98.5161039 L264.571255,109.169221 L259.052167,109.169221 L250.831027,98.8909091 L249.235665,98.8909091 Z M252.958175,94.9122078 C253.773507,95.0278518 254.597334,94.7683121 255.200304,94.2058442 C255.629919,93.7274987 255.865733,93.1053517 255.861445,92.4615584 C255.870395,91.7996459 255.634903,91.1578091 255.200304,90.6596104 C254.596707,90.0973558 253.775181,89.8332593 252.958175,89.9388312 L249.250038,89.9388312 L249.250038,94.9122078 L252.958175,94.9122078 Z" id="Shape" fill="#FF27C8"></path>
                    <polygon id="Path" fill="#FF27C8" points="272.21749 85.9601299 276.673004 85.9601299 276.673004 109.169221 272.21749 109.169221"></polygon>
                    <polygon id="Path" fill="#FF27C8" points="287.251255 85.9601299 290.398859 85.9601299 303.334221 101.082078 303.334221 85.9601299 307.789734 85.9601299 307.789734 109.169221 304.642129 109.169221 291.706768 94.0472727 291.706768 109.169221 287.236882 109.169221"></polygon>
                    <path d="M321.141901,97.5646753 C321.098762,99.6805467 321.914803,101.723152 323.402732,103.223684 C324.890662,104.724215 326.922702,105.553815 329.032471,105.522078 C330.899904,105.560028 332.722924,104.948841 334.192243,103.792208 L334.192243,98.7179221 L328.241977,98.7179221 L328.241977,94.7392208 L338.647757,94.7392208 L338.647757,105.046364 C336.281921,107.980118 332.692859,109.646884 328.931863,109.558442 C324.680212,109.558442 320.751525,107.283433 318.6257,103.59039 C316.499874,99.8973463 316.499874,95.3473291 318.6257,91.6542856 C320.751525,87.9612422 324.680212,85.6862336 328.931863,85.6862338 C332.072978,85.6394299 335.107164,86.8298189 337.382966,89.0018182 L334.508441,92.0435065 C333.029573,90.5347618 331.01253,89.6788468 328.903118,89.6649351 C326.820994,89.6528292 324.822321,90.4850092 323.360878,91.9725365 C321.899434,93.4600638 321.099215,95.4767318 321.141901,97.5646753 Z" id="Path" fill="#FF27C8"></path>
                </g>
            </g>
        </g>
    </g>
</svg>