<?xml version="1.0" encoding="UTF-8"?>
<svg width="287px" height="67px" viewBox="0 0 287 67" version="1.1" xmlns="http://www.w3.org/2000/svg" xmlns:xlink="http://www.w3.org/1999/xlink">
    <title>ph-pic01</title>
    <defs>
        <polygon id="path-1" points="0.0183785617 0.790482955 284.636052 0.790482955 284.636052 13.0459517 0.0183785617 13.0459517"></polygon>
    </defs>
    <g id="Drunk-Elephant_phone" stroke="none" stroke-width="1" fill="none" fill-rule="evenodd">
        <g id="Phone_獨特之處_btn" transform="translate(-64.000000, -781.000000)">
            <g id="Group-23" transform="translate(29.000000, 725.000000)">
                <g id="ph-pic01" transform="translate(35.142857, 56.000000)">
                    <polygon id="Fill-1" fill="#E4E420" points="0 66.0924209 284.654003 66.0924209 284.654003 11.502222 0 11.502222"></polygon>
                    <g id="Group-9" transform="translate(0.000000, 0.041284)">
                        <g id="Group-4">
                            <mask id="mask-2" fill="white">
                                <use xlink:href="#path-1"></use>
                            </mask>
                            <g id="Clip-3"></g>
                            <path d="M244.865699,2.6397017 C244.865699,2.6397017 196.102673,5.56725852 157.88595,2.6397017 C119.66709,-0.289985795 86.0599661,0.685866477 35.9805224,2.6397017 C30.4925984,2.85490057 17.9673948,3.02109375 0.0183785617,3.14893466 L0.0183785617,13.0459517 L284.636052,13.0459517 L284.636052,2.6397017 L244.865699,2.6397017 Z" id="Fill-2" fill="#F7F7CC" mask="url(#mask-2)"></path>
                        </g>
                        <path d="M164.530441,51.6973722 C164.530441,54.8955256 161.957442,57.4864347 158.781798,57.4864347 C155.606153,57.4864347 153.033155,54.8955256 153.033155,51.6973722 C153.033155,47.3763494 159.042517,41.124929 159.042517,41.124929 C159.042517,41.124929 164.530441,47.265554 164.530441,51.6973722 M79.3842741,47.5425426 C79.3842741,50.740696 76.8091384,53.3337358 73.6356309,53.3337358 C70.4599864,53.3337358 67.8869878,50.740696 67.8869878,47.5425426 C67.8869878,43.2193892 73.8963501,36.9700994 73.8963501,36.9700994 C73.8963501,36.9700994 79.3842741,43.1128551 79.3842741,47.5425426 M121.900726,31.4473722 C121.900726,34.6455256 119.327727,37.2364347 116.15422,37.2364347 C112.978575,37.2364347 110.40344,34.6455256 110.40344,31.4473722 C110.40344,27.1242188 116.414939,20.8706676 116.414939,20.8706676 C116.414939,20.8706676 121.900726,27.015554 121.900726,31.4473722 M26.0052374,38.7726563 C26.0052374,41.9708097 23.4301018,44.5595881 20.2565943,44.5595881 C17.0809498,44.5595881 14.5079512,41.9708097 14.5079512,38.7726563 C14.5079512,34.4495028 20.5173134,28.2002131 20.5173134,28.2002131 C20.5173134,28.2002131 26.0052374,34.3408381 26.0052374,38.7726563" id="Stroke-5" stroke="#FF7679" stroke-width="1.7518704"></path>
                        <path d="M261.565614,45.7442472 C261.565614,48.9445313 258.992615,51.5354403 255.819108,51.5354403 C252.641326,51.5354403 250.068328,48.9445313 250.068328,45.7442472 C250.068328,41.4253551 256.07769,35.171804 256.07769,35.171804 C256.07769,35.171804 261.565614,41.3145597 261.565614,45.7442472 M208.186577,36.9743608 C208.186577,40.1746449 205.613579,42.765554 202.437934,42.765554 C199.26229,42.765554 196.689291,40.1746449 196.689291,36.9743608 C196.689291,32.6512074 202.698653,26.4019176 202.698653,26.4019176 C202.698653,26.4019176 208.186577,32.5446733 208.186577,36.9743608" id="Stroke-7" stroke="#FF7679" stroke-width="1.7518704"></path>
                    </g>
                </g>
            </g>
        </g>
    </g>
</svg>