<?xml version="1.0" encoding="UTF-8"?>
<svg width="380px" height="89px" viewBox="0 0 380 89" version="1.1" xmlns="http://www.w3.org/2000/svg" xmlns:xlink="http://www.w3.org/1999/xlink">
    <title>ph-text</title>
    <g id="Drunk-Elephant_phone" stroke="none" stroke-width="1" fill="none" fill-rule="evenodd">
        <g id="Phone_獨特之處_btn" transform="translate(-19.000000, -604.000000)">
            <g id="ph-text" transform="translate(19.000000, 604.000000)">
                <g id="Group-16" transform="translate(1.000000, 21.000000)">
                    <polygon id="Fill-1" fill="#F7F81A" points="0 28.865466 21.6204632 28.865466 21.6204632 0 0 0"></polygon>
                    <polygon id="Fill-2" fill="#F4F340" points="25.4989022 28.865466 47.1179336 28.865466 47.1179336 0 25.4989022 0"></polygon>
                    <polygon id="Fill-3" fill="#F6F471" points="50.9978044 28.865466 72.6168358 28.865466 72.6168358 0 50.9978044 0"></polygon>
                    <polygon id="Fill-4" fill="#F0EF99" points="76.1819054 28.865466 97.8009367 28.865466 97.8009367 0 76.1819054 0"></polygon>
                    <polygon id="Fill-5" fill="#F4F3B5" points="101.680808 28.865466 123.301271 28.865466 123.301271 0 101.680808 0"></polygon>
                    <polygon id="Fill-6" fill="#F8F7D0" points="127.175573 28.865466 148.796037 28.865466 148.796037 0 127.175573 0"></polygon>
                    <polygon id="Fill-7" fill="#FBFBE8" points="152.610402 28.865466 174.230865 28.865466 174.230865 0 152.610402 0"></polygon>
                    <polygon id="Fill-8" fill="#FEFEFE" points="178.177514 28.865466 199.799409 28.865466 199.799409 0 178.177514 0"></polygon>
                    <polygon id="Fill-9" fill="#FFEAE8" points="203.361615 28.865466 224.980646 28.865466 224.980646 0 203.361615 0"></polygon>
                    <polygon id="Fill-10" fill="#FFD5CF" points="228.860517 28.865466 250.480981 28.865466 250.480981 0 228.860517 0"></polygon>
                    <polygon id="Fill-11" fill="#FFC1B7" points="254.384858 28.865466 276.005321 28.865466 276.005321 0 254.384858 0"></polygon>
                    <polygon id="Fill-12" fill="#FFAE9F" points="279.858322 28.865466 301.478785 28.865466 301.478785 0 279.858322 0"></polygon>
                    <polygon id="Fill-13" fill="#FF9D87" points="305.357224 28.865466 326.976255 28.865466 326.976255 0 305.357224 0"></polygon>
                    <polygon id="Fill-14" fill="#FF8E72" points="330.541325 28.865466 352.161788 28.865466 352.161788 0 330.541325 0"></polygon>
                    <polygon id="Fill-15" fill="#FF8768" points="356.040227 28.865466 377.659258 28.865466 377.659258 0 356.040227 0"></polygon>
                    <text id="0" font-family="Helvetica" font-size="9.53943218" font-weight="normal" fill="#FF8768">
                        <tspan x="8.07917242" y="17.299306">0</tspan>
                    </text>
                    <text id="4" font-family="Helvetica" font-size="9.53943218" font-weight="normal" fill="#FF8768">
                        <tspan x="109.674125" y="17.299306">4</tspan>
                    </text>
                    <text id="8" font-family="Helvetica" font-size="9.53943218" font-weight="normal" fill="#FF8768">
                        <tspan x="211.546448" y="16.9558864">8</tspan>
                    </text>
                    <text id="2" font-family="Helvetica" font-size="9.53943218" font-weight="normal" fill="#FF8768">
                        <tspan x="59.0197402" y="17.299306">2</tspan>
                    </text>
                    <text id="6" font-family="Helvetica" font-size="9.53943218" font-weight="normal" fill="#FF8768">
                        <tspan x="160.834826" y="17.299306">6</tspan>
                    </text>
                    <text id="10" font-family="NotoSansCJKtc-Medium, Noto Sans CJK TC" font-size="9.53943218" font-weight="400" fill="#FEFEFE">
                        <tspan x="259.679243" y="18.9495268">10</tspan>
                    </text>
                    <text id="13" font-family="NotoSansCJKtc-Medium, Noto Sans CJK TC" font-size="9.53943218" font-weight="400" fill="#FEFEFE">
                        <tspan x="335.807091" y="18.9558864">13</tspan>
                    </text>
                    <text id="1" font-family="Helvetica" font-size="9.53943218" font-weight="normal" fill="#FF8768">
                        <tspan x="34.2021451" y="17.299306">1</tspan>
                    </text>
                    <text id="5" font-family="Helvetica" font-size="9.53943218" font-weight="normal" fill="#FF8768">
                        <tspan x="135.430592" y="17.299306">5</tspan>
                    </text>
                    <text id="9" font-family="Helvetica" font-size="9.53943218" font-weight="normal" fill="#FEFEFE">
                        <tspan x="237.04535" y="16.9558864">9</tspan>
                    </text>
                    <text id="12" font-family="NotoSansCJKtc-Medium, Noto Sans CJK TC" font-size="9.53943218" font-weight="400" fill="#FEFEFE">
                        <tspan x="310.622991" y="18.9558864">12</tspan>
                    </text>
                    <text id="3" font-family="Helvetica" font-size="9.53943218" font-weight="normal" fill="#FF8768">
                        <tspan x="84.2038412" y="17.299306">3</tspan>
                    </text>
                    <text id="7" font-family="Helvetica" font-size="9.53943218" font-weight="normal" fill="#FF8768">
                        <tspan x="186.591293" y="17.299306">7</tspan>
                    </text>
                    <text id="11" font-family="NotoSansCJKtc-Medium, Noto Sans CJK TC" font-size="9.53943218" font-weight="400" fill="#FEFEFE">
                        <tspan x="285.124088" y="18.9558864">11</tspan>
                    </text>
                    <text id="14" font-family="NotoSansCJKtc-Medium, Noto Sans CJK TC" font-size="9.53943218" font-weight="400" fill="#FEFEFE">
                        <tspan x="361.620795" y="18.9558864">14</tspan>
                    </text>
                </g>
                <text id="全系列產品均為親膚的酸性pH值" font-family="NotoSansCJKtc-Medium, Noto Sans CJK TC" font-size="14" font-weight="400" letter-spacing="1" fill="#FF7679">
                    <tspan x="5.91" y="85">全系列產品均為親膚的酸性pH值</tspan>
                </text>
                <text id="酸性" font-family="NotoSansCJKtc-Regular, Noto Sans CJK TC" font-size="12" font-weight="normal" fill="#FF7679">
                    <tspan x="0" y="14">酸性</tspan>
                </text>
                <text id="中性" font-family="NotoSansCJKtc-Regular, Noto Sans CJK TC" font-size="12" font-weight="normal" fill="#FF7679">
                    <tspan x="178" y="14">中性</tspan>
                </text>
                <text id="鹼性" font-family="NotoSansCJKtc-Regular, Noto Sans CJK TC" font-size="12" font-weight="normal" fill="#FF7679">
                    <tspan x="356" y="14">鹼性</tspan>
                </text>
                <path d="M62.3140244,53.1282051 L164.685976,53.1282051 M62.1570122,63 L62.1570122,53 M164.842988,63 L164.842988,53" id="Combined-Shape" stroke="#FF7679" stroke-width="0.858548896" stroke-linecap="square" transform="translate(113.500000, 58.000000) scale(1, -1) translate(-113.500000, -58.000000) "></path>
            </g>
        </g>
    </g>
</svg>