<?xml version="1.0" encoding="UTF-8"?>
<svg width="380px" height="89px" viewBox="0 0 380 89" version="1.1" xmlns="http://www.w3.org/2000/svg" xmlns:xlink="http://www.w3.org/1999/xlink">
    <title>ph</title>
    <g id="Drunk-Elephant_phone" stroke="none" stroke-width="1" fill="none" fill-rule="evenodd">
        <g id="Phone_獨特之處_btn_轉外框" transform="translate(-19.000000, -587.000000)">
            <g id="ph" transform="translate(19.000000, 587.000000)">
                <g id="Group-16" transform="translate(1.000000, 21.000000)">
                    <polygon id="Fill-1" fill="#F7F81A" points="0 28.865466 21.6204632 28.865466 21.6204632 0 0 0"></polygon>
                    <polygon id="Fill-2" fill="#F4F340" points="25.4989022 28.865466 47.1179336 28.865466 47.1179336 0 25.4989022 0"></polygon>
                    <polygon id="Fill-3" fill="#F6F471" points="50.9978044 28.865466 72.6168358 28.865466 72.6168358 0 50.9978044 0"></polygon>
                    <polygon id="Fill-4" fill="#F0EF99" points="76.1819054 28.865466 97.8009367 28.865466 97.8009367 0 76.1819054 0"></polygon>
                    <polygon id="Fill-5" fill="#F4F3B5" points="101.680808 28.865466 123.301271 28.865466 123.301271 0 101.680808 0"></polygon>
                    <polygon id="Fill-6" fill="#F8F7D0" points="127.175573 28.865466 148.796037 28.865466 148.796037 0 127.175573 0"></polygon>
                    <polygon id="Fill-7" fill="#FBFBE8" points="152.610402 28.865466 174.230865 28.865466 174.230865 0 152.610402 0"></polygon>
                    <polygon id="Fill-8" fill="#FEFEFE" points="178.177514 28.865466 199.799409 28.865466 199.799409 0 178.177514 0"></polygon>
                    <polygon id="Fill-9" fill="#FFEAE8" points="203.361615 28.865466 224.980646 28.865466 224.980646 0 203.361615 0"></polygon>
                    <polygon id="Fill-10" fill="#FFD5CF" points="228.860517 28.865466 250.480981 28.865466 250.480981 0 228.860517 0"></polygon>
                    <polygon id="Fill-11" fill="#FFC1B7" points="254.384858 28.865466 276.005321 28.865466 276.005321 0 254.384858 0"></polygon>
                    <polygon id="Fill-12" fill="#FFAE9F" points="279.858322 28.865466 301.478785 28.865466 301.478785 0 279.858322 0"></polygon>
                    <polygon id="Fill-13" fill="#FF9D87" points="305.357224 28.865466 326.976255 28.865466 326.976255 0 305.357224 0"></polygon>
                    <polygon id="Fill-14" fill="#FF8E72" points="330.541325 28.865466 352.161788 28.865466 352.161788 0 330.541325 0"></polygon>
                    <polygon id="Fill-15" fill="#FF8768" points="356.040227 28.865466 377.659258 28.865466 377.659258 0 356.040227 0"></polygon>
                    <path d="M8.16575394,14.8746498 C8.16575394,12.597894 9.02429425,11.4595331 10.7414006,11.4595331 C11.650831,11.4595331 12.3058655,11.7647919 12.7065237,12.3753186 C13.1071818,12.9858453 13.3075079,13.8189474 13.3075079,14.8746498 C13.3075079,15.9367119 13.1071818,16.7729938 12.7065237,17.3835205 C12.3058655,17.9940472 11.650831,18.299306 10.7414006,18.299306 C9.02429425,18.299306 8.16575394,17.1577654 8.16575394,14.8746498 Z M11.9815268,14.8746498 C11.9815268,14.1878073 11.8972627,13.6583741 11.7287319,13.2863344 C11.5602011,12.9142947 11.2310939,12.7282776 10.7414006,12.7282776 C10.2453477,12.7282776 9.91306078,12.9142947 9.74452997,13.2863344 C9.57599916,13.6583741 9.49173502,14.1878073 9.49173502,14.8746498 C9.49173502,15.567852 9.57599916,16.100465 9.74452997,16.4725047 C9.91306078,16.8445444 10.2453477,17.0305615 10.7414006,17.0305615 C11.2310939,17.0305615 11.5602011,16.8445444 11.7287319,16.4725047 C11.8972627,16.100465 11.9815268,15.567852 11.9815268,14.8746498 Z" id="0" fill="#FF8768" fill-rule="nonzero"></path>
                    <path d="M109.588997,16.9447066 L109.588997,15.8285931 L112.813325,11.4881514 L114.253779,11.4881514 L114.253779,15.7808959 L115.131407,15.7808959 L115.131407,16.9447066 L114.253779,16.9447066 L114.253779,18.299306 L112.89918,18.299306 L112.89918,16.9447066 L109.588997,16.9447066 Z M113.004114,13.0621577 L110.962675,15.7808959 L113.004114,15.7808959 L113.004114,13.0621577 Z" id="4" fill="#FF8768" fill-rule="nonzero"></path>
                    <path d="M212.195129,12.7568959 C212.195129,12.4325536 212.285753,12.1304746 212.467003,11.8506498 C212.648253,11.5708251 212.918534,11.3450608 213.277855,11.1733502 C213.637175,11.0016395 214.071215,10.9157855 214.579987,10.9157855 C215.08876,10.9157855 215.522799,11.0016395 215.88212,11.1733502 C216.24144,11.3450608 216.511721,11.5708251 216.692972,11.8506498 C216.874222,12.1304746 216.964845,12.4325536 216.964845,12.7568959 C216.964845,13.1257558 216.875812,13.438964 216.697741,13.69653 C216.519671,13.9540959 216.25257,14.1464726 215.896429,14.2736656 C216.297087,14.4262973 216.603936,14.6472919 216.816984,14.9366562 C217.030033,15.2260204 217.136555,15.5773859 217.136555,15.9907634 C217.136555,16.4359391 217.025263,16.8191025 216.802675,17.140265 C216.580087,17.4614275 216.276418,17.7046806 215.891659,17.8700315 C215.5069,18.0353825 215.069681,18.1180568 214.579987,18.1180568 C214.090294,18.1180568 213.653074,18.0353825 213.268315,17.8700315 C212.883556,17.7046806 212.581477,17.4614275 212.362069,17.140265 C212.142661,16.8191025 212.032959,16.4359391 212.032959,15.9907634 C212.032959,15.5773859 212.139482,15.2260204 212.35253,14.9366562 C212.565578,14.6472919 212.872427,14.4262973 213.273085,14.2736656 C212.916945,14.1464726 212.648253,13.952506 212.467003,13.6917603 C212.285753,13.4310145 212.195129,13.1193961 212.195129,12.7568959 Z M213.52111,12.9763028 C213.52111,13.2815662 213.616504,13.5168698 213.807293,13.6822208 C213.998083,13.8475718 214.255645,13.9302461 214.579987,13.9302461 C214.910689,13.9302461 215.171431,13.8475718 215.362221,13.6822208 C215.55301,13.5168698 215.648404,13.2815662 215.648404,12.9763028 C215.648404,12.6710395 215.551421,12.434146 215.357451,12.2656151 C215.163482,12.0970843 214.90433,12.0128202 214.579987,12.0128202 C214.262005,12.0128202 214.006033,12.0970843 213.812063,12.2656151 C213.618094,12.434146 213.52111,12.6710395 213.52111,12.9763028 Z M213.339861,15.9144479 C213.339861,16.2515096 213.451153,16.518611 213.673741,16.7157603 C213.896329,16.9129095 214.198408,17.0114826 214.579987,17.0114826 C214.961567,17.0114826 215.265235,16.9129095 215.491003,16.7157603 C215.716771,16.518611 215.829653,16.2515096 215.829653,15.9144479 C215.829653,15.5710267 215.713591,15.3086949 215.481464,15.1274448 C215.249336,14.9461947 214.948847,14.855571 214.579987,14.855571 C214.217487,14.855571 213.920178,14.9461947 213.68805,15.1274448 C213.455923,15.3086949 213.339861,15.5710267 213.339861,15.9144479 Z" id="8" fill="#FF8768" fill-rule="nonzero"></path>
                    <path d="M59.3257287,17.240429 C61.4816512,15.7459105 62.5595962,14.5057967 62.5595962,13.5200505 C62.5595962,13.2211468 62.4880512,12.9858431 62.344959,12.8141325 C62.2018668,12.6424219 61.9776924,12.5565678 61.672429,12.5565678 C61.0428234,12.5565678 60.7089466,12.985838 60.6707886,13.8443912 L59.3638864,13.8443912 C59.4020444,13.0494345 59.6437076,12.4468664 60.0888833,12.0366688 C60.534059,11.6264711 61.0968799,11.4213754 61.7773628,11.4213754 C62.470565,11.4213754 63.003178,11.6010329 63.3752177,11.9603533 C63.7472574,12.3196737 63.9332744,12.7982304 63.9332744,13.3960379 C63.9332744,13.8666522 63.7949541,14.3388494 63.5183091,14.8126435 C63.2416642,15.2864377 62.8902987,15.7220674 62.4642019,16.1195457 C62.0381051,16.5170241 61.5897563,16.8588503 61.119142,17.1450347 L64.0668265,17.1450347 L64.0668265,18.2420694 L59.3257287,18.2420694 L59.3257287,17.240429 Z" id="2" fill="#FF8768" fill-rule="nonzero"></path>
                    <path d="M164.850927,13.3960379 C164.749173,12.7346339 164.412116,12.4039369 163.839748,12.4039369 C163.394572,12.4039369 163.070234,12.5994933 162.866726,12.990612 C162.663217,13.3817307 162.574183,13.9938381 162.599621,14.8269527 C162.701376,14.5216893 162.900112,14.2784362 163.195836,14.0971861 C163.49156,13.915936 163.836566,13.8253123 164.230864,13.8253123 C164.879549,13.8253123 165.389904,14.0208687 165.761943,14.4119874 C166.133983,14.8031061 166.32,15.3579775 166.32,16.0766183 C166.32,16.521794 166.230966,16.9160866 166.052896,17.2595079 C165.874826,17.6029292 165.609314,17.8732104 165.256353,18.0703596 C164.903393,18.2675089 164.475712,18.366082 163.9733,18.366082 C162.993913,18.366082 162.3198,18.0624131 161.95094,17.4550662 C161.58208,16.8477194 161.397653,16.0098476 161.397653,14.9414259 C161.397653,13.7140128 161.596389,12.804596 161.993868,12.2131483 C162.391346,11.6217005 163.035251,11.3259811 163.925603,11.3259811 C164.606085,11.3259811 165.127569,11.5199476 165.490069,11.9078864 C165.85257,12.2958253 166.059255,12.7918708 166.110132,13.3960379 L164.850927,13.3960379 Z M162.714095,15.981224 C162.714095,16.3373646 162.817437,16.6314941 163.024126,16.8636215 C163.230815,17.0957488 163.534484,17.2118107 163.935142,17.2118107 C164.278563,17.2118107 164.552024,17.1100578 164.755533,16.9065489 C164.959042,16.70304 165.060795,16.4200397 165.060795,16.0575394 C165.060795,15.6759602 164.957452,15.3834206 164.750763,15.1799117 C164.544075,14.9764028 164.265844,14.8746498 163.916063,14.8746498 C163.585361,14.8746498 163.302361,14.9700432 163.067054,15.1608328 C162.831746,15.3516224 162.714095,15.6250834 162.714095,15.981224 Z" id="6" fill="#FF8768" fill-rule="nonzero"></path>
                    <path d="M260.642726,12.4738927 L260.642726,11.2146877 L263.065741,11.2146877 L263.065741,17.9495268 L261.653905,17.9495268 L261.653905,12.4738927 L260.642726,12.4738927 Z M264.124618,14.5248707 C264.124618,12.2481148 264.983159,11.1097539 266.700265,11.1097539 C267.609695,11.1097539 268.26473,11.4150127 268.665388,12.0255394 C269.066046,12.6360661 269.266372,13.4691682 269.266372,14.5248707 C269.266372,15.5869328 269.066046,16.4232146 268.665388,17.0337413 C268.26473,17.644268 267.609695,17.9495268 266.700265,17.9495268 C264.983159,17.9495268 264.124618,16.8079862 264.124618,14.5248707 Z M267.940391,14.5248707 C267.940391,13.8380281 267.856127,13.3085949 267.687596,12.9365552 C267.519065,12.5645155 267.189958,12.3784984 266.700265,12.3784984 C266.204212,12.3784984 265.871925,12.5645155 265.703394,12.9365552 C265.534864,13.3085949 265.450599,13.8380281 265.450599,14.5248707 C265.450599,15.2180729 265.534864,15.7506858 265.703394,16.1227256 C265.871925,16.4947653 266.204212,16.6807823 266.700265,16.6807823 C267.189958,16.6807823 267.519065,16.4947653 267.687596,16.1227256 C267.856127,15.7506858 267.940391,15.2180729 267.940391,14.5248707 Z" id="10" fill="#FEFEFE" fill-rule="nonzero"></path>
                    <path d="M336.927975,12.4802524 L336.927975,11.2210473 L339.350991,11.2210473 L339.350991,17.9558864 L337.939155,17.9558864 L337.939155,12.4802524 L336.927975,12.4802524 Z M342.832883,10.9634826 C343.290778,10.9634826 343.683481,11.0429771 344.011003,11.2019685 C344.338525,11.3609598 344.586548,11.5803645 344.755079,11.8601893 C344.92361,12.140014 345.007874,12.4516324 345.007874,12.7950536 C345.007874,13.22751 344.890222,13.5820554 344.654915,13.8587003 C344.419608,14.1353452 344.107989,14.3054634 343.72005,14.3690599 L343.72005,14.4167571 C344.661279,14.6965818 345.131886,15.2498634 345.131886,16.0766183 C345.131886,16.6553467 344.93792,17.1243641 344.549981,17.4836845 C344.162042,17.843005 343.61512,18.0226625 342.909199,18.0226625 C342.15876,18.0226625 341.560961,17.8366454 341.115785,17.4646057 C340.67061,17.092566 340.422587,16.531335 340.37171,15.7808959 L341.688151,15.7808959 C341.71995,16.1243172 341.832832,16.3961883 342.026801,16.5965174 C342.220771,16.7968464 342.495822,16.8970095 342.851962,16.8970095 C343.157226,16.8970095 343.395709,16.8127453 343.56742,16.6442145 C343.73913,16.4756837 343.824984,16.2546891 343.824984,15.981224 C343.824984,15.6568817 343.700973,15.4088589 343.452946,15.2371483 C343.20492,15.0654376 342.839245,14.9795836 342.355912,14.9795836 L342.079268,14.9795836 L342.079268,13.8825489 L342.355912,13.8825489 C343.246263,13.8952682 343.691432,13.5868296 343.691432,12.957224 C343.691432,12.6837589 343.611938,12.4691238 343.452946,12.3133123 C343.293955,12.1575008 343.07773,12.0795962 342.804265,12.0795962 C342.518081,12.0795962 342.282777,12.1702199 342.098347,12.35147 C341.913917,12.5327201 341.808984,12.7855126 341.783546,13.1098549 L340.467104,13.1098549 C340.505262,12.4230123 340.727847,11.8935791 341.134864,11.5215394 C341.541882,11.1494997 342.107883,10.9634826 342.832883,10.9634826 Z" id="13" fill="#FEFEFE" fill-rule="nonzero"></path>
                    <polygon id="1" fill="#FF8768" fill-rule="nonzero" points="34.742612 12.8236719 34.742612 11.5644669 37.1656278 11.5644669 37.1656278 18.299306 35.7537918 18.299306 35.7537918 12.8236719"></polygon>
                    <path d="M140.329817,12.6138044 L137.134107,12.6138044 L137.134107,14.3118233 C137.280379,14.1401127 137.482295,14.0017923 137.739861,13.896858 C137.997427,13.7919238 138.282017,13.7394574 138.59364,13.7394574 C139.057895,13.7394574 139.444238,13.8396204 139.752681,14.0399495 C140.061125,14.2402786 140.290069,14.50738 140.439521,14.8412618 C140.588972,15.1751436 140.663697,15.5455879 140.663697,15.9526057 C140.663697,16.6712465 140.461781,17.2467865 140.057943,17.6792429 C139.654105,18.1116993 139.076975,18.3279243 138.326536,18.3279243 C137.836843,18.3279243 137.410753,18.2404804 137.048252,18.0655899 C136.685752,17.8906994 136.402752,17.6458565 136.199243,17.3310536 C135.995734,17.0162508 135.884442,16.6489863 135.865363,16.2292492 L137.172265,16.2292492 C137.223142,16.5154336 137.340794,16.7427878 137.525224,16.9113186 C137.709654,17.0798494 137.954497,17.1641136 138.25976,17.1641136 C138.62862,17.1641136 138.903671,17.0512314 139.084921,16.8254637 C139.266171,16.599696 139.356795,16.2992069 139.356795,15.9239874 C139.356795,15.5678468 139.261402,15.291206 139.070612,15.0940568 C138.879822,14.8969075 138.609541,14.7983344 138.25976,14.7983344 C138.005374,14.7983344 137.789149,14.8539805 137.611079,14.9652744 C137.433009,15.0765684 137.302638,15.2244281 137.219962,15.408858 L135.91306,15.408858 L135.91306,11.4309148 L140.329817,11.4309148 L140.329817,12.6138044 Z" id="5" fill="#FF8768" fill-rule="nonzero"></path>
                    <path d="M238.915079,15.9526057 C239.016833,16.6140096 239.360249,16.9447066 239.945338,16.9447066 C240.390513,16.9447066 240.711671,16.7491502 240.90882,16.3580315 C241.105969,15.9669129 241.191823,15.3548054 241.166385,14.5216909 C241.06463,14.8269542 240.865894,15.0702073 240.57017,15.2514574 C240.274446,15.4327075 239.92944,15.5233312 239.535142,15.5233312 C238.886457,15.5233312 238.376103,15.3277748 238.004063,14.9366562 C237.632023,14.5455375 237.446006,13.9906661 237.446006,13.2720252 C237.446006,12.8332092 237.53504,12.4405065 237.71311,12.0939054 C237.891181,11.7473043 238.156692,11.4754332 238.509653,11.2782839 C238.862614,11.0811347 239.290294,10.9825615 239.792707,10.9825615 C240.772093,10.9825615 241.446206,11.2798708 241.815066,11.8744984 C242.183926,12.469126 242.368353,13.2942786 242.368353,14.3499811 C242.368353,15.5519555 242.182336,16.4645521 241.810297,17.0877981 C241.438257,17.7110441 240.81661,18.0226625 239.945338,18.0226625 C239.481083,18.0226625 239.082021,17.9304489 238.748139,17.7460189 C238.414257,17.561589 238.156695,17.3119763 237.975445,16.9971735 C237.794195,16.6823707 237.687672,16.3341849 237.655874,15.9526057 L238.915079,15.9526057 Z M241.051912,13.3674196 C241.051912,13.011279 240.948569,12.7171494 240.74188,12.4850221 C240.535191,12.2528947 240.231523,12.1368328 239.830864,12.1368328 C239.487443,12.1368328 239.213982,12.2385857 239.010473,12.4420946 C238.806964,12.6456035 238.705211,12.9286039 238.705211,13.2911041 C238.705211,13.6726833 238.808554,13.9668128 239.015243,14.1735016 C239.221932,14.3801903 239.500162,14.4835331 239.849943,14.4835331 C240.174286,14.4835331 240.455696,14.3865499 240.694183,14.1925804 C240.93267,13.998611 241.051912,13.7235601 241.051912,13.3674196 Z" id="9" fill="#FEFEFE" fill-rule="nonzero"></path>
                    <path d="M311.901274,12.4802524 L311.901274,11.2210473 L314.32429,11.2210473 L314.32429,17.9558864 L312.912454,17.9558864 L312.912454,12.4802524 L311.901274,12.4802524 Z M315.287773,16.8970095 C317.443695,15.402491 318.52164,14.1623772 318.52164,13.1766309 C318.52164,12.8777272 318.450095,12.6424236 318.307003,12.4707129 C318.163911,12.2990023 317.939737,12.2131483 317.634473,12.2131483 C317.004868,12.2131483 316.670991,12.6424184 316.632833,13.5009716 L315.325931,13.5009716 C315.364089,12.706015 315.605752,12.1034468 316.050927,11.6932492 C316.496103,11.2830516 317.058924,11.0779558 317.739407,11.0779558 C318.432609,11.0779558 318.965222,11.2576133 319.337262,11.6169338 C319.709302,11.9762542 319.895319,12.4548109 319.895319,13.0526183 C319.895319,13.5232326 319.756998,13.9954298 319.480353,14.469224 C319.203708,14.9430181 318.852343,15.3786479 318.426246,15.7761262 C318.000149,16.1736045 317.5518,16.5154307 317.081186,16.8016151 L320.028871,16.8016151 L320.028871,17.8986498 L315.287773,17.8986498 L315.287773,16.8970095 Z" id="12" fill="#FEFEFE" fill-rule="nonzero"></path>
                    <path d="M86.8708391,11.3069022 C87.3287342,11.3069022 87.7214368,11.3863967 88.048959,11.545388 C88.3764811,11.7043793 88.6245039,11.9237841 88.7930347,12.2036088 C88.9615655,12.4834336 89.0458297,12.7950519 89.0458297,13.1384732 C89.0458297,13.5709296 88.9281778,13.925475 88.6928707,14.2021199 C88.4575635,14.4787648 88.1459452,14.648883 87.7580063,14.7124795 L87.7580063,14.7601767 C88.699235,15.0400014 89.1698423,15.5932829 89.1698423,16.4200379 C89.1698423,16.9987663 88.9758758,17.4677837 88.5879369,17.8271041 C88.1999981,18.1864245 87.6530761,18.366082 86.9471546,18.366082 C86.1967155,18.366082 85.5989171,18.180065 85.1537413,17.8080252 C84.7085656,17.4359855 84.4605428,16.8747545 84.4096656,16.1243155 L85.7261073,16.1243155 C85.7579055,16.4677367 85.8707877,16.7396078 86.0647571,16.9399369 C86.2587265,17.140266 86.5337774,17.240429 86.889918,17.240429 C87.1951813,17.240429 87.4336648,17.1561649 87.6053754,16.9876341 C87.777086,16.8191033 87.8629401,16.5981086 87.8629401,16.3246435 C87.8629401,16.0003012 87.7389287,15.7522785 87.4909022,15.5805678 C87.2428757,15.4088572 86.8772012,15.3230032 86.3938675,15.3230032 L86.117224,15.3230032 L86.117224,14.2259685 L86.3938675,14.2259685 C87.284219,14.2386878 87.729388,13.9302492 87.729388,13.3006435 C87.729388,13.0271784 87.6498935,12.8125434 87.4909022,12.6567319 C87.3319109,12.5009204 87.1156859,12.4230158 86.8422208,12.4230158 C86.5560364,12.4230158 86.3207328,12.5136395 86.1363028,12.6948896 C85.9518729,12.8761397 85.8469402,13.1289321 85.8215016,13.4532744 L84.5050599,13.4532744 C84.5432179,12.7664319 84.7658024,12.2369987 85.1728202,11.864959 C85.579838,11.4929193 86.1458386,11.3069022 86.8708391,11.3069022 Z" id="3" fill="#FF8768" fill-rule="nonzero"></path>
                    <polygon id="7" fill="#FF8768" fill-rule="nonzero" points="191.227457 12.5088707 188.766284 18.299306 187.373527 18.299306 189.863319 12.6615016 186.743924 12.6615016 186.743924 11.5072303 191.227457 11.5072303"></polygon>
                    <path d="M287.528025,12.4802524 L287.528025,11.2210473 L289.951041,11.2210473 L289.951041,17.9558864 L288.539205,17.9558864 L288.539205,12.4802524 L287.528025,12.4802524 Z M290.676038,12.4802524 L290.676038,11.2210473 L293.099054,11.2210473 L293.099054,17.9558864 L291.687218,17.9558864 L291.687218,12.4802524 L290.676038,12.4802524 Z" id="11" fill="#FEFEFE" fill-rule="nonzero"></path>
                    <path d="M362.488883,12.4802524 L362.488883,11.2210473 L364.911899,11.2210473 L364.911899,17.9558864 L363.500063,17.9558864 L363.500063,12.4802524 L362.488883,12.4802524 Z M365.894461,16.6012871 L365.894461,15.4851735 L369.118789,11.1447319 L370.559243,11.1447319 L370.559243,15.4374763 L371.436871,15.4374763 L371.436871,16.6012871 L370.559243,16.6012871 L370.559243,17.9558864 L369.204644,17.9558864 L369.204644,16.6012871 L365.894461,16.6012871 Z M369.309577,12.7187382 L367.268139,15.4374763 L369.309577,15.4374763 L369.309577,12.7187382 Z" id="14" fill="#FEFEFE" fill-rule="nonzero"></path>
                </g>
                <text id="全系列產品均為親膚的酸性pH值" font-family="NotoSansCJKtc-Medium, Noto Sans CJK TC" font-size="14" font-weight="400" letter-spacing="1" fill="#FF7679">
                    <tspan x="5.91" y="85">全系列產品均為親膚的酸性pH值</tspan>
                </text>
                <text id="酸性" font-family="NotoSansCJKtc-Regular, Noto Sans CJK TC" font-size="12" font-weight="normal" fill="#FF7679">
                    <tspan x="0" y="14">酸性</tspan>
                </text>
                <text id="中性" font-family="NotoSansCJKtc-Regular, Noto Sans CJK TC" font-size="12" font-weight="normal" fill="#FF7679">
                    <tspan x="178" y="14">中性</tspan>
                </text>
                <text id="鹼性" font-family="NotoSansCJKtc-Regular, Noto Sans CJK TC" font-size="12" font-weight="normal" fill="#FF7679">
                    <tspan x="356" y="14">鹼性</tspan>
                </text>
                <path d="M62.3140244,53.1282051 L164.685976,53.1282051 M62.1570122,63 L62.1570122,53 M164.842988,63 L164.842988,53" id="Combined-Shape" stroke="#FF7679" stroke-width="0.858548896" stroke-linecap="square" transform="translate(113.500000, 58.000000) scale(1, -1) translate(-113.500000, -58.000000) "></path>
            </g>
        </g>
    </g>
</svg>