<?xml version="1.0" encoding="UTF-8"?>
<svg width="380px" height="86px" viewBox="0 0 380 86" version="1.1" xmlns="http://www.w3.org/2000/svg" xmlns:xlink="http://www.w3.org/1999/xlink">
    <!-- Generator: Sketch 55.2 (78181) - https://sketchapp.com -->
    <title>ph</title>
    <desc>Created with Sketch.</desc>
    <g id="Drunk-Elephant_phone" stroke="none" stroke-width="1" fill="none" fill-rule="evenodd">
        <g id="Phone_獨特之處_btn_轉外框" transform="translate(-19.000000, -590.000000)">
            <g id="ph" transform="translate(19.000000, 587.000000)">
                <g id="Group-16" transform="translate(1.000000, 21.000000)">
                    <polygon id="Fill-1" fill="#F7F81A" points="0 28.865466 21.6204632 28.865466 21.6204632 0 0 0"></polygon>
                    <polygon id="Fill-2" fill="#F4F340" points="25.4989022 28.865466 47.1179336 28.865466 47.1179336 0 25.4989022 0"></polygon>
                    <polygon id="Fill-3" fill="#F6F471" points="50.9978044 28.865466 72.6168358 28.865466 72.6168358 0 50.9978044 0"></polygon>
                    <polygon id="Fill-4" fill="#F0EF99" points="76.1819054 28.865466 97.8009367 28.865466 97.8009367 0 76.1819054 0"></polygon>
                    <polygon id="Fill-5" fill="#F4F3B5" points="101.680808 28.865466 123.301271 28.865466 123.301271 0 101.680808 0"></polygon>
                    <polygon id="Fill-6" fill="#F8F7D0" points="127.175573 28.865466 148.796037 28.865466 148.796037 0 127.175573 0"></polygon>
                    <polygon id="Fill-7" fill="#FBFBE8" points="152.610402 28.865466 174.230865 28.865466 174.230865 0 152.610402 0"></polygon>
                    <polygon id="Fill-8" fill="#FEFEFE" points="178.177514 28.865466 199.799409 28.865466 199.799409 0 178.177514 0"></polygon>
                    <polygon id="Fill-9" fill="#FFEAE8" points="203.361615 28.865466 224.980646 28.865466 224.980646 0 203.361615 0"></polygon>
                    <polygon id="Fill-10" fill="#FFD5CF" points="228.860517 28.865466 250.480981 28.865466 250.480981 0 228.860517 0"></polygon>
                    <polygon id="Fill-11" fill="#FFC1B7" points="254.384858 28.865466 276.005321 28.865466 276.005321 0 254.384858 0"></polygon>
                    <polygon id="Fill-12" fill="#FFAE9F" points="279.858322 28.865466 301.478785 28.865466 301.478785 0 279.858322 0"></polygon>
                    <polygon id="Fill-13" fill="#FF9D87" points="305.357224 28.865466 326.976255 28.865466 326.976255 0 305.357224 0"></polygon>
                    <polygon id="Fill-14" fill="#FF8E72" points="330.541325 28.865466 352.161788 28.865466 352.161788 0 330.541325 0"></polygon>
                    <polygon id="Fill-15" fill="#FF8768" points="356.040227 28.865466 377.659258 28.865466 377.659258 0 356.040227 0"></polygon>
                    <path d="M8.16575394,14.8746498 C8.16575394,12.597894 9.02429425,11.4595331 10.7414006,11.4595331 C11.650831,11.4595331 12.3058655,11.7647919 12.7065237,12.3753186 C13.1071818,12.9858453 13.3075079,13.8189474 13.3075079,14.8746498 C13.3075079,15.9367119 13.1071818,16.7729938 12.7065237,17.3835205 C12.3058655,17.9940472 11.650831,18.299306 10.7414006,18.299306 C9.02429425,18.299306 8.16575394,17.1577654 8.16575394,14.8746498 Z M11.9815268,14.8746498 C11.9815268,14.1878073 11.8972627,13.6583741 11.7287319,13.2863344 C11.5602011,12.9142947 11.2310939,12.7282776 10.7414006,12.7282776 C10.2453477,12.7282776 9.91306078,12.9142947 9.74452997,13.2863344 C9.57599916,13.6583741 9.49173502,14.1878073 9.49173502,14.8746498 C9.49173502,15.567852 9.57599916,16.100465 9.74452997,16.4725047 C9.91306078,16.8445444 10.2453477,17.0305615 10.7414006,17.0305615 C11.2310939,17.0305615 11.5602011,16.8445444 11.7287319,16.4725047 C11.8972627,16.100465 11.9815268,15.567852 11.9815268,14.8746498 Z" id="0" fill="#FF8768" fill-rule="nonzero"></path>
                    <path d="M109.588997,16.9447066 L109.588997,15.8285931 L112.813325,11.4881514 L114.253779,11.4881514 L114.253779,15.7808959 L115.131407,15.7808959 L115.131407,16.9447066 L114.253779,16.9447066 L114.253779,18.299306 L112.89918,18.299306 L112.89918,16.9447066 L109.588997,16.9447066 Z M113.004114,13.0621577 L110.962675,15.7808959 L113.004114,15.7808959 L113.004114,13.0621577 Z" id="4" fill="#FF8768" fill-rule="nonzero"></path>
                    <path d="M212.195129,12.7568959 C212.195129,12.4325536 212.285753,12.1304746 212.467003,11.8506498 C212.648253,11.5708251 212.918534,11.3450608 213.277855,11.1733502 C213.637175,11.0016395 214.071215,10.9157855 214.579987,10.9157855 C215.08876,10.9157855 215.522799,11.0016395 215.88212,11.1733502 C216.24144,11.3450608 216.511721,11.5708251 216.692972,11.8506498 C216.874222,12.1304746 216.964845,12.4325536 216.964845,12.7568959 C216.964845,13.1257558 216.875812,13.438964 216.697741,13.69653 C216.519671,13.9540959 216.25257,14.1464726 215.896429,14.2736656 C216.297087,14.4262973 216.603936,14.6472919 216.816984,14.9366562 C217.030033,15.2260204 217.136555,15.5773859 217.136555,15.9907634 C217.136555,16.4359391 217.025263,16.8191025 216.802675,17.140265 C216.580087,17.4614275 216.276418,17.7046806 215.891659,17.8700315 C215.5069,18.0353825 215.069681,18.1180568 214.579987,18.1180568 C214.090294,18.1180568 213.653074,18.0353825 213.268315,17.8700315 C212.883556,17.7046806 212.581477,17.4614275 212.362069,17.140265 C212.142661,16.8191025 212.032959,16.4359391 212.032959,15.9907634 C212.032959,15.5773859 212.139482,15.2260204 212.35253,14.9366562 C212.565578,14.6472919 212.872427,14.4262973 213.273085,14.2736656 C212.916945,14.1464726 212.648253,13.952506 212.467003,13.6917603 C212.285753,13.4310145 212.195129,13.1193961 212.195129,12.7568959 Z M213.52111,12.9763028 C213.52111,13.2815662 213.616504,13.5168698 213.807293,13.6822208 C213.998083,13.8475718 214.255645,13.9302461 214.579987,13.9302461 C214.910689,13.9302461 215.171431,13.8475718 215.362221,13.6822208 C215.55301,13.5168698 215.648404,13.2815662 215.648404,12.9763028 C215.648404,12.6710395 215.551421,12.434146 215.357451,12.2656151 C215.163482,12.0970843 214.90433,12.0128202 214.579987,12.0128202 C214.262005,12.0128202 214.006033,12.0970843 213.812063,12.2656151 C213.618094,12.434146 213.52111,12.6710395 213.52111,12.9763028 Z M213.339861,15.9144479 C213.339861,16.2515096 213.451153,16.518611 213.673741,16.7157603 C213.896329,16.9129095 214.198408,17.0114826 214.579987,17.0114826 C214.961567,17.0114826 215.265235,16.9129095 215.491003,16.7157603 C215.716771,16.518611 215.829653,16.2515096 215.829653,15.9144479 C215.829653,15.5710267 215.713591,15.3086949 215.481464,15.1274448 C215.249336,14.9461947 214.948847,14.855571 214.579987,14.855571 C214.217487,14.855571 213.920178,14.9461947 213.68805,15.1274448 C213.455923,15.3086949 213.339861,15.5710267 213.339861,15.9144479 Z" id="8" fill="#FF8768" fill-rule="nonzero"></path>
                    <path d="M59.3257287,17.240429 C61.4816512,15.7459105 62.5595962,14.5057967 62.5595962,13.5200505 C62.5595962,13.2211468 62.4880512,12.9858431 62.344959,12.8141325 C62.2018668,12.6424219 61.9776924,12.5565678 61.672429,12.5565678 C61.0428234,12.5565678 60.7089466,12.985838 60.6707886,13.8443912 L59.3638864,13.8443912 C59.4020444,13.0494345 59.6437076,12.4468664 60.0888833,12.0366688 C60.534059,11.6264711 61.0968799,11.4213754 61.7773628,11.4213754 C62.470565,11.4213754 63.003178,11.6010329 63.3752177,11.9603533 C63.7472574,12.3196737 63.9332744,12.7982304 63.9332744,13.3960379 C63.9332744,13.8666522 63.7949541,14.3388494 63.5183091,14.8126435 C63.2416642,15.2864377 62.8902987,15.7220674 62.4642019,16.1195457 C62.0381051,16.5170241 61.5897563,16.8588503 61.119142,17.1450347 L64.0668265,17.1450347 L64.0668265,18.2420694 L59.3257287,18.2420694 L59.3257287,17.240429 Z" id="2" fill="#FF8768" fill-rule="nonzero"></path>
                    <path d="M164.850927,13.3960379 C164.749173,12.7346339 164.412116,12.4039369 163.839748,12.4039369 C163.394572,12.4039369 163.070234,12.5994933 162.866726,12.990612 C162.663217,13.3817307 162.574183,13.9938381 162.599621,14.8269527 C162.701376,14.5216893 162.900112,14.2784362 163.195836,14.0971861 C163.49156,13.915936 163.836566,13.8253123 164.230864,13.8253123 C164.879549,13.8253123 165.389904,14.0208687 165.761943,14.4119874 C166.133983,14.8031061 166.32,15.3579775 166.32,16.0766183 C166.32,16.521794 166.230966,16.9160866 166.052896,17.2595079 C165.874826,17.6029292 165.609314,17.8732104 165.256353,18.0703596 C164.903393,18.2675089 164.475712,18.366082 163.9733,18.366082 C162.993913,18.366082 162.3198,18.0624131 161.95094,17.4550662 C161.58208,16.8477194 161.397653,16.0098476 161.397653,14.9414259 C161.397653,13.7140128 161.596389,12.804596 161.993868,12.2131483 C162.391346,11.6217005 163.035251,11.3259811 163.925603,11.3259811 C164.606085,11.3259811 165.127569,11.5199476 165.490069,11.9078864 C165.85257,12.2958253 166.059255,12.7918708 166.110132,13.3960379 L164.850927,13.3960379 Z M162.714095,15.981224 C162.714095,16.3373646 162.817437,16.6314941 163.024126,16.8636215 C163.230815,17.0957488 163.534484,17.2118107 163.935142,17.2118107 C164.278563,17.2118107 164.552024,17.1100578 164.755533,16.9065489 C164.959042,16.70304 165.060795,16.4200397 165.060795,16.0575394 C165.060795,15.6759602 164.957452,15.3834206 164.750763,15.1799117 C164.544075,14.9764028 164.265844,14.8746498 163.916063,14.8746498 C163.585361,14.8746498 163.302361,14.9700432 163.067054,15.1608328 C162.831746,15.3516224 162.714095,15.6250834 162.714095,15.981224 Z" id="6" fill="#FF8768" fill-rule="nonzero"></path>
                    <path d="M260.642726,12.4738927 L260.642726,11.2146877 L263.065741,11.2146877 L263.065741,17.9495268 L261.653905,17.9495268 L261.653905,12.4738927 L260.642726,12.4738927 Z M264.124618,14.5248707 C264.124618,12.2481148 264.983159,11.1097539 266.700265,11.1097539 C267.609695,11.1097539 268.26473,11.4150127 268.665388,12.0255394 C269.066046,12.6360661 269.266372,13.4691682 269.266372,14.5248707 C269.266372,15.5869328 269.066046,16.4232146 268.665388,17.0337413 C268.26473,17.644268 267.609695,17.9495268 266.700265,17.9495268 C264.983159,17.9495268 264.124618,16.8079862 264.124618,14.5248707 Z M267.940391,14.5248707 C267.940391,13.8380281 267.856127,13.3085949 267.687596,12.9365552 C267.519065,12.5645155 267.189958,12.3784984 266.700265,12.3784984 C266.204212,12.3784984 265.871925,12.5645155 265.703394,12.9365552 C265.534864,13.3085949 265.450599,13.8380281 265.450599,14.5248707 C265.450599,15.2180729 265.534864,15.7506858 265.703394,16.1227256 C265.871925,16.4947653 266.204212,16.6807823 266.700265,16.6807823 C267.189958,16.6807823 267.519065,16.4947653 267.687596,16.1227256 C267.856127,15.7506858 267.940391,15.2180729 267.940391,14.5248707 Z" id="10" fill="#FEFEFE" fill-rule="nonzero"></path>
                    <path d="M336.927975,12.4802524 L336.927975,11.2210473 L339.350991,11.2210473 L339.350991,17.9558864 L337.939155,17.9558864 L337.939155,12.4802524 L336.927975,12.4802524 Z M342.832883,10.9634826 C343.290778,10.9634826 343.683481,11.0429771 344.011003,11.2019685 C344.338525,11.3609598 344.586548,11.5803645 344.755079,11.8601893 C344.92361,12.140014 345.007874,12.4516324 345.007874,12.7950536 C345.007874,13.22751 344.890222,13.5820554 344.654915,13.8587003 C344.419608,14.1353452 344.107989,14.3054634 343.72005,14.3690599 L343.72005,14.4167571 C344.661279,14.6965818 345.131886,15.2498634 345.131886,16.0766183 C345.131886,16.6553467 344.93792,17.1243641 344.549981,17.4836845 C344.162042,17.843005 343.61512,18.0226625 342.909199,18.0226625 C342.15876,18.0226625 341.560961,17.8366454 341.115785,17.4646057 C340.67061,17.092566 340.422587,16.531335 340.37171,15.7808959 L341.688151,15.7808959 C341.71995,16.1243172 341.832832,16.3961883 342.026801,16.5965174 C342.220771,16.7968464 342.495822,16.8970095 342.851962,16.8970095 C343.157226,16.8970095 343.395709,16.8127453 343.56742,16.6442145 C343.73913,16.4756837 343.824984,16.2546891 343.824984,15.981224 C343.824984,15.6568817 343.700973,15.4088589 343.452946,15.2371483 C343.20492,15.0654376 342.839245,14.9795836 342.355912,14.9795836 L342.079268,14.9795836 L342.079268,13.8825489 L342.355912,13.8825489 C343.246263,13.8952682 343.691432,13.5868296 343.691432,12.957224 C343.691432,12.6837589 343.611938,12.4691238 343.452946,12.3133123 C343.293955,12.1575008 343.07773,12.0795962 342.804265,12.0795962 C342.518081,12.0795962 342.282777,12.1702199 342.098347,12.35147 C341.913917,12.5327201 341.808984,12.7855126 341.783546,13.1098549 L340.467104,13.1098549 C340.505262,12.4230123 340.727847,11.8935791 341.134864,11.5215394 C341.541882,11.1494997 342.107883,10.9634826 342.832883,10.9634826 Z" id="13" fill="#FEFEFE" fill-rule="nonzero"></path>
                    <polygon id="1" fill="#FF8768" fill-rule="nonzero" points="34.742612 12.8236719 34.742612 11.5644669 37.1656278 11.5644669 37.1656278 18.299306 35.7537918 18.299306 35.7537918 12.8236719"></polygon>
                    <path d="M140.329817,12.6138044 L137.134107,12.6138044 L137.134107,14.3118233 C137.280379,14.1401127 137.482295,14.0017923 137.739861,13.896858 C137.997427,13.7919238 138.282017,13.7394574 138.59364,13.7394574 C139.057895,13.7394574 139.444238,13.8396204 139.752681,14.0399495 C140.061125,14.2402786 140.290069,14.50738 140.439521,14.8412618 C140.588972,15.1751436 140.663697,15.5455879 140.663697,15.9526057 C140.663697,16.6712465 140.461781,17.2467865 140.057943,17.6792429 C139.654105,18.1116993 139.076975,18.3279243 138.326536,18.3279243 C137.836843,18.3279243 137.410753,18.2404804 137.048252,18.0655899 C136.685752,17.8906994 136.402752,17.6458565 136.199243,17.3310536 C135.995734,17.0162508 135.884442,16.6489863 135.865363,16.2292492 L137.172265,16.2292492 C137.223142,16.5154336 137.340794,16.7427878 137.525224,16.9113186 C137.709654,17.0798494 137.954497,17.1641136 138.25976,17.1641136 C138.62862,17.1641136 138.903671,17.0512314 139.084921,16.8254637 C139.266171,16.599696 139.356795,16.2992069 139.356795,15.9239874 C139.356795,15.5678468 139.261402,15.291206 139.070612,15.0940568 C138.879822,14.8969075 138.609541,14.7983344 138.25976,14.7983344 C138.005374,14.7983344 137.789149,14.8539805 137.611079,14.9652744 C137.433009,15.0765684 137.302638,15.2244281 137.219962,15.408858 L135.91306,15.408858 L135.91306,11.4309148 L140.329817,11.4309148 L140.329817,12.6138044 Z" id="5" fill="#FF8768" fill-rule="nonzero"></path>
                    <path d="M238.915079,15.9526057 C239.016833,16.6140096 239.360249,16.9447066 239.945338,16.9447066 C240.390513,16.9447066 240.711671,16.7491502 240.90882,16.3580315 C241.105969,15.9669129 241.191823,15.3548054 241.166385,14.5216909 C241.06463,14.8269542 240.865894,15.0702073 240.57017,15.2514574 C240.274446,15.4327075 239.92944,15.5233312 239.535142,15.5233312 C238.886457,15.5233312 238.376103,15.3277748 238.004063,14.9366562 C237.632023,14.5455375 237.446006,13.9906661 237.446006,13.2720252 C237.446006,12.8332092 237.53504,12.4405065 237.71311,12.0939054 C237.891181,11.7473043 238.156692,11.4754332 238.509653,11.2782839 C238.862614,11.0811347 239.290294,10.9825615 239.792707,10.9825615 C240.772093,10.9825615 241.446206,11.2798708 241.815066,11.8744984 C242.183926,12.469126 242.368353,13.2942786 242.368353,14.3499811 C242.368353,15.5519555 242.182336,16.4645521 241.810297,17.0877981 C241.438257,17.7110441 240.81661,18.0226625 239.945338,18.0226625 C239.481083,18.0226625 239.082021,17.9304489 238.748139,17.7460189 C238.414257,17.561589 238.156695,17.3119763 237.975445,16.9971735 C237.794195,16.6823707 237.687672,16.3341849 237.655874,15.9526057 L238.915079,15.9526057 Z M241.051912,13.3674196 C241.051912,13.011279 240.948569,12.7171494 240.74188,12.4850221 C240.535191,12.2528947 240.231523,12.1368328 239.830864,12.1368328 C239.487443,12.1368328 239.213982,12.2385857 239.010473,12.4420946 C238.806964,12.6456035 238.705211,12.9286039 238.705211,13.2911041 C238.705211,13.6726833 238.808554,13.9668128 239.015243,14.1735016 C239.221932,14.3801903 239.500162,14.4835331 239.849943,14.4835331 C240.174286,14.4835331 240.455696,14.3865499 240.694183,14.1925804 C240.93267,13.998611 241.051912,13.7235601 241.051912,13.3674196 Z" id="9" fill="#FEFEFE" fill-rule="nonzero"></path>
                    <path d="M311.901274,12.4802524 L311.901274,11.2210473 L314.32429,11.2210473 L314.32429,17.9558864 L312.912454,17.9558864 L312.912454,12.4802524 L311.901274,12.4802524 Z M315.287773,16.8970095 C317.443695,15.402491 318.52164,14.1623772 318.52164,13.1766309 C318.52164,12.8777272 318.450095,12.6424236 318.307003,12.4707129 C318.163911,12.2990023 317.939737,12.2131483 317.634473,12.2131483 C317.004868,12.2131483 316.670991,12.6424184 316.632833,13.5009716 L315.325931,13.5009716 C315.364089,12.706015 315.605752,12.1034468 316.050927,11.6932492 C316.496103,11.2830516 317.058924,11.0779558 317.739407,11.0779558 C318.432609,11.0779558 318.965222,11.2576133 319.337262,11.6169338 C319.709302,11.9762542 319.895319,12.4548109 319.895319,13.0526183 C319.895319,13.5232326 319.756998,13.9954298 319.480353,14.469224 C319.203708,14.9430181 318.852343,15.3786479 318.426246,15.7761262 C318.000149,16.1736045 317.5518,16.5154307 317.081186,16.8016151 L320.028871,16.8016151 L320.028871,17.8986498 L315.287773,17.8986498 L315.287773,16.8970095 Z" id="12" fill="#FEFEFE" fill-rule="nonzero"></path>
                    <path d="M86.8708391,11.3069022 C87.3287342,11.3069022 87.7214368,11.3863967 88.048959,11.545388 C88.3764811,11.7043793 88.6245039,11.9237841 88.7930347,12.2036088 C88.9615655,12.4834336 89.0458297,12.7950519 89.0458297,13.1384732 C89.0458297,13.5709296 88.9281778,13.925475 88.6928707,14.2021199 C88.4575635,14.4787648 88.1459452,14.648883 87.7580063,14.7124795 L87.7580063,14.7601767 C88.699235,15.0400014 89.1698423,15.5932829 89.1698423,16.4200379 C89.1698423,16.9987663 88.9758758,17.4677837 88.5879369,17.8271041 C88.1999981,18.1864245 87.6530761,18.366082 86.9471546,18.366082 C86.1967155,18.366082 85.5989171,18.180065 85.1537413,17.8080252 C84.7085656,17.4359855 84.4605428,16.8747545 84.4096656,16.1243155 L85.7261073,16.1243155 C85.7579055,16.4677367 85.8707877,16.7396078 86.0647571,16.9399369 C86.2587265,17.140266 86.5337774,17.240429 86.889918,17.240429 C87.1951813,17.240429 87.4336648,17.1561649 87.6053754,16.9876341 C87.777086,16.8191033 87.8629401,16.5981086 87.8629401,16.3246435 C87.8629401,16.0003012 87.7389287,15.7522785 87.4909022,15.5805678 C87.2428757,15.4088572 86.8772012,15.3230032 86.3938675,15.3230032 L86.117224,15.3230032 L86.117224,14.2259685 L86.3938675,14.2259685 C87.284219,14.2386878 87.729388,13.9302492 87.729388,13.3006435 C87.729388,13.0271784 87.6498935,12.8125434 87.4909022,12.6567319 C87.3319109,12.5009204 87.1156859,12.4230158 86.8422208,12.4230158 C86.5560364,12.4230158 86.3207328,12.5136395 86.1363028,12.6948896 C85.9518729,12.8761397 85.8469402,13.1289321 85.8215016,13.4532744 L84.5050599,13.4532744 C84.5432179,12.7664319 84.7658024,12.2369987 85.1728202,11.864959 C85.579838,11.4929193 86.1458386,11.3069022 86.8708391,11.3069022 Z" id="3" fill="#FF8768" fill-rule="nonzero"></path>
                    <polygon id="7" fill="#FF8768" fill-rule="nonzero" points="191.227457 12.5088707 188.766284 18.299306 187.373527 18.299306 189.863319 12.6615016 186.743924 12.6615016 186.743924 11.5072303 191.227457 11.5072303"></polygon>
                    <path d="M287.528025,12.4802524 L287.528025,11.2210473 L289.951041,11.2210473 L289.951041,17.9558864 L288.539205,17.9558864 L288.539205,12.4802524 L287.528025,12.4802524 Z M290.676038,12.4802524 L290.676038,11.2210473 L293.099054,11.2210473 L293.099054,17.9558864 L291.687218,17.9558864 L291.687218,12.4802524 L290.676038,12.4802524 Z" id="11" fill="#FEFEFE" fill-rule="nonzero"></path>
                    <path d="M362.488883,12.4802524 L362.488883,11.2210473 L364.911899,11.2210473 L364.911899,17.9558864 L363.500063,17.9558864 L363.500063,12.4802524 L362.488883,12.4802524 Z M365.894461,16.6012871 L365.894461,15.4851735 L369.118789,11.1447319 L370.559243,11.1447319 L370.559243,15.4374763 L371.436871,15.4374763 L371.436871,16.6012871 L370.559243,16.6012871 L370.559243,17.9558864 L369.204644,17.9558864 L369.204644,16.6012871 L365.894461,16.6012871 Z M369.309577,12.7187382 L367.268139,15.4374763 L369.309577,15.4374763 L369.309577,12.7187382 Z" id="14" fill="#FEFEFE" fill-rule="nonzero"></path>
                </g>
                <path d="M12.896,74.864 C11.888,76.082 10.488,77.328 9.074,78.322 L16.676,78.322 C15.234,77.356 13.89,76.11 12.896,74.864 Z M13.554,82.508 L13.554,84.566 L18.86,84.566 L18.86,85.742 L7.044,85.742 L7.044,84.566 L12.182,84.566 L12.182,82.508 L8.416,82.508 L8.416,81.374 L12.182,81.374 L12.182,79.47 L9.046,79.47 L9.046,78.336 C8.43,78.77 7.814,79.148 7.226,79.456 C7.044,79.12 6.708,78.672 6.414,78.392 C8.08,77.664 9.998,76.278 11.356,74.864 L9.13,74.864 L9.13,73.646 L13.596,73.646 C14.842,75.508 17.18,77.328 19.448,78.224 C19.182,78.49 18.762,79.036 18.566,79.4 C17.964,79.12 17.348,78.77 16.76,78.378 L16.76,79.47 L13.554,79.47 L13.554,81.374 L17.362,81.374 L17.362,82.508 L13.554,82.508 Z M24.704,82.172 L26.02,82.634 C25.194,83.712 23.962,84.86 22.912,85.574 C22.66,85.322 22.128,84.902 21.792,84.706 C22.87,84.09 24.004,83.096 24.704,82.172 Z M32.068,81.234 L28.68,81.486 L28.68,84.636 C28.68,85.308 28.526,85.672 28.008,85.868 C27.504,86.064 26.762,86.078 25.74,86.078 C25.67,85.714 25.46,85.154 25.25,84.804 C26.034,84.846 26.832,84.846 27.07,84.832 C27.294,84.818 27.35,84.762 27.35,84.608 L27.35,81.598 C23.836,81.878 23.262,81.962 22.828,82.13 C22.772,81.878 22.576,81.262 22.436,80.912 C22.926,80.842 23.514,80.632 24.34,80.226 C24.844,80.002 25.866,79.498 27.042,78.812 C24.298,78.994 23.836,79.064 23.514,79.19 C23.458,78.924 23.276,78.294 23.122,77.972 C23.472,77.916 23.808,77.762 24.27,77.51 C24.718,77.3 25.978,76.572 27.042,75.704 C25.544,76.04 23.948,76.334 22.464,76.572 C22.422,76.236 22.226,75.746 22.1,75.466 C25.25,74.948 28.806,74.136 30.85,73.226 L31.802,74.248 C30.668,74.724 29.282,75.158 27.798,75.522 L28.624,76.04 C27.77,76.698 26.86,77.3 25.936,77.804 L28.918,77.664 C29.436,77.314 29.954,76.936 30.444,76.558 L31.438,77.412 C29.73,78.644 27.938,79.68 26.146,80.534 L31.172,80.198 C30.808,79.764 30.402,79.344 30.052,78.98 L31.116,78.448 C32.138,79.4 33.314,80.688 33.902,81.528 L32.796,82.214 C32.614,81.948 32.362,81.598 32.068,81.234 Z M29.702,82.69 L30.752,82.018 C31.83,82.788 33.216,83.908 33.916,84.664 L32.782,85.448 C32.152,84.692 30.794,83.516 29.702,82.69 Z M42.126,78.238 L39.2,78.238 C39.046,78.63 38.878,79.022 38.696,79.386 C39.494,79.974 40.432,80.702 41.076,81.276 C41.538,80.38 41.888,79.372 42.126,78.238 Z M36.764,75.2 L36.764,73.954 L43.89,73.954 L43.89,75.2 L40.138,75.2 C39.998,75.816 39.816,76.446 39.634,77.034 L42.504,77.034 L42.742,76.992 L43.554,77.244 C42.868,82.074 40.796,84.818 37.744,86.204 C37.576,85.868 37.24,85.364 36.96,85.112 C38.304,84.58 39.466,83.698 40.362,82.438 C39.76,81.85 38.864,81.094 38.08,80.492 C37.856,80.814 37.632,81.136 37.394,81.43 C37.24,81.15 36.834,80.562 36.568,80.296 C37.632,79.078 38.374,77.23 38.836,75.2 L36.764,75.2 Z M46.004,74.808 L46.004,82.662 L44.716,82.662 L44.716,74.808 L46.004,74.808 Z M47.586,73.352 L48.888,73.352 L48.888,84.496 C48.888,85.266 48.72,85.616 48.258,85.812 C47.81,86.022 47.096,86.064 45.99,86.05 C45.934,85.714 45.738,85.14 45.57,84.804 C46.312,84.818 47.054,84.818 47.264,84.818 C47.502,84.804 47.586,84.734 47.586,84.51 L47.586,73.352 Z M55.362,78.056 L61.48,78.056 C60.738,77.79 59.786,77.496 58.778,77.188 C57.63,77.538 56.454,77.818 55.362,78.056 Z M61.004,75.494 L55.656,75.494 C56.678,75.732 57.784,76.012 58.848,76.306 C59.674,76.054 60.416,75.788 61.004,75.494 Z M59.744,84.636 L64.322,84.636 L64.322,85.7 L54.06,85.7 L54.06,84.636 L58.456,84.636 L58.456,83.488 L55.348,83.488 L55.348,82.466 L58.456,82.466 L58.456,81.444 L55.824,81.444 C55.418,82.13 54.942,82.76 54.438,83.222 C54.34,82.984 54.018,82.34 53.808,82.074 C53.682,83.516 53.318,85.112 52.352,86.246 C52.156,86.008 51.61,85.546 51.358,85.42 C52.478,84.076 52.604,82.186 52.604,80.772 L52.604,78.056 L54.396,78.056 C54.214,77.86 53.99,77.622 53.822,77.496 C54.886,77.314 56.104,77.048 57.252,76.768 C56.244,76.488 55.236,76.236 54.312,76.04 L55.026,75.494 L52.716,75.494 L52.716,74.472 L57.7,74.472 C57.504,74.15 57.28,73.828 57.056,73.562 L57.966,73.128 C58.316,73.52 58.722,74.052 58.946,74.472 L63.692,74.472 L63.692,75.494 L61.606,75.494 L62.222,75.886 C61.648,76.166 60.976,76.446 60.248,76.712 C61.186,76.978 62.054,77.258 62.74,77.496 L62.096,78.056 L64.126,78.056 L64.126,79.12 L53.864,79.12 L53.864,80.786 C53.864,81.192 53.85,81.626 53.808,82.074 C54.55,81.374 55.208,80.366 55.586,79.302 L56.706,79.624 C56.608,79.89 56.496,80.142 56.37,80.408 L58.456,80.408 L58.456,79.372 L59.744,79.372 L59.744,80.408 L63.37,80.408 L63.37,81.444 L59.744,81.444 L59.744,82.466 L63.006,82.466 L63.006,83.488 L59.744,83.488 L59.744,84.636 Z M75.542,77.37 L75.542,75.088 L70.292,75.088 L70.292,77.37 L75.542,77.37 Z M76.872,73.842 L76.872,78.616 L69.046,78.616 L69.046,73.842 L76.872,73.842 Z M70.852,81.22 L68.304,81.22 L68.304,84.132 L70.852,84.132 L70.852,81.22 Z M67.072,86.106 L67.072,79.974 L72.14,79.974 L72.14,86.008 L70.852,86.008 L70.852,85.378 L68.304,85.378 L68.304,86.106 L67.072,86.106 Z M74.758,84.132 L77.53,84.132 L77.53,81.22 L74.758,81.22 L74.758,84.132 Z M73.512,79.974 L78.832,79.974 L78.832,86.036 L77.53,86.036 L77.53,85.378 L74.758,85.378 L74.758,86.106 L73.512,86.106 L73.512,79.974 Z M84.452,77.776 L84.452,81.332 C84.914,81.122 85.39,80.94 85.852,80.73 L86.16,81.878 C84.704,82.578 83.15,83.292 81.932,83.838 L81.414,82.536 C81.918,82.354 82.548,82.116 83.234,81.822 L83.234,77.776 L81.666,77.776 L81.666,76.544 L83.234,76.544 L83.234,73.436 L84.452,73.436 L84.452,76.544 L85.894,76.544 L85.894,77.776 L84.452,77.776 Z M87.616,82.536 L87.616,81.402 L91.97,81.402 L91.97,82.536 L87.616,82.536 Z M88.26,78.588 L91.648,78.588 L91.648,79.722 L88.26,79.722 L88.26,78.588 Z M88.96,75.424 L94.112,75.424 C94.112,75.424 94.112,75.9 94.098,76.082 C93.944,82.522 93.776,84.664 93.216,85.392 C92.894,85.868 92.516,86.008 91.984,86.078 C91.48,86.134 90.612,86.12 89.828,86.078 C89.814,85.728 89.646,85.168 89.408,84.804 C90.332,84.888 91.158,84.888 91.522,84.888 C91.802,84.888 91.942,84.846 92.11,84.664 C92.53,84.202 92.726,81.962 92.852,76.6 L88.442,76.6 C88.036,77.454 87.588,78.21 87.126,78.826 C86.902,78.63 86.342,78.294 86.048,78.126 C87.042,76.95 87.896,75.088 88.386,73.254 L89.618,73.548 C89.422,74.178 89.198,74.822 88.96,75.424 Z M97.968,85.994 L96.946,85.336 C97.758,84.692 98.29,83.586 98.528,82.494 L99.634,82.858 C99.34,84.034 98.878,85.252 97.968,85.994 Z M100.376,82.998 L101.426,82.858 C101.678,83.67 101.818,84.72 101.818,85.406 L100.67,85.56 C100.712,84.874 100.572,83.81 100.376,82.998 Z M102.49,82.858 L103.484,82.62 C103.82,83.32 104.114,84.258 104.226,84.86 L103.176,85.14 C103.078,84.524 102.784,83.572 102.49,82.858 Z M106.62,79.316 L101.874,79.316 C101.482,79.806 101.048,80.282 100.6,80.73 L106.34,80.73 C106.438,80.31 106.536,79.82 106.62,79.316 Z M105.514,76.824 L103.512,76.824 C103.26,77.3 102.98,77.748 102.686,78.196 L105.234,78.196 C105.332,77.79 105.43,77.314 105.514,76.824 Z M107.53,80.73 L108.972,80.73 C108.972,80.73 108.958,81.08 108.93,81.248 C108.692,84.048 108.44,85.21 108.02,85.644 C107.74,85.938 107.46,86.036 107.054,86.064 C106.69,86.106 106.046,86.106 105.36,86.078 C105.346,85.728 105.22,85.238 105.024,84.916 C105.64,84.986 106.228,84.986 106.48,84.986 C106.704,84.986 106.83,84.958 106.97,84.832 C107.236,84.594 107.446,83.768 107.628,81.85 L99.326,81.85 C98.64,82.382 97.898,82.858 97.1,83.278 C96.946,82.97 96.638,82.452 96.414,82.172 C98.864,80.954 100.726,79.022 102.042,76.824 L97.31,76.824 L97.31,75.662 L99.886,75.662 C99.69,75.102 99.284,74.332 98.906,73.744 L100.012,73.31 C100.474,73.94 100.95,74.794 101.132,75.354 L100.404,75.662 L102.672,75.662 C103.064,74.878 103.386,74.066 103.652,73.24 L104.954,73.604 C104.702,74.304 104.422,74.99 104.114,75.662 L106.914,75.662 C106.76,76.488 106.592,77.454 106.41,78.196 L108.006,78.196 C107.88,79.022 107.698,79.988 107.53,80.73 Z M106.41,84.076 L105.444,84.468 C105.304,83.95 104.898,83.152 104.52,82.564 L105.416,82.256 C105.836,82.816 106.242,83.586 106.41,84.076 Z M117.56,74.626 L117.56,75.718 L111.764,75.718 L111.764,74.626 L114.13,74.626 C113.99,74.276 113.836,73.926 113.682,73.632 L114.9,73.31 C115.124,73.688 115.376,74.206 115.558,74.626 L117.56,74.626 Z M114.102,77.51 L113.038,77.79 C112.982,77.328 112.772,76.614 112.562,76.082 L113.584,75.872 C113.822,76.39 114.032,77.062 114.102,77.51 Z M112.758,81.71 L113.836,82.004 C113.5,83.068 112.954,84.258 112.464,85 C112.254,84.832 111.806,84.51 111.54,84.37 C112.03,83.67 112.492,82.662 112.758,81.71 Z M117.658,81.276 L115.46,81.276 L115.46,85.994 L114.284,85.994 L114.284,81.276 L111.652,81.276 L111.652,80.17 L114.284,80.17 L114.284,78.994 L111.498,78.994 L111.498,77.888 L115.306,77.888 C115.516,77.258 115.768,76.404 115.894,75.816 L117.07,76.054 C116.832,76.67 116.622,77.342 116.398,77.888 L117.812,77.888 L117.812,78.994 L115.46,78.994 L115.46,80.17 L117.658,80.17 L117.658,81.276 Z M117.812,83.656 L116.93,84.174 C116.734,83.614 116.258,82.746 115.88,82.102 L116.734,81.668 C117.126,82.298 117.602,83.124 117.812,83.656 Z M119.38,79.428 L119.38,80.632 L122.432,80.632 L122.432,79.428 L119.38,79.428 Z M119.38,77.188 L119.38,78.392 L122.432,78.392 L122.432,77.188 L119.38,77.188 Z M119.38,74.976 L119.38,76.152 L122.432,76.152 L122.432,74.976 L119.38,74.976 Z M122.544,84.79 L123.118,84.79 C123.37,84.79 123.426,84.594 123.454,83.012 C123.678,83.222 124.196,83.418 124.504,83.502 C124.406,85.434 124.112,85.91 123.272,85.91 L122.334,85.91 C121.326,85.91 121.102,85.546 121.102,84.412 L121.102,81.78 L120.234,81.78 C120.038,83.866 119.492,85.308 117.364,86.134 C117.238,85.84 116.902,85.392 116.636,85.168 C118.456,84.524 118.876,83.432 119.016,81.78 L118.204,81.78 L118.204,73.842 L123.65,73.842 L123.65,81.78 L122.292,81.78 L122.292,84.412 C122.292,84.734 122.32,84.79 122.544,84.79 Z M137.544,81.976 L137.544,84.986 C137.544,85.518 137.432,85.728 137.054,85.868 C136.69,86.008 136.116,86.008 135.276,86.008 C135.22,85.728 135.066,85.42 134.94,85.182 C135.444,85.196 135.948,85.196 136.088,85.182 C136.242,85.182 136.298,85.14 136.298,85 L136.298,84.44 C134.772,84.664 133.288,84.874 132.07,85.042 L131.776,84.174 C132.686,84.104 133.918,83.992 135.22,83.866 C134.422,83.6 133.078,83.348 132,83.208 L132.308,82.662 C133.4,82.76 134.828,83.012 135.626,83.278 L135.346,83.852 L136.298,83.754 L136.298,82.564 L131.58,82.564 L131.58,83.446 C131.58,84.37 131.426,85.504 130.586,86.246 C130.39,86.022 129.844,85.602 129.564,85.434 C130.278,84.846 130.348,84.076 130.348,83.418 L130.348,81.976 L137.544,81.976 Z M130.81,80.478 L130.81,80.968 L133.246,80.968 L133.246,80.478 L130.81,80.478 Z M130.81,79.456 L130.81,79.932 L133.246,79.932 L133.246,79.456 L130.81,79.456 Z M136.956,79.932 L136.956,79.456 L134.422,79.456 L134.422,79.932 L136.956,79.932 Z M136.956,80.968 L136.956,80.478 L134.422,80.478 L134.422,80.968 L136.956,80.968 Z M129.62,81.528 L129.62,78.896 L138.188,78.896 L138.188,81.528 L129.62,81.528 Z M133.876,77.678 L136.97,77.678 C137.446,77.678 138.342,77.636 138.636,77.566 C138.678,77.902 138.706,78.14 138.762,78.378 C138.44,78.462 137.74,78.49 137.096,78.49 L133.638,78.49 C132.476,78.49 132.168,78.112 132.126,77.37 L129.578,77.468 L129.55,76.838 L132.126,76.74 L132.126,76.194 L128.92,76.194 L128.92,78.91 C128.92,80.968 128.724,83.978 127.576,85.966 C127.324,85.742 126.778,85.42 126.47,85.294 C127.562,83.432 127.646,80.786 127.646,78.896 L127.646,75.298 L132.112,75.298 L132.112,73.24 L133.414,73.24 L133.414,73.926 L137.964,73.926 L137.964,74.78 L133.414,74.78 L133.414,75.298 L137.782,75.298 L138.006,75.242 L138.958,75.508 C138.72,76.18 138.398,76.922 138.104,77.398 L137.012,77.034 C137.124,76.81 137.25,76.502 137.362,76.194 L133.288,76.194 L133.288,76.698 L136.494,76.572 L136.522,77.202 L133.288,77.328 C133.316,77.58 133.428,77.678 133.876,77.678 Z M143.304,83.516 L145.908,83.516 L145.908,80.422 L143.304,80.422 L143.304,83.516 Z M145.908,76.628 L143.304,76.628 L143.304,79.288 L145.908,79.288 L145.908,76.628 Z M149.87,75.424 L153.93,75.424 C153.93,75.424 153.93,75.872 153.916,76.04 C153.72,82.354 153.552,84.524 152.992,85.224 C152.642,85.686 152.306,85.812 151.774,85.882 C151.284,85.938 150.458,85.924 149.66,85.882 C149.632,85.532 149.478,84.986 149.24,84.622 C150.136,84.692 150.948,84.706 151.298,84.706 C151.578,84.706 151.732,84.664 151.886,84.468 C152.334,84.006 152.516,81.892 152.698,76.614 L149.394,76.614 C149.002,77.51 148.568,78.322 148.12,78.966 C147.91,78.77 147.42,78.42 147.098,78.238 L147.098,84.664 L143.304,84.664 L143.304,85.728 L142.114,85.728 L142.114,75.494 L143.682,75.494 C143.878,74.822 144.088,73.898 144.172,73.226 L145.586,73.464 C145.348,74.164 145.082,74.906 144.858,75.494 L147.098,75.494 L147.098,78.14 C148.022,76.936 148.764,75.074 149.184,73.226 L150.444,73.52 C150.276,74.164 150.094,74.808 149.87,75.424 Z M151.662,81.738 L150.57,82.424 C150.178,81.57 149.268,80.198 148.526,79.19 L149.548,78.616 C150.29,79.582 151.242,80.912 151.662,81.738 Z M166.13,76.74 L165.276,76.81 C165.094,78.308 164.618,79.33 162.994,79.946 C162.868,79.666 162.56,79.246 162.322,79.036 C163.582,78.63 163.988,77.944 164.128,76.922 C163.344,76.992 163.092,77.048 162.896,77.118 C162.84,76.866 162.658,76.292 162.504,75.984 C162.742,75.942 162.994,75.746 163.274,75.466 C163.554,75.214 164.478,74.192 165.08,73.17 L166.34,73.548 C165.752,74.374 165.066,75.186 164.394,75.83 L167.292,75.648 C167.012,75.312 166.746,74.962 166.494,74.668 L167.432,74.164 C168.076,74.92 168.958,75.97 169.392,76.572 L168.398,77.174 C168.3,77.006 168.174,76.81 168.02,76.6 L167.236,76.656 L167.236,77.986 C167.236,78.294 167.278,78.392 167.474,78.392 L168.468,78.392 C168.678,78.392 168.986,78.378 169.182,78.336 C169.21,78.616 169.238,79.078 169.28,79.33 C169.098,79.4 168.79,79.414 168.496,79.414 L167.432,79.414 C166.368,79.414 166.13,79.022 166.13,77.972 L166.13,76.74 Z M158.304,82.914 L158.304,81.892 L160.726,81.892 L160.726,82.914 L158.304,82.914 Z M167.18,81.374 L165.192,81.374 C165.052,81.598 164.912,81.822 164.758,82.032 C165.052,82.438 165.416,82.844 165.822,83.208 C166.382,82.69 166.858,82.088 167.18,81.374 Z M157.814,84.09 L161.244,84.09 L161.244,80.548 L160.586,80.548 C160.012,80.548 159.844,80.394 159.844,79.666 L159.844,77.636 L159.186,77.636 L159.186,78.658 C159.186,79.456 159.018,80.492 158.248,81.206 C158.15,81.108 157.968,80.912 157.814,80.814 L157.814,84.09 Z M158.528,77.636 L157.814,77.636 L157.814,80.702 C158.43,80.072 158.528,79.302 158.528,78.658 L158.528,77.636 Z M159.172,74.92 L159.172,76.544 L159.872,76.544 L159.872,74.92 L159.172,74.92 Z M161.244,79.834 L161.244,77.636 L160.502,77.636 L160.502,79.666 C160.502,79.834 160.516,79.862 160.67,79.862 L161.048,79.862 C161.174,79.862 161.216,79.848 161.244,79.834 Z M167.978,80.296 L168.776,80.618 C168.342,81.976 167.656,83.054 166.774,83.908 C167.516,84.37 168.412,84.748 169.462,84.986 C169.196,85.238 168.86,85.742 168.706,86.078 C167.558,85.756 166.62,85.28 165.822,84.678 C164.954,85.308 163.974,85.742 162.91,86.078 C162.77,85.784 162.504,85.35 162.266,85.084 L162.266,85.882 L161.244,85.882 L161.244,85.112 L157.814,85.112 L157.814,86.078 L156.834,86.078 L156.834,76.544 L158.29,76.544 L158.29,74.92 L156.61,74.92 L156.61,73.828 L162.378,73.828 L162.378,74.92 L160.782,74.92 L160.782,76.544 L162.266,76.544 L162.266,85.042 C163.218,84.804 164.114,84.426 164.898,83.908 C164.576,83.572 164.282,83.222 164.016,82.872 C163.792,83.11 163.54,83.32 163.288,83.516 C163.134,83.292 162.7,82.872 162.462,82.676 C162.798,82.452 163.12,82.172 163.4,81.864 C163.204,81.486 163.022,81.094 162.882,80.688 L163.806,80.212 C163.89,80.464 163.988,80.716 164.114,80.968 C164.464,80.436 164.744,79.834 164.94,79.204 L166.06,79.414 C165.976,79.736 165.85,80.044 165.724,80.352 L167.768,80.352 L167.978,80.296 Z M172.296,79.848 L171.316,79.512 C171.652,78.574 171.918,77.034 172.016,75.9 L172.954,76.04 C172.884,77.188 172.632,78.812 172.296,79.848 Z M180.822,84.398 L184.21,84.398 L184.21,85.63 L175.628,85.63 L175.628,84.398 L179.52,84.398 L179.52,81.22 L176.678,81.22 L176.678,80.002 L179.52,80.002 L179.52,77.37 L177.7,77.37 C177.434,78.154 177.126,78.868 176.804,79.442 C176.538,79.26 175.964,78.966 175.642,78.84 C175.824,78.56 176.006,78.238 176.16,77.874 L175.376,78.252 C175.25,77.692 174.886,76.796 174.536,76.054 L174.536,86.092 L173.234,86.092 L173.234,73.254 L174.536,73.254 L174.536,75.844 L175.362,75.508 C175.712,76.166 176.104,77.02 176.272,77.608 C176.706,76.516 177.014,75.2 177.196,73.884 L178.47,74.094 C178.372,74.794 178.218,75.48 178.05,76.138 L179.52,76.138 L179.52,73.31 L180.822,73.31 L180.822,76.138 L183.846,76.138 L183.846,77.37 L180.822,77.37 L180.822,80.002 L183.538,80.002 L183.538,81.22 L180.822,81.22 L180.822,84.398 Z M187.128,88.122 L187.128,77.3 L188.444,77.3 L188.57,78.14 L188.612,78.14 C189.284,77.58 190.124,77.104 190.978,77.104 C192.938,77.104 194.03,78.658 194.03,81.024 C194.03,83.67 192.448,85.182 190.712,85.182 C190.026,85.182 189.34,84.874 188.682,84.314 L188.724,85.63 L188.724,88.122 L187.128,88.122 Z M190.404,83.852 C191.524,83.852 192.364,82.858 192.364,81.052 C192.364,79.442 191.846,78.448 190.558,78.448 C189.956,78.448 189.382,78.756 188.724,79.386 L188.724,83.152 C189.326,83.67 189.928,83.852 190.404,83.852 Z M197.088,85 L197.088,74.696 L198.712,74.696 L198.712,78.896 L203.122,78.896 L203.122,74.696 L204.746,74.696 L204.746,85 L203.122,85 L203.122,80.31 L198.712,80.31 L198.712,85 L197.088,85 Z M210.66,73.296 L211.864,73.66 C211.472,74.71 210.982,75.774 210.45,76.754 L210.45,86.106 L209.246,86.106 L209.246,78.714 C208.91,79.19 208.574,79.61 208.224,80.002 C208.126,79.68 207.762,78.994 207.538,78.672 C208.784,77.37 209.96,75.34 210.66,73.296 Z M213.6,83.656 L213.6,84.664 L218.122,84.664 L218.122,83.656 L213.6,83.656 Z M218.122,77.874 L213.6,77.874 L213.6,78.868 L218.122,78.868 L218.122,77.874 Z M218.122,81.71 L213.6,81.71 L213.6,82.732 L218.122,82.732 L218.122,81.71 Z M218.122,80.8 L218.122,79.806 L213.6,79.806 L213.6,80.8 L218.122,80.8 Z M219.326,84.664 L220.474,84.664 L220.474,85.77 L211.15,85.77 L211.15,84.664 L212.438,84.664 L212.438,76.894 L214.832,76.894 C214.902,76.558 214.986,76.152 215.056,75.746 L211.766,75.746 L211.766,74.626 L215.224,74.626 C215.294,74.15 215.35,73.688 215.378,73.282 L216.75,73.338 C216.68,73.744 216.596,74.192 216.512,74.626 L220.11,74.626 L220.11,75.746 L216.288,75.746 C216.204,76.152 216.106,76.558 216.008,76.894 L219.326,76.894 L219.326,84.664 Z" id="全系列產品均為親膚的酸性pH值" fill="#FF7679" fill-rule="nonzero"></path>
                <path d="M8.82,6.848 L7.956,6.92 C7.812,8.228 7.368,9.092 6.012,9.608 C5.928,9.416 5.7,9.128 5.544,8.984 C6.672,8.624 7.032,7.976 7.164,6.992 C6.336,7.076 6.132,7.124 5.964,7.184 C5.916,7.004 5.784,6.584 5.688,6.368 C5.892,6.332 6.096,6.176 6.336,5.936 C6.588,5.708 7.44,4.796 7.992,3.896 L8.832,4.172 C8.292,4.94 7.668,5.672 7.056,6.248 L9.936,6.056 C9.684,5.744 9.408,5.42 9.168,5.156 L9.792,4.796 C10.38,5.432 11.148,6.32 11.544,6.836 L10.872,7.268 C10.764,7.112 10.62,6.92 10.476,6.716 L9.6,6.788 L9.6,8.084 C9.6,8.372 9.636,8.444 9.804,8.444 L10.764,8.444 C10.932,8.444 11.196,8.444 11.352,8.396 C11.376,8.6 11.388,8.912 11.424,9.092 C11.28,9.152 11.028,9.152 10.788,9.152 L9.78,9.152 C9,9.152 8.82,8.876 8.82,8.072 L8.82,6.848 Z M1.992,12.104 L1.992,11.396 L4.2,11.396 L4.2,12.104 L1.992,12.104 Z M4.692,9.572 L4.692,7.544 L3.912,7.544 L3.912,9.416 C3.912,9.572 3.924,9.584 4.068,9.584 L4.512,9.584 C4.62,9.584 4.668,9.584 4.692,9.572 Z M1.512,13.304 L4.692,13.304 L4.692,10.112 L4.02,10.112 C3.552,10.112 3.408,9.992 3.408,9.428 L3.408,7.544 L2.736,7.544 L2.736,8.444 C2.736,9.164 2.568,10.064 1.824,10.724 C1.752,10.64 1.632,10.508 1.512,10.424 L1.512,13.304 Z M2.244,7.544 L1.512,7.544 L1.512,10.328 C2.136,9.752 2.244,9.032 2.244,8.444 L2.244,7.544 Z M2.724,5.24 L2.724,6.776 L3.432,6.776 L3.432,5.24 L2.724,5.24 Z M4.08,5.24 L4.08,6.776 L5.4,6.776 L5.4,14.72 L4.692,14.72 L4.692,14.036 L1.512,14.036 L1.512,14.888 L0.816,14.888 L0.816,6.776 L2.088,6.776 L2.088,5.24 L0.6,5.24 L0.6,4.472 L5.532,4.472 L5.532,5.24 L4.08,5.24 Z M9.828,10.832 L7.872,10.832 C7.728,11.048 7.584,11.24 7.44,11.444 C7.728,11.852 8.076,12.248 8.508,12.62 C9.06,12.128 9.516,11.528 9.828,10.832 Z M10.38,10.076 L10.92,10.304 C10.548,11.468 9.924,12.392 9.156,13.112 C9.816,13.556 10.62,13.928 11.568,14.156 C11.4,14.324 11.16,14.672 11.052,14.9 C10.044,14.6 9.216,14.168 8.508,13.64 C7.74,14.204 6.852,14.612 5.916,14.9 C5.82,14.684 5.628,14.372 5.46,14.204 C6.312,13.976 7.152,13.616 7.872,13.112 C7.512,12.776 7.2,12.404 6.924,12.032 C6.708,12.248 6.48,12.464 6.24,12.656 C6.132,12.5 5.82,12.212 5.652,12.068 C5.952,11.852 6.24,11.612 6.504,11.336 C6.324,11.024 6.18,10.688 6.06,10.376 L6.696,9.992 C6.78,10.232 6.876,10.472 6.996,10.712 C7.368,10.208 7.656,9.644 7.848,9.032 L8.628,9.188 C8.532,9.512 8.412,9.812 8.256,10.112 L10.224,10.112 L10.38,10.076 Z M13.068,9.536 L12.372,9.296 C12.696,8.504 12.912,7.196 12.996,6.224 L13.668,6.32 C13.608,7.304 13.38,8.66 13.068,9.536 Z M14.1,14.912 L14.1,3.956 L14.988,3.956 L14.988,14.912 L14.1,14.912 Z M15.072,6.164 L15.696,5.876 C16.056,6.524 16.428,7.376 16.572,7.88 L15.9,8.204 C15.768,7.688 15.408,6.824 15.072,6.164 Z M20.34,13.652 L23.34,13.652 L23.34,14.504 L16.02,14.504 L16.02,13.652 L19.452,13.652 L19.452,10.652 L16.908,10.652 L16.908,9.824 L19.452,9.824 L19.452,7.34 L17.7,7.34 C17.46,8.06 17.184,8.684 16.86,9.2 C16.68,9.08 16.284,8.888 16.068,8.792 C16.764,7.748 17.244,6.14 17.52,4.508 L18.384,4.652 C18.264,5.276 18.12,5.9 17.952,6.488 L19.452,6.488 L19.452,4.004 L20.34,4.004 L20.34,6.488 L23.052,6.488 L23.052,7.34 L20.34,7.34 L20.34,9.824 L22.788,9.824 L22.788,10.652 L20.34,10.652 L20.34,13.652 Z" id="酸性" fill="#FF7679" fill-rule="nonzero"></path>
                <path d="M184.432,10.148 L187.876,10.148 L187.876,6.968 L184.432,6.968 L184.432,10.148 Z M180.076,10.148 L183.508,10.148 L183.508,6.968 L180.076,6.968 L180.076,10.148 Z M184.432,6.092 L188.788,6.092 L188.788,11.708 L187.876,11.708 L187.876,11.024 L184.432,11.024 L184.432,14.912 L183.508,14.912 L183.508,11.024 L180.076,11.024 L180.076,11.768 L179.2,11.768 L179.2,6.092 L183.508,6.092 L183.508,3.956 L184.432,3.956 L184.432,6.092 Z M191.068,9.536 L190.372,9.296 C190.696,8.504 190.912,7.196 190.996,6.224 L191.668,6.32 C191.608,7.304 191.38,8.66 191.068,9.536 Z M192.1,14.912 L192.1,3.956 L192.988,3.956 L192.988,14.912 L192.1,14.912 Z M193.072,6.164 L193.696,5.876 C194.056,6.524 194.428,7.376 194.572,7.88 L193.9,8.204 C193.768,7.688 193.408,6.824 193.072,6.164 Z M198.34,13.652 L201.34,13.652 L201.34,14.504 L194.02,14.504 L194.02,13.652 L197.452,13.652 L197.452,10.652 L194.908,10.652 L194.908,9.824 L197.452,9.824 L197.452,7.34 L195.7,7.34 C195.46,8.06 195.184,8.684 194.86,9.2 C194.68,9.08 194.284,8.888 194.068,8.792 C194.764,7.748 195.244,6.14 195.52,4.508 L196.384,4.652 C196.264,5.276 196.12,5.9 195.952,6.488 L197.452,6.488 L197.452,4.004 L198.34,4.004 L198.34,6.488 L201.052,6.488 L201.052,7.34 L198.34,7.34 L198.34,9.824 L200.788,9.824 L200.788,10.652 L198.34,10.652 L198.34,13.652 Z" id="中性" fill="#FF7679" fill-rule="nonzero"></path>
                <path d="M362.912,6.644 L366.08,6.644 C365.456,6.176 364.856,5.636 364.376,5.096 C363.956,5.66 363.464,6.176 362.912,6.644 Z M362.636,7.352 L362.636,6.872 C362.36,7.076 362.096,7.28 361.808,7.46 C361.688,7.292 361.4,7.028 361.22,6.908 C362.504,6.128 363.608,4.964 364.196,3.86 L365.012,4.112 C364.952,4.244 364.88,4.376 364.796,4.496 C365.492,5.312 366.668,6.176 367.64,6.668 C367.484,6.86 367.304,7.208 367.232,7.436 C366.908,7.232 366.548,7.004 366.212,6.752 L366.212,7.352 L362.636,7.352 Z M365.312,8.912 L365.312,10.436 L366.464,10.436 L366.464,8.912 L365.312,8.912 Z M364.664,11.06 L364.664,8.3 L367.124,8.3 L367.124,11.06 L364.664,11.06 Z M362.36,8.912 L362.36,10.436 L363.44,10.436 L363.44,8.912 L362.36,8.912 Z M361.736,11.06 L361.736,8.3 L364.1,8.3 L364.1,11.06 L361.736,11.06 Z M358.436,8.108 L358.832,7.892 C359.084,8.204 359.36,8.636 359.504,8.924 L359.072,9.164 C358.964,8.876 358.688,8.432 358.436,8.108 Z M358.628,11.864 L359,11.648 C359.276,11.996 359.552,12.464 359.672,12.788 L359.276,13.028 C359.156,12.704 358.904,12.224 358.628,11.864 Z M357.548,13.196 L360.512,13.196 L360.512,10.856 L360.272,11.06 C360.152,10.784 359.9,10.4 359.648,10.124 L359.972,9.86 C360.176,10.076 360.368,10.34 360.512,10.58 L360.512,7.688 L357.548,7.688 L357.548,8.708 L357.86,8.384 C358.328,8.816 358.832,9.368 359.156,9.824 C359.456,9.272 359.696,8.708 359.912,8.132 L360.428,8.276 C360.152,9.032 359.804,9.764 359.42,10.448 C359.852,11.024 360.284,11.744 360.476,12.212 L360.044,12.572 C359.876,12.116 359.516,11.468 359.12,10.928 C358.748,11.528 358.352,12.08 357.932,12.524 C357.836,12.452 357.68,12.32 357.548,12.224 L357.548,13.196 Z M357.548,10.004 L357.824,9.812 C358.088,10.088 358.364,10.436 358.496,10.676 L358.124,10.952 C358.004,10.724 357.776,10.388 357.548,10.136 L357.548,12.104 C358.028,11.612 358.472,11.012 358.868,10.34 C358.556,9.872 358.028,9.236 357.548,8.78 L357.548,10.004 Z M361.184,6.956 L361.184,13.928 L357.548,13.928 L357.548,14.72 L356.9,14.72 L356.9,6.956 L358.64,6.956 L358.64,3.956 L359.432,3.956 L359.432,5.12 L361.508,5.12 L361.508,5.852 L359.432,5.852 L359.432,6.956 L361.184,6.956 Z M362.6,11.42 L363.368,11.552 C363.296,11.888 363.2,12.224 363.104,12.536 C363.584,12.848 364.136,13.256 364.412,13.568 L363.944,14.156 C363.716,13.892 363.26,13.52 362.828,13.196 C362.528,13.88 362.132,14.48 361.664,14.924 C361.532,14.804 361.232,14.528 361.064,14.408 C361.832,13.712 362.348,12.644 362.6,11.42 Z M365.576,11.36 L366.38,11.492 C366.296,11.948 366.176,12.392 366.02,12.8 C366.584,13.196 367.232,13.724 367.556,14.108 L367.004,14.708 C366.74,14.36 366.212,13.904 365.708,13.496 C365.42,14.06 365.06,14.528 364.664,14.9 C364.52,14.78 364.196,14.516 363.992,14.384 C364.82,13.7 365.336,12.632 365.576,11.36 Z M369.068,9.536 L368.372,9.296 C368.696,8.504 368.912,7.196 368.996,6.224 L369.668,6.32 C369.608,7.304 369.38,8.66 369.068,9.536 Z M370.1,14.912 L370.1,3.956 L370.988,3.956 L370.988,14.912 L370.1,14.912 Z M371.072,6.164 L371.696,5.876 C372.056,6.524 372.428,7.376 372.572,7.88 L371.9,8.204 C371.768,7.688 371.408,6.824 371.072,6.164 Z M376.34,13.652 L379.34,13.652 L379.34,14.504 L372.02,14.504 L372.02,13.652 L375.452,13.652 L375.452,10.652 L372.908,10.652 L372.908,9.824 L375.452,9.824 L375.452,7.34 L373.7,7.34 C373.46,8.06 373.184,8.684 372.86,9.2 C372.68,9.08 372.284,8.888 372.068,8.792 C372.764,7.748 373.244,6.14 373.52,4.508 L374.384,4.652 C374.264,5.276 374.12,5.9 373.952,6.488 L375.452,6.488 L375.452,4.004 L376.34,4.004 L376.34,6.488 L379.052,6.488 L379.052,7.34 L376.34,7.34 L376.34,9.824 L378.788,9.824 L378.788,10.652 L376.34,10.652 L376.34,13.652 Z" id="鹼性" fill="#FF7679" fill-rule="nonzero"></path>
                <path d="M62.3140244,53.1282051 L164.685976,53.1282051 L62.3140244,53.1282051 Z M62.1570122,63 L62.1570122,53 L62.1570122,63 Z M164.842988,63 L164.842988,53 L164.842988,63 Z" id="Combined-Shape" stroke="#FF7679" stroke-width="0.858548896" stroke-linecap="square" transform="translate(113.500000, 58.000000) scale(1, -1) translate(-113.500000, -58.000000) "></path>
            </g>
        </g>
    </g>
</svg>