<?xml version="1.0" encoding="UTF-8"?>
<svg width="1320px" height="339px" viewBox="0 0 1320 339" version="1.1" xmlns="http://www.w3.org/2000/svg" xmlns:xlink="http://www.w3.org/1999/xlink">
    <!-- Generator: Sketch 55.2 (78181) - https://sketchapp.com -->
    <title>ph</title>
    <desc>Created with Sketch.</desc>
    <g id="Drunk-Elephant_1920" stroke="none" stroke-width="1" fill="none" fill-rule="evenodd">
        <g id="Drunkelephant_獨特之處_out" transform="translate(-307.000000, -1237.000000)">
            <g id="ph" transform="translate(307.000000, 1237.000000)">
                <g id="Group-16" transform="translate(0.000000, 141.000000)">
                    <polygon id="Fill-1" fill="#F7F81A" points="0 100.863677 75.5476943 100.863677 75.5476943 0 0 0"></polygon>
                    <polygon id="Fill-2" fill="#F4F340" points="89.1 100.863677 164.642691 100.863677 164.642691 0 89.1 0"></polygon>
                    <polygon id="Fill-3" fill="#F6F471" points="178.2 100.863677 253.742691 100.863677 253.742691 0 178.2 0"></polygon>
                    <polygon id="Fill-4" fill="#F0EF99" points="266.2 100.863677 341.742691 100.863677 341.742691 0 266.2 0"></polygon>
                    <polygon id="Fill-5" fill="#F4F3B5" points="355.3 100.863677 430.847694 100.863677 430.847694 0 355.3 0"></polygon>
                    <polygon id="Fill-6" fill="#F8F7D0" points="444.385546 100.863677 519.933241 100.863677 519.933241 0 444.385546 0"></polygon>
                    <polygon id="Fill-7" fill="#FBFBE8" points="533.261655 100.863677 608.809349 100.863677 608.809349 0 533.261655 0"></polygon>
                    <polygon id="Fill-8" fill="#FEFEFE" points="622.6 100.863677 698.152697 100.863677 698.152697 0 622.6 0"></polygon>
                    <polygon id="Fill-9" fill="#FFEAE8" points="710.6 100.863677 786.142691 100.863677 786.142691 0 710.6 0"></polygon>
                    <polygon id="Fill-10" fill="#FFD5CF" points="799.7 100.863677 875.247694 100.863677 875.247694 0 799.7 0"></polygon>
                    <polygon id="Fill-11" fill="#FFC1B7" points="888.8 100.863677 964.347694 100.863677 964.347694 0 888.8 0"></polygon>
                    <polygon id="Fill-12" fill="#FFAE9F" points="977.9 100.863677 1053.44769 100.863677 1053.44769 0 977.9 0"></polygon>
                    <polygon id="Fill-13" fill="#FF9D87" points="1067 100.863677 1142.54269 100.863677 1142.54269 0 1067 0"></polygon>
                    <polygon id="Fill-14" fill="#FF8E72" points="1155 100.863677 1230.54769 100.863677 1230.54769 0 1155 0"></polygon>
                    <polygon id="Fill-15" fill="#FF8768" points="1244.1 100.863677 1319.64269 100.863677 1319.64269 0 1244.1 0"></polygon>
                    <path d="M28.623,52.153 C28.623,44.2769606 31.5929703,40.339 37.533,40.339 C40.6790157,40.339 42.9449931,41.3949894 44.331,43.507 C45.7170069,45.6190106 46.41,48.5009817 46.41,52.153 C46.41,55.8270184 45.7170069,58.7199894 44.331,60.832 C42.9449931,62.9440106 40.6790157,64 37.533,64 C31.5929703,64 28.623,60.0510395 28.623,52.153 Z M41.823,52.153 C41.823,49.7769881 41.5315029,47.9455064 40.9485,46.6585 C40.3654971,45.3714936 39.2270085,44.728 37.533,44.728 C35.8169914,44.728 34.6675029,45.3714936 34.0845,46.6585 C33.5014971,47.9455064 33.21,49.7769881 33.21,52.153 C33.21,54.551012 33.5014971,56.3934936 34.0845,57.6805 C34.6675029,58.9675064 35.8169914,59.611 37.533,59.611 C39.2270085,59.611 40.3654971,58.9675064 40.9485,57.6805 C41.5315029,56.3934936 41.823,54.551012 41.823,52.153 Z" id="0" fill="#FF8768" fill-rule="nonzero"></path>
                    <path d="M383.029,59.314 L383.029,55.453 L394.183,40.438 L399.166,40.438 L399.166,55.288 L402.202,55.288 L402.202,59.314 L399.166,59.314 L399.166,64 L394.48,64 L394.48,59.314 L383.029,59.314 Z M394.843,45.883 L387.781,55.288 L394.843,55.288 L394.843,45.883 Z" id="4" fill="#FF8768" fill-rule="nonzero"></path>
                    <path d="M741.444,44.815 C741.444,43.6929944 741.757497,42.6480048 742.3845,41.68 C743.011503,40.7119952 743.946494,39.931003 745.1895,39.337 C746.432506,38.742997 747.933991,38.446 749.694,38.446 C751.454009,38.446 752.955494,38.742997 754.1985,39.337 C755.441506,39.931003 756.376497,40.7119952 757.0035,41.68 C757.630503,42.6480048 757.944,43.6929944 757.944,44.815 C757.944,46.0910064 757.636003,47.1744955 757.02,48.0655 C756.403997,48.9565045 755.480006,49.6219978 754.248,50.062 C755.634007,50.5900026 756.695496,51.354495 757.4325,52.3555 C758.169504,53.356505 758.538,54.5719929 758.538,56.002 C758.538,57.5420077 758.153004,58.8674944 757.383,59.9785 C756.612996,61.0895056 755.562507,61.9309971 754.2315,62.503 C752.900493,63.0750029 751.388008,63.361 749.694,63.361 C747.999992,63.361 746.487507,63.0750029 745.1565,62.503 C743.825493,61.9309971 742.780504,61.0895056 742.0215,59.9785 C741.262496,58.8674944 740.883,57.5420077 740.883,56.002 C740.883,54.5719929 741.251496,53.356505 741.9885,52.3555 C742.725504,51.354495 743.786993,50.5900026 745.173,50.062 C743.940994,49.6219978 743.011503,48.9510045 742.3845,48.049 C741.757497,47.1469955 741.444,46.0690063 741.444,44.815 Z M746.031,45.574 C746.031,46.6300053 746.360997,47.4439971 747.021,48.016 C747.681003,48.5880029 748.571994,48.874 749.694,48.874 C750.838006,48.874 751.739997,48.5880029 752.4,48.016 C753.060003,47.4439971 753.39,46.6300053 753.39,45.574 C753.39,44.5179947 753.054503,43.6985029 752.3835,43.1155 C751.712497,42.5324971 750.816006,42.241 749.694,42.241 C748.593995,42.241 747.708503,42.5324971 747.0375,43.1155 C746.366497,43.6985029 746.031,44.5179947 746.031,45.574 Z M745.404,55.738 C745.404,56.9040058 745.788996,57.8279966 746.559,58.51 C747.329004,59.1920034 748.373993,59.533 749.694,59.533 C751.014007,59.533 752.064496,59.1920034 752.8455,58.51 C753.626504,57.8279966 754.017,56.9040058 754.017,55.738 C754.017,54.5499941 753.615504,53.6425031 752.8125,53.0155 C752.009496,52.3884969 750.970006,52.075 749.694,52.075 C748.439994,52.075 747.411504,52.3884969 746.6085,53.0155 C745.805496,53.6425031 745.404,54.5499941 745.404,55.738 Z" id="8" fill="#FF8768" fill-rule="nonzero"></path>
                    <path d="M207.382,60.337 C214.840037,55.1669742 218.569,50.877017 218.569,47.467 C218.569,46.4329948 218.321502,45.619003 217.8265,45.025 C217.331498,44.430997 216.556005,44.134 215.5,44.134 C213.321989,44.134 212.167001,45.6189852 212.035,48.589 L207.514,48.589 C207.646001,45.8389862 208.481992,43.7545071 210.022,42.3355 C211.562008,40.9164929 213.508988,40.207 215.863,40.207 C218.261012,40.207 220.103494,40.8284938 221.3905,42.0715 C222.677506,43.3145062 223.321,44.9699897 223.321,47.038 C223.321,48.6660081 222.842505,50.2994918 221.8855,51.9385 C220.928495,53.5775082 219.713007,55.0844931 218.239,56.4595 C216.764993,57.8345069 215.214008,59.016995 213.586,60.007 L223.783,60.007 L223.783,63.802 L207.382,63.802 L207.382,60.337 Z" id="2" fill="#FF8768" fill-rule="nonzero"></path>
                    <path d="M575.893,47.038 C575.540998,44.7499886 574.37501,43.606 572.395,43.606 C570.854992,43.606 569.733004,44.2824932 569.029,45.6355 C568.324996,46.9885068 568.017,49.1059856 568.105,51.988 C568.457002,50.9319947 569.144495,50.0905031 570.1675,49.4635 C571.190505,48.8364969 572.383993,48.523 573.748,48.523 C575.992011,48.523 577.757494,49.1994932 579.0445,50.5525 C580.331506,51.9055068 580.975,53.8249876 580.975,56.311 C580.975,57.8510077 580.667003,59.2149941 580.051,60.403 C579.434997,61.5910059 578.516506,62.5259966 577.2955,63.208 C576.074494,63.8900034 574.595009,64.231 572.857,64.231 C569.468983,64.231 567.137006,63.1805105 565.861,61.0795 C564.584994,58.9784895 563.947,56.0800185 563.947,52.384 C563.947,48.1379788 564.634493,44.9920102 566.0095,42.946 C567.384507,40.8999898 569.611985,39.877 572.692,39.877 C575.046012,39.877 576.849994,40.5479933 578.104,41.89 C579.358006,43.2320067 580.072999,44.9479895 580.249,47.038 L575.893,47.038 Z M568.501,55.981 C568.501,57.2130062 568.858496,58.230496 569.5735,59.0335 C570.288504,59.836504 571.338993,60.238 572.725,60.238 C573.913006,60.238 574.858996,59.8860035 575.563,59.182 C576.267004,58.4779965 576.619,57.4990063 576.619,56.245 C576.619,54.9249934 576.261504,53.9130035 575.5465,53.209 C574.831496,52.5049965 573.869006,52.153 572.659,52.153 C571.514994,52.153 570.536004,52.4829967 569.722,53.143 C568.907996,53.8030033 568.501,54.7489938 568.501,55.981 Z" id="6" fill="#FF8768" fill-rule="nonzero"></path>
                    <path d="M909.77463,43.5973089 L909.77463,38.9743904 L918.670246,38.9743904 L918.670246,63.7 L913.486974,63.7 L913.486974,43.5973089 L909.77463,43.5973089 Z M922.557701,51.1270625 C922.557701,42.7684105 925.709659,38.5891472 932.01367,38.5891472 C935.352461,38.5891472 937.757289,39.7098435 939.228225,41.9512697 C940.699161,44.192696 941.434618,47.251263 941.434618,51.1270625 C941.434618,55.0262103 940.699161,58.0964512 939.228225,60.3378774 C937.757289,62.5793037 935.352461,63.7 932.01367,63.7 C925.709659,63.7 922.557701,59.5090628 922.557701,51.1270625 Z M936.566545,51.1270625 C936.566545,48.605458 936.257186,46.6617504 935.638459,45.2958812 C935.019732,43.9300121 933.811481,43.2470878 932.01367,43.2470878 C930.192511,43.2470878 928.972587,43.9300121 928.35386,45.2958812 C927.735133,46.6617504 927.425774,48.605458 927.425774,51.1270625 C927.425774,53.6720153 927.735133,55.6273968 928.35386,56.993266 C928.972587,58.3591351 930.192511,59.0420594 932.01367,59.0420594 C933.811481,59.0420594 935.019732,58.3591351 935.638459,56.993266 C936.257186,55.6273968 936.566545,53.6720153 936.566545,51.1270625 Z" id="10" fill="#FEFEFE" fill-rule="nonzero"></path>
                    <path d="M1177.4675,43.858 L1177.4675,39.502 L1185.8495,39.502 L1185.8495,62.8 L1180.9655,62.8 L1180.9655,43.858 L1177.4675,43.858 Z M1197.8945,38.611 C1199.47851,38.611 1200.83699,38.8859973 1201.97,39.436 C1203.10301,39.9860028 1203.961,40.7449952 1204.544,41.713 C1205.127,42.6810048 1205.4185,43.7589941 1205.4185,44.947 C1205.4185,46.4430075 1205.0115,47.6694952 1204.1975,48.6265 C1203.3835,49.5835048 1202.30551,50.1719989 1200.9635,50.392 L1200.9635,50.557 C1204.21952,51.5250048 1205.8475,53.4389857 1205.8475,56.299 C1205.8475,58.30101 1205.17651,59.9234938 1203.8345,61.1665 C1202.49249,62.4095062 1200.60051,63.031 1198.1585,63.031 C1195.56249,63.031 1193.49451,62.3875064 1191.9545,61.1005 C1190.41449,59.8134936 1189.5565,57.872013 1189.3805,55.276 L1193.9345,55.276 C1194.0445,56.4640059 1194.435,57.4044965 1195.106,58.0975 C1195.777,58.7905035 1196.72849,59.137 1197.9605,59.137 C1199.01651,59.137 1199.8415,58.8455029 1200.4355,58.2625 C1201.0295,57.6794971 1201.3265,56.9150047 1201.3265,55.969 C1201.3265,54.8469944 1200.8975,53.989003 1200.0395,53.395 C1199.1815,52.800997 1197.91651,52.504 1196.2445,52.504 L1195.2875,52.504 L1195.2875,48.709 L1196.2445,48.709 C1199.32452,48.7530002 1200.8645,47.6860109 1200.8645,45.508 C1200.8645,44.5619953 1200.5895,43.8195027 1200.0395,43.2805 C1199.4895,42.7414973 1198.7415,42.472 1197.7955,42.472 C1196.8055,42.472 1195.9915,42.7854969 1195.3535,43.4125 C1194.7155,44.0395031 1194.3525,44.9139944 1194.2645,46.036 L1189.7105,46.036 C1189.8425,43.6599881 1190.61249,41.8285064 1192.0205,40.5415 C1193.42851,39.2544936 1195.38649,38.611 1197.8945,38.611 Z" id="13" fill="#FEFEFE" fill-rule="nonzero"></path>
                    <polygon id="1" fill="#FF8768" fill-rule="nonzero" points="121.451 45.058 121.451 40.702 129.833 40.702 129.833 64 124.949 64 124.949 45.058"></polygon>
                    <path d="M490.2715,44.332 L479.2165,44.332 L479.2165,50.206 C479.722503,49.611997 480.420996,49.1335018 481.312,48.7705 C482.203004,48.4074982 483.187495,48.226 484.2655,48.226 C485.871508,48.226 487.207995,48.5724965 488.275,49.2655 C489.342005,49.9585035 490.133997,50.8824942 490.651,52.0375 C491.168003,53.1925058 491.4265,54.473993 491.4265,55.882 C491.4265,58.3680124 490.728007,60.3589925 489.331,61.855 C487.933993,63.3510075 485.937513,64.099 483.3415,64.099 C481.647492,64.099 480.173506,63.796503 478.9195,63.1915 C477.665494,62.586497 476.686504,61.7395054 475.9825,60.6505 C475.278496,59.5614946 474.8935,58.2910073 474.8275,56.839 L479.3485,56.839 C479.524501,57.8290049 479.931497,58.6154971 480.5695,59.1985 C481.207503,59.7815029 482.054495,60.073 483.1105,60.073 C484.386506,60.073 485.337997,59.6825039 485.965,58.9015 C486.592003,58.1204961 486.9055,57.0810065 486.9055,55.783 C486.9055,54.5509938 486.575503,53.5940034 485.9155,52.912 C485.255497,52.2299966 484.320506,51.889 483.1105,51.889 C482.230496,51.889 481.482503,52.0814981 480.8665,52.4665 C480.250497,52.8515019 479.799501,53.3629968 479.5135,54.001 L474.9925,54.001 L474.9925,40.24 L490.2715,40.24 L490.2715,44.332 Z" id="5" fill="#FF8768" fill-rule="nonzero"></path>
                    <path d="M834.768,55.87 C835.120002,58.1580114 836.30799,59.302 838.332,59.302 C839.872008,59.302 840.982997,58.6255068 841.665,57.2725 C842.347003,55.9194932 842.644,53.8020144 842.556,50.92 C842.203998,51.9760053 841.516505,52.8174969 840.4935,53.4445 C839.470495,54.0715031 838.277007,54.385 836.913,54.385 C834.668989,54.385 832.903506,53.7085068 831.6165,52.3555 C830.329494,51.0024932 829.686,49.0830124 829.686,46.597 C829.686,45.0789924 829.993997,43.720506 830.61,42.5215 C831.226003,41.322494 832.144494,40.3820034 833.3655,39.7 C834.586506,39.0179966 836.065991,38.677 837.804,38.677 C841.192017,38.677 843.523994,39.7054897 844.8,41.7625 C846.076006,43.8195103 846.714,46.6739817 846.714,50.326 C846.714,54.4840208 846.070506,57.6409892 844.7835,59.797 C843.496494,61.9530108 841.346015,63.031 838.332,63.031 C836.725992,63.031 835.345506,62.7120032 834.1905,62.074 C833.035494,61.4359968 832.144503,60.5725054 831.5175,59.4835 C830.890497,58.3944946 830.522001,57.1900066 830.412,55.87 L834.768,55.87 Z M842.16,46.927 C842.16,45.6949938 841.802504,44.677504 841.0875,43.8745 C840.372496,43.071496 839.322007,42.67 837.936,42.67 C836.747994,42.67 835.802004,43.0219965 835.098,43.726 C834.393996,44.4300035 834.042,45.4089937 834.042,46.663 C834.042,47.9830066 834.399496,49.0004964 835.1145,49.7155 C835.829504,50.4305036 836.791994,50.788 838.002,50.788 C839.124006,50.788 840.097496,50.4525034 840.9225,49.7815 C841.747504,49.1104966 842.16,48.1590062 842.16,46.927 Z" id="9" fill="#FEFEFE" fill-rule="nonzero"></path>
                    <path d="M1090.012,43.858 L1090.012,39.502 L1098.394,39.502 L1098.394,62.8 L1093.51,62.8 L1093.51,43.858 L1090.012,43.858 Z M1101.727,59.137 C1109.18504,53.9669742 1112.914,49.6770171 1112.914,46.267 C1112.914,45.2329948 1112.6665,44.419003 1112.1715,43.825 C1111.6765,43.230997 1110.90101,42.934 1109.845,42.934 C1107.66699,42.934 1106.512,44.4189852 1106.38,47.389 L1101.859,47.389 C1101.991,44.6389863 1102.82699,42.5545071 1104.367,41.1355 C1105.90701,39.7164929 1107.85399,39.007 1110.208,39.007 C1112.60601,39.007 1114.44849,39.6284938 1115.7355,40.8715 C1117.02251,42.1145062 1117.666,43.7699897 1117.666,45.838 C1117.666,47.4660081 1117.1875,49.0994918 1116.2305,50.7385 C1115.2735,52.3775082 1114.05801,53.8844931 1112.584,55.2595 C1111.10999,56.6345069 1109.55901,57.8169951 1107.931,58.807 L1118.128,58.807 L1118.128,62.602 L1101.727,62.602 L1101.727,59.137 Z" id="12" fill="#FEFEFE" fill-rule="nonzero"></path>
                    <path d="M303.5495,39.811 C305.133508,39.811 306.491994,40.0859972 307.625,40.636 C308.758006,41.1860028 309.615997,41.9449952 310.199,42.913 C310.782003,43.8810048 311.0735,44.9589941 311.0735,46.147 C311.0735,47.6430075 310.666504,48.8694952 309.8525,49.8265 C309.038496,50.7835048 307.960507,51.3719989 306.6185,51.592 L306.6185,51.757 C309.874516,52.7250048 311.5025,54.6389857 311.5025,57.499 C311.5025,59.50101 310.831507,61.1234938 309.4895,62.3665 C308.147493,63.6095062 306.255512,64.231 303.8135,64.231 C301.217487,64.231 299.149508,63.5875064 297.6095,62.3005 C296.069492,61.0134936 295.211501,59.072013 295.0355,56.476 L299.5895,56.476 C299.699501,57.6640059 300.089997,58.6044965 300.761,59.2975 C301.432003,59.9905035 302.383494,60.337 303.6155,60.337 C304.671505,60.337 305.496497,60.0455029 306.0905,59.4625 C306.684503,58.8794971 306.9815,58.1150047 306.9815,57.169 C306.9815,56.0469944 306.552504,55.189003 305.6945,54.595 C304.836496,54.000997 303.571508,53.704 301.8995,53.704 L300.9425,53.704 L300.9425,49.909 L301.8995,49.909 C304.979515,49.9530002 306.5195,48.8860109 306.5195,46.708 C306.5195,45.7619953 306.244503,45.0195027 305.6945,44.4805 C305.144497,43.9414973 304.396505,43.672 303.4505,43.672 C302.460495,43.672 301.646503,43.9854969 301.0085,44.6125 C300.370497,45.2395031 300.0075,46.1139944 299.9195,47.236 L295.3655,47.236 C295.497501,44.8599881 296.267493,43.0285064 297.6755,41.7415 C299.083507,40.4544936 301.041487,39.811 303.5495,39.811 Z" id="3" fill="#FF8768" fill-rule="nonzero"></path>
                    <polygon id="7" fill="#FF8768" fill-rule="nonzero" points="668.038 43.969 659.524 64 654.706 64 663.319 44.497 652.528 44.497 652.528 40.504 668.038 40.504"></polygon>
                    <path d="M1004.806,43.858 L1004.806,39.502 L1013.188,39.502 L1013.188,62.8 L1008.304,62.8 L1008.304,43.858 L1004.806,43.858 Z M1015.696,43.858 L1015.696,39.502 L1024.078,39.502 L1024.078,62.8 L1019.194,62.8 L1019.194,43.858 L1015.696,43.858 Z" id="11" fill="#FEFEFE" fill-rule="nonzero"></path>
                    <path d="M1266.793,43.858 L1266.793,39.502 L1275.175,39.502 L1275.175,62.8 L1270.291,62.8 L1270.291,43.858 L1266.793,43.858 Z M1278.574,58.114 L1278.574,54.253 L1289.728,39.238 L1294.711,39.238 L1294.711,54.088 L1297.747,54.088 L1297.747,58.114 L1294.711,58.114 L1294.711,62.8 L1290.025,62.8 L1290.025,58.114 L1278.574,58.114 Z M1290.388,44.683 L1283.326,54.088 L1290.388,54.088 L1290.388,44.683 Z" id="14" fill="#FEFEFE" fill-rule="nonzero"></path>
                </g>
                <path d="M219.664,314.176 C217.792,316.438 215.192,318.752 212.566,320.598 L226.684,320.598 C224.006,318.804 221.51,316.49 219.664,314.176 Z M220.886,328.372 L220.886,332.194 L230.74,332.194 L230.74,334.378 L208.796,334.378 L208.796,332.194 L218.338,332.194 L218.338,328.372 L211.344,328.372 L211.344,326.266 L218.338,326.266 L218.338,322.73 L212.514,322.73 L212.514,320.624 C211.37,321.43 210.226,322.132 209.134,322.704 C208.796,322.08 208.172,321.248 207.626,320.728 C210.72,319.376 214.282,316.802 216.804,314.176 L212.67,314.176 L212.67,311.914 L220.964,311.914 C223.278,315.372 227.62,318.752 231.832,320.416 C231.338,320.91 230.558,321.924 230.194,322.6 C229.076,322.08 227.932,321.43 226.84,320.702 L226.84,322.73 L220.886,322.73 L220.886,326.266 L227.958,326.266 L227.958,328.372 L220.886,328.372 Z M239.736,327.748 L242.18,328.606 C240.646,330.608 238.358,332.74 236.408,334.066 C235.94,333.598 234.952,332.818 234.328,332.454 C236.33,331.31 238.436,329.464 239.736,327.748 Z M253.412,326.006 L247.12,326.474 L247.12,332.324 C247.12,333.572 246.834,334.248 245.872,334.612 C244.936,334.976 243.558,335.002 241.66,335.002 C241.53,334.326 241.14,333.286 240.75,332.636 C242.206,332.714 243.688,332.714 244.13,332.688 C244.546,332.662 244.65,332.558 244.65,332.272 L244.65,326.682 C238.124,327.202 237.058,327.358 236.252,327.67 C236.148,327.202 235.784,326.058 235.524,325.408 C236.434,325.278 237.526,324.888 239.06,324.134 C239.996,323.718 241.894,322.782 244.078,321.508 C238.982,321.846 238.124,321.976 237.526,322.21 C237.422,321.716 237.084,320.546 236.798,319.948 C237.448,319.844 238.072,319.558 238.93,319.09 C239.762,318.7 242.102,317.348 244.078,315.736 C241.296,316.36 238.332,316.906 235.576,317.348 C235.498,316.724 235.134,315.814 234.9,315.294 C240.75,314.332 247.354,312.824 251.15,311.134 L252.918,313.032 C250.812,313.916 248.238,314.722 245.482,315.398 L247.016,316.36 C245.43,317.582 243.74,318.7 242.024,319.636 L247.562,319.376 C248.524,318.726 249.486,318.024 250.396,317.322 L252.242,318.908 C249.07,321.196 245.742,323.12 242.414,324.706 L251.748,324.082 C251.072,323.276 250.318,322.496 249.668,321.82 L251.644,320.832 C253.542,322.6 255.726,324.992 256.818,326.552 L254.764,327.826 C254.426,327.332 253.958,326.682 253.412,326.006 Z M249.018,328.71 L250.968,327.462 C252.97,328.892 255.544,330.972 256.844,332.376 L254.738,333.832 C253.568,332.428 251.046,330.244 249.018,328.71 Z M270.234,320.442 L264.8,320.442 C264.514,321.17 264.202,321.898 263.864,322.574 C265.346,323.666 267.088,325.018 268.284,326.084 C269.142,324.42 269.792,322.548 270.234,320.442 Z M260.276,314.8 L260.276,312.486 L273.51,312.486 L273.51,314.8 L266.542,314.8 C266.282,315.944 265.944,317.114 265.606,318.206 L270.936,318.206 L271.378,318.128 L272.886,318.596 C271.612,327.566 267.764,332.662 262.096,335.236 C261.784,334.612 261.16,333.676 260.64,333.208 C263.136,332.22 265.294,330.582 266.958,328.242 C265.84,327.15 264.176,325.746 262.72,324.628 C262.304,325.226 261.888,325.824 261.446,326.37 C261.16,325.85 260.406,324.758 259.912,324.264 C261.888,322.002 263.266,318.57 264.124,314.8 L260.276,314.8 Z M277.436,314.072 L277.436,328.658 L275.044,328.658 L275.044,314.072 L277.436,314.072 Z M280.374,311.368 L282.792,311.368 L282.792,332.064 C282.792,333.494 282.48,334.144 281.622,334.508 C280.79,334.898 279.464,334.976 277.41,334.95 C277.306,334.326 276.942,333.26 276.63,332.636 C278.008,332.662 279.386,332.662 279.776,332.662 C280.218,332.636 280.374,332.506 280.374,332.09 L280.374,311.368 Z M292.958,320.104 L304.32,320.104 C302.942,319.61 301.174,319.064 299.302,318.492 C297.17,319.142 294.986,319.662 292.958,320.104 Z M303.436,315.346 L293.504,315.346 C295.402,315.788 297.456,316.308 299.432,316.854 C300.966,316.386 302.344,315.892 303.436,315.346 Z M301.096,332.324 L309.598,332.324 L309.598,334.3 L290.54,334.3 L290.54,332.324 L298.704,332.324 L298.704,330.192 L292.932,330.192 L292.932,328.294 L298.704,328.294 L298.704,326.396 L293.816,326.396 C293.062,327.67 292.178,328.84 291.242,329.698 C291.06,329.256 290.462,328.06 290.072,327.566 C289.838,330.244 289.162,333.208 287.368,335.314 C287.004,334.872 285.99,334.014 285.522,333.78 C287.602,331.284 287.836,327.774 287.836,325.148 L287.836,320.104 L291.164,320.104 C290.826,319.74 290.41,319.298 290.098,319.064 C292.074,318.726 294.336,318.232 296.468,317.712 C294.596,317.192 292.724,316.724 291.008,316.36 L292.334,315.346 L288.044,315.346 L288.044,313.448 L297.3,313.448 C296.936,312.85 296.52,312.252 296.104,311.758 L297.794,310.952 C298.444,311.68 299.198,312.668 299.614,313.448 L308.428,313.448 L308.428,315.346 L304.554,315.346 L305.698,316.074 C304.632,316.594 303.384,317.114 302.032,317.608 C303.774,318.102 305.386,318.622 306.66,319.064 L305.464,320.104 L309.234,320.104 L309.234,322.08 L290.176,322.08 L290.176,325.174 C290.176,325.928 290.15,326.734 290.072,327.566 C291.45,326.266 292.672,324.394 293.374,322.418 L295.454,323.016 C295.272,323.51 295.064,323.978 294.83,324.472 L298.704,324.472 L298.704,322.548 L301.096,322.548 L301.096,324.472 L307.83,324.472 L307.83,326.396 L301.096,326.396 L301.096,328.294 L307.154,328.294 L307.154,330.192 L301.096,330.192 L301.096,332.324 Z M328.578,318.83 L328.578,314.592 L318.828,314.592 L318.828,318.83 L328.578,318.83 Z M331.048,312.278 L331.048,321.144 L316.514,321.144 L316.514,312.278 L331.048,312.278 Z M319.868,325.98 L315.136,325.98 L315.136,331.388 L319.868,331.388 L319.868,325.98 Z M312.848,335.054 L312.848,323.666 L322.26,323.666 L322.26,334.872 L319.868,334.872 L319.868,333.702 L315.136,333.702 L315.136,335.054 L312.848,335.054 Z M327.122,331.388 L332.27,331.388 L332.27,325.98 L327.122,325.98 L327.122,331.388 Z M324.808,323.666 L334.688,323.666 L334.688,334.924 L332.27,334.924 L332.27,333.702 L327.122,333.702 L327.122,335.054 L324.808,335.054 L324.808,323.666 Z M343.268,319.584 L343.268,326.188 C344.126,325.798 345.01,325.46 345.868,325.07 L346.44,327.202 C343.736,328.502 340.85,329.828 338.588,330.842 L337.626,328.424 C338.562,328.086 339.732,327.644 341.006,327.098 L341.006,319.584 L338.094,319.584 L338.094,317.296 L341.006,317.296 L341.006,311.524 L343.268,311.524 L343.268,317.296 L345.946,317.296 L345.946,319.584 L343.268,319.584 Z M349.144,328.424 L349.144,326.318 L357.23,326.318 L357.23,328.424 L349.144,328.424 Z M350.34,321.092 L356.632,321.092 L356.632,323.198 L350.34,323.198 L350.34,321.092 Z M351.64,315.216 L361.208,315.216 C361.208,315.216 361.208,316.1 361.182,316.438 C360.896,328.398 360.584,332.376 359.544,333.728 C358.946,334.612 358.244,334.872 357.256,335.002 C356.32,335.106 354.708,335.08 353.252,335.002 C353.226,334.352 352.914,333.312 352.472,332.636 C354.188,332.792 355.722,332.792 356.398,332.792 C356.918,332.792 357.178,332.714 357.49,332.376 C358.27,331.518 358.634,327.358 358.868,317.4 L350.678,317.4 C349.924,318.986 349.092,320.39 348.234,321.534 C347.818,321.17 346.778,320.546 346.232,320.234 C348.078,318.05 349.664,314.592 350.574,311.186 L352.862,311.732 C352.498,312.902 352.082,314.098 351.64,315.216 Z M366.512,334.846 L364.614,333.624 C366.122,332.428 367.11,330.374 367.552,328.346 L369.606,329.022 C369.06,331.206 368.202,333.468 366.512,334.846 Z M370.984,329.282 L372.934,329.022 C373.402,330.53 373.662,332.48 373.662,333.754 L371.53,334.04 C371.608,332.766 371.348,330.79 370.984,329.282 Z M374.91,329.022 L376.756,328.58 C377.38,329.88 377.926,331.622 378.134,332.74 L376.184,333.26 C376.002,332.116 375.456,330.348 374.91,329.022 Z M382.58,322.444 L373.766,322.444 C373.038,323.354 372.232,324.238 371.4,325.07 L382.06,325.07 C382.242,324.29 382.424,323.38 382.58,322.444 Z M380.526,317.816 L376.808,317.816 C376.34,318.7 375.82,319.532 375.274,320.364 L380.006,320.364 C380.188,319.61 380.37,318.726 380.526,317.816 Z M384.27,325.07 L386.948,325.07 C386.948,325.07 386.922,325.72 386.87,326.032 C386.428,331.232 385.96,333.39 385.18,334.196 C384.66,334.742 384.14,334.924 383.386,334.976 C382.71,335.054 381.514,335.054 380.24,335.002 C380.214,334.352 379.98,333.442 379.616,332.844 C380.76,332.974 381.852,332.974 382.32,332.974 C382.736,332.974 382.97,332.922 383.23,332.688 C383.724,332.246 384.114,330.712 384.452,327.15 L369.034,327.15 C367.76,328.138 366.382,329.022 364.9,329.802 C364.614,329.23 364.042,328.268 363.626,327.748 C368.176,325.486 371.634,321.898 374.078,317.816 L365.29,317.816 L365.29,315.658 L370.074,315.658 C369.71,314.618 368.956,313.188 368.254,312.096 L370.308,311.29 C371.166,312.46 372.05,314.046 372.388,315.086 L371.036,315.658 L375.248,315.658 C375.976,314.202 376.574,312.694 377.068,311.16 L379.486,311.836 C379.018,313.136 378.498,314.41 377.926,315.658 L383.126,315.658 C382.84,317.192 382.528,318.986 382.19,320.364 L385.154,320.364 C384.92,321.898 384.582,323.692 384.27,325.07 Z M382.19,331.284 L380.396,332.012 C380.136,331.05 379.382,329.568 378.68,328.476 L380.344,327.904 C381.124,328.944 381.878,330.374 382.19,331.284 Z M401.04,313.734 L401.04,315.762 L390.276,315.762 L390.276,313.734 L394.67,313.734 C394.41,313.084 394.124,312.434 393.838,311.888 L396.1,311.29 C396.516,311.992 396.984,312.954 397.322,313.734 L401.04,313.734 Z M394.618,319.09 L392.642,319.61 C392.538,318.752 392.148,317.426 391.758,316.438 L393.656,316.048 C394.098,317.01 394.488,318.258 394.618,319.09 Z M392.122,326.89 L394.124,327.436 C393.5,329.412 392.486,331.622 391.576,333 C391.186,332.688 390.354,332.09 389.86,331.83 C390.77,330.53 391.628,328.658 392.122,326.89 Z M401.222,326.084 L397.14,326.084 L397.14,334.846 L394.956,334.846 L394.956,326.084 L390.068,326.084 L390.068,324.03 L394.956,324.03 L394.956,321.846 L389.782,321.846 L389.782,319.792 L396.854,319.792 C397.244,318.622 397.712,317.036 397.946,315.944 L400.13,316.386 C399.688,317.53 399.298,318.778 398.882,319.792 L401.508,319.792 L401.508,321.846 L397.14,321.846 L397.14,324.03 L401.222,324.03 L401.222,326.084 Z M401.508,330.504 L399.87,331.466 C399.506,330.426 398.622,328.814 397.92,327.618 L399.506,326.812 C400.234,327.982 401.118,329.516 401.508,330.504 Z M404.42,322.652 L404.42,324.888 L410.088,324.888 L410.088,322.652 L404.42,322.652 Z M404.42,318.492 L404.42,320.728 L410.088,320.728 L410.088,318.492 L404.42,318.492 Z M404.42,314.384 L404.42,316.568 L410.088,316.568 L410.088,314.384 L404.42,314.384 Z M410.296,332.61 L411.362,332.61 C411.83,332.61 411.934,332.246 411.986,329.308 C412.402,329.698 413.364,330.062 413.936,330.218 C413.754,333.806 413.208,334.69 411.648,334.69 L409.906,334.69 C408.034,334.69 407.618,334.014 407.618,331.908 L407.618,327.02 L406.006,327.02 C405.642,330.894 404.628,333.572 400.676,335.106 C400.442,334.56 399.818,333.728 399.324,333.312 C402.704,332.116 403.484,330.088 403.744,327.02 L402.236,327.02 L402.236,312.278 L412.35,312.278 L412.35,327.02 L409.828,327.02 L409.828,331.908 C409.828,332.506 409.88,332.61 410.296,332.61 Z M436.296,327.384 L436.296,332.974 C436.296,333.962 436.088,334.352 435.386,334.612 C434.71,334.872 433.644,334.872 432.084,334.872 C431.98,334.352 431.694,333.78 431.46,333.338 C432.396,333.364 433.332,333.364 433.592,333.338 C433.878,333.338 433.982,333.26 433.982,333 L433.982,331.96 C431.148,332.376 428.392,332.766 426.13,333.078 L425.584,331.466 C427.274,331.336 429.562,331.128 431.98,330.894 C430.498,330.4 428.002,329.932 426,329.672 L426.572,328.658 C428.6,328.84 431.252,329.308 432.734,329.802 L432.214,330.868 L433.982,330.686 L433.982,328.476 L425.22,328.476 L425.22,330.114 C425.22,331.83 424.934,333.936 423.374,335.314 C423.01,334.898 421.996,334.118 421.476,333.806 C422.802,332.714 422.932,331.284 422.932,330.062 L422.932,327.384 L436.296,327.384 Z M423.79,324.602 L423.79,325.512 L428.314,325.512 L428.314,324.602 L423.79,324.602 Z M423.79,322.704 L423.79,323.588 L428.314,323.588 L428.314,322.704 L423.79,322.704 Z M435.204,323.588 L435.204,322.704 L430.498,322.704 L430.498,323.588 L435.204,323.588 Z M435.204,325.512 L435.204,324.602 L430.498,324.602 L430.498,325.512 L435.204,325.512 Z M421.58,326.552 L421.58,321.664 L437.492,321.664 L437.492,326.552 L421.58,326.552 Z M429.484,319.402 L435.23,319.402 C436.114,319.402 437.778,319.324 438.324,319.194 C438.402,319.818 438.454,320.26 438.558,320.702 C437.96,320.858 436.66,320.91 435.464,320.91 L429.042,320.91 C426.884,320.91 426.312,320.208 426.234,318.83 L421.502,319.012 L421.45,317.842 L426.234,317.66 L426.234,316.646 L420.28,316.646 L420.28,321.69 C420.28,325.512 419.916,331.102 417.784,334.794 C417.316,334.378 416.302,333.78 415.73,333.546 C417.758,330.088 417.914,325.174 417.914,321.664 L417.914,314.982 L426.208,314.982 L426.208,311.16 L428.626,311.16 L428.626,312.434 L437.076,312.434 L437.076,314.02 L428.626,314.02 L428.626,314.982 L436.738,314.982 L437.154,314.878 L438.922,315.372 C438.48,316.62 437.882,317.998 437.336,318.882 L435.308,318.206 C435.516,317.79 435.75,317.218 435.958,316.646 L428.392,316.646 L428.392,317.582 L434.346,317.348 L434.398,318.518 L428.392,318.752 C428.444,319.22 428.652,319.402 429.484,319.402 Z M445.136,330.244 L449.972,330.244 L449.972,324.498 L445.136,324.498 L445.136,330.244 Z M449.972,317.452 L445.136,317.452 L445.136,322.392 L449.972,322.392 L449.972,317.452 Z M457.33,315.216 L464.87,315.216 C464.87,315.216 464.87,316.048 464.844,316.36 C464.48,328.086 464.168,332.116 463.128,333.416 C462.478,334.274 461.854,334.508 460.866,334.638 C459.956,334.742 458.422,334.716 456.94,334.638 C456.888,333.988 456.602,332.974 456.16,332.298 C457.824,332.428 459.332,332.454 459.982,332.454 C460.502,332.454 460.788,332.376 461.074,332.012 C461.906,331.154 462.244,327.228 462.582,317.426 L456.446,317.426 C455.718,319.09 454.912,320.598 454.08,321.794 C453.69,321.43 452.78,320.78 452.182,320.442 L452.182,332.376 L445.136,332.376 L445.136,334.352 L442.926,334.352 L442.926,315.346 L445.838,315.346 C446.202,314.098 446.592,312.382 446.748,311.134 L449.374,311.576 C448.932,312.876 448.438,314.254 448.022,315.346 L452.182,315.346 L452.182,320.26 C453.898,318.024 455.276,314.566 456.056,311.134 L458.396,311.68 C458.084,312.876 457.746,314.072 457.33,315.216 Z M460.658,326.942 L458.63,328.216 C457.902,326.63 456.212,324.082 454.834,322.21 L456.732,321.144 C458.11,322.938 459.878,325.408 460.658,326.942 Z M485.67,317.66 L484.084,317.79 C483.746,320.572 482.862,322.47 479.846,323.614 C479.612,323.094 479.04,322.314 478.598,321.924 C480.938,321.17 481.692,319.896 481.952,317.998 C480.496,318.128 480.028,318.232 479.664,318.362 C479.56,317.894 479.222,316.828 478.936,316.256 C479.378,316.178 479.846,315.814 480.366,315.294 C480.886,314.826 482.602,312.928 483.72,311.03 L486.06,311.732 C484.968,313.266 483.694,314.774 482.446,315.97 L487.828,315.632 C487.308,315.008 486.814,314.358 486.346,313.812 L488.088,312.876 C489.284,314.28 490.922,316.23 491.728,317.348 L489.882,318.466 C489.7,318.154 489.466,317.79 489.18,317.4 L487.724,317.504 L487.724,319.974 C487.724,320.546 487.802,320.728 488.166,320.728 L490.012,320.728 C490.402,320.728 490.974,320.702 491.338,320.624 C491.39,321.144 491.442,322.002 491.52,322.47 C491.182,322.6 490.61,322.626 490.064,322.626 L488.088,322.626 C486.112,322.626 485.67,321.898 485.67,319.948 L485.67,317.66 Z M471.136,329.126 L471.136,327.228 L475.634,327.228 L475.634,329.126 L471.136,329.126 Z M487.62,326.266 L483.928,326.266 C483.668,326.682 483.408,327.098 483.122,327.488 C483.668,328.242 484.344,328.996 485.098,329.672 C486.138,328.71 487.022,327.592 487.62,326.266 Z M470.226,331.31 L476.596,331.31 L476.596,324.732 L475.374,324.732 C474.308,324.732 473.996,324.446 473.996,323.094 L473.996,319.324 L472.774,319.324 L472.774,321.222 C472.774,322.704 472.462,324.628 471.032,325.954 C470.85,325.772 470.512,325.408 470.226,325.226 L470.226,331.31 Z M471.552,319.324 L470.226,319.324 L470.226,325.018 C471.37,323.848 471.552,322.418 471.552,321.222 L471.552,319.324 Z M472.748,314.28 L472.748,317.296 L474.048,317.296 L474.048,314.28 L472.748,314.28 Z M476.596,323.406 L476.596,319.324 L475.218,319.324 L475.218,323.094 C475.218,323.406 475.244,323.458 475.53,323.458 L476.232,323.458 C476.466,323.458 476.544,323.432 476.596,323.406 Z M489.102,324.264 L490.584,324.862 C489.778,327.384 488.504,329.386 486.866,330.972 C488.244,331.83 489.908,332.532 491.858,332.974 C491.364,333.442 490.74,334.378 490.454,335.002 C488.322,334.404 486.58,333.52 485.098,332.402 C483.486,333.572 481.666,334.378 479.69,335.002 C479.43,334.456 478.936,333.65 478.494,333.156 L478.494,334.638 L476.596,334.638 L476.596,333.208 L470.226,333.208 L470.226,335.002 L468.406,335.002 L468.406,317.296 L471.11,317.296 L471.11,314.28 L467.99,314.28 L467.99,312.252 L478.702,312.252 L478.702,314.28 L475.738,314.28 L475.738,317.296 L478.494,317.296 L478.494,333.078 C480.262,332.636 481.926,331.934 483.382,330.972 C482.784,330.348 482.238,329.698 481.744,329.048 C481.328,329.49 480.86,329.88 480.392,330.244 C480.106,329.828 479.3,329.048 478.858,328.684 C479.482,328.268 480.08,327.748 480.6,327.176 C480.236,326.474 479.898,325.746 479.638,324.992 L481.354,324.108 C481.51,324.576 481.692,325.044 481.926,325.512 C482.576,324.524 483.096,323.406 483.46,322.236 L485.54,322.626 C485.384,323.224 485.15,323.796 484.916,324.368 L488.712,324.368 L489.102,324.264 Z M495.264,323.432 L493.444,322.808 C494.068,321.066 494.562,318.206 494.744,316.1 L496.486,316.36 C496.356,318.492 495.888,321.508 495.264,323.432 Z M511.098,331.882 L517.39,331.882 L517.39,334.17 L501.452,334.17 L501.452,331.882 L508.68,331.882 L508.68,325.98 L503.402,325.98 L503.402,323.718 L508.68,323.718 L508.68,318.83 L505.3,318.83 C504.806,320.286 504.234,321.612 503.636,322.678 C503.142,322.34 502.076,321.794 501.478,321.56 C501.816,321.04 502.154,320.442 502.44,319.766 L500.984,320.468 C500.75,319.428 500.074,317.764 499.424,316.386 L499.424,335.028 L497.006,335.028 L497.006,311.186 L499.424,311.186 L499.424,315.996 L500.958,315.372 C501.608,316.594 502.336,318.18 502.648,319.272 C503.454,317.244 504.026,314.8 504.364,312.356 L506.73,312.746 C506.548,314.046 506.262,315.32 505.95,316.542 L508.68,316.542 L508.68,311.29 L511.098,311.29 L511.098,316.542 L516.714,316.542 L516.714,318.83 L511.098,318.83 L511.098,323.718 L516.142,323.718 L516.142,325.98 L511.098,325.98 L511.098,331.882 Z M520.952,338.798 L520.952,318.7 L523.396,318.7 L523.63,320.26 L523.708,320.26 C524.956,319.22 526.516,318.336 528.102,318.336 C531.742,318.336 533.77,321.222 533.77,325.616 C533.77,330.53 530.832,333.338 527.608,333.338 C526.334,333.338 525.06,332.766 523.838,331.726 L523.916,334.17 L523.916,338.798 L520.952,338.798 Z M527.036,330.868 C529.116,330.868 530.676,329.022 530.676,325.668 C530.676,322.678 529.714,320.832 527.322,320.832 C526.204,320.832 525.138,321.404 523.916,322.574 L523.916,329.568 C525.034,330.53 526.152,330.868 527.036,330.868 Z M537.592,333 L537.592,313.864 L540.608,313.864 L540.608,321.664 L548.798,321.664 L548.798,313.864 L551.814,313.864 L551.814,333 L548.798,333 L548.798,324.29 L540.608,324.29 L540.608,333 L537.592,333 Z M560.94,311.264 L563.176,311.94 C562.448,313.89 561.538,315.866 560.55,317.686 L560.55,335.054 L558.314,335.054 L558.314,321.326 C557.69,322.21 557.066,322.99 556.416,323.718 C556.234,323.12 555.558,321.846 555.142,321.248 C557.456,318.83 559.64,315.06 560.94,311.264 Z M566.4,330.504 L566.4,332.376 L574.798,332.376 L574.798,330.504 L566.4,330.504 Z M574.798,319.766 L566.4,319.766 L566.4,321.612 L574.798,321.612 L574.798,319.766 Z M574.798,326.89 L566.4,326.89 L566.4,328.788 L574.798,328.788 L574.798,326.89 Z M574.798,325.2 L574.798,323.354 L566.4,323.354 L566.4,325.2 L574.798,325.2 Z M577.034,332.376 L579.166,332.376 L579.166,334.43 L561.85,334.43 L561.85,332.376 L564.242,332.376 L564.242,317.946 L568.688,317.946 C568.818,317.322 568.974,316.568 569.104,315.814 L562.994,315.814 L562.994,313.734 L569.416,313.734 C569.546,312.85 569.65,311.992 569.702,311.238 L572.25,311.342 C572.12,312.096 571.964,312.928 571.808,313.734 L578.49,313.734 L578.49,315.814 L571.392,315.814 C571.236,316.568 571.054,317.322 570.872,317.946 L577.034,317.946 L577.034,332.376 Z" id="全系列產品均為親膚的酸性pH值" fill="#FF7679" fill-rule="nonzero"></path>
                <path d="M31.17,112.888 L29.586,113.02 C29.322,115.418 28.508,117.002 26.022,117.948 C25.868,117.596 25.45,117.068 25.164,116.804 C27.232,116.144 27.892,114.956 28.134,113.152 C26.616,113.306 26.242,113.394 25.934,113.504 C25.846,113.174 25.604,112.404 25.428,112.008 C25.802,111.942 26.176,111.656 26.616,111.216 C27.078,110.798 28.64,109.126 29.652,107.476 L31.192,107.982 C30.202,109.39 29.058,110.732 27.936,111.788 L33.216,111.436 C32.754,110.864 32.248,110.27 31.808,109.786 L32.952,109.126 C34.03,110.292 35.438,111.92 36.164,112.866 L34.932,113.658 C34.734,113.372 34.47,113.02 34.206,112.646 L32.6,112.778 L32.6,115.154 C32.6,115.682 32.666,115.814 32.974,115.814 L34.734,115.814 C35.042,115.814 35.526,115.814 35.812,115.726 C35.856,116.1 35.878,116.672 35.944,117.002 C35.68,117.112 35.218,117.112 34.778,117.112 L32.93,117.112 C31.5,117.112 31.17,116.606 31.17,115.132 L31.17,112.888 Z M18.652,122.524 L18.652,121.226 L22.7,121.226 L22.7,122.524 L18.652,122.524 Z M23.602,117.882 L23.602,114.164 L22.172,114.164 L22.172,117.596 C22.172,117.882 22.194,117.904 22.458,117.904 L23.272,117.904 C23.47,117.904 23.558,117.904 23.602,117.882 Z M17.772,124.724 L23.602,124.724 L23.602,118.872 L22.37,118.872 C21.512,118.872 21.248,118.652 21.248,117.618 L21.248,114.164 L20.016,114.164 L20.016,115.814 C20.016,117.134 19.708,118.784 18.344,119.994 C18.212,119.84 17.992,119.598 17.772,119.444 L17.772,124.724 Z M19.114,114.164 L17.772,114.164 L17.772,119.268 C18.916,118.212 19.114,116.892 19.114,115.814 L19.114,114.164 Z M19.994,109.94 L19.994,112.756 L21.292,112.756 L21.292,109.94 L19.994,109.94 Z M22.48,109.94 L22.48,112.756 L24.9,112.756 L24.9,127.32 L23.602,127.32 L23.602,126.066 L17.772,126.066 L17.772,127.628 L16.496,127.628 L16.496,112.756 L18.828,112.756 L18.828,109.94 L16.1,109.94 L16.1,108.532 L25.142,108.532 L25.142,109.94 L22.48,109.94 Z M33.018,120.192 L29.432,120.192 C29.168,120.588 28.904,120.94 28.64,121.314 C29.168,122.062 29.806,122.788 30.598,123.47 C31.61,122.568 32.446,121.468 33.018,120.192 Z M34.03,118.806 L35.02,119.224 C34.338,121.358 33.194,123.052 31.786,124.372 C32.996,125.186 34.47,125.868 36.208,126.286 C35.9,126.594 35.46,127.232 35.262,127.65 C33.414,127.1 31.896,126.308 30.598,125.34 C29.19,126.374 27.562,127.122 25.846,127.65 C25.67,127.254 25.318,126.682 25.01,126.374 C26.572,125.956 28.112,125.296 29.432,124.372 C28.772,123.756 28.2,123.074 27.694,122.392 C27.298,122.788 26.88,123.184 26.44,123.536 C26.242,123.25 25.67,122.722 25.362,122.458 C25.912,122.062 26.44,121.622 26.924,121.116 C26.594,120.544 26.33,119.928 26.11,119.356 L27.276,118.652 C27.43,119.092 27.606,119.532 27.826,119.972 C28.508,119.048 29.036,118.014 29.388,116.892 L30.818,117.178 C30.642,117.772 30.422,118.322 30.136,118.872 L33.744,118.872 L34.03,118.806 Z M38.958,117.816 L37.682,117.376 C38.276,115.924 38.672,113.526 38.826,111.744 L40.058,111.92 C39.948,113.724 39.53,116.21 38.958,117.816 Z M40.85,127.672 L40.85,107.586 L42.478,107.586 L42.478,127.672 L40.85,127.672 Z M42.632,111.634 L43.776,111.106 C44.436,112.294 45.118,113.856 45.382,114.78 L44.15,115.374 C43.908,114.428 43.248,112.844 42.632,111.634 Z M52.29,125.362 L57.79,125.362 L57.79,126.924 L44.37,126.924 L44.37,125.362 L50.662,125.362 L50.662,119.862 L45.998,119.862 L45.998,118.344 L50.662,118.344 L50.662,113.79 L47.45,113.79 C47.01,115.11 46.504,116.254 45.91,117.2 C45.58,116.98 44.854,116.628 44.458,116.452 C45.734,114.538 46.614,111.59 47.12,108.598 L48.704,108.862 C48.484,110.006 48.22,111.15 47.912,112.228 L50.662,112.228 L50.662,107.674 L52.29,107.674 L52.29,112.228 L57.262,112.228 L57.262,113.79 L52.29,113.79 L52.29,118.344 L56.778,118.344 L56.778,119.862 L52.29,119.862 L52.29,125.362 Z" id="酸性" fill="#FF7679" fill-rule="nonzero"></path>
                <path d="M649.792,118.938 L656.106,118.938 L656.106,113.108 L649.792,113.108 L649.792,118.938 Z M641.806,118.938 L648.098,118.938 L648.098,113.108 L641.806,113.108 L641.806,118.938 Z M649.792,111.502 L657.778,111.502 L657.778,121.798 L656.106,121.798 L656.106,120.544 L649.792,120.544 L649.792,127.672 L648.098,127.672 L648.098,120.544 L641.806,120.544 L641.806,121.908 L640.2,121.908 L640.2,111.502 L648.098,111.502 L648.098,107.586 L649.792,107.586 L649.792,111.502 Z M661.958,117.816 L660.682,117.376 C661.276,115.924 661.672,113.526 661.826,111.744 L663.058,111.92 C662.948,113.724 662.53,116.21 661.958,117.816 Z M663.85,127.672 L663.85,107.586 L665.478,107.586 L665.478,127.672 L663.85,127.672 Z M665.632,111.634 L666.776,111.106 C667.436,112.294 668.118,113.856 668.382,114.78 L667.15,115.374 C666.908,114.428 666.248,112.844 665.632,111.634 Z M675.29,125.362 L680.79,125.362 L680.79,126.924 L667.37,126.924 L667.37,125.362 L673.662,125.362 L673.662,119.862 L668.998,119.862 L668.998,118.344 L673.662,118.344 L673.662,113.79 L670.45,113.79 C670.01,115.11 669.504,116.254 668.91,117.2 C668.58,116.98 667.854,116.628 667.458,116.452 C668.734,114.538 669.614,111.59 670.12,108.598 L671.704,108.862 C671.484,110.006 671.22,111.15 670.912,112.228 L673.662,112.228 L673.662,107.674 L675.29,107.674 L675.29,112.228 L680.262,112.228 L680.262,113.79 L675.29,113.79 L675.29,118.344 L679.778,118.344 L679.778,119.862 L675.29,119.862 L675.29,125.362 Z" id="中性" fill="#FF7679" fill-rule="nonzero"></path>
                <path d="M598.278182,7.52 L596.078182,7.52 L596.078182,9.36 L598.278182,9.36 L598.278182,7.52 Z M598.278182,14.72 L598.278182,12.8 L596.078182,12.8 L596.078182,14.72 L598.278182,14.72 Z M592.158182,9.36 L592.158182,7.52 L587.838182,7.52 L587.838182,4.12 L592.158182,4.12 L592.158182,1.12 L596.078182,1.12 L596.078182,4.12 L601.838182,4.12 L601.838182,9.36 L604.118182,9.36 L604.118182,12.8 L601.838182,12.8 L601.838182,18.12 L596.078182,18.12 L596.078182,19.92 L602.278182,19.92 L602.278182,23.64 L596.078182,23.64 L596.078182,25.56 L603.358182,25.56 L603.358182,29.24 L596.078182,29.24 L596.078182,32.8 L592.158182,32.8 L592.158182,29.24 L586.638182,29.24 L586.638182,25.56 L592.158182,25.56 L592.158182,23.64 L587.438182,23.64 L587.438182,19.92 L592.158182,19.92 L592.158182,18.12 L587.838182,18.12 L587.838182,14.72 L592.158182,14.72 L592.158182,12.8 L586.118182,12.8 L586.118182,9.36 L592.158182,9.36 Z M574.838182,10.32 L574.838182,35.56 C576.678182,34.36 578.198182,32.76 579.438182,30.64 C578.118182,28.72 576.998182,26.32 576.118182,23.32 L579.438182,22.08 C579.918182,23.8 580.478182,25.28 581.158182,26.56 C581.838182,24.36 582.318182,21.8 582.638182,18.92 L576.638182,18.92 C577.958182,15.96 579.518182,11.68 580.758182,7.68 L577.198182,7.68 L577.198182,3.84 C576.558182,5.96 575.758182,8.2 574.838182,10.32 Z M584.318182,15.24 L586.718182,15.68 C586.278182,21.68 585.358182,26.44 583.878182,30.16 C587.118182,33.12 591.478182,33.88 596.278182,33.88 C597.678182,33.92 602.718182,33.88 604.478182,33.84 C603.918182,34.76 603.358182,36.6 603.158182,37.72 L595.958182,37.72 C590.478182,37.72 585.798182,36.84 582.158182,33.72 C580.918182,35.68 579.518182,37.2 577.798182,38.4 C577.198182,37.56 575.718182,36.16 574.838182,35.64 L574.838182,38.4 L570.678182,38.4 L570.678182,18.28 C570.078182,19.2 569.478182,20.04 568.878182,20.8 C568.598182,19.64 567.478182,16.92 566.758182,15.68 C569.558182,12.12 571.998182,6.64 573.398182,1.2 L577.638182,2.4 L577.278182,3.64 L586.358182,3.64 C585.118182,7.36 583.598182,11.72 582.278182,15.32 L583.598182,15.32 L584.318182,15.24 Z M633.350909,27.6 L635.030909,28.28 C636.950909,27.12 639.390909,25.4 640.950909,24 L633.350909,24 L633.350909,27.6 Z M624.070909,29.32 L628.510909,27.6 L628.510909,24 L621.470909,24 C623.150909,24.96 625.070909,26.12 626.190909,26.96 L624.070909,29.32 Z M633.350909,18.6 L633.350909,20.8 L638.630909,20.8 L638.630909,18.6 L633.350909,18.6 Z M633.350909,13.28 L633.350909,15.32 L638.630909,15.32 L638.630909,13.28 L633.350909,13.28 Z M643.110909,18.96 L643.110909,24 L641.630909,24 L644.790909,26.52 C642.950909,27.76 640.910909,29 639.110909,29.96 C641.830909,31.16 644.550909,32.44 646.270909,33.36 L644.110909,36.68 C641.670909,35.28 637.270909,33.08 633.350909,31.36 L633.350909,33.92 C633.350909,36.28 632.750909,37.28 631.150909,37.92 C629.550909,38.52 627.230909,38.56 623.910909,38.56 C623.670909,37.4 623.030909,35.76 622.430909,34.68 C624.430909,34.76 626.870909,34.76 627.550909,34.72 C628.270909,34.72 628.510909,34.48 628.510909,33.84 L628.510909,31.28 C624.830909,32.96 620.990909,34.72 617.950909,36.08 L616.190909,32.2 C618.030909,31.56 620.510909,30.64 623.270909,29.6 C621.950909,28.6 619.630909,27.08 617.950909,26 L619.870909,24 L618.990909,24 L618.990909,20.8 L628.510909,20.8 L628.510909,18.6 L617.830909,18.6 L617.830909,15.32 L628.510909,15.32 L628.510909,13.28 L619.430909,13.28 L619.430909,10.08 L628.510909,10.08 L628.510909,8.4 L617.070909,8.4 L617.070909,15.8 C617.070909,22.32 616.470909,32.12 612.910909,38.32 C612.070909,37.52 610.070909,36.2 609.030909,35.76 C612.310909,30 612.550909,21.72 612.550909,15.8 L612.550909,4.24 L627.670909,4.24 C627.310909,3.4 626.870909,2.56 626.470909,1.88 L631.230909,0.72 C631.910909,1.8 632.630909,3.08 633.190909,4.24 L646.230909,4.24 L646.230909,8.4 L633.350909,8.4 L633.350909,10.08 L643.110909,10.08 L643.110909,14.92 L646.630909,14.92 L646.630909,18.96 L643.110909,18.96 Z M653.503636,43.6 L653.503636,12.6 L658.303636,12.6 L658.703636,14.92 L658.863636,14.92 C660.743636,13.32 663.063636,12.04 665.463636,12.04 C670.983636,12.04 674.263636,16.56 674.263636,23.44 C674.263636,31.12 669.663636,35.56 664.743636,35.56 C662.783636,35.56 660.903636,34.68 659.183636,33.12 L659.343636,36.8 L659.343636,43.6 L653.503636,43.6 Z M663.423636,30.72 C666.143636,30.72 668.223636,28.4 668.223636,23.52 C668.223636,19.24 666.863636,16.88 663.783636,16.88 C662.263636,16.88 660.903636,17.64 659.343636,19.2 L659.343636,29.04 C660.783636,30.28 662.223636,30.72 663.423636,30.72 Z M682.016364,35 L682.016364,5.4 L687.936364,5.4 L687.936364,17.04 L699.136364,17.04 L699.136364,5.4 L705.016364,5.4 L705.016364,35 L699.136364,35 L699.136364,22.2 L687.936364,22.2 L687.936364,35 L682.016364,35 Z M720.489091,1.24 L724.769091,2.68 C723.769091,5.6 722.409091,8.56 720.929091,11.4 L720.929091,38.44 L716.529091,38.44 L716.529091,18.48 C715.809091,19.4 715.049091,20.32 714.329091,21.16 C713.929091,20 712.649091,17.4 711.849091,16.2 C715.289091,12.56 718.569091,6.92 720.489091,1.24 Z M730.249091,31.48 L730.249091,33.72 L742.089091,33.72 L742.089091,31.48 L730.249091,31.48 Z M742.089091,15.04 L730.249091,15.04 L730.249091,17.24 L742.089091,17.24 L742.089091,15.04 Z M742.089091,25.92 L730.249091,25.92 L730.249091,28.2 L742.089091,28.2 L742.089091,25.92 Z M742.089091,22.72 L742.089091,20.52 L730.249091,20.52 L730.249091,22.72 L742.089091,22.72 Z M746.489091,33.72 L749.529091,33.72 L749.529091,37.72 L722.609091,37.72 L722.609091,33.72 L726.049091,33.72 L726.049091,11.56 L732.969091,11.56 C733.129091,10.72 733.289091,9.8 733.449091,8.84 L724.369091,8.84 L724.369091,4.76 L734.009091,4.76 C734.129091,3.48 734.249091,2.32 734.329091,1.2 L739.369091,1.36 C739.209091,2.48 738.969091,3.6 738.769091,4.76 L748.609091,4.76 L748.609091,8.84 L737.929091,8.84 C737.689091,9.84 737.489091,10.72 737.249091,11.56 L746.489091,11.56 L746.489091,33.72 Z" id="健康pH值" fill="#FF7679" fill-rule="nonzero"></path>
                <path d="M1272.672,112.514 L1278.48,112.514 C1277.336,111.656 1276.236,110.666 1275.356,109.676 C1274.586,110.71 1273.684,111.656 1272.672,112.514 Z M1272.166,113.812 L1272.166,112.932 C1271.66,113.306 1271.176,113.68 1270.648,114.01 C1270.428,113.702 1269.9,113.218 1269.57,112.998 C1271.924,111.568 1273.948,109.434 1275.026,107.41 L1276.522,107.872 C1276.412,108.114 1276.28,108.356 1276.126,108.576 C1277.402,110.072 1279.558,111.656 1281.34,112.558 C1281.054,112.91 1280.724,113.548 1280.592,113.966 C1279.998,113.592 1279.338,113.174 1278.722,112.712 L1278.722,113.812 L1272.166,113.812 Z M1277.072,116.672 L1277.072,119.466 L1279.184,119.466 L1279.184,116.672 L1277.072,116.672 Z M1275.884,120.61 L1275.884,115.55 L1280.394,115.55 L1280.394,120.61 L1275.884,120.61 Z M1271.66,116.672 L1271.66,119.466 L1273.64,119.466 L1273.64,116.672 L1271.66,116.672 Z M1270.516,120.61 L1270.516,115.55 L1274.85,115.55 L1274.85,120.61 L1270.516,120.61 Z M1264.466,115.198 L1265.192,114.802 C1265.654,115.374 1266.16,116.166 1266.424,116.694 L1265.632,117.134 C1265.434,116.606 1264.928,115.792 1264.466,115.198 Z M1264.818,122.084 L1265.5,121.688 C1266.006,122.326 1266.512,123.184 1266.732,123.778 L1266.006,124.218 C1265.786,123.624 1265.324,122.744 1264.818,122.084 Z M1262.838,124.526 L1268.272,124.526 L1268.272,120.236 L1267.832,120.61 C1267.612,120.104 1267.15,119.4 1266.688,118.894 L1267.282,118.41 C1267.656,118.806 1268.008,119.29 1268.272,119.73 L1268.272,114.428 L1262.838,114.428 L1262.838,116.298 L1263.41,115.704 C1264.268,116.496 1265.192,117.508 1265.786,118.344 C1266.336,117.332 1266.776,116.298 1267.172,115.242 L1268.118,115.506 C1267.612,116.892 1266.974,118.234 1266.27,119.488 C1267.062,120.544 1267.854,121.864 1268.206,122.722 L1267.414,123.382 C1267.106,122.546 1266.446,121.358 1265.72,120.368 C1265.038,121.468 1264.312,122.48 1263.542,123.294 C1263.366,123.162 1263.08,122.92 1262.838,122.744 L1262.838,124.526 Z M1262.838,118.674 L1263.344,118.322 C1263.828,118.828 1264.334,119.466 1264.576,119.906 L1263.894,120.412 C1263.674,119.994 1263.256,119.378 1262.838,118.916 L1262.838,122.524 C1263.718,121.622 1264.532,120.522 1265.258,119.29 C1264.686,118.432 1263.718,117.266 1262.838,116.43 L1262.838,118.674 Z M1269.504,113.086 L1269.504,125.868 L1262.838,125.868 L1262.838,127.32 L1261.65,127.32 L1261.65,113.086 L1264.84,113.086 L1264.84,107.586 L1266.292,107.586 L1266.292,109.72 L1270.098,109.72 L1270.098,111.062 L1266.292,111.062 L1266.292,113.086 L1269.504,113.086 Z M1272.1,121.27 L1273.508,121.512 C1273.376,122.128 1273.2,122.744 1273.024,123.316 C1273.904,123.888 1274.916,124.636 1275.422,125.208 L1274.564,126.286 C1274.146,125.802 1273.31,125.12 1272.518,124.526 C1271.968,125.78 1271.242,126.88 1270.384,127.694 C1270.142,127.474 1269.592,126.968 1269.284,126.748 C1270.692,125.472 1271.638,123.514 1272.1,121.27 Z M1277.556,121.16 L1279.03,121.402 C1278.876,122.238 1278.656,123.052 1278.37,123.8 C1279.404,124.526 1280.592,125.494 1281.186,126.198 L1280.174,127.298 C1279.69,126.66 1278.722,125.824 1277.798,125.076 C1277.27,126.11 1276.61,126.968 1275.884,127.65 C1275.62,127.43 1275.026,126.946 1274.652,126.704 C1276.17,125.45 1277.116,123.492 1277.556,121.16 Z M1283.958,117.816 L1282.682,117.376 C1283.276,115.924 1283.672,113.526 1283.826,111.744 L1285.058,111.92 C1284.948,113.724 1284.53,116.21 1283.958,117.816 Z M1285.85,127.672 L1285.85,107.586 L1287.478,107.586 L1287.478,127.672 L1285.85,127.672 Z M1287.632,111.634 L1288.776,111.106 C1289.436,112.294 1290.118,113.856 1290.382,114.78 L1289.15,115.374 C1288.908,114.428 1288.248,112.844 1287.632,111.634 Z M1297.29,125.362 L1302.79,125.362 L1302.79,126.924 L1289.37,126.924 L1289.37,125.362 L1295.662,125.362 L1295.662,119.862 L1290.998,119.862 L1290.998,118.344 L1295.662,118.344 L1295.662,113.79 L1292.45,113.79 C1292.01,115.11 1291.504,116.254 1290.91,117.2 C1290.58,116.98 1289.854,116.628 1289.458,116.452 C1290.734,114.538 1291.614,111.59 1292.12,108.598 L1293.704,108.862 C1293.484,110.006 1293.22,111.15 1292.912,112.228 L1295.662,112.228 L1295.662,107.674 L1297.29,107.674 L1297.29,112.228 L1302.262,112.228 L1302.262,113.79 L1297.29,113.79 L1297.29,118.344 L1301.778,118.344 L1301.778,119.862 L1297.29,119.862 L1297.29,125.362 Z" id="鹼性" fill="#FF7679" fill-rule="nonzero"></path>
                <path d="M214.097561,253.461538 L571.902439,253.461538 L214.097561,253.461538 Z M213.54878,289 L213.54878,253 L213.54878,289 Z M572.45122,289 L572.45122,253 L572.45122,289 Z" id="Combined-Shape" stroke="#FF7679" stroke-width="3" stroke-linecap="square" transform="translate(393.000000, 271.000000) scale(1, -1) translate(-393.000000, -271.000000) "></path>
            </g>
        </g>
    </g>
</svg>