<?xml version="1.0" encoding="UTF-8"?>
<svg width="378px" height="104px" viewBox="0 0 378 104" version="1.1" xmlns="http://www.w3.org/2000/svg" xmlns:xlink="http://www.w3.org/1999/xlink">
    <title>s01</title>
    <g id="Drunk-Elephant_phone" stroke="none" stroke-width="1" fill="none" fill-rule="evenodd" fill-opacity="0.1">
        <g id="Phone_index_轉外框" transform="translate(-18.000000, -2323.000000)" fill="#7270DC" fill-rule="nonzero">
            <g id="s01" transform="translate(18.221000, 2323.370041)">
                <path d="M152.536333,29.2189585 C151.722995,28.446288 150.767338,27.7956278 149.669333,27.2669585 C148.571327,26.7382892 147.412339,26.4739585 146.192333,26.4739585 C145.256995,26.4739585 144.392837,26.6569567 143.599833,27.0229585 C142.806829,27.3889603 142.410333,28.0192874 142.410333,28.9139585 C142.410333,29.7679628 142.847495,30.3779567 143.721833,30.7439585 C144.59617,31.1099603 146.009323,31.5166229 147.961333,31.9639585 C149.100005,32.2079597 150.248827,32.5536229 151.407833,33.0009585 C152.566838,33.4482941 153.613995,34.0379548 154.549333,34.7699585 C155.484671,35.5019622 156.236996,36.3966199 156.806333,37.4539585 C157.375669,38.5112971 157.660333,39.7719512 157.660333,41.2359585 C157.660333,43.1473014 157.274003,44.7637852 156.501333,46.0854585 C155.728662,47.4071318 154.722172,48.4746211 153.481833,49.2879585 C152.241493,50.1012959 150.848674,50.6909567 149.303333,51.0569585 C147.757992,51.4229603 146.212674,51.6059585 144.667333,51.6059585 C142.186654,51.6059585 139.756845,51.2094625 137.377833,50.4164585 C134.998821,49.6234545 133.016341,48.4542996 131.430333,46.9089585 L137.042333,40.9919585 C137.937004,41.9679634 139.034993,42.7812886 140.336333,43.4319585 C141.637673,44.0826284 143.020325,44.4079585 144.484333,44.4079585 C145.29767,44.4079585 146.100829,44.2147938 146.893833,43.8284585 C147.686837,43.4421232 148.083333,42.7609634 148.083333,41.7849585 C148.083333,40.8496205 147.595338,40.1582941 146.619333,39.7109585 C145.643328,39.2636229 144.118343,38.7959609 142.044333,38.3079585 C140.986994,38.0639573 139.929671,37.7386272 138.872333,37.3319585 C137.814994,36.9252898 136.869504,36.3762953 136.035833,35.6849585 C135.202162,34.9936217 134.521002,34.1396303 133.992333,33.1229585 C133.463663,32.1062868 133.199333,30.886299 133.199333,29.4629585 C133.199333,27.6329494 133.585662,26.0774649 134.358333,24.7964585 C135.131003,23.5154521 136.127327,22.4682959 137.347333,21.6549585 C138.567339,20.8416211 139.919492,20.2417938 141.403833,19.8554585 C142.888173,19.4691232 144.362325,19.2759585 145.826333,19.2759585 C148.103677,19.2759585 150.330155,19.6317883 152.505833,20.3434585 C154.68151,21.0551287 156.521658,22.1226181 158.026333,23.5459585 L152.536333,29.2189585 Z M195.663333,35.3189585 C195.663333,37.7996376 195.216004,40.0464484 194.321333,42.0594585 C193.426662,44.0724686 192.206674,45.7804515 190.661333,47.1834585 C189.115992,48.5864655 187.326676,49.674288 185.293333,50.4469585 C183.259989,51.219629 181.084344,51.6059585 178.766333,51.6059585 C176.488988,51.6059585 174.32351,51.219629 172.269833,50.4469585 C170.216156,49.674288 168.42684,48.5864655 166.901833,47.1834585 C165.376825,45.7804515 164.167004,44.0724686 163.272333,42.0594585 C162.377662,40.0464484 161.930333,37.7996376 161.930333,35.3189585 C161.930333,32.8382794 162.377662,30.6016351 163.272333,28.6089585 C164.167004,26.6162819 165.376825,24.9286321 166.901833,23.5459585 C168.42684,22.1632849 170.216156,21.1059622 172.269833,20.3739585 C174.32351,19.6419548 176.488988,19.2759585 178.766333,19.2759585 C181.084344,19.2759585 183.259989,19.6419548 185.293333,20.3739585 C187.326676,21.1059622 189.115992,22.1632849 190.661333,23.5459585 C192.206674,24.9286321 193.426662,26.6162819 194.321333,28.6089585 C195.216004,30.6016351 195.663333,32.8382794 195.663333,35.3189585 Z M186.025333,35.3189585 C186.025333,34.3429536 185.862668,33.3872965 185.537333,32.4519585 C185.211998,31.5166205 184.744336,30.6931287 184.134333,29.9814585 C183.52433,29.2697883 182.772004,28.6902941 181.877333,28.2429585 C180.982662,27.7956229 179.945672,27.5719585 178.766333,27.5719585 C177.586993,27.5719585 176.550004,27.7956229 175.655333,28.2429585 C174.760662,28.6902941 174.018502,29.2697883 173.428833,29.9814585 C172.839163,30.6931287 172.391834,31.5166205 172.086833,32.4519585 C171.781831,33.3872965 171.629333,34.3429536 171.629333,35.3189585 C171.629333,36.2949634 171.781831,37.2506205 172.086833,38.1859585 C172.391834,39.1212965 172.84933,39.9651214 173.459333,40.7174585 C174.069336,41.4697956 174.821662,42.0696229 175.716333,42.5169585 C176.611004,42.9642941 177.647993,43.1879585 178.827333,43.1879585 C180.006672,43.1879585 181.043662,42.9642941 181.938333,42.5169585 C182.833004,42.0696229 183.58533,41.4697956 184.195333,40.7174585 C184.805336,39.9651214 185.262831,39.1212965 185.567833,38.1859585 C185.872834,37.2506205 186.025333,36.2949634 186.025333,35.3189585 Z M217.379333,50.6299585 L217.379333,4.5139585 L227.505333,4.5139585 L227.505333,50.6299585 L217.379333,50.6299585 Z M267.643333,35.3189585 C267.643333,37.7996376 267.196004,40.0464484 266.301333,42.0594585 C265.406662,44.0724686 264.186674,45.7804515 262.641333,47.1834585 C261.095992,48.5864655 259.306676,49.674288 257.273333,50.4469585 C255.239989,51.219629 253.064344,51.6059585 250.746333,51.6059585 C248.468988,51.6059585 246.30351,51.219629 244.249833,50.4469585 C242.196156,49.674288 240.40684,48.5864655 238.881833,47.1834585 C237.356825,45.7804515 236.147004,44.0724686 235.252333,42.0594585 C234.357662,40.0464484 233.910333,37.7996376 233.910333,35.3189585 C233.910333,32.8382794 234.357662,30.6016351 235.252333,28.6089585 C236.147004,26.6162819 237.356825,24.9286321 238.881833,23.5459585 C240.40684,22.1632849 242.196156,21.1059622 244.249833,20.3739585 C246.30351,19.6419548 248.468988,19.2759585 250.746333,19.2759585 C253.064344,19.2759585 255.239989,19.6419548 257.273333,20.3739585 C259.306676,21.1059622 261.095992,22.1632849 262.641333,23.5459585 C264.186674,24.9286321 265.406662,26.6162819 266.301333,28.6089585 C267.196004,30.6016351 267.643333,32.8382794 267.643333,35.3189585 Z M258.005333,35.3189585 C258.005333,34.3429536 257.842668,33.3872965 257.517333,32.4519585 C257.191998,31.5166205 256.724336,30.6931287 256.114333,29.9814585 C255.50433,29.2697883 254.752004,28.6902941 253.857333,28.2429585 C252.962662,27.7956229 251.925672,27.5719585 250.746333,27.5719585 C249.566993,27.5719585 248.530004,27.7956229 247.635333,28.2429585 C246.740662,28.6902941 245.998502,29.2697883 245.408833,29.9814585 C244.819163,30.6931287 244.371834,31.5166205 244.066833,32.4519585 C243.761831,33.3872965 243.609333,34.3429536 243.609333,35.3189585 C243.609333,36.2949634 243.761831,37.2506205 244.066833,38.1859585 C244.371834,39.1212965 244.82933,39.9651214 245.439333,40.7174585 C246.049336,41.4697956 246.801662,42.0696229 247.696333,42.5169585 C248.591004,42.9642941 249.627993,43.1879585 250.807333,43.1879585 C251.986672,43.1879585 253.023662,42.9642941 253.918333,42.5169585 C254.813004,42.0696229 255.56533,41.4697956 256.175333,40.7174585 C256.785336,39.9651214 257.242831,39.1212965 257.547833,38.1859585 C257.852834,37.2506205 258.005333,36.2949634 258.005333,35.3189585 Z M292.775333,50.6299585 L281.978333,50.6299585 L270.022333,20.2519585 L281.063333,20.2519585 L287.468333,39.9549585 L287.651333,39.9549585 L294.056333,20.2519585 L304.731333,20.2519585 L292.775333,50.6299585 Z M329.497333,31.9639585 C329.497333,30.3779506 328.999171,29.0156309 328.002833,27.8769585 C327.006494,26.7382861 325.512009,26.1689585 323.519333,26.1689585 C322.543328,26.1689585 321.64867,26.321457 320.835333,26.6264585 C320.021995,26.93146 319.310336,27.3482892 318.700333,27.8769585 C318.09033,28.4056278 317.602335,29.0257883 317.236333,29.7374585 C316.870331,30.4491287 316.667,31.191288 316.626333,31.9639585 L329.497333,31.9639585 Z M338.708333,35.8069585 L338.708333,37.0269585 C338.708333,37.4336272 338.688,37.8199567 338.647333,38.1859585 L316.626333,38.1859585 C316.707666,39.0399628 316.961831,39.8126217 317.388833,40.5039585 C317.815835,41.1952953 318.364829,41.7951226 319.035833,42.3034585 C319.706836,42.8117944 320.459162,43.2082904 321.292833,43.4929585 C322.126504,43.7776266 322.990662,43.9199585 323.885333,43.9199585 C325.471341,43.9199585 326.813327,43.6251281 327.911333,43.0354585 C329.009338,42.4457889 329.903996,41.6832965 330.595333,40.7479585 L337.549333,45.1399585 C336.125992,47.2139689 334.245178,48.8101196 331.906833,49.9284585 C329.568488,51.0467974 326.854015,51.6059585 323.763333,51.6059585 C321.485988,51.6059585 319.330676,51.2501287 317.297333,50.5384585 C315.263989,49.8267883 313.48484,48.7897986 311.959833,47.4274585 C310.434825,46.0651184 309.23517,44.3876351 308.360833,42.3949585 C307.486495,40.4022819 307.049333,38.1249713 307.049333,35.5629585 C307.049333,33.0822794 307.476328,30.8354686 308.330333,28.8224585 C309.184337,26.8094484 310.343325,25.1014655 311.807333,23.6984585 C313.27134,22.2954515 314.999656,21.207629 316.992333,20.4349585 C318.985009,19.662288 321.140321,19.2759585 323.458333,19.2759585 C325.695011,19.2759585 327.748657,19.6521214 329.619333,20.4044585 C331.490009,21.1567956 333.096326,22.2446181 334.438333,23.6679585 C335.780339,25.091299 336.827496,26.819615 337.579833,28.8529585 C338.33217,30.886302 338.708333,33.2042788 338.708333,35.8069585 Z M367.927333,50.6299585 L367.927333,46.6649585 L367.805333,46.6649585 C366.829328,48.2102996 365.436508,49.3997877 363.626833,50.2334585 C361.817157,51.0671293 359.895676,51.4839585 357.862333,51.4839585 C355.584988,51.4839585 353.551675,51.0366296 351.762333,50.1419585 C349.97299,49.2472874 348.458172,48.0577993 347.217833,46.5734585 C345.977493,45.0891177 345.032003,43.3709683 344.381333,41.4189585 C343.730663,39.4669487 343.405333,37.4336357 343.405333,35.3189585 C343.405333,33.2042813 343.740829,31.1811348 344.411833,29.2494585 C345.082836,27.3177822 346.038493,25.6199658 347.278833,24.1559585 C348.519172,22.6919512 350.023824,21.5329628 351.792833,20.6789585 C353.561842,19.8249542 355.544322,19.3979585 357.740333,19.3979585 C359.977011,19.3979585 361.867992,19.8249542 363.413333,20.6789585 C364.958674,21.5329628 366.158328,22.4682868 367.012333,23.4849585 L367.134333,23.4849585 L367.134333,4.5139585 L377.138333,4.5139585 L377.138333,50.6299585 L367.927333,50.6299585 Z M367.561333,35.3799585 C367.561333,34.4039536 367.388501,33.4482965 367.042833,32.5129585 C366.697164,31.5776205 366.209169,30.7439622 365.578833,30.0119585 C364.948496,29.2799548 364.186004,28.6902941 363.291333,28.2429585 C362.396662,27.7956229 361.380005,27.5719585 360.241333,27.5719585 C359.061993,27.5719585 358.025004,27.7956229 357.130333,28.2429585 C356.235662,28.6902941 355.483336,29.2697883 354.873333,29.9814585 C354.26333,30.6931287 353.805834,31.5166205 353.500833,32.4519585 C353.195831,33.3872965 353.043333,34.3429536 353.043333,35.3189585 C353.043333,36.2949634 353.195831,37.2607871 353.500833,38.2164585 C353.805834,39.1721299 354.26333,40.0159548 354.873333,40.7479585 C355.483336,41.4799622 356.235662,42.0696229 357.130333,42.5169585 C358.025004,42.9642941 359.061993,43.1879585 360.241333,43.1879585 C361.380005,43.1879585 362.396662,42.9642941 363.291333,42.5169585 C364.186004,42.0696229 364.948496,41.4799622 365.578833,40.7479585 C366.209169,40.0159548 366.697164,39.1822965 367.042833,38.2469585 C367.388501,37.3116205 367.561333,36.3559634 367.561333,35.3799585 Z" id="soloved"></path>
                <path d="M7.683,35.392 L15.803,35.392 L15.803,40.992 L7.683,40.992 L7.683,35.392 Z M6.675,43.736 L16.867,43.736 L16.867,31.36 L15.747,31.36 C13.059,31.36 12.331,30.464 12.331,26.88 L12.331,19.6 L11.155,19.6 L11.155,24.528 C11.155,27.44 10.763,31.304 8.635,33.88 C8.243,33.376 7.403,32.648 6.675,32.144 L6.675,43.736 Z M7.795,19.6 L6.675,19.6 L6.675,30.52 C7.739,28.56 7.795,26.376 7.795,24.472 L7.795,19.6 Z M11.155,8.624 L11.155,13.104 L12.331,13.104 L12.331,8.624 L11.155,8.624 Z M16.867,27.608 L16.867,19.6 L15.803,19.6 L15.803,26.768 C15.803,27.552 15.915,27.608 16.251,27.608 L16.867,27.608 Z M17.203,8.624 L17.203,13.104 L22.523,13.104 L22.523,52.192 L16.867,52.192 L16.867,49.84 L6.675,49.84 L6.675,52.976 L1.299,52.976 L1.299,13.104 L6.395,13.104 L6.395,8.624 L0.627,8.624 L0.627,2.352 L23.083,2.352 L23.083,8.624 L17.203,8.624 Z M38.091,22.232 L34.395,28.448 C33.779,27.552 32.827,26.488 31.707,25.424 C30.475,28.056 29.075,30.352 27.507,32.2 C26.555,30.912 24.147,28.336 22.747,27.216 C25.771,23.744 27.843,18.256 28.907,12.656 L35.459,14 C35.123,15.568 34.731,17.192 34.227,18.704 C35.739,19.936 37.251,21.224 38.091,22.232 Z M52.539,5.6 L52.539,12.656 L24.539,12.656 L24.539,5.6 L34.339,5.6 C34.059,4.312 33.611,2.968 33.219,1.792 L40.723,-4.54747351e-13 C41.451,1.736 42.235,3.864 42.627,5.6 L52.539,5.6 Z M41.787,30.576 L41.787,33.824 L52.987,33.824 L52.987,41.048 L41.787,41.048 L41.787,53.48 L34.115,53.48 L34.115,41.048 L23.699,41.048 L23.699,33.824 L34.115,33.824 L34.115,29.512 L39.715,29.512 C38.651,28.336 37.363,26.992 36.467,26.264 C39.379,23.016 41.451,17.92 42.515,12.656 L49.067,14.056 C48.675,15.904 48.115,17.696 47.555,19.432 C49.795,21.728 52.147,24.36 53.323,26.264 L48.787,31.36 C47.947,29.848 46.435,27.888 44.811,25.928 C43.859,27.664 42.851,29.232 41.787,30.576 Z M89.8242632,26.488 L88.7042632,27.104 C90.8322632,28.616 92.5122632,30.24 93.8562632,31.92 C97.7202632,30.352 101.864263,28.28 104.832263,26.488 L89.8242632,26.488 Z M88.3682632,45.472 C89.6562632,44.688 90.3842632,43.064 90.1602632,40.936 C87.2482632,42.896 83.9442632,44.688 80.4722632,46.2 C82.0402632,46.312 83.5522632,46.368 84.7282632,46.368 C86.1842632,46.368 87.4722632,46.256 88.3682632,45.472 Z M88.9282632,9.576 L79.8562632,9.576 C79.1282632,10.36 78.3442632,11.144 77.5602632,11.872 L87.2482632,11.872 C87.8642632,11.144 88.4242632,10.36 88.9282632,9.576 Z M92.0642632,17.64 L92.0642632,20.72 L101.192263,20.72 L101.192263,17.64 L92.0642632,17.64 Z M76.9442632,20.72 L84.8402632,20.72 L84.8402632,17.64 L76.9442632,17.64 L76.9442632,20.72 Z M105.672263,26.488 L111.888263,31.192 C109.592263,32.312 107.128263,33.432 104.664263,34.44 C106.848263,38.584 110.488263,42.84 115.528263,44.856 C113.792263,46.424 111.216263,49.728 110.096263,51.912 C104.328263,48.72 100.352263,42.56 98.0002632,36.96 L96.9922632,37.24 C99.2882632,43.288 97.6082632,49.056 93.4082632,51.52 C91.0002632,53.088 89.2082632,53.48 86.0722632,53.536 C84.6162632,53.536 82.9362632,53.48 81.2002632,53.368 C81.0882632,51.464 80.4722632,48.72 79.3522632,46.704 C75.3202632,48.44 71.1202632,49.896 67.2002632,50.904 C66.1922632,49.224 64.1762632,46.48 62.7202632,45.024 C71.6802632,43.232 81.9282632,39.536 87.7522632,35.504 C87.5842632,35.224 87.3602632,35 87.1362632,34.72 C81.4802632,37.912 74.2562632,40.488 67.7042632,41.888 C66.8082632,40.264 64.9042632,37.8 63.5042632,36.4 C70.2242632,35.392 77.7282632,33.376 82.9362632,30.912 C82.6002632,30.632 82.2642632,30.408 81.9282632,30.184 C77.6162632,31.864 72.9682632,33.264 68.9362632,34.104 C67.9842632,32.592 66.1362632,30.072 64.7362632,28.728 C68.2642632,28.224 72.1842632,27.44 75.8802632,26.488 L69.3282632,26.488 L69.3282632,18.256 L68.1522632,18.984 C66.9762632,17.136 64.4562632,14.392 62.7202632,13.216 C69.8322632,9.52 74.8722632,4.536 77.7282632,-4.54747351e-13 L86.1282632,1.736 C85.6802632,2.352 85.2322632,3.024 84.7842632,3.64 L93.4082632,3.64 L94.6402632,3.304 L100.184263,6.944 C99.2322632,8.456 97.9442632,10.192 96.6002632,11.872 L109.256263,11.872 L109.256263,26.488 L105.672263,26.488 Z" id="醉象"></path>
                <path d="M13.209,74.3959585 L13.209,77.8739585 L-5.68434189e-14,77.8739585 L-5.68434189e-14,74.3959585 L5.994,74.3959585 C5.439,73.0269585 4.514,71.1769585 3.737,69.7709585 L6.956,68.4389585 C7.918,69.9559585 9.065,72.0649585 9.62,73.3599585 L7.437,74.3959585 L13.209,74.3959585 Z M12.062,79.5389585 L12.062,82.8689585 L1.591,82.8689585 L1.591,79.5389585 L12.062,79.5389585 Z M1.554,87.8269585 L1.554,84.4969585 L12.025,84.4969585 L12.025,87.8269585 L1.554,87.8269585 Z M25.197,90.1949585 L22.052,90.1949585 L22.052,93.2659585 L25.197,93.2659585 L25.197,90.1949585 Z M28.416,96.2999585 L22.052,96.2999585 L22.052,98.0019585 L19.055,98.0019585 L19.055,87.1239585 L28.416,87.1239585 L28.416,96.2999585 Z M25.641,82.0549585 L29.711,82.0549585 L29.711,79.5759585 L25.641,79.5759585 L25.641,82.0549585 Z M18.093,79.5759585 L18.093,82.0549585 L22.089,82.0549585 L22.089,79.5759585 L18.093,79.5759585 Z M22.089,73.4709585 L18.093,73.4709585 L18.093,76.1349585 L22.089,76.1349585 L22.089,73.4709585 Z M29.711,76.1349585 L29.711,73.4709585 L25.641,73.4709585 L25.641,76.1349585 L29.711,76.1349585 Z M8.695,97.2989585 L8.695,93.1549585 L4.921,93.1549585 L4.921,97.2989585 L8.695,97.2989585 Z M33.3,69.6229585 L33.3,98.2239585 C33.3,100.073959 32.967,101.109959 31.857,101.775959 C30.784,102.404959 29.156,102.478959 26.751,102.478959 C26.603,101.442959 26.122,99.7779585 25.604,98.8159585 C27.121,98.8899585 28.601,98.8529585 29.082,98.8159585 C29.563,98.8159585 29.711,98.6679585 29.711,98.1499585 L29.711,85.4959585 L18.093,85.4959585 C18.019,91.0829585 17.427,98.3349585 14.726,102.959959 C14.097,102.367959 12.543,101.183959 11.729,100.813959 L4.921,100.813959 L4.921,102.256959 L1.443,102.256959 L1.443,89.6029585 L12.173,89.6029585 L12.173,99.9629585 C14.393,95.3009585 14.578,89.0109585 14.578,84.0899585 L14.578,69.6229585 L33.3,69.6229585 Z M70.3,68.5869585 L70.3,83.3499585 C70.3,85.2369585 69.93,86.1249585 68.598,86.7169585 C67.303,87.2719585 65.453,87.3089585 62.937,87.3089585 C62.715,86.2359585 62.123,84.7929585 61.642,83.8309585 C63.307,83.9049585 65.083,83.9049585 65.601,83.8679585 C66.119,83.8679585 66.304,83.7199585 66.304,83.2389585 L66.304,68.5869585 L70.3,68.5869585 Z M63.048,70.1039585 L63.048,82.3139585 L59.126,82.3139585 L59.126,70.1039585 L63.048,70.1039585 Z M66.785,91.6749585 L59.2,91.6749585 C59.94,92.8219585 60.865,93.7839585 61.864,94.6719585 C63.566,93.7839585 65.416,92.6739585 66.785,91.6749585 Z M41.662,74.9509585 L46.176,74.9509585 L46.176,73.4709585 L42.624,73.4709585 C42.328,73.9889585 41.995,74.5069585 41.662,74.9509585 Z M52.7435,86.3099585 L51.578,86.3099585 C51.393,85.4589585 50.875,84.4969585 50.542,83.7939585 C51.393,83.8309585 52.244,83.8309585 52.503,83.8309585 C52.836,83.8309585 52.947,83.7199585 52.947,83.4239585 L52.947,81.8699585 L49.913,81.8699585 L49.913,87.3089585 L46.176,87.3089585 L46.176,81.8699585 L43.327,81.8699585 L43.327,86.4579585 L39.997,86.4579585 L39.997,79.2059585 L46.176,79.2059585 L46.176,77.9109585 L38.517,77.9109585 L38.517,74.9509585 L40.811,74.9509585 C40.071,74.5069585 39.109,73.9519585 38.48,73.6559585 C39.738,72.2499585 40.774,70.2519585 41.403,68.3649585 L44.622,69.1789585 C44.437,69.6969585 44.252,70.1409585 44.03,70.6589585 L46.176,70.6589585 L46.176,68.2909585 L49.913,68.2909585 L49.913,70.6589585 L56.018,70.6589585 L56.018,73.4709585 L49.913,73.4709585 L49.913,74.9509585 L57.017,74.9509585 L57.017,77.9109585 L49.913,77.9109585 L49.913,79.2059585 L56.462,79.2059585 L56.462,83.4239585 C56.462,84.3489585 56.351,84.9779585 55.981,85.3849585 L56.832,85.1629585 C57.387,86.0509585 57.905,87.1979585 58.275,88.1969585 L71.854,88.1969585 L71.854,91.6749585 L68.117,91.6749585 L70.596,93.5249585 C68.857,94.6719585 66.822,95.8189585 64.935,96.7069585 C67.081,97.7429585 69.56,98.4829585 72.483,98.8899585 C71.669,99.7409585 70.633,101.331959 70.115,102.367959 C62.641,100.924959 58.016,97.5949585 55.241,91.8969585 C53.761,93.1179585 51.911,94.1539585 49.913,95.0419585 L49.913,98.3349585 L56.795,96.9289585 C56.61,97.8909585 56.499,99.4449585 56.499,100.221959 C47.693,102.219959 46.398,102.589959 45.658,103.070959 L45.621,102.737959 C45.399,101.849959 44.733,100.554959 44.326,100.036959 C44.992,99.5189585 45.954,98.5939585 45.954,96.7069585 L45.954,96.5959585 C44.141,97.1879585 42.217,97.6319585 40.33,97.9649585 C39.812,97.0399585 38.776,95.5969585 37.999,94.7829585 C42.032,94.2279585 46.213,93.1919585 49.395,91.6749585 L38.591,91.6749585 L38.591,88.1969585 L53.576,88.1969585 C53.317,87.5309585 53.021,86.9019585 52.725,86.3099585 L52.7435,86.3099585 Z M83.472,68.4389585 L87.653,69.7339585 C86.691,72.2869585 85.507,74.8769585 84.138,77.3189585 L84.138,102.774959 L79.92,102.774959 L79.92,83.8679585 C79.106,84.9779585 78.255,85.9769585 77.441,86.8649585 C77.034,85.7549585 75.813,83.3499585 75.073,82.2769585 C78.403,78.9469585 81.622,73.6929585 83.472,68.4389585 Z M90.317,84.7559585 L94.609,85.6439585 C93.536,90.3429585 91.649,95.0049585 89.577,98.0019585 C88.726,97.2989585 86.876,96.1889585 85.803,95.6339585 C87.912,93.0439585 89.466,88.8629585 90.317,84.7559585 Z M105.709,78.9839585 L100.751,78.9839585 L100.751,97.9279585 C100.751,100.036959 100.381,101.257959 99.049,101.997959 C97.754,102.700959 95.978,102.885959 93.61,102.885959 C93.425,101.590959 92.759,99.6299585 92.093,98.4459585 C93.647,98.4829585 95.201,98.4829585 95.719,98.4829585 C96.2,98.4829585 96.385,98.3349585 96.385,97.8539585 L96.385,78.9839585 L92.093,78.9839585 C91.057,81.1299585 89.836,83.0909585 88.615,84.6449585 C87.838,83.8679585 86.062,82.4249585 85.063,81.7589585 C87.875,78.6139585 90.095,73.5079585 91.353,68.4389585 L95.645,69.4009585 C95.164,71.2879585 94.572,73.1009585 93.906,74.9139585 L106.634,74.9139585 L107.337,74.7659585 L110.445,75.3579585 C110.001,78.3549585 109.372,81.7959585 108.854,83.9419585 L105.117,83.3129585 C105.302,82.1659585 105.524,80.6119585 105.709,78.9839585 Z M102.083,85.7179585 L106.005,84.3859585 C107.929,88.1969585 109.52,93.1179585 110.038,96.4479585 L105.82,97.8909585 C105.413,94.5979585 103.859,89.5289585 102.083,85.7179585 Z M119.362,95.1529585 L125.245,95.1529585 L125.245,87.9009585 L119.362,87.9009585 L119.362,95.1529585 Z M125.245,84.0899585 L125.245,78.0959585 L119.362,78.0959585 L119.362,84.0899585 L125.245,84.0899585 Z M136.974,73.9889585 L147.408,73.9889585 C147.408,73.9889585 147.408,75.4689585 147.371,75.9869585 C146.89,92.5259585 146.483,98.4089585 144.966,100.369959 C143.93,101.738959 142.894,102.145959 141.414,102.404959 C140.008,102.589959 137.788,102.552959 135.605,102.478959 C135.531,101.257959 134.939,99.4079585 134.162,98.1869585 C136.53,98.4089585 138.713,98.4089585 139.675,98.4089585 C140.415,98.4089585 140.822,98.2609585 141.303,97.7799585 C142.376,96.5959585 142.857,91.0459585 143.264,77.9849585 L135.346,77.9849585 C134.384,80.2049585 133.237,82.2399585 132.09,83.8309585 C131.498,83.2759585 130.24,82.4249585 129.241,81.7589585 L129.241,99.0379585 L119.362,99.0379585 L119.362,101.738959 L115.366,101.738959 L115.366,74.2479585 L119.547,74.2479585 C120.028,72.3979585 120.472,70.0299585 120.62,68.2909585 L125.43,68.9569585 C124.801,70.8069585 124.135,72.6569585 123.506,74.2479585 L129.241,74.2479585 L129.241,80.2419585 C131.387,77.1339585 133.163,72.6569585 134.236,68.3279585 L138.417,69.2899585 C138.047,70.8809585 137.529,72.4349585 136.974,73.9889585 Z M141.266,90.8609585 L137.529,93.1549585 C136.493,90.9349585 134.199,87.3089585 132.386,84.6079585 L135.827,82.6469585 C137.677,85.1999585 140.119,88.7149585 141.266,90.8609585 Z M171.051,85.9769585 L171.051,87.2719585 L175.713,87.2349585 C175.195,87.0129585 174.677,86.7539585 174.196,86.5689585 L174.936,85.9769585 L171.051,85.9769585 Z M160.21,83.2759585 L166.759,83.2759585 L166.759,81.8699585 L160.21,81.8699585 L160.21,83.2759585 Z M160.21,77.9849585 L160.21,79.3539585 L166.759,79.3539585 L166.759,77.9849585 L160.21,77.9849585 Z M177.933,77.9849585 L171.051,77.9849585 L171.051,79.3539585 L177.933,79.3539585 L177.933,77.9849585 Z M171.051,83.2759585 L177.933,83.2759585 L177.933,81.8699585 L171.051,81.8699585 L171.051,83.2759585 Z M185.814,91.5269585 L185.814,95.0049585 L177.563,95.0049585 L177.563,98.5939585 C177.563,100.628959 177.193,101.664959 175.676,102.256959 C174.196,102.811959 172.124,102.848959 169.312,102.848959 C169.127,101.664959 168.572,100.110959 168.054,99.0009585 C169.83,99.0749585 171.939,99.0749585 172.531,99.0749585 C173.123,99.0379585 173.308,98.9269585 173.308,98.4459585 L173.308,95.0049585 L162.874,95.0049585 C164.428,96.1149585 165.982,97.4099585 166.833,98.4089585 L163.577,101.220959 C162.504,99.7779585 160.025,97.6689585 158.027,96.2999585 L159.581,95.0049585 L152.181,95.0049585 L152.181,91.5269585 L173.308,91.5269585 L173.308,90.1579585 C166.019,90.3059585 159.026,90.4169585 153.846,90.4539585 L153.735,87.3089585 C157.213,87.3459585 161.764,87.3089585 166.759,87.3089585 L166.759,85.9769585 L156.103,85.9769585 L156.103,75.3209585 L166.759,75.3209585 L166.759,73.9889585 L153.18,73.9889585 L153.18,70.6589585 L166.759,70.6589585 L166.759,68.3279585 L171.051,68.3279585 L171.051,70.6589585 L184.556,70.6589585 L184.556,73.9889585 L171.051,73.9889585 L171.051,75.3209585 L182.225,75.3209585 L182.225,85.9769585 L179.746,85.9769585 C181.596,86.9389585 183.335,88.0489585 184.519,88.9369585 L181.818,91.1939585 C181.374,90.8239585 180.856,90.3799585 180.264,89.9729585 L177.563,90.0469585 L177.563,91.5269585 L185.814,91.5269585 Z M211.973,77.5039585 L211.973,82.7949585 L207.94,82.7949585 L207.94,77.5039585 L211.973,77.5039585 Z M215.969,97.7059585 L214.748,97.7059585 C215.303,98.3719585 215.821,99.0379585 216.191,99.7409585 L217.005,99.7409585 C217.375,99.7409585 217.634,99.6669585 217.856,99.3339585 C218.263,98.8159585 218.559,96.9659585 218.781,92.0079585 L209.605,92.0079585 L209.605,93.0439585 L215.969,93.0439585 L215.969,97.7059585 Z M209.605,98.7789585 L211.973,98.6679585 C211.788,98.4089585 211.64,98.2239585 211.455,98.0019585 L212.195,97.7059585 L209.605,97.7059585 L209.605,98.7789585 Z M212.639,95.9669585 L212.639,94.7829585 L209.605,94.7829585 L209.605,95.9669585 L212.639,95.9669585 Z M202.797,95.9669585 L205.905,95.9669585 L205.905,94.7829585 L202.797,94.7829585 L202.797,95.9669585 Z M205.905,92.0079585 L202.908,92.0079585 C202.538,92.3779585 202.168,92.7109585 201.761,93.0439585 L205.905,93.0439585 L205.905,92.0079585 Z M196.988,76.9859585 L196.988,80.6119585 C196.988,84.0529585 196.84,88.4189585 196.174,92.6739585 C198.468,91.4159585 200.244,89.9359585 201.465,88.4559585 L198.431,88.4559585 L198.431,83.2759585 L199.171,83.2759585 L198.542,81.0929585 C200.096,80.8339585 202.205,80.5009585 204.462,80.0569585 C202.982,79.6499585 201.021,79.2059585 199.282,78.9839585 L199.911,77.0599585 C202.131,77.3189585 204.647,77.7629585 206.201,78.2809585 L205.572,79.8719585 L206.978,79.6129585 L207.015,81.7959585 C204.647,82.3509585 202.205,82.9059585 200.17,83.2759585 L219.373,83.2759585 C217.634,82.7579585 215.229,82.2769585 213.009,81.9809585 L213.638,80.0939585 L214.415,80.1309585 L213.564,78.3919585 C214.896,78.1699585 216.857,77.5039585 218.337,76.9859585 L196.988,76.9859585 Z M217.856,72.4349585 L196.988,72.4349585 L196.988,74.1739585 L217.856,74.1739585 L217.856,72.4349585 Z M217.745,86.6799585 L217.745,85.0519585 L214.6,85.0519585 L214.6,86.6799585 L217.745,86.6799585 Z M211.27,86.6799585 L211.27,85.0519585 L208.199,85.0519585 L208.199,86.6799585 L211.27,86.6799585 Z M204.869,86.6799585 L204.869,85.0519585 L201.872,85.0519585 L201.872,86.6799585 L204.869,86.6799585 Z M205.165,89.5659585 L222.814,89.5659585 C222.814,89.5659585 222.814,90.4909585 222.777,90.9349585 C222.481,97.8169585 222.111,100.443959 221.297,101.442959 C220.705,102.219959 219.965,102.478959 219.151,102.589959 C218.374,102.737959 217.116,102.737959 215.821,102.700959 C215.784,102.293959 215.71,101.775959 215.562,101.294959 L213.971,101.960959 C213.86,101.664959 213.712,101.368959 213.564,101.072959 C207.866,101.479959 201.983,101.849959 197.728,102.108959 L197.469,99.2599585 C199.763,99.1859585 202.686,99.0379585 205.905,98.8899585 L205.905,97.7059585 L199.652,97.7059585 L199.652,94.5979585 C199.171,94.9309585 198.653,95.2639585 198.172,95.5599585 C197.691,94.8939585 196.803,94.0799585 196.063,93.5249585 C195.471,96.8919585 194.62,100.110959 193.214,102.737959 C192.4,102.071959 190.513,100.998959 189.403,100.591959 C192.474,94.8939585 192.733,86.4949585 192.733,80.6119585 L192.733,69.6599585 L222.148,69.6599585 L222.148,76.9859585 L219.595,76.9859585 L220.557,78.6879585 C218.744,79.3909585 216.265,79.8719585 214.526,80.1679585 C216.783,80.4269585 219.225,80.9079585 220.668,81.3519585 L219.965,83.2759585 L221.371,83.2759585 L221.371,88.4559585 L205.979,88.4559585 C205.72,88.8259585 205.461,89.1959585 205.165,89.5659585 Z M235.801,68.3649585 L239.871,69.6969585 C238.872,72.2499585 237.651,74.8769585 236.208,77.3559585 L236.208,102.737959 L232.027,102.737959 L232.027,83.7199585 C231.176,84.7929585 230.288,85.7919585 229.437,86.7169585 C229.03,85.6439585 227.809,83.2759585 227.069,82.2029585 C230.51,78.8729585 233.877,73.6189585 235.801,68.3649585 Z M242.387,91.0089585 L246.346,92.1929585 C244.829,95.3749585 242.572,98.9639585 240.685,101.220959 C239.908,100.554959 238.28,99.3709585 237.281,98.8529585 C239.131,96.8179585 241.129,93.7469585 242.387,91.0089585 Z M244.792,73.7669585 L244.792,78.7249585 L255.633,78.7249585 L255.633,73.7669585 L244.792,73.7669585 Z M261.886,89.8619585 L252.303,89.8619585 L252.303,102.848959 L247.863,102.848959 L247.863,89.8619585 L238.206,89.8619585 L238.206,85.8659585 L247.863,85.8659585 L247.863,82.6099585 L240.611,82.6099585 L240.611,69.8819585 L260.036,69.8819585 L260.036,82.6099585 L252.303,82.6099585 L252.303,85.8659585 L261.886,85.8659585 L261.886,89.8619585 Z M253.561,92.7849585 L256.817,90.9719585 C258.926,93.4139585 261.183,96.5959585 262.256,98.7789585 L258.778,100.887959 C257.779,98.7049585 255.522,95.3009585 253.561,92.7849585 Z M274.651,86.9019585 L291.079,86.9019585 C290.006,85.9399585 289.007,84.9039585 288.119,83.7939585 L288.119,85.6809585 L277.389,85.6809585 L277.389,84.0159585 C276.575,85.0149585 275.613,85.9769585 274.651,86.9019585 Z M292.818,95.8929585 L284.308,95.8929585 C286.047,96.3369585 288.008,96.8919585 290.006,97.4839585 C290.931,97.0029585 291.893,96.4479585 292.818,95.8929585 Z M281.977,97.1509585 L281.977,97.7429585 L283.309,95.8929585 L276.39,95.8929585 L276.39,98.1499585 L281.977,97.1509585 Z M276.39,92.3779585 L276.39,93.5619585 L288.452,93.5619585 L288.452,92.3779585 L276.39,92.3779585 Z M276.39,89.2329585 L276.39,90.3799585 L288.452,90.3799585 L288.452,89.2329585 L276.39,89.2329585 Z M287.157,82.4619585 L278.499,82.4619585 L277.722,83.5719585 L287.934,83.5719585 C287.675,83.2019585 287.379,82.8319585 287.157,82.4619585 Z M299.108,82.4619585 L291.856,82.4619585 C294.076,84.6449585 297.11,86.3839585 300.329,87.3829585 C299.367,88.1969585 298.146,89.7509585 297.517,90.8239585 C295.889,90.1949585 294.372,89.3439585 292.929,88.3449585 L292.929,95.8189585 C293.928,95.2269585 294.816,94.6719585 295.556,94.1169585 L298.405,96.3369585 C296.962,97.1139585 295.334,97.9279585 293.817,98.5939585 C295.556,99.1489585 297.11,99.6669585 298.331,100.110959 L296.481,103.070959 C293.225,101.812959 286.787,99.6669585 282.014,98.3719585 C282.088,99.1119585 282.162,99.8519585 282.236,100.369959 C273.911,102.108959 272.616,102.478959 271.765,102.996959 C271.469,102.034959 270.618,100.221959 269.952,99.4819585 C270.729,99.0379585 271.58,98.1869585 271.58,96.4849585 L271.58,89.3069585 C270.433,90.0839585 269.286,90.7869585 268.102,91.3419585 C267.473,90.5279585 266.03,88.8999585 265.068,88.1599585 C268.287,86.9019585 271.358,84.8669585 273.467,82.4619585 L266.437,82.4619585 L266.437,79.5389585 L280.423,79.5389585 L280.423,78.2809585 L270.1,78.2809585 L270.1,75.6539585 L280.423,75.6539585 L280.423,74.4329585 L268.361,74.4329585 L268.361,71.5839585 L274.281,71.5839585 C273.874,70.8809585 273.43,70.1409585 273.023,69.5489585 L276.982,68.3279585 C277.759,69.3269585 278.573,70.6219585 279.091,71.5839585 L286.713,71.5839585 C287.305,70.5109585 287.971,69.2159585 288.304,68.2539585 L293.188,69.2159585 C292.559,70.0669585 291.967,70.8809585 291.375,71.5839585 L297.147,71.5839585 L297.147,74.4329585 L284.974,74.4329585 L284.974,75.6539585 L295.408,75.6539585 L295.408,78.2809585 L284.974,78.2809585 L284.974,79.5389585 L299.108,79.5389585 L299.108,82.4619585 Z M312.465,81.7959585 L318.422,81.7959585 L318.422,79.4279585 L312.465,79.4279585 L312.465,81.7959585 Z M312.465,73.6559585 L312.465,76.0239585 L318.422,76.0239585 L318.422,73.6559585 L312.465,73.6559585 Z M328.967,76.0239585 L328.967,73.6559585 L323.084,73.6559585 L323.084,76.0239585 L328.967,76.0239585 Z M328.967,81.7959585 L328.967,79.4279585 L323.084,79.4279585 L323.084,81.7959585 L328.967,81.7959585 Z M337.218,91.6749585 L326.303,91.6749585 C329.559,94.3019585 334.073,96.6699585 338.291,97.8909585 C337.292,98.7789585 335.96,100.517959 335.331,101.627959 C331.039,99.9999585 326.525,97.1139585 323.084,93.7469585 L323.084,102.848959 L318.422,102.848959 L318.422,93.9319585 C315.018,97.3359585 310.504,100.221959 306.101,101.849959 C305.435,100.813959 304.103,99.1119585 303.104,98.1869585 C307.507,96.8919585 312.095,94.4499585 315.203,91.6749585 L304.251,91.6749585 L304.251,87.6419585 L318.422,87.6419585 L318.422,85.4589585 L307.84,85.4589585 L307.84,69.9929585 L333.814,69.9929585 L333.814,85.4589585 L323.084,85.4589585 L323.084,87.6419585 L337.218,87.6419585 L337.218,91.6749585 Z M365.597,89.4919585 L351.574,89.4919585 L351.574,91.9339585 L365.597,91.9339585 L365.597,89.4919585 Z M351.574,97.9649585 L365.597,97.9649585 L365.597,95.3749585 L351.574,95.3749585 L351.574,97.9649585 Z M347.097,102.811959 L347.097,85.7919585 L370.296,85.7919585 L370.296,102.811959 L365.597,102.811959 L365.597,101.627959 L351.574,101.627959 L351.574,102.811959 L347.097,102.811959 Z M354.756,76.2089585 L354.756,79.4649585 L362.304,79.4649585 L362.304,76.2089585 L354.756,76.2089585 Z M366.892,79.4649585 L375.106,79.4649585 L375.106,83.5349585 L342.213,83.5349585 L342.213,79.4649585 L350.205,79.4649585 L350.205,76.2089585 L344.063,76.2089585 L344.063,72.2129585 L350.205,72.2129585 L350.205,68.3279585 L354.756,68.3279585 L354.756,72.2129585 L362.304,72.2129585 L362.304,68.3279585 L366.892,68.3279585 L366.892,72.2129585 L373.33,72.2129585 L373.33,76.2089585 L366.892,76.2089585 L366.892,79.4649585 Z" id="調製你的專屬保養果昔"></path>
            </g>
        </g>
    </g>
</svg>