<?xml version="1.0" encoding="UTF-8"?>
<svg width="702px" height="976px" viewBox="0 0 702 976" version="1.1" xmlns="http://www.w3.org/2000/svg" xmlns:xlink="http://www.w3.org/1999/xlink">
    <title>Combined Shape</title>
    <g id="Drunk-Elephant_1920" stroke="none" stroke-width="1" fill="none" fill-rule="evenodd">
        <g id="web-Drunkelephant_index" transform="translate(-109.000000, -1218.000000)" fill="#E0FF00" fill-rule="nonzero" stroke="#E0FF00" stroke-width="1.26884872">
            <g id="Group-8" transform="translate(110.000000, 1219.000000)">
                <path d="M478.116,0 L252.777778,336.108393 C284.188191,323.58592 321.58098,317.324777 364.957265,317.324777 C429.273826,317.324777 486.734077,330.974068 537.339744,358.273061 C587.94541,385.572053 627.706408,423.514578 656.623932,472.101775 C685.541455,520.688972 700,576.28792 700,638.900287 C700,703.51625 684.793599,761.243986 654.380342,812.085228 C623.967084,862.92647 581.339306,902.622116 526.495726,931.173355 C471.652147,959.724594 410.078689,974 341.773504,974 C274.465475,974 214.761657,959.97504 162.660256,931.9247 C110.558856,903.874359 70.42393,864.930051 42.2542735,815.090607 C14.084617,765.251163 0,708.525209 0,644.911044 C0,584.302273 10.719266,529.705107 32.1581197,481.117911 C53.5969733,432.530714 82.7633483,380.938897 119.65812,326.340913 L336.211,0 L478.116,0 Z M354.487179,431.529164 C290.170619,431.529164 236.823574,450.938706 194.444444,489.758374 C152.065315,528.578042 130.876068,580.295081 130.876068,644.911044 C130.876068,707.523411 151.192817,758.614336 191.826923,798.185352 C232.461029,837.756368 283.938435,857.541579 346.260684,857.541579 C410.577245,857.541579 463.92429,837.255477 506.303419,796.682663 C548.682548,756.109849 569.871795,704.017141 569.871795,640.402976 C569.871795,577.790609 549.430404,527.325798 508.547009,489.007029 C467.663613,450.688261 416.31085,431.529164 354.487179,431.529164 Z" id="Combined-Shape"></path>
            </g>
        </g>
    </g>
</svg>