<?xml version="1.0" encoding="UTF-8"?>
<svg width="616px" height="290px" viewBox="0 0 616 290" version="1.1" xmlns="http://www.w3.org/2000/svg" xmlns:xlink="http://www.w3.org/1999/xlink">
    <!-- Generator: Sketch 55.2 (78181) - https://sketchapp.com -->
    <title>skin1</title>
    <desc>Created with Sketch.</desc>
    <defs>
        <polygon id="path-1" points="0.0283029851 1.21734375 438.339519 1.21734375 438.339519 20.0907656 0.0283029851 20.0907656"></polygon>
    </defs>
    <g id="Drunk-Elephant_1920" stroke="none" stroke-width="1" fill="none" fill-rule="evenodd">
        <g id="Drunkelephant_獨特之處_out" transform="translate(-439.000000, -1675.000000)">
            <g id="skin1" transform="translate(439.000000, 1675.000000)">
                <rect id="Rectangle" fill="#FFFFFF" opacity="0.603794643" x="0" y="0" width="616" height="290" rx="145"></rect>
                <g id="Group-10" transform="translate(88.000000, 113.000000)">
                    <polygon id="Fill-1" fill="#E4E420" points="0 101.782328 438.367164 101.782328 438.367164 17.7134219 0 17.7134219"></polygon>
                    <g id="Group-9" transform="translate(0.000000, 0.063578)">
                        <g id="Group-4">
                            <mask id="mask-2" fill="white">
                                <use xlink:href="#path-1"></use>
                            </mask>
                            <g id="Clip-3"></g>
                            <path d="M377.093176,4.06514062 C377.093176,4.06514062 301.998116,8.57357812 243.144363,4.06514062 C184.287318,-0.446578125 132.532348,1.05623437 55.4100045,4.06514062 C46.9586015,4.39654687 27.6697881,4.65248437 0.0283029851,4.84935937 L0.0283029851,20.0907656 L438.339519,20.0907656 L438.339519,4.06514062 L377.093176,4.06514062 Z" id="Fill-2" fill="#F7F7CC" mask="url(#mask-2)"></path>
                        </g>
                        <path d="M253.376879,79.6139531 C253.376879,84.5391094 249.414461,88.5291094 244.523969,88.5291094 C239.633476,88.5291094 235.671058,84.5391094 235.671058,79.6139531 C235.671058,72.9595781 244.925476,63.3323906 244.925476,63.3323906 C244.925476,63.3323906 253.376879,72.7889531 253.376879,79.6139531 M122.251782,73.2155156 C122.251782,78.1406719 118.286073,82.1339531 113.398872,82.1339531 C108.508379,82.1339531 104.545961,78.1406719 104.545961,73.2155156 C104.545961,66.5578594 113.800379,56.9339531 113.800379,56.9339531 C113.800379,56.9339531 122.251782,66.3937969 122.251782,73.2155156 M187.727118,48.4289531 C187.727118,53.3541094 183.7647,57.3441094 178.877499,57.3441094 C173.987006,57.3441094 170.021297,53.3541094 170.021297,48.4289531 C170.021297,41.7712969 179.279006,32.1408281 179.279006,32.1408281 C179.279006,32.1408281 187.727118,41.6039531 187.727118,48.4289531 M40.0480657,59.7098906 C40.0480657,64.6350469 36.0823567,68.6217656 31.1951552,68.6217656 C26.3046627,68.6217656 22.3422448,64.6350469 22.3422448,59.7098906 C22.3422448,53.0522344 31.5966627,43.4283281 31.5966627,43.4283281 C31.5966627,43.4283281 40.0480657,52.8848906 40.0480657,59.7098906" id="Stroke-5" stroke="#FF7679" stroke-width="2.69788042"></path>
                        <path d="M402.811046,70.4461406 C402.811046,75.3745781 398.848628,79.3645781 393.961426,79.3645781 C389.067643,79.3645781 385.105225,75.3745781 385.105225,70.4461406 C385.105225,63.7950469 394.359643,54.1645781 394.359643,54.1645781 C394.359643,54.1645781 402.811046,63.6244219 402.811046,70.4461406 M320.607329,56.9405156 C320.607329,61.8689531 316.644911,65.8589531 311.754419,65.8589531 C306.863926,65.8589531 302.901508,61.8689531 302.901508,56.9405156 C302.901508,50.2828594 312.155926,40.6589531 312.155926,40.6589531 C312.155926,40.6589531 320.607329,50.1187969 320.607329,56.9405156" id="Stroke-7" stroke="#FF7679" stroke-width="2.69788042"></path>
                    </g>
                </g>
                <path d="M236.912,54.576 L240.536,54.576 C240.872,53.976 241.232,53.136 241.496,52.464 L236.48,52.464 C236.84,53.112 237.2,53.928 237.296,54.48 L236.912,54.576 Z M240.68,63.648 L240.68,62.064 L237.44,62.064 L237.44,63.648 L240.68,63.648 Z M234.464,52.632 L235.136,52.464 L231.44,52.464 L231.44,50.712 L237.92,50.712 C237.68,50.232 237.368,49.752 237.056,49.344 L238.808,48.648 C239.312,49.248 239.816,50.04 240.176,50.712 L246.728,50.712 L246.728,52.464 L243.416,52.464 L243.704,52.536 C243.344,53.256 242.984,53.976 242.648,54.576 L246.008,54.576 L246.008,64.824 C246.008,65.808 245.84,66.336 245.168,66.648 C244.472,66.984 243.488,67.008 242.096,67.008 C242,66.456 241.712,65.64 241.472,65.136 C242.408,65.184 243.296,65.184 243.584,65.184 C243.872,65.16 243.968,65.064 243.968,64.8 L243.968,56.328 L239.84,56.328 L239.84,57.792 L243.104,57.792 L243.104,59.232 L239.84,59.232 L239.84,60.744 L242.288,60.744 L242.288,64.992 L237.44,64.992 L237.44,65.808 L235.856,65.808 L235.856,60.744 L238.184,60.744 L238.184,59.232 L234.968,59.232 L234.968,57.792 L238.184,57.792 L238.184,56.328 L234.224,56.328 L234.224,66.864 L232.208,66.864 L232.208,54.576 L235.256,54.576 C235.088,53.976 234.824,53.208 234.464,52.632 Z M229.976,52.752 L227.984,53.544 C227.624,52.488 226.904,50.808 226.4,49.536 L228.32,48.912 C228.872,50.136 229.592,51.744 229.976,52.752 Z M230.264,59.808 L231.224,60.144 C230.816,62.304 230.168,64.608 229.352,66.408 C229.784,66.672 230.288,67.032 231.008,67.488 C232.688,68.496 234.872,68.64 237.704,68.64 C240.608,68.64 244.64,68.424 247.304,68.088 C247.04,68.688 246.68,69.792 246.632,70.392 C244.784,70.512 240.392,70.656 237.608,70.656 C234.44,70.656 232.376,70.392 230.624,69.384 C229.664,68.832 228.8,68.016 228.272,68.016 C227.744,68.016 226.928,69.552 226.256,71.016 L224.744,68.952 C225.656,67.752 226.592,66.768 227.408,66.312 C228.008,65.04 228.488,63.36 228.824,61.8 L225.704,61.8 C226.328,60.384 227.072,58.464 227.72,56.568 L225.152,56.568 L225.152,54.552 L230.504,54.552 C229.952,56.256 229.232,58.224 228.584,59.88 L229.904,59.88 L230.264,59.808 Z M265.328,63.144 L254.936,63.144 L254.936,67.584 L265.328,67.584 L265.328,63.144 Z M252.68,70.848 L252.68,61.152 L267.68,61.152 L267.68,70.752 L265.328,70.752 L265.328,69.648 L254.936,69.648 L254.936,70.848 L252.68,70.848 Z M255.392,56.592 L265.256,56.592 C263.504,55.464 261.848,54.144 260.144,52.464 C258.752,54 257.12,55.392 255.392,56.592 Z M260.312,48.792 L262.28,49.8 C262.04,50.16 261.8,50.52 261.512,50.88 C264.44,53.76 267.704,55.584 271.256,57 C270.656,57.504 270.008,58.32 269.696,59.04 C268.424,58.416 267.2,57.792 266,57.072 L266,58.656 L254.048,58.656 L254.048,57.456 C252.92,58.128 251.768,58.776 250.592,59.28 C250.208,58.68 249.584,57.84 248.96,57.288 C253.424,55.536 257.864,52.488 260.312,48.792 Z M276.584,55.896 L276.584,58.32 C276.584,59.376 276.56,60.552 276.488,61.776 C277.352,61.272 278.504,60.528 279.656,59.712 L279.656,57.72 L278.864,58.416 C278.36,57.744 277.424,56.76 276.584,55.896 Z M279.656,51.792 L276.584,51.792 L276.584,55.08 L277.4,54.456 C278.168,55.104 279.008,55.944 279.656,56.616 L279.656,51.792 Z M281.744,49.728 L281.744,68.16 C281.744,69.264 281.528,69.888 280.88,70.248 C280.184,70.608 279.224,70.68 277.664,70.68 C277.592,70.104 277.328,69.12 277.04,68.544 C278,68.592 278.936,68.592 279.224,68.592 C279.536,68.568 279.656,68.472 279.656,68.136 L279.656,61.704 C278.84,62.4 278.024,63.096 277.256,63.744 L276.464,62.352 C276.272,65.352 275.792,68.592 274.688,70.968 C274.28,70.608 273.368,70.104 272.816,69.912 C274.4,66.6 274.52,61.824 274.52,58.32 L274.52,49.728 L281.744,49.728 Z M292.28,68.4 L292.76,68.4 C292.904,68.4 293.072,68.376 293.144,68.256 C293.264,68.16 293.312,67.92 293.336,67.416 C293.384,66.888 293.432,65.712 293.432,64.272 C293.888,64.68 294.584,65.04 295.184,65.256 C295.16,66.528 295.064,68.112 294.944,68.76 C294.824,69.432 294.608,69.864 294.224,70.104 C293.888,70.368 293.408,70.488 292.904,70.488 L291.632,70.488 C291.152,70.488 290.552,70.296 290.168,69.96 C289.76,69.552 289.616,69.048 289.616,67.032 L289.616,51.864 L286.256,51.864 L286.256,59.616 C286.256,63.192 285.92,68.064 283.664,71.04 C283.28,70.656 282.32,69.96 281.792,69.72 C283.856,66.984 284.048,62.928 284.048,59.616 L284.048,49.728 L291.824,49.728 L291.824,67.104 C291.824,67.776 291.848,68.16 291.944,68.28 C292.04,68.352 292.136,68.4 292.28,68.4 Z M315.944,63.816 L315.944,68.976 C315.944,69.888 315.752,70.248 315.104,70.488 C314.48,70.728 313.496,70.728 312.056,70.728 C311.96,70.248 311.696,69.72 311.48,69.312 C312.344,69.336 313.208,69.336 313.448,69.312 C313.712,69.312 313.808,69.24 313.808,69 L313.808,68.04 C311.192,68.424 308.648,68.784 306.56,69.072 L306.056,67.584 C307.616,67.464 309.728,67.272 311.96,67.056 C310.592,66.6 308.288,66.168 306.44,65.928 L306.968,64.992 C308.84,65.16 311.288,65.592 312.656,66.048 L312.176,67.032 L313.808,66.864 L313.808,64.824 L305.72,64.824 L305.72,66.336 C305.72,67.92 305.456,69.864 304.016,71.136 C303.68,70.752 302.744,70.032 302.264,69.744 C303.488,68.736 303.608,67.416 303.608,66.288 L303.608,63.816 L315.944,63.816 Z M304.4,61.248 L304.4,62.088 L308.576,62.088 L308.576,61.248 L304.4,61.248 Z M304.4,59.496 L304.4,60.312 L308.576,60.312 L308.576,59.496 L304.4,59.496 Z M314.936,60.312 L314.936,59.496 L310.592,59.496 L310.592,60.312 L314.936,60.312 Z M314.936,62.088 L314.936,61.248 L310.592,61.248 L310.592,62.088 L314.936,62.088 Z M302.36,63.048 L302.36,58.536 L317.048,58.536 L317.048,63.048 L302.36,63.048 Z M309.656,56.448 L314.96,56.448 C315.776,56.448 317.312,56.376 317.816,56.256 C317.888,56.832 317.936,57.24 318.032,57.648 C317.48,57.792 316.28,57.84 315.176,57.84 L309.248,57.84 C307.256,57.84 306.728,57.192 306.656,55.92 L302.288,56.088 L302.24,55.008 L306.656,54.84 L306.656,53.904 L301.16,53.904 L301.16,58.56 C301.16,62.088 300.824,67.248 298.856,70.656 C298.424,70.272 297.488,69.72 296.96,69.504 C298.832,66.312 298.976,61.776 298.976,58.536 L298.976,52.368 L306.632,52.368 L306.632,48.84 L308.864,48.84 L308.864,50.016 L316.664,50.016 L316.664,51.48 L308.864,51.48 L308.864,52.368 L316.352,52.368 L316.736,52.272 L318.368,52.728 C317.96,53.88 317.408,55.152 316.904,55.968 L315.032,55.344 C315.224,54.96 315.44,54.432 315.632,53.904 L308.648,53.904 L308.648,54.768 L314.144,54.552 L314.192,55.632 L308.648,55.848 C308.696,56.28 308.888,56.448 309.656,56.448 Z M324.104,66.456 L328.568,66.456 L328.568,61.152 L324.104,61.152 L324.104,66.456 Z M328.568,54.648 L324.104,54.648 L324.104,59.208 L328.568,59.208 L328.568,54.648 Z M335.36,52.584 L342.32,52.584 C342.32,52.584 342.32,53.352 342.296,53.64 C341.96,64.464 341.672,68.184 340.712,69.384 C340.112,70.176 339.536,70.392 338.624,70.512 C337.784,70.608 336.368,70.584 335,70.512 C334.952,69.912 334.688,68.976 334.28,68.352 C335.816,68.472 337.208,68.496 337.808,68.496 C338.288,68.496 338.552,68.424 338.816,68.088 C339.584,67.296 339.896,63.672 340.208,54.624 L334.544,54.624 C333.872,56.16 333.128,57.552 332.36,58.656 C332,58.32 331.16,57.72 330.608,57.408 L330.608,68.424 L324.104,68.424 L324.104,70.248 L322.064,70.248 L322.064,52.704 L324.752,52.704 C325.088,51.552 325.448,49.968 325.592,48.816 L328.016,49.224 C327.608,50.424 327.152,51.696 326.768,52.704 L330.608,52.704 L330.608,57.24 C332.192,55.176 333.464,51.984 334.184,48.816 L336.344,49.32 C336.056,50.424 335.744,51.528 335.36,52.584 Z M338.432,63.408 L336.56,64.584 C335.888,63.12 334.328,60.768 333.056,59.04 L334.808,58.056 C336.08,59.712 337.712,61.992 338.432,63.408 Z M348.2,65.424 L348.2,63.672 L353.48,63.672 L353.48,65.424 L348.2,65.424 Z M351.536,54.504 L351.536,51.72 L350.144,51.72 L350.144,54.504 L351.536,54.504 Z M354.344,60.12 L354.344,56.376 L352.952,56.376 L352.952,59.784 C352.952,60.12 353,60.168 353.264,60.168 L354.008,60.168 C354.2,60.168 354.296,60.144 354.344,60.12 Z M347.336,67.44 L354.344,67.44 L354.344,61.56 L353.096,61.56 C351.968,61.56 351.632,61.224 351.632,59.808 L351.632,56.376 L350.216,56.376 L350.216,58.152 C350.216,59.592 349.856,61.368 348.32,62.592 C348.104,62.352 347.648,61.92 347.336,61.752 L347.336,67.44 Z M348.872,56.376 L347.336,56.376 L347.336,61.68 C348.656,60.6 348.872,59.232 348.872,58.128 L348.872,56.376 Z M345.2,51.72 L345.2,49.848 L356.504,49.848 L356.504,51.72 L353.312,51.72 L353.312,54.504 L356.168,54.504 L356.168,70.512 L354.344,70.512 L354.344,69.192 L347.336,69.192 L347.336,70.848 L345.584,70.848 L345.584,54.504 L348.392,54.504 L348.392,51.72 L345.2,51.72 Z M360.776,68.568 L363.872,68.568 C364.832,68.568 365,67.968 365.12,64.656 C365.624,65.04 366.536,65.424 367.136,65.568 C366.872,69.504 366.296,70.632 364.064,70.632 L360.464,70.632 C358.136,70.632 357.416,69.984 357.416,67.512 L357.416,57.6 L364.088,57.6 L364.088,52.104 L357.344,52.104 L357.344,49.968 L366.248,49.968 L366.248,59.736 L359.624,59.736 L359.624,67.488 C359.624,68.4 359.792,68.568 360.776,68.568 Z M390.488,55.032 L378.344,55.032 C378.272,56.16 378.2,57.312 378.056,58.44 L388.256,58.44 C388.256,58.44 388.232,59.136 388.16,59.448 C387.704,66.072 387.248,68.712 386.288,69.696 C385.64,70.344 385.016,70.536 384.008,70.632 C383.12,70.704 381.56,70.68 379.952,70.584 C379.928,69.936 379.616,69.024 379.16,68.4 C380.864,68.544 382.496,68.568 383.168,68.568 C383.696,68.568 384.008,68.52 384.32,68.28 C384.992,67.728 385.424,65.496 385.808,60.6 L377.72,60.6 C376.952,64.728 375.2,68.592 370.76,70.992 C370.424,70.392 369.728,69.624 369.128,69.168 C375.08,66.144 375.632,60.312 375.872,55.032 L369.584,55.032 L369.584,52.848 L379.856,52.848 C379.544,51.888 378.896,50.52 378.344,49.488 L380.528,48.672 C381.152,49.752 381.896,51.192 382.232,52.152 L380.624,52.848 L390.488,52.848 L390.488,55.032 Z" id="適合肌膚的配方" fill="#FF7679" fill-rule="nonzero"></path>
            </g>
        </g>
    </g>
</svg>