<?xml version="1.0" encoding="UTF-8"?>
<svg width="240px" height="160px" viewBox="0 0 240 160" version="1.1" xmlns="http://www.w3.org/2000/svg" xmlns:xlink="http://www.w3.org/1999/xlink">
    <title>skin 2</title>
    <defs>
        <polygon id="path-1" points="0.00333456971 0.493691493 3.72088508 0.493691493 3.72088508 4.1958042 0.00333456971 4.1958042"></polygon>
        <polygon id="path-3" points="0 0.049000999 68.7723593 0.049000999 68.7723593 7.64423909 0 7.64423909"></polygon>
        <polygon id="path-5" points="0.415909091 0.0480852481 67.7572511 0.0480852481 67.7572511 6.802664 0.415909091 6.802664"></polygon>
    </defs>
    <g id="Drunk-Elephant_phone" stroke="none" stroke-width="1" fill="none" fill-rule="evenodd">
        <g id="Phone_獨特之處_btn_轉外框" transform="translate(-86.000000, -898.000000)">
            <g id="skin-2" transform="translate(86.000000, 898.000000)">
                <rect id="Rectangle-Copy" fill="#FFFFFF" opacity="0.603794643" x="0" y="0" width="240" height="160" rx="80"></rect>
                <path d="M83.154,26.15 L84.972,26.15 L84.972,40.208 C84.972,41.324 84.684,41.81 83.982,42.098 C83.262,42.368 82.11,42.422 80.4,42.404 C80.292,41.936 80.004,41.144 79.734,40.658 C80.958,40.712 82.272,40.712 82.65,40.694 C83.028,40.676 83.154,40.568 83.154,40.208 L83.154,26.15 Z M87.456,30.74 L89.076,30.128 C90.606,32.63 92.082,35.906 92.532,38.084 L90.714,38.804 C90.336,36.68 88.914,33.332 87.456,30.74 Z M78.492,30.272 L80.382,30.614 C79.788,33.242 78.78,36.5 77.214,38.498 C76.8,38.192 76.062,37.778 75.612,37.616 C77.124,35.744 78.078,32.648 78.492,30.272 Z M101.1,26.204 L105.366,26.204 C106.212,28.922 108.084,31.478 110.478,32.774 C110.1,33.116 109.542,33.818 109.272,34.304 C108.696,33.926 108.138,33.494 107.634,33.008 C107.634,33.116 107.616,33.242 107.616,33.314 C107.382,38.786 107.148,40.874 106.518,41.576 C106.122,42.08 105.69,42.224 105.042,42.314 C104.448,42.386 103.35,42.368 102.252,42.314 C102.234,41.81 102,41.108 101.712,40.622 C102.792,40.73 103.818,40.748 104.25,40.748 C104.592,40.748 104.808,40.694 105.006,40.496 C105.42,40.064 105.654,38.372 105.834,34.178 L101.694,34.178 C101.226,37.67 100.056,40.838 95.448,42.53 C95.25,42.08 94.764,41.378 94.368,41.036 C98.526,39.65 99.48,37.04 99.876,34.178 L96.492,34.178 L96.492,32.936 C96.024,33.458 95.52,33.926 95.016,34.34 C94.71,33.998 94.008,33.386 93.594,33.098 C95.664,31.64 97.284,29.228 98.148,26.51 L99.894,26.924 C99.174,29.066 98.112,31.01 96.816,32.558 L107.184,32.558 C105.87,31.172 104.808,29.498 104.124,27.752 L101.1,27.752 L101.1,26.204 Z M128.1,33.746 L128.1,35.42 L120.954,35.42 L120.954,40.334 C120.954,41.36 120.702,41.864 119.946,42.116 C119.19,42.386 118.002,42.422 116.328,42.422 C116.22,41.936 115.896,41.162 115.608,40.694 C116.976,40.748 118.326,40.748 118.722,40.73 C119.1,40.712 119.208,40.622 119.208,40.298 L119.208,35.42 L111.954,35.42 L111.954,33.746 L119.208,33.746 L119.208,31.208 C120.54,30.578 122.106,29.606 123.276,28.67 L113.736,28.67 L113.736,27.032 L125.112,27.032 L125.49,26.942 L126.75,27.914 C125.22,29.39 123.006,31.01 120.954,32.09 L120.954,33.746 L128.1,33.746 Z M130.494,37.472 L131.844,37.706 C131.664,39.308 131.358,41.036 130.98,42.134 C130.692,41.99 130.044,41.774 129.684,41.666 C130.098,40.586 130.332,38.948 130.494,37.472 Z M132.51,37.67 L133.716,37.436 C133.968,38.714 134.184,40.37 134.256,41.468 L132.96,41.72 C132.906,40.622 132.708,38.948 132.51,37.67 Z M134.364,37.328 L135.516,36.968 C135.93,38.066 136.38,39.488 136.56,40.442 L135.336,40.838 C135.174,39.884 134.76,38.426 134.364,37.328 Z M134.22,33.044 L135.462,32.702 C135.93,33.89 136.452,35.474 136.632,36.41 L135.318,36.86 C135.264,36.572 135.192,36.266 135.102,35.906 C131.25,36.482 130.638,36.608 130.26,36.806 C130.188,36.5 129.918,35.726 129.756,35.294 C130.152,35.222 130.566,34.808 131.124,34.142 C131.394,33.872 131.916,33.188 132.51,32.324 C130.8,32.522 130.404,32.612 130.134,32.738 C130.044,32.414 129.81,31.676 129.648,31.28 C129.954,31.208 130.278,30.848 130.656,30.326 C131.052,29.786 132.294,27.752 133.014,25.844 L134.526,26.474 C133.752,28.076 132.78,29.714 131.79,31.046 L133.482,30.902 C133.932,30.182 134.4,29.39 134.778,28.616 L136.164,29.462 C135.048,31.406 133.644,33.35 132.24,34.934 L134.76,34.61 C134.58,34.07 134.4,33.512 134.22,33.044 Z M143.508,36.95 L138.99,36.95 L138.99,40.118 L143.508,40.118 L143.508,36.95 Z M137.424,42.404 L137.424,35.438 L145.128,35.438 L145.128,42.332 L143.508,42.332 L143.508,41.63 L138.99,41.63 L138.99,42.404 L137.424,42.404 Z M146.064,29.75 L142.05,29.75 L142.05,32.234 L145.596,32.234 L145.596,33.764 L137.064,33.764 L137.064,32.234 L140.322,32.234 L140.322,29.75 L136.56,29.75 L136.56,28.202 L140.322,28.202 L140.322,25.898 L142.05,25.898 L142.05,28.202 L146.064,28.202 L146.064,29.75 Z M153.984,35.492 L153.084,36.716 C152.85,36.14 152.328,35.15 151.86,34.304 L151.86,42.404 L150.312,42.404 L150.312,34.79 C149.772,36.5 149.106,38.084 148.386,39.11 C148.224,38.66 147.828,38.03 147.594,37.67 C148.656,36.194 149.682,33.53 150.168,31.244 L147.972,31.244 L147.972,29.696 L150.312,29.696 L150.312,25.898 L151.86,25.898 L151.86,29.696 L153.786,29.696 L153.786,31.244 L151.86,31.244 L151.86,32.306 C152.364,32.972 153.696,35.006 153.984,35.492 Z M159.672,38.282 L161.796,38.282 L161.796,37.166 L159.672,37.166 L159.672,38.282 Z M156.162,37.166 L156.162,38.282 L158.16,38.282 L158.16,37.166 L156.162,37.166 Z M158.16,34.988 L156.162,34.988 L156.162,36.014 L158.16,36.014 L158.16,34.988 Z M161.796,34.988 L159.672,34.988 L159.672,36.014 L161.796,36.014 L161.796,34.988 Z M157.71,30.65 L157.71,31.658 L160.176,31.658 L160.176,30.65 L157.71,30.65 Z M157.71,28.49 L157.71,29.48 L160.176,29.48 L160.176,28.49 L157.71,28.49 Z M164.424,38.282 L164.424,39.542 L163.362,39.542 L163.362,40.73 C163.362,41.486 163.2,41.864 162.678,42.116 C162.156,42.314 161.346,42.332 160.194,42.332 C160.122,41.936 159.924,41.36 159.744,40.982 C160.5,41.018 161.274,41.018 161.508,41 C161.724,41 161.796,40.928 161.796,40.712 L161.796,39.542 L156.162,39.542 L156.162,42.332 L154.632,42.332 L154.632,39.542 L153.48,39.542 L153.48,38.282 L154.632,38.282 L154.632,33.782 L158.16,33.782 L158.16,32.9 L153.786,32.9 L153.786,31.658 L156.144,31.658 L156.144,30.65 L154.56,30.65 L154.56,29.48 L156.144,29.48 L156.144,28.49 L154.182,28.49 L154.182,27.284 L156.144,27.284 L156.144,25.898 L157.71,25.898 L157.71,27.284 L160.176,27.284 L160.176,25.898 L161.742,25.898 L161.742,27.284 L163.884,27.284 L163.884,28.49 L161.742,28.49 L161.742,29.48 L163.614,29.48 L163.614,30.65 L161.742,30.65 L161.742,31.658 L164.244,31.658 L164.244,32.9 L159.672,32.9 L159.672,33.782 L163.362,33.782 L163.362,38.282 L164.424,38.282 Z" id="小分子結構" fill="#FF7679" fill-rule="nonzero"></path>
                <g id="Group-44" transform="translate(48.701299, 59.831169)">
                    <polygon id="Fill-1" fill="#FF7679" points="56.152987 1.56721612 65.5213853 19.2027473 57.768355 16.5745421 56.6828571 19.7430403 70.0381602 24.2723443 74.5880519 10.9774725 71.4051515 9.89505495 68.6527706 17.935348 59.1243074 0.00128205128"></polygon>
                    <g id="Group-43" transform="translate(0.000000, 26.187263)">
                        <path d="M68.2925325,11.1927739 C67.287987,10.9821512 66.3018398,11.6195138 66.0884199,12.6195138 C65.8768398,13.6195138 66.5189394,14.6011988 67.521645,14.8154845 C68.5261905,15.0261072 69.5123377,14.3869131 69.7257576,13.3869131 C69.9410173,12.3869131 69.2970779,11.4052281 68.2925325,11.1927739" id="Fill-2" fill="#FF7679"></path>
                        <path d="M75.6159632,15.4691475 C75.8293831,14.4691475 75.1872835,13.4874625 74.1827381,13.2750083 C73.1781926,13.0662171 72.1920455,13.7035798 71.9786255,14.7017483 C71.7670455,15.7017483 72.4073052,16.6834332 73.4118506,16.8958874 C74.4163961,17.1101732 75.4025433,16.4691475 75.6159632,15.4691475" id="Fill-4" fill="#FF7679"></path>
                        <path d="M72.1232359,2.12281052 C71.909816,3.12464202 72.5500758,4.1044955 73.5546212,4.31694972 C74.5591667,4.52757243 75.5453139,3.89204129 75.7605736,2.89204129 C75.9721537,1.89020979 75.3300541,0.91035631 74.3255087,0.697902098 C73.3209632,0.483616384 72.334816,1.12281052 72.1232359,2.12281052" id="Fill-6" fill="#FF7679"></path>
                        <path d="M73.5820346,9.15559441 C73.7954545,8.15559441 73.153355,7.17390942 72.1488095,6.96328671 C71.1442641,6.752664 70.1581169,7.38819514 69.9428571,8.38819514 C69.7331169,9.38819514 70.3752165,10.3698801 71.3779221,10.5823343 C72.3824675,10.79662 73.3686147,10.1555944 73.5820346,9.15559441" id="Fill-8" fill="#FF7679"></path>
                        <path d="M67.1877165,1.50394605 C66.9742965,2.50394605 67.6163961,3.48563104 68.6209416,3.69625375 C69.625487,3.90687646 70.6116342,3.27134532 70.8268939,2.27134532 C71.0366342,1.27134532 70.3963745,0.28966034 69.391829,0.0772061272 C68.3872835,-0.137079587 67.4011364,0.503946054 67.1877165,1.50394605" id="Fill-10" fill="#FF7679"></path>
                        <path d="M70.6947944,20.7365468 C70.4832143,21.7365468 71.123474,22.7182318 72.1280195,22.930686 C73.1325649,23.1394772 74.1187121,22.5039461 74.3339719,21.5039461 C74.5455519,20.5039461 73.9034524,19.5222611 72.8989069,19.3098069 C71.8943615,19.0955211 70.9082143,19.7365468 70.6947944,20.7365468" id="Fill-12" fill="#FF7679"></path>
                        <path d="M76.2933874,27.1700633 C77.2979329,27.3825175 78.2840801,26.7451548 78.4975,25.7433233 C78.7072403,24.7433233 78.0688203,23.7634699 77.0642749,23.5491841 C76.0597294,23.3385614 75.0735823,23.9777556 74.8601623,24.9759241 C74.6449026,25.9777556 75.288842,26.9576091 76.2933874,27.1700633" id="Fill-14" fill="#FF7679"></path>
                        <path d="M80.4329978,33.5070596 C81.4375433,33.7195138 82.4236905,33.0821512 82.6371104,32.0821512 C82.8486905,31.0803197 82.2084307,30.1004662 81.2038853,29.8861805 C80.1993398,29.6755578 79.2131926,30.3129204 79.0016126,31.3129204 C78.7863528,32.3147519 79.4284524,33.2946054 80.4329978,33.5070596" id="Fill-16" fill="#FF7679"></path>
                        <path d="M90.7549784,30.6398435 C89.7504329,30.4273893 88.7642857,31.0665834 88.5508658,32.0665834 C88.3392857,33.0665834 88.9795455,34.0482684 89.9840909,34.2607226 C90.9886364,34.4713453 91.9747835,33.8321512 92.1863636,32.8339827 C92.4016234,31.8339827 91.7595238,30.8522977 90.7549784,30.6398435" id="Fill-18" fill="#FF7679"></path>
                        <path d="M87.6215693,35.4422244 C86.6170238,35.2316017 85.6308766,35.8689644 85.4174567,36.8689644 C85.2058766,37.8689644 85.8461364,38.8506494 86.8506818,39.0649351 C87.8552273,39.2755578 88.8413745,38.6363636 89.0547944,37.6363636 C89.2682143,36.6363636 88.6261147,35.6546787 87.6215693,35.4422244" id="Fill-20" fill="#FF7679"></path>
                        <g id="Group-24" transform="translate(84.090909, 40.942391)">
                            <mask id="mask-2" fill="white">
                                <use xlink:href="#path-1"></use>
                            </mask>
                            <g id="Clip-23"></g>
                            <path d="M2.24609307,0.534448884 C1.24154762,0.321994672 0.255400433,0.961188811 0.0438203463,1.96118881 C-0.16775974,2.96118881 0.470660173,3.94287379 1.47520563,4.15715951 C2.47975108,4.36595072 3.46589827,3.72675658 3.67931818,2.72858808 C3.89457792,1.72858808 3.25247835,0.746903097 2.24609307,0.534448884" id="Fill-22" fill="#FF7679" mask="url(#mask-2)"></path>
                        </g>
                        <path d="M76.893539,31.2891109 C77.1069589,30.2891109 76.4666991,29.3074259 75.4621537,29.0968032 C74.4576082,28.8861805 73.471461,29.5235431 73.2562013,30.5217116 C73.0446212,31.5235431 73.6867208,32.5033966 74.6912662,32.7158508 C75.6958117,32.9301365 76.6819589,32.2909424 76.893539,31.2891109" id="Fill-25" fill="#FF7679"></path>
                        <path d="M72.7088528,36.080686 C71.7043074,35.8700633 70.7181602,36.5074259 70.5047403,37.5074259 C70.2931602,38.5074259 70.9315801,39.4891109 71.9379654,39.7033966 C72.9425108,39.9140193 73.928658,39.2748252 74.1402381,38.2748252 C74.3554978,37.2748252 73.7133983,36.2931402 72.7088528,36.080686" id="Fill-27" fill="#FF7679"></path>
                        <path d="M81.4031385,40.856327 C80.3985931,40.6457043 79.4124459,41.2830669 79.199026,42.2830669 C78.9874459,43.2830669 79.6295455,44.2647519 80.6322511,44.4790376 C81.6367965,44.6896603 82.6229437,44.0504662 82.8363636,43.0504662 C83.0497835,42.0504662 82.407684,41.0687812 81.4031385,40.856327" id="Fill-29" fill="#FF7679"></path>
                        <path d="M77.4090584,35.8125541 C76.404513,35.6000999 75.4202056,36.2374625 75.2067857,37.2374625 C74.9952056,38.239294 75.6336255,39.2191475 76.638171,39.4334332 C77.6445563,39.6440559 78.6288636,39.0066933 78.8422835,38.0048618 C79.0575433,37.0048618 78.4154437,36.0250083 77.4090584,35.8125541" id="Fill-31" fill="#FF7679"></path>
                        <path d="M82.6860498,34.82336 C81.6815043,34.6109058 80.6953571,35.2482684 80.4837771,36.2500999 C80.272197,37.2500999 80.9124567,38.2317849 81.9151623,38.4442391 C82.9197078,38.6548618 83.905855,38.0174992 84.1192749,37.0174992 C84.3345346,36.0174992 83.6924351,35.0358142 82.6860498,34.82336" id="Fill-33" fill="#FF7679"></path>
                        <path d="M77.0874567,21.4537629 C78.0920022,21.6662171 79.0781494,21.027023 79.2915693,20.027023 C79.5013095,19.027023 78.8610498,18.045338 77.8583442,17.8328838 C76.8537987,17.6222611 75.8676515,18.2596237 75.6542316,19.2596237 C75.4389719,20.2596237 76.0829113,21.2413087 77.0874567,21.4537629" id="Fill-35" fill="#FF7679"></path>
                        <g id="Group-39" transform="translate(0.000000, 1.831502)">
                            <mask id="mask-4" fill="white">
                                <use xlink:href="#path-3"></use>
                            </mask>
                            <g id="Clip-38"></g>
                            <path d="M68.7723593,6.27244422 C66.2701948,5.81823177 64.4285281,4.46292041 62.5077489,3.02885448 C61.1959524,2.0471695 59.84,1.03801199 58.2687879,0.367682318 L58.2761472,0.353030303 C57.6947619,0.109440559 55.0141342,0.0563270063 53.4668398,0.049000999 L-0.000367965368,0.049000999 L-0.000367965368,1.41163836 L53.4613203,1.41163836 C55.176039,1.42262737 57.2090476,1.49588745 57.6947619,1.60028305 C59.1261472,2.20284715 60.37171,3.13141858 61.6853463,4.11676657 C63.7017965,5.62409257 65.7844805,7.16072261 68.6858874,7.64423909 L68.7723593,6.27244422 Z" id="Fill-37" stroke="#E4E420" stroke-width="1.2987013" fill="#E4E420" mask="url(#mask-4)"></path>
                        </g>
                        <g id="Group-42" transform="translate(74.242424, 1.831502)">
                            <mask id="mask-6" fill="white">
                                <use xlink:href="#path-5"></use>
                            </mask>
                            <g id="Clip-41"></g>
                            <path d="M13.2155844,0.0480852481 C11.7418831,0.0572427572 9.22316017,0.106693307 8.58474026,0.341125541 L8.58290043,0.335631036 C8.57738095,0.339294039 8.57002165,0.344788545 8.56266234,0.348451548 C8.5534632,0.35028305 8.54242424,0.352114552 8.53690476,0.353946054 L8.53874459,0.357609058 C6.95833333,1.02610723 5.47911255,2.04259074 4.16179654,3.02793873 C2.94383117,3.93819514 1.75714286,4.81731602 0.415909091,5.45651016 L0.745238095,6.802664 C2.32012987,6.08837829 3.67056277,5.0993673 4.98235931,4.11768232 C6.30335498,3.13050283 7.76233766,2.10852481 9.21580087,1.58288378 C9.80822511,1.48581419 11.6554113,1.41988012 13.2192641,1.41072261 L67.7590909,1.41072261 L67.7590909,0.0480852481 L13.2155844,0.0480852481 Z" id="Fill-40" stroke="#E4E420" stroke-width="1.2987013" fill="#E4E420" mask="url(#mask-6)"></path>
                        </g>
                    </g>
                </g>
            </g>
        </g>
    </g>
</svg>