<?xml version="1.0" encoding="UTF-8"?>
<svg width="356px" height="160px" viewBox="0 0 356 160" version="1.1" xmlns="http://www.w3.org/2000/svg" xmlns:xlink="http://www.w3.org/1999/xlink">
    <!-- Generator: Sketch 55.2 (78181) - https://sketchapp.com -->
    <title>skin</title>
    <desc>Created with Sketch.</desc>
    <defs>
        <polygon id="path-1" points="0.0183785617 0.790482955 284.636052 0.790482955 284.636052 13.0459517 0.0183785617 13.0459517"></polygon>
    </defs>
    <g id="Drunk-Elephant_phone" stroke="none" stroke-width="1" fill="none" fill-rule="evenodd">
        <g id="Phone_獨特之處_btn_轉外框" transform="translate(-29.000000, -708.000000)">
            <g id="skin" transform="translate(29.000000, 708.000000)">
                <rect id="Rectangle" fill="#FFFFFF" opacity="0.603794643" x="0" y="0" width="356" height="160" rx="80"></rect>
                <g id="Group-10" transform="translate(35.142857, 56.000000)">
                    <polygon id="Fill-1" fill="#E4E420" points="0 66.0924209 284.654003 66.0924209 284.654003 11.502222 0 11.502222"></polygon>
                    <g id="Group-9" transform="translate(0.000000, 0.041284)">
                        <g id="Group-4">
                            <mask id="mask-2" fill="white">
                                <use xlink:href="#path-1"></use>
                            </mask>
                            <g id="Clip-3"></g>
                            <path d="M244.865699,2.6397017 C244.865699,2.6397017 196.102673,5.56725852 157.88595,2.6397017 C119.66709,-0.289985795 86.0599661,0.685866477 35.9805224,2.6397017 C30.4925984,2.85490057 17.9673948,3.02109375 0.0183785617,3.14893466 L0.0183785617,13.0459517 L284.636052,13.0459517 L284.636052,2.6397017 L244.865699,2.6397017 Z" id="Fill-2" fill="#F7F7CC" mask="url(#mask-2)"></path>
                        </g>
                        <path d="M164.530441,51.6973722 C164.530441,54.8955256 161.957442,57.4864347 158.781798,57.4864347 C155.606153,57.4864347 153.033155,54.8955256 153.033155,51.6973722 C153.033155,47.3763494 159.042517,41.124929 159.042517,41.124929 C159.042517,41.124929 164.530441,47.265554 164.530441,51.6973722 M79.3842741,47.5425426 C79.3842741,50.740696 76.8091384,53.3337358 73.6356309,53.3337358 C70.4599864,53.3337358 67.8869878,50.740696 67.8869878,47.5425426 C67.8869878,43.2193892 73.8963501,36.9700994 73.8963501,36.9700994 C73.8963501,36.9700994 79.3842741,43.1128551 79.3842741,47.5425426 M121.900726,31.4473722 C121.900726,34.6455256 119.327727,37.2364347 116.15422,37.2364347 C112.978575,37.2364347 110.40344,34.6455256 110.40344,31.4473722 C110.40344,27.1242188 116.414939,20.8706676 116.414939,20.8706676 C116.414939,20.8706676 121.900726,27.015554 121.900726,31.4473722 M26.0052374,38.7726563 C26.0052374,41.9708097 23.4301018,44.5595881 20.2565943,44.5595881 C17.0809498,44.5595881 14.5079512,41.9708097 14.5079512,38.7726563 C14.5079512,34.4495028 20.5173134,28.2002131 20.5173134,28.2002131 C20.5173134,28.2002131 26.0052374,34.3408381 26.0052374,38.7726563" id="Stroke-5" stroke="#FF7679" stroke-width="1.7518704"></path>
                        <path d="M261.565614,45.7442472 C261.565614,48.9445313 258.992615,51.5354403 255.819108,51.5354403 C252.641326,51.5354403 250.068328,48.9445313 250.068328,45.7442472 C250.068328,41.4253551 256.07769,35.171804 256.07769,35.171804 C256.07769,35.171804 261.565614,41.3145597 261.565614,45.7442472 M208.186577,36.9743608 C208.186577,40.1746449 205.613579,42.765554 202.437934,42.765554 C199.26229,42.765554 196.689291,40.1746449 196.689291,36.9743608 C196.689291,32.6512074 202.698653,26.4019176 202.698653,26.4019176 C202.698653,26.4019176 208.186577,32.5446733 208.186577,36.9743608" id="Stroke-7" stroke="#FF7679" stroke-width="1.7518704"></path>
                    </g>
                </g>
                <path d="M124.684,26.182 L127.402,26.182 C127.654,25.732 127.924,25.102 128.122,24.598 L124.36,24.598 C124.63,25.084 124.9,25.696 124.972,26.11 L124.684,26.182 Z M127.51,32.986 L127.51,31.798 L125.08,31.798 L125.08,32.986 L127.51,32.986 Z M122.848,24.724 L123.352,24.598 L120.58,24.598 L120.58,23.284 L125.44,23.284 C125.26,22.924 125.026,22.564 124.792,22.258 L126.106,21.736 C126.484,22.186 126.862,22.78 127.132,23.284 L132.046,23.284 L132.046,24.598 L129.562,24.598 L129.778,24.652 C129.508,25.192 129.238,25.732 128.986,26.182 L131.506,26.182 L131.506,33.868 C131.506,34.606 131.38,35.002 130.876,35.236 C130.354,35.488 129.616,35.506 128.572,35.506 C128.5,35.092 128.284,34.48 128.104,34.102 C128.806,34.138 129.472,34.138 129.688,34.138 C129.904,34.12 129.976,34.048 129.976,33.85 L129.976,27.496 L126.88,27.496 L126.88,28.594 L129.328,28.594 L129.328,29.674 L126.88,29.674 L126.88,30.808 L128.716,30.808 L128.716,33.994 L125.08,33.994 L125.08,34.606 L123.892,34.606 L123.892,30.808 L125.638,30.808 L125.638,29.674 L123.226,29.674 L123.226,28.594 L125.638,28.594 L125.638,27.496 L122.668,27.496 L122.668,35.398 L121.156,35.398 L121.156,26.182 L123.442,26.182 C123.316,25.732 123.118,25.156 122.848,24.724 Z M119.482,24.814 L117.988,25.408 C117.718,24.616 117.178,23.356 116.8,22.402 L118.24,21.934 C118.654,22.852 119.194,24.058 119.482,24.814 Z M119.698,30.106 L120.418,30.358 C120.112,31.978 119.626,33.706 119.014,35.056 C119.338,35.254 119.716,35.524 120.256,35.866 C121.516,36.622 123.154,36.73 125.278,36.73 C127.456,36.73 130.48,36.568 132.478,36.316 C132.28,36.766 132.01,37.594 131.974,38.044 C130.588,38.134 127.294,38.242 125.206,38.242 C122.83,38.242 121.282,38.044 119.968,37.288 C119.248,36.874 118.6,36.262 118.204,36.262 C117.808,36.262 117.196,37.414 116.692,38.512 L115.558,36.964 C116.242,36.064 116.944,35.326 117.556,34.984 C118.006,34.03 118.366,32.77 118.618,31.6 L116.278,31.6 C116.746,30.538 117.304,29.098 117.79,27.676 L115.864,27.676 L115.864,26.164 L119.878,26.164 C119.464,27.442 118.924,28.918 118.438,30.16 L119.428,30.16 L119.698,30.106 Z M145.996,32.608 L138.202,32.608 L138.202,35.938 L145.996,35.938 L145.996,32.608 Z M136.51,38.386 L136.51,31.114 L147.76,31.114 L147.76,38.314 L145.996,38.314 L145.996,37.486 L138.202,37.486 L138.202,38.386 L136.51,38.386 Z M138.544,27.694 L145.942,27.694 C144.628,26.848 143.386,25.858 142.108,24.598 C141.064,25.75 139.84,26.794 138.544,27.694 Z M142.234,21.844 L143.71,22.6 C143.53,22.87 143.35,23.14 143.134,23.41 C145.33,25.57 147.778,26.938 150.442,28 C149.992,28.378 149.506,28.99 149.272,29.53 C148.318,29.062 147.4,28.594 146.5,28.054 L146.5,29.242 L137.536,29.242 L137.536,28.342 C136.69,28.846 135.826,29.332 134.944,29.71 C134.656,29.26 134.188,28.63 133.72,28.216 C137.068,26.902 140.398,24.616 142.234,21.844 Z M154.438,27.172 L154.438,28.99 C154.438,29.782 154.42,30.664 154.366,31.582 C155.014,31.204 155.878,30.646 156.742,30.034 L156.742,28.54 L156.148,29.062 C155.77,28.558 155.068,27.82 154.438,27.172 Z M156.742,24.094 L154.438,24.094 L154.438,26.56 L155.05,26.092 C155.626,26.578 156.256,27.208 156.742,27.712 L156.742,24.094 Z M158.308,22.546 L158.308,36.37 C158.308,37.198 158.146,37.666 157.66,37.936 C157.138,38.206 156.418,38.26 155.248,38.26 C155.194,37.828 154.996,37.09 154.78,36.658 C155.5,36.694 156.202,36.694 156.418,36.694 C156.652,36.676 156.742,36.604 156.742,36.352 L156.742,31.528 C156.13,32.05 155.518,32.572 154.942,33.058 L154.348,32.014 C154.204,34.264 153.844,36.694 153.016,38.476 C152.71,38.206 152.026,37.828 151.612,37.684 C152.8,35.2 152.89,31.618 152.89,28.99 L152.89,22.546 L158.308,22.546 Z M166.21,36.55 L166.57,36.55 C166.678,36.55 166.804,36.532 166.858,36.442 C166.948,36.37 166.984,36.19 167.002,35.812 C167.038,35.416 167.074,34.534 167.074,33.454 C167.416,33.76 167.938,34.03 168.388,34.192 C168.37,35.146 168.298,36.334 168.208,36.82 C168.118,37.324 167.956,37.648 167.668,37.828 C167.416,38.026 167.056,38.116 166.678,38.116 L165.724,38.116 C165.364,38.116 164.914,37.972 164.626,37.72 C164.32,37.414 164.212,37.036 164.212,35.524 L164.212,24.148 L161.692,24.148 L161.692,29.962 C161.692,32.644 161.44,36.298 159.748,38.53 C159.46,38.242 158.74,37.72 158.344,37.54 C159.892,35.488 160.036,32.446 160.036,29.962 L160.036,22.546 L165.868,22.546 L165.868,35.578 C165.868,36.082 165.886,36.37 165.958,36.46 C166.03,36.514 166.102,36.55 166.21,36.55 Z M183.958,33.112 L183.958,36.982 C183.958,37.666 183.814,37.936 183.328,38.116 C182.86,38.296 182.122,38.296 181.042,38.296 C180.97,37.936 180.772,37.54 180.61,37.234 C181.258,37.252 181.906,37.252 182.086,37.234 C182.284,37.234 182.356,37.18 182.356,37 L182.356,36.28 C180.394,36.568 178.486,36.838 176.92,37.054 L176.542,35.938 C177.712,35.848 179.296,35.704 180.97,35.542 C179.944,35.2 178.216,34.876 176.83,34.696 L177.226,33.994 C178.63,34.12 180.466,34.444 181.492,34.786 L181.132,35.524 L182.356,35.398 L182.356,33.868 L176.29,33.868 L176.29,35.002 C176.29,36.19 176.092,37.648 175.012,38.602 C174.76,38.314 174.058,37.774 173.698,37.558 C174.616,36.802 174.706,35.812 174.706,34.966 L174.706,33.112 L183.958,33.112 Z M175.3,31.186 L175.3,31.816 L178.432,31.816 L178.432,31.186 L175.3,31.186 Z M175.3,29.872 L175.3,30.484 L178.432,30.484 L178.432,29.872 L175.3,29.872 Z M183.202,30.484 L183.202,29.872 L179.944,29.872 L179.944,30.484 L183.202,30.484 Z M183.202,31.816 L183.202,31.186 L179.944,31.186 L179.944,31.816 L183.202,31.816 Z M173.77,32.536 L173.77,29.152 L184.786,29.152 L184.786,32.536 L173.77,32.536 Z M179.242,27.586 L183.22,27.586 C183.832,27.586 184.984,27.532 185.362,27.442 C185.416,27.874 185.452,28.18 185.524,28.486 C185.11,28.594 184.21,28.63 183.382,28.63 L178.936,28.63 C177.442,28.63 177.046,28.144 176.992,27.19 L173.716,27.316 L173.68,26.506 L176.992,26.38 L176.992,25.678 L172.87,25.678 L172.87,29.17 C172.87,31.816 172.618,35.686 171.142,38.242 C170.818,37.954 170.116,37.54 169.72,37.378 C171.124,34.984 171.232,31.582 171.232,29.152 L171.232,24.526 L176.974,24.526 L176.974,21.88 L178.648,21.88 L178.648,22.762 L184.498,22.762 L184.498,23.86 L178.648,23.86 L178.648,24.526 L184.264,24.526 L184.552,24.454 L185.776,24.796 C185.47,25.66 185.056,26.614 184.678,27.226 L183.274,26.758 C183.418,26.47 183.58,26.074 183.724,25.678 L178.486,25.678 L178.486,26.326 L182.608,26.164 L182.644,26.974 L178.486,27.136 C178.522,27.46 178.666,27.586 179.242,27.586 Z M190.078,35.092 L193.426,35.092 L193.426,31.114 L190.078,31.114 L190.078,35.092 Z M193.426,26.236 L190.078,26.236 L190.078,29.656 L193.426,29.656 L193.426,26.236 Z M198.52,24.688 L203.74,24.688 C203.74,24.688 203.74,25.264 203.722,25.48 C203.47,33.598 203.254,36.388 202.534,37.288 C202.084,37.882 201.652,38.044 200.968,38.134 C200.338,38.206 199.276,38.188 198.25,38.134 C198.214,37.684 198.016,36.982 197.71,36.514 C198.862,36.604 199.906,36.622 200.356,36.622 C200.716,36.622 200.914,36.568 201.112,36.316 C201.688,35.722 201.922,33.004 202.156,26.218 L197.908,26.218 C197.404,27.37 196.846,28.414 196.27,29.242 C196,28.99 195.37,28.54 194.956,28.306 L194.956,36.568 L190.078,36.568 L190.078,37.936 L188.548,37.936 L188.548,24.778 L190.564,24.778 C190.816,23.914 191.086,22.726 191.194,21.862 L193.012,22.168 C192.706,23.068 192.364,24.022 192.076,24.778 L194.956,24.778 L194.956,28.18 C196.144,26.632 197.098,24.238 197.638,21.862 L199.258,22.24 C199.042,23.068 198.808,23.896 198.52,24.688 Z M200.824,32.806 L199.42,33.688 C198.916,32.59 197.746,30.826 196.792,29.53 L198.106,28.792 C199.06,30.034 200.284,31.744 200.824,32.806 Z M208.15,34.318 L208.15,33.004 L212.11,33.004 L212.11,34.318 L208.15,34.318 Z M210.652,26.128 L210.652,24.04 L209.608,24.04 L209.608,26.128 L210.652,26.128 Z M212.758,30.34 L212.758,27.532 L211.714,27.532 L211.714,30.088 C211.714,30.34 211.75,30.376 211.948,30.376 L212.506,30.376 C212.65,30.376 212.722,30.358 212.758,30.34 Z M207.502,35.83 L212.758,35.83 L212.758,31.42 L211.822,31.42 C210.976,31.42 210.724,31.168 210.724,30.106 L210.724,27.532 L209.662,27.532 L209.662,28.864 C209.662,29.944 209.392,31.276 208.24,32.194 C208.078,32.014 207.736,31.69 207.502,31.564 L207.502,35.83 Z M208.654,27.532 L207.502,27.532 L207.502,31.51 C208.492,30.7 208.654,29.674 208.654,28.846 L208.654,27.532 Z M205.9,24.04 L205.9,22.636 L214.378,22.636 L214.378,24.04 L211.984,24.04 L211.984,26.128 L214.126,26.128 L214.126,38.134 L212.758,38.134 L212.758,37.144 L207.502,37.144 L207.502,38.386 L206.188,38.386 L206.188,26.128 L208.294,26.128 L208.294,24.04 L205.9,24.04 Z M217.582,36.676 L219.904,36.676 C220.624,36.676 220.75,36.226 220.84,33.742 C221.218,34.03 221.902,34.318 222.352,34.426 C222.154,37.378 221.722,38.224 220.048,38.224 L217.348,38.224 C215.602,38.224 215.062,37.738 215.062,35.884 L215.062,28.45 L220.066,28.45 L220.066,24.328 L215.008,24.328 L215.008,22.726 L221.686,22.726 L221.686,30.052 L216.718,30.052 L216.718,35.866 C216.718,36.55 216.844,36.676 217.582,36.676 Z M239.866,26.524 L230.758,26.524 C230.704,27.37 230.65,28.234 230.542,29.08 L238.192,29.08 C238.192,29.08 238.174,29.602 238.12,29.836 C237.778,34.804 237.436,36.784 236.716,37.522 C236.23,38.008 235.762,38.152 235.006,38.224 C234.34,38.278 233.17,38.26 231.964,38.188 C231.946,37.702 231.712,37.018 231.37,36.55 C232.648,36.658 233.872,36.676 234.376,36.676 C234.772,36.676 235.006,36.64 235.24,36.46 C235.744,36.046 236.068,34.372 236.356,30.7 L230.29,30.7 C229.714,33.796 228.4,36.694 225.07,38.494 C224.818,38.044 224.296,37.468 223.846,37.126 C228.31,34.858 228.724,30.484 228.904,26.524 L224.188,26.524 L224.188,24.886 L231.892,24.886 C231.658,24.166 231.172,23.14 230.758,22.366 L232.396,21.754 C232.864,22.564 233.422,23.644 233.674,24.364 L232.468,24.886 L239.866,24.886 L239.866,26.524 Z" id="適合肌膚的配方" fill="#FF7679" fill-rule="nonzero"></path>
            </g>
        </g>
    </g>
</svg>