<?xml version="1.0" encoding="UTF-8"?>
<svg width="370px" height="290px" viewBox="0 0 370 290" version="1.1" xmlns="http://www.w3.org/2000/svg" xmlns:xlink="http://www.w3.org/1999/xlink">
    <!-- Generator: Sketch 55.2 (78181) - https://sketchapp.com -->
    <title>skin2</title>
    <desc>Created with Sketch.</desc>
    <defs>
        <polygon id="path-1" points="0.00513523736 0.760284899 5.73016303 0.760284899 5.73016303 6.46153846 0.00513523736 6.46153846"></polygon>
        <polygon id="path-3" points="0 0.0754615385 105.909433 0.0754615385 105.909433 11.7721282 0 11.7721282"></polygon>
        <polygon id="path-5" points="0.6405 0.0740512821 104.346167 0.0740512821 104.346167 10.4761026 0.6405 10.4761026"></polygon>
    </defs>
    <g id="Drunk-Elephant_1920" stroke="none" stroke-width="1" fill="none" fill-rule="evenodd">
        <g id="Drunkelephant_獨特之處_out" transform="translate(-1090.000000, -1675.000000)">
            <g id="skin2" transform="translate(1090.000000, 1675.000000)">
                <rect id="Rectangle-Copy" fill="#FFFFFF" opacity="0.603794643" x="0" y="0" width="370" height="290" rx="145"></rect>
                <path d="M135.872,49.2 L138.296,49.2 L138.296,67.944 C138.296,69.432 137.912,70.08 136.976,70.464 C136.016,70.824 134.48,70.896 132.2,70.872 C132.056,70.248 131.672,69.192 131.312,68.544 C132.944,68.616 134.696,68.616 135.2,68.592 C135.704,68.568 135.872,68.424 135.872,67.944 L135.872,49.2 Z M141.608,55.32 L143.768,54.504 C145.808,57.84 147.776,62.208 148.376,65.112 L145.952,66.072 C145.448,63.24 143.552,58.776 141.608,55.32 Z M129.656,54.696 L132.176,55.152 C131.384,58.656 130.04,63 127.952,65.664 C127.4,65.256 126.416,64.704 125.816,64.488 C127.832,61.992 129.104,57.864 129.656,54.696 Z M159.8,49.272 L165.488,49.272 C166.616,52.896 169.112,56.304 172.304,58.032 C171.8,58.488 171.056,59.424 170.696,60.072 C169.928,59.568 169.184,58.992 168.512,58.344 C168.512,58.488 168.488,58.656 168.488,58.752 C168.176,66.048 167.864,68.832 167.024,69.768 C166.496,70.44 165.92,70.632 165.056,70.752 C164.264,70.848 162.8,70.824 161.336,70.752 C161.312,70.08 161,69.144 160.616,68.496 C162.056,68.64 163.424,68.664 164,68.664 C164.456,68.664 164.744,68.592 165.008,68.328 C165.56,67.752 165.872,65.496 166.112,59.904 L160.592,59.904 C159.968,64.56 158.408,68.784 152.264,71.04 C152,70.44 151.352,69.504 150.824,69.048 C156.368,67.2 157.64,63.72 158.168,59.904 L153.656,59.904 L153.656,58.248 C153.032,58.944 152.36,59.568 151.688,60.12 C151.28,59.664 150.344,58.848 149.792,58.464 C152.552,56.52 154.712,53.304 155.864,49.68 L158.192,50.232 C157.232,53.088 155.816,55.68 154.088,57.744 L167.912,57.744 C166.16,55.896 164.744,53.664 163.832,51.336 L159.8,51.336 L159.8,49.272 Z M195.8,59.328 L195.8,61.56 L186.272,61.56 L186.272,68.112 C186.272,69.48 185.936,70.152 184.928,70.488 C183.92,70.848 182.336,70.896 180.104,70.896 C179.96,70.248 179.528,69.216 179.144,68.592 C180.968,68.664 182.768,68.664 183.296,68.64 C183.8,68.616 183.944,68.496 183.944,68.064 L183.944,61.56 L174.272,61.56 L174.272,59.328 L183.944,59.328 L183.944,55.944 C185.72,55.104 187.808,53.808 189.368,52.56 L176.648,52.56 L176.648,50.376 L191.816,50.376 L192.32,50.256 L194,51.552 C191.96,53.52 189.008,55.68 186.272,57.12 L186.272,59.328 L195.8,59.328 Z M198.992,64.296 L200.792,64.608 C200.552,66.744 200.144,69.048 199.64,70.512 C199.256,70.32 198.392,70.032 197.912,69.888 C198.464,68.448 198.776,66.264 198.992,64.296 Z M201.68,64.56 L203.288,64.248 C203.624,65.952 203.912,68.16 204.008,69.624 L202.28,69.96 C202.208,68.496 201.944,66.264 201.68,64.56 Z M204.152,64.104 L205.688,63.624 C206.24,65.088 206.84,66.984 207.08,68.256 L205.448,68.784 C205.232,67.512 204.68,65.568 204.152,64.104 Z M203.96,58.392 L205.616,57.936 C206.24,59.52 206.936,61.632 207.176,62.88 L205.424,63.48 C205.352,63.096 205.256,62.688 205.136,62.208 C200,62.976 199.184,63.144 198.68,63.408 C198.584,63 198.224,61.968 198.008,61.392 C198.536,61.296 199.088,60.744 199.832,59.856 C200.192,59.496 200.888,58.584 201.68,57.432 C199.4,57.696 198.872,57.816 198.512,57.984 C198.392,57.552 198.08,56.568 197.864,56.04 C198.272,55.944 198.704,55.464 199.208,54.768 C199.736,54.048 201.392,51.336 202.352,48.792 L204.368,49.632 C203.336,51.768 202.04,53.952 200.72,55.728 L202.976,55.536 C203.576,54.576 204.2,53.52 204.704,52.488 L206.552,53.616 C205.064,56.208 203.192,58.8 201.32,60.912 L204.68,60.48 C204.44,59.76 204.2,59.016 203.96,58.392 Z M216.344,63.6 L210.32,63.6 L210.32,67.824 L216.344,67.824 L216.344,63.6 Z M208.232,70.872 L208.232,61.584 L218.504,61.584 L218.504,70.776 L216.344,70.776 L216.344,69.84 L210.32,69.84 L210.32,70.872 L208.232,70.872 Z M219.752,54 L214.4,54 L214.4,57.312 L219.128,57.312 L219.128,59.352 L207.752,59.352 L207.752,57.312 L212.096,57.312 L212.096,54 L207.08,54 L207.08,51.936 L212.096,51.936 L212.096,48.864 L214.4,48.864 L214.4,51.936 L219.752,51.936 L219.752,54 Z M230.312,61.656 L229.112,63.288 C228.8,62.52 228.104,61.2 227.48,60.072 L227.48,70.872 L225.416,70.872 L225.416,60.72 C224.696,63 223.808,65.112 222.848,66.48 C222.632,65.88 222.104,65.04 221.792,64.56 C223.208,62.592 224.576,59.04 225.224,55.992 L222.296,55.992 L222.296,53.928 L225.416,53.928 L225.416,48.864 L227.48,48.864 L227.48,53.928 L230.048,53.928 L230.048,55.992 L227.48,55.992 L227.48,57.408 C228.152,58.296 229.928,61.008 230.312,61.656 Z M237.896,65.376 L240.728,65.376 L240.728,63.888 L237.896,63.888 L237.896,65.376 Z M233.216,63.888 L233.216,65.376 L235.88,65.376 L235.88,63.888 L233.216,63.888 Z M235.88,60.984 L233.216,60.984 L233.216,62.352 L235.88,62.352 L235.88,60.984 Z M240.728,60.984 L237.896,60.984 L237.896,62.352 L240.728,62.352 L240.728,60.984 Z M235.28,55.2 L235.28,56.544 L238.568,56.544 L238.568,55.2 L235.28,55.2 Z M235.28,52.32 L235.28,53.64 L238.568,53.64 L238.568,52.32 L235.28,52.32 Z M244.232,65.376 L244.232,67.056 L242.816,67.056 L242.816,68.64 C242.816,69.648 242.6,70.152 241.904,70.488 C241.208,70.752 240.128,70.776 238.592,70.776 C238.496,70.248 238.232,69.48 237.992,68.976 C239,69.024 240.032,69.024 240.344,69 C240.632,69 240.728,68.904 240.728,68.616 L240.728,67.056 L233.216,67.056 L233.216,70.776 L231.176,70.776 L231.176,67.056 L229.64,67.056 L229.64,65.376 L231.176,65.376 L231.176,59.376 L235.88,59.376 L235.88,58.2 L230.048,58.2 L230.048,56.544 L233.192,56.544 L233.192,55.2 L231.08,55.2 L231.08,53.64 L233.192,53.64 L233.192,52.32 L230.576,52.32 L230.576,50.712 L233.192,50.712 L233.192,48.864 L235.28,48.864 L235.28,50.712 L238.568,50.712 L238.568,48.864 L240.656,48.864 L240.656,50.712 L243.512,50.712 L243.512,52.32 L240.656,52.32 L240.656,53.64 L243.152,53.64 L243.152,55.2 L240.656,55.2 L240.656,56.544 L243.992,56.544 L243.992,58.2 L237.896,58.2 L237.896,59.376 L242.816,59.376 L242.816,65.376 L244.232,65.376 Z" id="小分子結構" fill="#FF7679" fill-rule="nonzero"></path>
                <g id="Group-44" transform="translate(75.000000, 106.000000)">
                    <polygon id="Fill-1" fill="#FF7679" points="86.4756 2.41351282 100.902933 29.5722308 88.9632667 25.5247949 87.2916 30.4042821 107.858767 37.3794103 114.8656 16.9053077 109.963933 15.2383846 105.725267 27.6204359 91.0514333 0.00197435897"></polygon>
                    <g id="Group-43" transform="translate(0.000000, 40.328385)">
                        <path d="M105.1705,17.2368718 C103.6235,16.9125128 102.104833,17.8940513 101.776167,19.4340513 C101.450333,20.9740513 102.439167,22.4858462 103.983333,22.8158462 C105.530333,23.1402051 107.049,22.1558462 107.377667,20.6158462 C107.709167,19.0758462 106.7175,17.5640513 105.1705,17.2368718" id="Fill-2" fill="#FF7679"></path>
                        <path d="M116.448583,23.8224872 C116.77725,22.2824872 115.788417,20.7706923 114.241417,20.4435128 C112.694417,20.1219744 111.17575,21.1035128 110.847083,22.6406923 C110.52125,24.1806923 111.50725,25.6924872 113.05425,26.0196667 C114.60125,26.3496667 116.119917,25.3624872 116.448583,23.8224872" id="Fill-4" fill="#FF7679"></path>
                        <path d="M111.069783,3.26912821 C110.741117,4.81194872 111.727117,6.32092308 113.274117,6.64810256 C114.821117,6.97246154 116.339783,5.99374359 116.671283,4.45374359 C116.997117,2.91092308 116.008283,1.40194872 114.461283,1.07476923 C112.914283,0.744769231 111.395617,1.72912821 111.069783,3.26912821" id="Fill-6" fill="#FF7679"></path>
                        <path d="M113.316333,14.0996154 C113.645,12.5596154 112.656167,11.0478205 111.109167,10.7234615 C109.562167,10.3991026 108.0435,11.3778205 107.712,12.9178205 C107.389,14.4578205 108.377833,15.9696154 109.922,16.2967949 C111.469,16.6267949 112.987667,15.6396154 113.316333,14.0996154" id="Fill-8" fill="#FF7679"></path>
                        <path d="M103.469083,2.31607692 C103.140417,3.85607692 104.12925,5.36787179 105.67625,5.69223077 C107.22325,6.01658974 108.741917,5.03787179 109.073417,3.49787179 C109.396417,1.95787179 108.410417,0.446076923 106.863417,0.118897436 C105.316417,-0.211102564 103.79775,0.776076923 103.469083,2.31607692" id="Fill-10" fill="#FF7679"></path>
                        <path d="M108.869983,31.9342821 C108.54415,33.4742821 109.53015,34.9860769 111.07715,35.3132564 C112.62415,35.6347949 114.142817,34.6560769 114.474317,33.1160769 C114.80015,31.5760769 113.811317,30.0642821 112.264317,29.7371026 C110.717317,29.4071026 109.19865,30.3942821 108.869983,31.9342821" id="Fill-12" fill="#FF7679"></path>
                        <path d="M117.491817,41.8418974 C119.038817,42.1690769 120.557483,41.1875385 120.88615,39.6447179 C121.20915,38.1047179 120.225983,36.5957436 118.678983,36.2657436 C117.131983,35.9413846 115.613317,36.9257436 115.28465,38.4629231 C114.95315,40.0057436 115.944817,41.5147179 117.491817,41.8418974" id="Fill-14" fill="#FF7679"></path>
                        <path d="M123.866817,51.6008718 C125.413817,51.9280513 126.932483,50.9465128 127.26115,49.4065128 C127.586983,47.8636923 126.600983,46.3547179 125.053983,46.0247179 C123.506983,45.700359 121.988317,46.6818974 121.662483,48.2218974 C121.330983,49.7647179 122.319817,51.2736923 123.866817,51.6008718" id="Fill-16" fill="#FF7679"></path>
                        <path d="M139.762667,47.185359 C138.215667,46.8581795 136.697,47.8425385 136.368333,49.3825385 C136.0425,50.9225385 137.0285,52.4343333 138.5755,52.7615128 C140.1225,53.0858718 141.641167,52.1015128 141.967,50.5643333 C142.2985,49.0243333 141.309667,47.5125385 139.762667,47.185359" id="Fill-18" fill="#FF7679"></path>
                        <path d="M134.937217,54.5810256 C133.390217,54.2566667 131.87155,55.2382051 131.542883,56.7782051 C131.21705,58.3182051 132.20305,59.83 133.75005,60.16 C135.29705,60.484359 136.815717,59.5 137.144383,57.96 C137.47305,56.42 136.484217,54.9082051 134.937217,54.5810256" id="Fill-20" fill="#FF7679"></path>
                        <g id="Group-24" transform="translate(129.500000, 63.051282)">
                            <mask id="mask-2" fill="white">
                                <use xlink:href="#path-1"></use>
                            </mask>
                            <g id="Clip-23"></g>
                            <path d="M3.45898333,0.823051282 C1.91198333,0.495871795 0.393316667,1.48023077 0.0674833333,3.02023077 C-0.25835,4.56023077 0.724816667,6.07202564 2.27181667,6.40202564 C3.81881667,6.7235641 5.33748333,5.73920513 5.66615,4.20202564 C5.99765,2.66202564 5.00881667,1.15023077 3.45898333,0.823051282" id="Fill-22" fill="#FF7679" mask="url(#mask-2)"></path>
                        </g>
                        <path d="M118.41605,48.1852308 C118.744717,46.6452308 117.758717,45.1334359 116.211717,44.8090769 C114.664717,44.4847179 113.14605,45.4662564 112.81455,47.0034359 C112.488717,48.5462564 113.47755,50.0552308 115.02455,50.3824103 C116.57155,50.7124103 118.090217,49.7280513 118.41605,48.1852308" id="Fill-25" fill="#FF7679"></path>
                        <path d="M111.971633,55.5642564 C110.424633,55.2398974 108.905967,56.2214359 108.5773,57.7614359 C108.251467,59.3014359 109.234633,60.8132308 110.784467,61.1432308 C112.331467,61.4675897 113.850133,60.4832308 114.175967,58.9432308 C114.507467,57.4032308 113.518633,55.8914359 111.971633,55.5642564" id="Fill-27" fill="#FF7679"></path>
                        <path d="M125.360833,62.9187436 C123.813833,62.5943846 122.295167,63.5759231 121.9665,65.1159231 C121.640667,66.6559231 122.6295,68.1677179 124.173667,68.4977179 C125.720667,68.8220769 127.239333,67.8377179 127.568,66.2977179 C127.896667,64.7577179 126.907833,63.2459231 125.360833,62.9187436" id="Fill-29" fill="#FF7679"></path>
                        <path d="M119.20995,55.1513333 C117.66295,54.8241538 116.147117,55.8056923 115.81845,57.3456923 C115.492617,58.8885128 116.475783,60.3974872 118.022783,60.7274872 C119.572617,61.0518462 121.08845,60.0703077 121.417117,58.5274872 C121.748617,56.9874872 120.759783,55.4785128 119.20995,55.1513333" id="Fill-31" fill="#FF7679"></path>
                        <path d="M127.336517,53.6279744 C125.789517,53.3007949 124.27085,54.2823333 123.945017,55.8251538 C123.619183,57.3651538 124.605183,58.8769487 126.14935,59.2041282 C127.69635,59.5284872 129.215017,58.5469487 129.543683,57.0069487 C129.875183,55.4669487 128.88635,53.9551538 127.336517,53.6279744" id="Fill-33" fill="#FF7679"></path>
                        <path d="M118.714683,33.0387949 C120.261683,33.3659744 121.78035,32.3816154 122.109017,30.8416154 C122.432017,29.3016154 121.446017,27.7898205 119.90185,27.462641 C118.35485,27.1382821 116.836183,28.1198205 116.507517,29.6598205 C116.176017,31.1998205 117.167683,32.7116154 118.714683,33.0387949" id="Fill-35" fill="#FF7679"></path>
                        <g id="Group-39" transform="translate(0.000000, 2.820513)">
                            <mask id="mask-4" fill="white">
                                <use xlink:href="#path-3"></use>
                            </mask>
                            <g id="Clip-38"></g>
                            <path d="M105.909433,9.6595641 C102.0561,8.96007692 99.2199333,6.87289744 96.2619333,4.6644359 C94.2417667,3.15264103 92.1536,1.59853846 89.7339333,0.566230769 L89.7452667,0.543666667 C88.8499333,0.168538462 84.7217667,0.0867435897 82.3389333,0.0754615385 L-0.000566666667,0.0754615385 L-0.000566666667,2.17392308 L82.3304333,2.17392308 C84.9711,2.19084615 88.1019333,2.30366667 88.8499333,2.4644359 C91.0542667,3.39238462 92.9724333,4.82238462 94.9954333,6.33982051 C98.1007667,8.66110256 101.3081,11.0275128 105.776267,11.7721282 L105.909433,9.6595641 Z" id="Fill-37" stroke="#E4E420" stroke-width="2" fill="#E4E420" mask="url(#mask-4)"></path>
                        </g>
                        <g id="Group-42" transform="translate(114.333333, 2.820513)">
                            <mask id="mask-6" fill="white">
                                <use xlink:href="#path-5"></use>
                            </mask>
                            <g id="Clip-41"></g>
                            <path d="M20.352,0.0740512821 C18.0825,0.0881538462 14.2036667,0.164307692 13.2205,0.525333333 L13.2176667,0.516871795 C13.2091667,0.522512821 13.1978333,0.530974359 13.1865,0.536615385 C13.1723333,0.539435897 13.1553333,0.54225641 13.1468333,0.545076923 L13.1496667,0.550717949 C10.7158333,1.58020513 8.43783333,3.14558974 6.40916667,4.66302564 C4.5335,6.06482051 2.706,7.41866667 0.6405,8.40302564 L1.14766667,10.4761026 C3.573,9.37610256 5.65266667,7.85302564 7.67283333,6.34123077 C9.70716667,4.82097436 11.954,3.24712821 14.1923333,2.43764103 C15.1046667,2.28815385 17.9493333,2.18661538 20.3576667,2.17251282 L104.349,2.17251282 L104.349,0.0740512821 L20.352,0.0740512821 Z" id="Fill-40" stroke="#E4E420" stroke-width="2" fill="#E4E420" mask="url(#mask-6)"></path>
                        </g>
                    </g>
                </g>
            </g>
        </g>
    </g>
</svg>