<?xml version="1.0" encoding="UTF-8"?>
<svg width="376px" height="41px" viewBox="0 0 376 41" version="1.1" xmlns="http://www.w3.org/2000/svg" xmlns:xlink="http://www.w3.org/1999/xlink">
    <title>特調混搭創新保養</title>
    <g id="Drunk-Elephant_phone" stroke="none" stroke-width="1" fill="none" fill-rule="evenodd">
        <g id="Phone_index_轉外框" transform="translate(-20.000000, -1878.000000)" fill="#BDE2F5" fill-rule="nonzero">
            <g id="Group-11" transform="translate(-87.000000, 1562.000000)">
                <path d="M132.574,328.705 L132.574,325.05 L124.49,325.05 L124.49,320.406 L132.574,320.406 L132.574,316.579 L137.648,316.579 L137.648,320.406 L146.248,320.406 L146.248,325.05 L137.648,325.05 L137.648,328.705 L144.786,328.705 L144.786,333.435 L126.081,333.435 L126.081,328.705 L132.574,328.705 Z M123.157,337.391 L123.716,342.121 L119.588,343.196 L119.588,356.741 L114.729,356.741 L114.729,344.4 L109.053,345.862 L107.806,340.659 C109.698,340.315 112.149,339.799 114.729,339.283 L114.729,329.823 L112.235,329.823 C111.805,331.973 111.289,333.994 110.687,335.542 C109.827,335.155 108.021,334.467 107.075,334.166 C108.451,330.683 109.268,325.136 109.655,319.89 L113.525,320.492 C113.396,321.997 113.224,323.459 113.009,324.964 L114.729,324.964 L114.729,316.622 L119.588,316.622 L119.588,324.964 L123.286,324.964 L123.286,329.823 L119.588,329.823 L119.588,338.208 L123.157,337.391 Z M126.296,344.486 L130.08,342.164 C131.929,344.056 134.208,346.808 135.24,348.614 L131.198,351.237 C130.295,349.431 128.145,346.55 126.296,344.486 Z M147.194,337.348 L147.194,342.035 L143.066,342.035 L143.066,351.022 C143.066,353.559 142.593,354.892 140.873,355.709 C139.239,356.483 136.831,356.612 133.692,356.612 C133.477,355.107 132.789,353 132.144,351.538 C134.165,351.624 136.487,351.624 137.175,351.624 C137.82,351.624 137.992,351.452 137.992,350.893 L137.992,342.035 L124.318,342.035 L124.318,337.348 L137.992,337.348 L137.992,334.338 L143.066,334.338 L143.066,337.348 L147.194,337.348 Z M167.37,323.674 L167.37,327.716 L152.019,327.716 L152.019,323.674 L158.985,323.674 C158.34,322.083 157.265,319.933 156.362,318.299 L160.103,316.751 C161.221,318.514 162.554,320.965 163.199,322.47 L160.662,323.674 L167.37,323.674 Z M166.037,329.651 L166.037,333.521 L153.868,333.521 L153.868,329.651 L166.037,329.651 Z M153.825,339.283 L153.825,335.413 L165.994,335.413 L165.994,339.283 L153.825,339.283 Z M181.302,342.035 L177.647,342.035 L177.647,345.604 L181.302,345.604 L181.302,342.035 Z M185.043,349.13 L177.647,349.13 L177.647,351.108 L174.164,351.108 L174.164,338.466 L185.043,338.466 L185.043,349.13 Z M181.818,332.575 L186.548,332.575 L186.548,329.694 L181.818,329.694 L181.818,332.575 Z M173.046,329.694 L173.046,332.575 L177.69,332.575 L177.69,329.694 L173.046,329.694 Z M177.69,322.599 L173.046,322.599 L173.046,325.695 L177.69,325.695 L177.69,322.599 Z M186.548,325.695 L186.548,322.599 L181.818,322.599 L181.818,325.695 L186.548,325.695 Z M162.124,350.291 L162.124,345.475 L157.738,345.475 L157.738,350.291 L162.124,350.291 Z M190.719,318.127 L190.719,351.366 C190.719,353.516 190.332,354.72 189.042,355.494 C187.795,356.225 185.903,356.311 183.108,356.311 C182.936,355.107 182.377,353.172 181.775,352.054 C183.538,352.14 185.258,352.097 185.817,352.054 C186.376,352.054 186.548,351.882 186.548,351.28 L186.548,336.574 L173.046,336.574 C172.96,343.067 172.272,351.495 169.133,356.87 C168.402,356.182 166.596,354.806 165.65,354.376 L157.738,354.376 L157.738,356.053 L153.696,356.053 L153.696,341.347 L166.166,341.347 L166.166,353.387 C168.746,347.969 168.961,340.659 168.961,334.94 L168.961,318.127 L190.719,318.127 Z M228.181,324.663 L228.181,322.255 L215.152,322.255 L215.152,324.663 L228.181,324.663 Z M228.181,330.64 L228.181,328.232 L215.152,328.232 L215.152,330.64 L228.181,330.64 Z M233.513,318.428 L233.513,334.467 L210.035,334.467 L210.035,318.428 L233.513,318.428 Z M209.734,321.395 L206.896,325.609 C205.176,324.319 201.65,322.212 199.242,320.793 L201.951,317.095 C204.273,318.299 207.885,320.234 209.734,321.395 Z M207.283,333.005 L204.488,337.262 C202.854,336.058 199.285,333.994 196.791,332.618 L199.414,328.877 C201.779,329.995 205.391,331.887 207.283,333.005 Z M206.079,339.24 L209.691,342.68 C207.498,347.152 204.875,352.054 202.381,356.225 L198.253,352.785 C200.446,349.517 203.628,344.228 206.079,339.24 Z M215.496,350.377 L221.301,349.216 C221.387,350.506 221.731,352.441 221.989,353.516 C213.088,355.537 211.497,356.139 210.465,356.827 C210.25,355.494 209.648,353.215 208.96,352.097 C209.777,351.796 210.465,351.409 210.465,349.904 L210.465,335.628 L215.496,335.628 L215.496,340.057 L221.602,340.057 L221.602,344.357 L215.496,344.357 L215.496,350.377 Z M228.826,352.226 L231.578,352.226 C232.524,352.226 232.696,351.538 232.825,347.668 C233.814,348.399 235.835,349.216 237.168,349.517 C236.695,354.978 235.405,356.569 232.094,356.569 L228.009,356.569 C223.752,356.569 222.763,355.15 222.763,350.635 L222.763,335.456 L227.665,335.456 L227.665,340.1 L235.749,340.1 L235.749,344.4 L227.665,344.4 L227.665,350.592 C227.665,352.011 227.794,352.226 228.826,352.226 Z M271.878,328.404 L271.878,324.491 L268.094,324.491 L268.094,320.062 L271.878,320.062 L271.878,316.837 L276.522,316.837 L276.522,320.062 L280.564,320.062 L280.564,324.491 L276.522,324.491 L276.522,328.404 L271.878,328.404 Z M258.462,328.404 L258.462,324.491 L254.506,324.491 L254.506,320.062 L258.462,320.062 L258.462,316.837 L263.106,316.837 L263.106,320.062 L266.89,320.062 L266.89,324.491 L263.106,324.491 L263.106,328.404 L258.462,328.404 Z M272.953,346.464 L262.289,346.464 L262.289,350.893 L272.953,350.893 L272.953,346.464 Z M257.602,356.612 L257.602,342.25 L277.898,342.25 L277.898,356.612 L272.953,356.612 L272.953,355.107 L262.289,355.107 L262.289,356.612 L257.602,356.612 Z M263.364,335.843 L272.222,335.843 C270.545,334.553 268.911,333.22 267.535,331.93 C266.202,333.306 264.783,334.596 263.364,335.843 Z M266.632,326.168 L270.588,328.06 L270.072,328.834 C272.996,331.371 277.683,334.252 281.596,335.843 C280.865,337.09 280.091,339.369 279.833,340.702 C278.07,339.756 276.135,338.552 274.286,337.305 L274.286,340.057 L260.999,340.057 L260.999,337.692 C259.322,338.853 257.602,339.928 256.011,340.831 C255.667,340.143 255.065,338.939 254.42,337.95 L254.549,338.466 C253.345,338.939 252.184,339.455 250.98,339.928 L250.98,350.764 C250.98,353.172 250.593,354.548 249.217,355.365 C247.884,356.225 245.949,356.44 243.197,356.44 C243.068,355.064 242.423,352.871 241.778,351.452 C243.326,351.495 244.831,351.495 245.347,351.452 C245.863,351.452 246.078,351.28 246.078,350.721 L246.078,341.906 L242.724,343.282 L241.477,338.208 C242.81,337.821 244.358,337.305 246.078,336.66 L246.078,329.436 L241.821,329.436 L241.821,324.706 L246.078,324.706 L246.078,316.622 L250.98,316.622 L250.98,324.706 L254.119,324.706 L254.119,329.436 L250.98,329.436 L250.98,334.854 L253.603,333.865 L254.076,336.187 C258.849,333.951 263.837,330.296 266.632,326.168 Z M319.205,325.652 L326.085,325.652 C324.709,324.792 323.29,323.889 322,323.072 C321.097,323.932 320.151,324.835 319.205,325.652 Z M326.429,333.607 L316.668,333.607 L316.668,335.284 L326.429,335.284 L326.429,333.607 Z M316.496,340.057 L326.429,340.057 L326.429,338.294 L316.582,338.294 C316.582,338.853 316.539,339.455 316.496,340.057 Z M327.633,348.399 L319.678,348.399 L319.678,351.452 L327.633,351.452 L327.633,348.399 Z M326.386,328.662 L317.528,328.662 L317.528,326.985 C316.023,328.103 314.518,329.178 312.927,330.081 L331.073,330.081 L331.073,343.583 L316.152,343.583 C316.066,344.013 316.023,344.486 315.937,344.916 L332.105,344.916 L332.105,356.397 L327.633,356.397 L327.633,355.236 L319.678,355.236 L319.678,356.569 L315.421,356.569 L315.421,347.668 C314.819,350.377 313.916,353 312.669,355.193 C311.68,354.548 309.444,353.602 308.197,353.215 C311.594,347.754 311.938,340.057 311.938,335.026 L311.938,330.683 L310.949,331.199 C310.476,329.995 309.143,327.415 308.283,326.297 C313.271,324.19 318.302,320.664 321.054,316.536 L325.741,318.385 C325.483,318.772 325.225,319.116 324.967,319.46 C328.149,321.309 331.718,323.416 333.696,324.835 L331.073,329.135 C329.912,328.189 328.235,327.071 326.386,325.867 L326.386,328.662 Z M339.329,321.008 L339.329,345.002 L334.513,345.002 L334.513,321.008 L339.329,321.008 Z M342.296,316.708 L347.198,316.708 L347.198,350.592 C347.198,353.344 346.682,354.72 345.091,355.537 C343.586,356.397 341.135,356.569 337.695,356.569 C337.48,355.15 336.878,352.871 336.19,351.452 C338.383,351.495 340.619,351.495 341.307,351.495 C341.995,351.495 342.296,351.28 342.296,350.549 L342.296,316.708 Z M356.753,343.54 L360.666,344.658 C359.591,347.754 357.828,351.28 356.323,353.473 C355.549,352.828 353.915,351.71 352.969,351.151 C354.431,349.13 355.85,346.206 356.753,343.54 Z M366.858,325.007 L360.494,325.007 C361.139,326.426 361.698,328.275 361.913,329.479 L358.817,330.339 L365.009,330.339 C365.654,328.791 366.428,326.598 366.858,325.007 Z M373.351,342.164 L366.686,342.164 L366.686,356.44 L361.741,356.44 L361.741,342.164 L353.743,342.164 L353.743,337.864 L361.741,337.864 L361.741,334.553 L353.485,334.553 L353.485,330.339 L357.656,330.339 C357.441,329.049 356.925,327.2 356.409,325.867 L359.935,325.007 L354.13,325.007 L354.13,320.836 L361.483,320.836 C361.096,319.675 360.623,318.471 360.193,317.439 L365.31,316.192 C365.955,317.611 366.729,319.374 367.245,320.836 L373.394,320.836 L373.394,325.007 L368.019,325.007 L371.502,325.695 C370.857,327.329 370.212,329.006 369.567,330.339 L374.039,330.339 L374.039,334.553 L366.686,334.553 L366.686,337.864 L373.351,337.864 L373.351,342.164 Z M393.217,330.726 L393.217,335.456 L389.218,335.456 L389.218,356.569 L384.23,356.569 L384.23,335.456 L380.231,335.456 L380.231,335.972 C380.231,342.293 379.672,351.151 376.017,356.655 C375.157,355.752 373.136,354.118 372.061,353.602 C372.878,352.355 373.523,350.936 373.996,349.431 L370.943,351.323 C370.255,349.603 368.793,346.851 367.589,344.873 L370.943,343.067 C372.104,344.787 373.437,347.066 374.168,348.7 C375.372,344.572 375.501,339.928 375.501,335.972 L375.501,320.664 C380.188,319.804 385.391,318.471 388.53,317.009 L392.443,320.75 C388.917,322.169 384.445,323.201 380.231,323.975 L380.231,330.726 L393.217,330.726 Z M407.33,316.665 L412.06,318.213 C410.899,321.18 409.48,324.233 407.803,327.114 L407.803,356.612 L402.944,356.612 L402.944,334.51 C401.955,335.757 400.923,336.918 399.934,337.993 C399.461,336.746 398.042,333.994 397.182,332.747 C401.181,328.877 405.094,322.771 407.33,316.665 Z M414.984,342.981 L419.585,344.357 C417.822,348.055 415.199,352.226 413.006,354.849 C412.103,354.075 410.211,352.699 409.05,352.097 C411.2,349.732 413.522,346.163 414.984,342.981 Z M417.779,322.943 L417.779,328.705 L430.378,328.705 L430.378,322.943 L417.779,322.943 Z M437.645,341.648 L426.508,341.648 L426.508,356.741 L421.348,356.741 L421.348,341.648 L410.125,341.648 L410.125,337.004 L421.348,337.004 L421.348,333.22 L412.92,333.22 L412.92,318.428 L435.495,318.428 L435.495,333.22 L426.508,333.22 L426.508,337.004 L437.645,337.004 L437.645,341.648 Z M427.97,345.045 L431.754,342.938 C434.205,345.776 436.828,349.474 438.075,352.011 L434.033,354.462 C432.872,351.925 430.249,347.969 427.97,345.045 Z M453.005,338.208 L472.097,338.208 C470.85,337.09 469.689,335.886 468.657,334.596 L468.657,336.789 L456.187,336.789 L456.187,334.854 C455.241,336.015 454.123,337.133 453.005,338.208 Z M474.118,348.657 L464.228,348.657 C466.249,349.173 468.528,349.818 470.85,350.506 C471.925,349.947 473.043,349.302 474.118,348.657 Z M461.519,350.119 L461.519,350.807 L463.067,348.657 L455.026,348.657 L455.026,351.28 L461.519,350.119 Z M455.026,344.572 L455.026,345.948 L469.044,345.948 L469.044,344.572 L455.026,344.572 Z M455.026,340.917 L455.026,342.25 L469.044,342.25 L469.044,340.917 L455.026,340.917 Z M467.539,333.048 L457.477,333.048 L456.574,334.338 L468.442,334.338 C468.141,333.908 467.797,333.478 467.539,333.048 Z M481.428,333.048 L473,333.048 C475.58,335.585 479.106,337.606 482.847,338.767 C481.729,339.713 480.31,341.519 479.579,342.766 C477.687,342.035 475.924,341.046 474.247,339.885 L474.247,348.571 C475.408,347.883 476.44,347.238 477.3,346.593 L480.611,349.173 C478.934,350.076 477.042,351.022 475.279,351.796 C477.3,352.441 479.106,353.043 480.525,353.559 L478.375,356.999 C474.591,355.537 467.109,353.043 461.562,351.538 C461.648,352.398 461.734,353.258 461.82,353.86 C452.145,355.881 450.64,356.311 449.651,356.913 C449.307,355.795 448.318,353.688 447.544,352.828 C448.447,352.312 449.436,351.323 449.436,349.345 L449.436,341.003 C448.103,341.906 446.77,342.723 445.394,343.368 C444.663,342.422 442.986,340.53 441.868,339.67 C445.609,338.208 449.178,335.843 451.629,333.048 L443.459,333.048 L443.459,329.651 L459.713,329.651 L459.713,328.189 L447.716,328.189 L447.716,325.136 L459.713,325.136 L459.713,323.717 L445.695,323.717 L445.695,320.406 L452.575,320.406 C452.102,319.589 451.586,318.729 451.113,318.041 L455.714,316.622 C456.617,317.783 457.563,319.288 458.165,320.406 L467.023,320.406 C467.711,319.159 468.485,317.654 468.872,316.536 L474.548,317.654 C473.817,318.643 473.129,319.589 472.441,320.406 L479.149,320.406 L479.149,323.717 L465.002,323.717 L465.002,325.136 L477.128,325.136 L477.128,328.189 L465.002,328.189 L465.002,329.651 L481.428,329.651 L481.428,333.048 Z" id="特調混搭創新保養"></path>
            </g>
        </g>
    </g>
</svg>