<?xml version="1.0" encoding="UTF-8"?>
<svg width="249px" height="58px" viewBox="0 0 249 58" version="1.1" xmlns="http://www.w3.org/2000/svg" xmlns:xlink="http://www.w3.org/1999/xlink">
    <title>title</title>
    <defs>
        <path d="M9.042,37.336 L14.552,37.336 L14.552,41.136 L9.042,41.136 L9.042,37.336 Z M8.358,42.998 L15.274,42.998 L15.274,34.6 L14.514,34.6 C12.69,34.6 12.196,33.992 12.196,31.56 L12.196,26.62 L11.398,26.62 L11.398,29.964 C11.398,31.94 11.132,34.562 9.688,36.31 C9.422,35.968 8.852,35.474 8.358,35.132 L8.358,42.998 Z M9.118,26.62 L8.358,26.62 L8.358,34.03 C9.08,32.7 9.118,31.218 9.118,29.926 L9.118,26.62 Z M11.398,19.172 L11.398,22.212 L12.196,22.212 L12.196,19.172 L11.398,19.172 Z M15.274,32.054 L15.274,26.62 L14.552,26.62 L14.552,31.484 C14.552,32.016 14.628,32.054 14.856,32.054 L15.274,32.054 Z M15.502,19.172 L15.502,22.212 L19.112,22.212 L19.112,48.736 L15.274,48.736 L15.274,47.14 L8.358,47.14 L8.358,49.268 L4.71,49.268 L4.71,22.212 L8.168,22.212 L8.168,19.172 L4.254,19.172 L4.254,14.916 L19.492,14.916 L19.492,19.172 L15.502,19.172 Z M29.676,28.406 L27.168,32.624 C26.75,32.016 26.104,31.294 25.344,30.572 C24.508,32.358 23.558,33.916 22.494,35.17 C21.848,34.296 20.214,32.548 19.264,31.788 C21.316,29.432 22.722,25.708 23.444,21.908 L27.89,22.82 C27.662,23.884 27.396,24.986 27.054,26.012 C28.08,26.848 29.106,27.722 29.676,28.406 Z M39.48,17.12 L39.48,21.908 L20.48,21.908 L20.48,17.12 L27.13,17.12 C26.94,16.246 26.636,15.334 26.37,14.536 L31.462,13.32 C31.956,14.498 32.488,15.942 32.754,17.12 L39.48,17.12 Z M32.184,34.068 L32.184,36.272 L39.784,36.272 L39.784,41.174 L32.184,41.174 L32.184,49.61 L26.978,49.61 L26.978,41.174 L19.91,41.174 L19.91,36.272 L26.978,36.272 L26.978,33.346 L30.778,33.346 C30.056,32.548 29.182,31.636 28.574,31.142 C30.55,28.938 31.956,25.48 32.678,21.908 L37.124,22.858 C36.858,24.112 36.478,25.328 36.098,26.506 C37.618,28.064 39.214,29.85 40.012,31.142 L36.934,34.6 C36.364,33.574 35.338,32.244 34.236,30.914 C33.59,32.092 32.906,33.156 32.184,34.068 Z M63.5530476,31.294 L62.7930476,31.712 C64.2370476,32.738 65.3770476,33.84 66.2890476,34.98 C68.9110476,33.916 71.7230476,32.51 73.7370476,31.294 L63.5530476,31.294 Z M62.5650476,44.176 C63.4390476,43.644 63.9330476,42.542 63.7810476,41.098 C61.8050476,42.428 59.5630476,43.644 57.2070476,44.67 C58.2710476,44.746 59.2970476,44.784 60.0950476,44.784 C61.0830476,44.784 61.9570476,44.708 62.5650476,44.176 Z M62.9450476,19.818 L56.7890476,19.818 C56.2950476,20.35 55.7630476,20.882 55.2310476,21.376 L61.8050476,21.376 C62.2230476,20.882 62.6030476,20.35 62.9450476,19.818 Z M65.0730476,25.29 L65.0730476,27.38 L71.2670476,27.38 L71.2670476,25.29 L65.0730476,25.29 Z M54.8130476,27.38 L60.1710476,27.38 L60.1710476,25.29 L54.8130476,25.29 L54.8130476,27.38 Z M74.3070476,31.294 L78.5250476,34.486 C76.9670476,35.246 75.2950476,36.006 73.6230476,36.69 C75.1050476,39.502 77.5750476,42.39 80.9950476,43.758 C79.8170476,44.822 78.0690476,47.064 77.3090476,48.546 C73.3950476,46.38 70.6970476,42.2 69.1010476,38.4 L68.4170476,38.59 C69.9750476,42.694 68.8350476,46.608 65.9850476,48.28 C64.3510476,49.344 63.1350476,49.61 61.0070476,49.648 C60.0190476,49.648 58.8790476,49.61 57.7010476,49.534 C57.6250476,48.242 57.2070476,46.38 56.4470476,45.012 C53.7110476,46.19 50.8610476,47.178 48.2010476,47.862 C47.5170476,46.722 46.1490476,44.86 45.1610476,43.872 C51.2410476,42.656 58.1950476,40.148 62.1470476,37.412 C62.0330476,37.222 61.8810476,37.07 61.7290476,36.88 C57.8910476,39.046 52.9890476,40.794 48.5430476,41.744 C47.9350476,40.642 46.6430476,38.97 45.6930476,38.02 C50.2530476,37.336 55.3450476,35.968 58.8790476,34.296 C58.6510476,34.106 58.4230476,33.954 58.1950476,33.802 C55.2690476,34.942 52.1150476,35.892 49.3790476,36.462 C48.7330476,35.436 47.4790476,33.726 46.5290476,32.814 C48.9230476,32.472 51.5830476,31.94 54.0910476,31.294 L49.6450476,31.294 L49.6450476,25.708 L48.8470476,26.202 C48.0490476,24.948 46.3390476,23.086 45.1610476,22.288 C49.9870476,19.78 53.4070476,16.398 55.3450476,13.32 L61.0450476,14.498 C60.7410476,14.916 60.4370476,15.372 60.1330476,15.79 L65.9850476,15.79 L66.8210476,15.562 L70.5830476,18.032 C69.9370476,19.058 69.0630476,20.236 68.1510476,21.376 L76.7390476,21.376 L76.7390476,31.294 L74.3070476,31.294 Z M114.454095,40.718 L113.466095,40.718 C113.998095,41.972 114.492095,43.378 114.796095,44.632 C114.910095,44.518 114.986095,44.404 115.100095,44.252 C115.594095,43.416 115.860095,40.072 116.012095,30.648 L102.560095,30.648 C101.990095,31.37 101.382095,32.016 100.736095,32.624 L104.536095,32.624 L104.536095,31.104 L108.640095,31.104 L108.640095,32.624 L114.454095,32.624 L114.454095,40.718 Z M108.640095,42.238 L110.046095,42.124 C109.932095,41.82 109.780095,41.516 109.666095,41.212 L111.300095,40.718 L108.640095,40.718 L108.640095,42.238 Z M108.640095,35.93 L108.640095,37.45 L110.236095,37.45 L110.236095,35.93 L108.640095,35.93 Z M103.016095,37.45 L104.536095,37.45 L104.536095,35.93 L103.016095,35.93 L103.016095,37.45 Z M98.5700952,24.796 L98.5700952,16.816 C97.6200952,18.488 96.5180952,20.16 95.3400952,21.718 C96.3660952,24.15 96.8600952,26.658 97.1260952,29.28 C98.5320952,28.026 99.7860952,26.468 100.698095,24.796 L98.5700952,24.796 Z M103.168095,18.792 L103.168095,20.768 L104.688095,20.768 L104.688095,18.792 L103.168095,18.792 Z M108.488095,18.792 L108.488095,20.768 L110.046095,20.768 L110.046095,18.792 L108.488095,18.792 Z M113.808095,18.792 L113.808095,20.768 L115.404095,20.768 L115.404095,18.792 L113.808095,18.792 Z M105.448095,26.316 L121.180095,26.316 C121.180095,26.316 121.142095,27.798 121.142095,28.406 C120.876095,41.174 120.610095,45.962 119.622095,47.444 C118.824095,48.66 118.064095,49.078 116.962095,49.306 C116.012095,49.534 114.682095,49.572 113.162095,49.534 C113.124095,48.736 112.934095,47.748 112.668095,46.798 L111.338095,47.216 C111.300095,46.836 111.224095,46.418 111.148095,46 C106.512095,46.57 101.800095,47.102 98.1520952,47.52 L97.6580952,43.112 C99.5580952,42.998 101.952095,42.808 104.536095,42.58 L104.536095,40.718 L99.0260952,40.718 L99.0260952,32.662 C98.4940952,32.168 97.8480952,31.674 97.2400952,31.18 C97.3160952,32.244 97.3160952,33.308 97.3160952,34.41 C97.3160952,39.654 96.9740952,45.012 95.1500952,47.558 C94.5420952,48.394 93.6680952,48.964 92.7180952,49.192 C91.2740952,49.61 89.7160952,49.648 88.0440952,49.572 C88.0440952,47.824 87.6640952,45.886 86.7520952,44.328 C88.3480952,44.442 89.4120952,44.442 90.0580952,44.366 C90.5900952,44.29 90.8940952,44.1 91.1980952,43.72 C91.7680952,42.96 92.0340952,40.224 92.1100952,36.804 C90.9700952,38.172 89.7920952,39.426 88.6900952,40.376 C87.8540952,39.084 86.3720952,37.298 85.1560952,36.31 C87.5500952,34.79 90.2100952,31.902 91.8820952,29.166 C91.8060952,28.14 91.6160952,27.19 91.4260952,26.24 C90.5900952,27.038 89.7540952,27.798 88.9180952,28.444 C88.1200952,27.342 86.3720952,25.708 85.1940952,24.834 C86.6380952,23.808 88.0060952,22.478 89.3360952,20.996 C88.3860952,19.438 87.1700952,17.956 85.5740952,16.474 L89.4120952,13.624 C90.5900952,14.65 91.5780952,15.714 92.4140952,16.778 C93.0220952,15.866 93.5540952,14.916 94.0100952,13.966 L98.5700952,16.208 L98.5700952,14.802 L120.268095,14.802 L120.268095,24.796 L106.208095,24.796 C105.980095,25.29 105.714095,25.822 105.448095,26.316 Z M148.635143,23.808 L148.635143,21.452 L141.909143,21.452 L141.909143,16.474 L148.635143,16.474 L148.635143,13.472 L154.107143,13.472 L154.107143,16.474 L161.441143,16.474 L161.441143,21.452 L154.107143,21.452 L154.107143,23.808 L159.959143,23.808 L159.959143,28.9 L143.163143,28.9 L143.163143,23.808 L148.635143,23.808 Z M140.921143,31.94 L141.491143,37.032 C140.389143,37.336 139.249143,37.602 138.109143,37.906 L138.109143,49.61 L132.903143,49.61 L132.903143,39.198 L128.267143,40.338 L126.937143,34.714 C128.609143,34.448 130.661143,34.068 132.903143,33.612 L132.903143,25.936 L131.269143,25.936 C130.927143,27.684 130.547143,29.28 130.091143,30.572 C129.217143,30.078 127.279143,29.394 126.253143,29.09 C127.431143,26.05 128.077143,21.11 128.343143,16.55 L132.409143,17.158 C132.333143,18.336 132.219143,19.514 132.067143,20.692 L132.903143,20.692 L132.903143,13.51 L138.109143,13.51 L138.109143,20.692 L141.073143,20.692 L141.073143,25.936 L138.109143,25.936 L138.109143,32.548 L140.921143,31.94 Z M162.277143,31.712 L162.277143,36.766 L159.047143,36.766 L159.047143,43.644 C159.047143,46.266 158.591143,47.71 156.843143,48.546 C155.171143,49.382 152.929143,49.496 150.079143,49.496 C149.889143,47.9 149.129143,45.582 148.445143,44.062 C150.079143,44.138 152.207143,44.138 152.815143,44.138 C153.385143,44.138 153.575143,44.024 153.575143,43.53 L153.575143,36.766 L147.875143,36.766 C149.357143,38.362 151.029143,40.376 151.827143,41.82 L147.495143,44.67 C146.735143,43.074 144.873143,40.604 143.353143,38.818 L146.621143,36.766 L141.909143,36.766 L141.909143,31.712 L153.575143,31.712 L153.575143,29.546 L159.047143,29.546 L159.047143,31.712 L162.277143,31.712 Z M197.33219,20.046 L201.58819,22.82 C196.80019,30.002 189.20019,37.336 181.63819,42.504 C183.95619,43.606 186.92019,43.796 190.53019,43.796 C194.10219,43.796 199.99219,43.416 203.64019,42.808 C203.07019,44.29 202.15819,47.178 202.08219,48.66 C199.42219,48.85 194.14019,49.078 190.30219,49.078 C185.55219,49.078 182.58819,48.508 179.92819,46.988 C178.21819,45.962 176.92619,44.708 176.09019,44.708 C174.91219,44.708 173.24019,47.444 171.83419,49.8 L167.88219,44.594 C170.73219,41.554 174.00019,39.54 176.24219,39.54 L176.28019,39.54 C182.13219,35.93 188.09819,30.572 192.08819,25.708 L169.78219,25.708 L169.78219,20.312 L184.03219,20.312 C183.12019,18.792 181.90419,17.006 180.95419,15.6 L185.93219,12.902 C187.33819,14.764 189.39019,17.386 190.34019,19.058 L188.13619,20.312 L196.26819,20.312 L197.33219,20.046 Z M221.291238,37.45 L221.101238,37.792 C221.405238,38.666 221.785238,39.388 222.203238,40.072 C222.659238,39.274 223.039238,38.4 223.343238,37.45 L221.291238,37.45 Z M234.819238,37.944 L233.489238,37.944 C233.299238,40.224 232.501238,42.656 230.335238,44.442 C231.323238,44.518 232.349238,44.556 233.451238,44.556 C235.351238,44.594 242.115238,44.556 244.509238,44.48 C243.863238,45.506 243.179238,47.634 242.951238,48.926 L233.223238,48.926 C228.815238,48.926 225.319238,48.432 222.583238,46.494 C221.025238,47.9 219.125238,48.964 216.959238,49.8 C216.503238,48.698 215.477238,46.912 214.641238,46 C216.541238,45.43 218.213238,44.518 219.581238,43.302 C219.201238,42.77 218.859238,42.162 218.555238,41.478 C218.137238,41.972 217.757238,42.39 217.339238,42.808 C216.997238,42.352 216.351238,41.592 215.705238,40.908 C215.059238,44.138 214.033238,47.292 212.475238,49.724 C211.601238,48.774 209.321238,46.988 208.181238,46.418 C211.297238,41.402 211.525238,34.068 211.525238,28.976 L211.525238,20.274 L223.305238,20.274 L223.305238,13.51 L228.853238,13.51 L228.853238,15.296 L240.671238,15.296 L240.671238,19.096 L228.853238,19.096 L228.853238,20.274 L239.151238,20.274 L239.987238,20.084 L243.939238,20.958 C243.293238,23.504 242.343238,26.316 241.431238,28.178 L236.833238,26.924 C237.099238,26.202 237.365238,25.328 237.631238,24.378 L228.473238,24.378 L228.473238,25.252 L236.681238,24.872 L236.833238,28.102 L228.549238,28.52 C228.701238,28.976 229.119238,29.166 230.107238,29.166 L236.605238,29.166 C238.163238,29.166 240.823238,29.052 241.811238,28.786 C241.963238,30.192 242.077238,31.56 242.267238,32.7 C241.241238,33.004 238.923238,33.042 237.099238,33.042 L229.423238,33.042 C224.977238,33.042 223.571238,31.712 223.305238,28.786 L217.757238,29.09 L217.605238,25.784 L223.267238,25.518 L223.267238,24.378 L216.731238,24.378 L216.731238,29.014 C216.731238,31.484 216.617238,34.486 216.237238,37.602 C217.681238,35.702 218.897238,33.384 219.657238,31.028 L223.723238,32.092 C223.533238,32.662 223.305238,33.27 223.077238,33.84 L224.901238,33.84 L225.699238,33.764 L228.359238,34.334 C227.827238,37.906 226.839238,40.794 225.395238,43.112 C226.649238,43.796 228.093238,44.176 229.689238,44.366 C228.891238,43.53 227.371238,42.276 226.611238,41.82 C229.005238,40.148 229.309238,38.134 229.309238,36.386 L229.309238,34.03 L238.771238,34.03 L238.771238,39.844 C238.771238,40.718 238.809238,40.794 239.113238,40.794 L239.531238,40.794 C239.911238,40.794 240.025238,40.3 240.139238,37.944 C240.861238,38.476 242.305238,38.97 243.293238,39.198 C243.027238,42.618 242.153238,43.682 240.025238,43.682 L238.315238,43.682 C235.617238,43.682 234.819238,42.808 234.819238,39.844 L234.819238,37.944 Z" id="path-1"></path>
    </defs>
    <g id="Drunk-Elephant_phone" stroke="none" stroke-width="1" fill="none" fill-rule="evenodd">
        <g id="Phone_獨特之處_btn_轉外框" transform="translate(-26.000000, -222.000000)">
            <g id="title" transform="translate(26.000000, 222.000000)">
                <g id="Group-30" transform="translate(4.635685, 15.880498)" fill="#FF7679">
                    <rect id="Rectangle" x="0" y="7.94688797" width="11.2580913" height="19.8672199"></rect>
                    <rect id="Rectangle-Copy-8" x="49.0058091" y="7.94688797" width="20.5294606" height="2.64896266"></rect>
                    <rect id="Rectangle-Copy-9" x="46.3568465" y="1.98672199" width="11.920332" height="2.64896266"></rect>
                    <rect id="Rectangle-Copy-10" x="99.3360996" y="0" width="14.5692946" height="4.63568465"></rect>
                </g>
                <g id="醉象獨特之處" fill-rule="nonzero">
                    <use fill="#DCFC25" xlink:href="#path-1"></use>
                    <use fill="#FF7679" xlink:href="#path-1"></use>
                </g>
                <path d="M6.042,35.336 L11.552,35.336 L11.552,39.136 L6.042,39.136 L6.042,35.336 Z M5.358,40.998 L12.274,40.998 L12.274,32.6 L11.514,32.6 C9.69,32.6 9.196,31.992 9.196,29.56 L9.196,24.62 L8.398,24.62 L8.398,27.964 C8.398,29.94 8.132,32.562 6.688,34.31 C6.422,33.968 5.852,33.474 5.358,33.132 L5.358,40.998 Z M6.118,24.62 L5.358,24.62 L5.358,32.03 C6.08,30.7 6.118,29.218 6.118,27.926 L6.118,24.62 Z M8.398,17.172 L8.398,20.212 L9.196,20.212 L9.196,17.172 L8.398,17.172 Z M12.274,30.054 L12.274,24.62 L11.552,24.62 L11.552,29.484 C11.552,30.016 11.628,30.054 11.856,30.054 L12.274,30.054 Z M12.502,17.172 L12.502,20.212 L16.112,20.212 L16.112,46.736 L12.274,46.736 L12.274,45.14 L5.358,45.14 L5.358,47.268 L1.71,47.268 L1.71,20.212 L5.168,20.212 L5.168,17.172 L1.254,17.172 L1.254,12.916 L16.492,12.916 L16.492,17.172 L12.502,17.172 Z M26.676,26.406 L24.168,30.624 C23.75,30.016 23.104,29.294 22.344,28.572 C21.508,30.358 20.558,31.916 19.494,33.17 C18.848,32.296 17.214,30.548 16.264,29.788 C18.316,27.432 19.722,23.708 20.444,19.908 L24.89,20.82 C24.662,21.884 24.396,22.986 24.054,24.012 C25.08,24.848 26.106,25.722 26.676,26.406 Z M36.48,15.12 L36.48,19.908 L17.48,19.908 L17.48,15.12 L24.13,15.12 C23.94,14.246 23.636,13.334 23.37,12.536 L28.462,11.32 C28.956,12.498 29.488,13.942 29.754,15.12 L36.48,15.12 Z M29.184,32.068 L29.184,34.272 L36.784,34.272 L36.784,39.174 L29.184,39.174 L29.184,47.61 L23.978,47.61 L23.978,39.174 L16.91,39.174 L16.91,34.272 L23.978,34.272 L23.978,31.346 L27.778,31.346 C27.056,30.548 26.182,29.636 25.574,29.142 C27.55,26.938 28.956,23.48 29.678,19.908 L34.124,20.858 C33.858,22.112 33.478,23.328 33.098,24.506 C34.618,26.064 36.214,27.85 37.012,29.142 L33.934,32.6 C33.364,31.574 32.338,30.244 31.236,28.914 C30.59,30.092 29.906,31.156 29.184,32.068 Z M60.5530476,29.294 L59.7930476,29.712 C61.2370476,30.738 62.3770476,31.84 63.2890476,32.98 C65.9110476,31.916 68.7230476,30.51 70.7370476,29.294 L60.5530476,29.294 Z M59.5650476,42.176 C60.4390476,41.644 60.9330476,40.542 60.7810476,39.098 C58.8050476,40.428 56.5630476,41.644 54.2070476,42.67 C55.2710476,42.746 56.2970476,42.784 57.0950476,42.784 C58.0830476,42.784 58.9570476,42.708 59.5650476,42.176 Z M59.9450476,17.818 L53.7890476,17.818 C53.2950476,18.35 52.7630476,18.882 52.2310476,19.376 L58.8050476,19.376 C59.2230476,18.882 59.6030476,18.35 59.9450476,17.818 Z M62.0730476,23.29 L62.0730476,25.38 L68.2670476,25.38 L68.2670476,23.29 L62.0730476,23.29 Z M51.8130476,25.38 L57.1710476,25.38 L57.1710476,23.29 L51.8130476,23.29 L51.8130476,25.38 Z M71.3070476,29.294 L75.5250476,32.486 C73.9670476,33.246 72.2950476,34.006 70.6230476,34.69 C72.1050476,37.502 74.5750476,40.39 77.9950476,41.758 C76.8170476,42.822 75.0690476,45.064 74.3090476,46.546 C70.3950476,44.38 67.6970476,40.2 66.1010476,36.4 L65.4170476,36.59 C66.9750476,40.694 65.8350476,44.608 62.9850476,46.28 C61.3510476,47.344 60.1350476,47.61 58.0070476,47.648 C57.0190476,47.648 55.8790476,47.61 54.7010476,47.534 C54.6250476,46.242 54.2070476,44.38 53.4470476,43.012 C50.7110476,44.19 47.8610476,45.178 45.2010476,45.862 C44.5170476,44.722 43.1490476,42.86 42.1610476,41.872 C48.2410476,40.656 55.1950476,38.148 59.1470476,35.412 C59.0330476,35.222 58.8810476,35.07 58.7290476,34.88 C54.8910476,37.046 49.9890476,38.794 45.5430476,39.744 C44.9350476,38.642 43.6430476,36.97 42.6930476,36.02 C47.2530476,35.336 52.3450476,33.968 55.8790476,32.296 C55.6510476,32.106 55.4230476,31.954 55.1950476,31.802 C52.2690476,32.942 49.1150476,33.892 46.3790476,34.462 C45.7330476,33.436 44.4790476,31.726 43.5290476,30.814 C45.9230476,30.472 48.5830476,29.94 51.0910476,29.294 L46.6450476,29.294 L46.6450476,23.708 L45.8470476,24.202 C45.0490476,22.948 43.3390476,21.086 42.1610476,20.288 C46.9870476,17.78 50.4070476,14.398 52.3450476,11.32 L58.0450476,12.498 C57.7410476,12.916 57.4370476,13.372 57.1330476,13.79 L62.9850476,13.79 L63.8210476,13.562 L67.5830476,16.032 C66.9370476,17.058 66.0630476,18.236 65.1510476,19.376 L73.7390476,19.376 L73.7390476,29.294 L71.3070476,29.294 Z M111.454095,38.718 L110.466095,38.718 C110.998095,39.972 111.492095,41.378 111.796095,42.632 C111.910095,42.518 111.986095,42.404 112.100095,42.252 C112.594095,41.416 112.860095,38.072 113.012095,28.648 L99.5600952,28.648 C98.9900952,29.37 98.3820952,30.016 97.7360952,30.624 L101.536095,30.624 L101.536095,29.104 L105.640095,29.104 L105.640095,30.624 L111.454095,30.624 L111.454095,38.718 Z M105.640095,40.238 L107.046095,40.124 C106.932095,39.82 106.780095,39.516 106.666095,39.212 L108.300095,38.718 L105.640095,38.718 L105.640095,40.238 Z M105.640095,33.93 L105.640095,35.45 L107.236095,35.45 L107.236095,33.93 L105.640095,33.93 Z M100.016095,35.45 L101.536095,35.45 L101.536095,33.93 L100.016095,33.93 L100.016095,35.45 Z M95.5700952,22.796 L95.5700952,14.816 C94.6200952,16.488 93.5180952,18.16 92.3400952,19.718 C93.3660952,22.15 93.8600952,24.658 94.1260952,27.28 C95.5320952,26.026 96.7860952,24.468 97.6980952,22.796 L95.5700952,22.796 Z M100.168095,16.792 L100.168095,18.768 L101.688095,18.768 L101.688095,16.792 L100.168095,16.792 Z M105.488095,16.792 L105.488095,18.768 L107.046095,18.768 L107.046095,16.792 L105.488095,16.792 Z M110.808095,16.792 L110.808095,18.768 L112.404095,18.768 L112.404095,16.792 L110.808095,16.792 Z M102.448095,24.316 L118.180095,24.316 C118.180095,24.316 118.142095,25.798 118.142095,26.406 C117.876095,39.174 117.610095,43.962 116.622095,45.444 C115.824095,46.66 115.064095,47.078 113.962095,47.306 C113.012095,47.534 111.682095,47.572 110.162095,47.534 C110.124095,46.736 109.934095,45.748 109.668095,44.798 L108.338095,45.216 C108.300095,44.836 108.224095,44.418 108.148095,44 C103.512095,44.57 98.8000952,45.102 95.1520952,45.52 L94.6580952,41.112 C96.5580952,40.998 98.9520952,40.808 101.536095,40.58 L101.536095,38.718 L96.0260952,38.718 L96.0260952,30.662 C95.4940952,30.168 94.8480952,29.674 94.2400952,29.18 C94.3160952,30.244 94.3160952,31.308 94.3160952,32.41 C94.3160952,37.654 93.9740952,43.012 92.1500952,45.558 C91.5420952,46.394 90.6680952,46.964 89.7180952,47.192 C88.2740952,47.61 86.7160952,47.648 85.0440952,47.572 C85.0440952,45.824 84.6640952,43.886 83.7520952,42.328 C85.3480952,42.442 86.4120952,42.442 87.0580952,42.366 C87.5900952,42.29 87.8940952,42.1 88.1980952,41.72 C88.7680952,40.96 89.0340952,38.224 89.1100952,34.804 C87.9700952,36.172 86.7920952,37.426 85.6900952,38.376 C84.8540952,37.084 83.3720952,35.298 82.1560952,34.31 C84.5500952,32.79 87.2100952,29.902 88.8820952,27.166 C88.8060952,26.14 88.6160952,25.19 88.4260952,24.24 C87.5900952,25.038 86.7540952,25.798 85.9180952,26.444 C85.1200952,25.342 83.3720952,23.708 82.1940952,22.834 C83.6380952,21.808 85.0060952,20.478 86.3360952,18.996 C85.3860952,17.438 84.1700952,15.956 82.5740952,14.474 L86.4120952,11.624 C87.5900952,12.65 88.5780952,13.714 89.4140952,14.778 C90.0220952,13.866 90.5540952,12.916 91.0100952,11.966 L95.5700952,14.208 L95.5700952,12.802 L117.268095,12.802 L117.268095,22.796 L103.208095,22.796 C102.980095,23.29 102.714095,23.822 102.448095,24.316 Z M145.635143,21.808 L145.635143,19.452 L138.909143,19.452 L138.909143,14.474 L145.635143,14.474 L145.635143,11.472 L151.107143,11.472 L151.107143,14.474 L158.441143,14.474 L158.441143,19.452 L151.107143,19.452 L151.107143,21.808 L156.959143,21.808 L156.959143,26.9 L140.163143,26.9 L140.163143,21.808 L145.635143,21.808 Z M137.921143,29.94 L138.491143,35.032 C137.389143,35.336 136.249143,35.602 135.109143,35.906 L135.109143,47.61 L129.903143,47.61 L129.903143,37.198 L125.267143,38.338 L123.937143,32.714 C125.609143,32.448 127.661143,32.068 129.903143,31.612 L129.903143,23.936 L128.269143,23.936 C127.927143,25.684 127.547143,27.28 127.091143,28.572 C126.217143,28.078 124.279143,27.394 123.253143,27.09 C124.431143,24.05 125.077143,19.11 125.343143,14.55 L129.409143,15.158 C129.333143,16.336 129.219143,17.514 129.067143,18.692 L129.903143,18.692 L129.903143,11.51 L135.109143,11.51 L135.109143,18.692 L138.073143,18.692 L138.073143,23.936 L135.109143,23.936 L135.109143,30.548 L137.921143,29.94 Z M159.277143,29.712 L159.277143,34.766 L156.047143,34.766 L156.047143,41.644 C156.047143,44.266 155.591143,45.71 153.843143,46.546 C152.171143,47.382 149.929143,47.496 147.079143,47.496 C146.889143,45.9 146.129143,43.582 145.445143,42.062 C147.079143,42.138 149.207143,42.138 149.815143,42.138 C150.385143,42.138 150.575143,42.024 150.575143,41.53 L150.575143,34.766 L144.875143,34.766 C146.357143,36.362 148.029143,38.376 148.827143,39.82 L144.495143,42.67 C143.735143,41.074 141.873143,38.604 140.353143,36.818 L143.621143,34.766 L138.909143,34.766 L138.909143,29.712 L150.575143,29.712 L150.575143,27.546 L156.047143,27.546 L156.047143,29.712 L159.277143,29.712 Z M194.33219,18.046 L198.58819,20.82 C193.80019,28.002 186.20019,35.336 178.63819,40.504 C180.95619,41.606 183.92019,41.796 187.53019,41.796 C191.10219,41.796 196.99219,41.416 200.64019,40.808 C200.07019,42.29 199.15819,45.178 199.08219,46.66 C196.42219,46.85 191.14019,47.078 187.30219,47.078 C182.55219,47.078 179.58819,46.508 176.92819,44.988 C175.21819,43.962 173.92619,42.708 173.09019,42.708 C171.91219,42.708 170.24019,45.444 168.83419,47.8 L164.88219,42.594 C167.73219,39.554 171.00019,37.54 173.24219,37.54 L173.28019,37.54 C179.13219,33.93 185.09819,28.572 189.08819,23.708 L166.78219,23.708 L166.78219,18.312 L181.03219,18.312 C180.12019,16.792 178.90419,15.006 177.95419,13.6 L182.93219,10.902 C184.33819,12.764 186.39019,15.386 187.34019,17.058 L185.13619,18.312 L193.26819,18.312 L194.33219,18.046 Z M218.291238,35.45 L218.101238,35.792 C218.405238,36.666 218.785238,37.388 219.203238,38.072 C219.659238,37.274 220.039238,36.4 220.343238,35.45 L218.291238,35.45 Z M231.819238,35.944 L230.489238,35.944 C230.299238,38.224 229.501238,40.656 227.335238,42.442 C228.323238,42.518 229.349238,42.556 230.451238,42.556 C232.351238,42.594 239.115238,42.556 241.509238,42.48 C240.863238,43.506 240.179238,45.634 239.951238,46.926 L230.223238,46.926 C225.815238,46.926 222.319238,46.432 219.583238,44.494 C218.025238,45.9 216.125238,46.964 213.959238,47.8 C213.503238,46.698 212.477238,44.912 211.641238,44 C213.541238,43.43 215.213238,42.518 216.581238,41.302 C216.201238,40.77 215.859238,40.162 215.555238,39.478 C215.137238,39.972 214.757238,40.39 214.339238,40.808 C213.997238,40.352 213.351238,39.592 212.705238,38.908 C212.059238,42.138 211.033238,45.292 209.475238,47.724 C208.601238,46.774 206.321238,44.988 205.181238,44.418 C208.297238,39.402 208.525238,32.068 208.525238,26.976 L208.525238,18.274 L220.305238,18.274 L220.305238,11.51 L225.853238,11.51 L225.853238,13.296 L237.671238,13.296 L237.671238,17.096 L225.853238,17.096 L225.853238,18.274 L236.151238,18.274 L236.987238,18.084 L240.939238,18.958 C240.293238,21.504 239.343238,24.316 238.431238,26.178 L233.833238,24.924 C234.099238,24.202 234.365238,23.328 234.631238,22.378 L225.473238,22.378 L225.473238,23.252 L233.681238,22.872 L233.833238,26.102 L225.549238,26.52 C225.701238,26.976 226.119238,27.166 227.107238,27.166 L233.605238,27.166 C235.163238,27.166 237.823238,27.052 238.811238,26.786 C238.963238,28.192 239.077238,29.56 239.267238,30.7 C238.241238,31.004 235.923238,31.042 234.099238,31.042 L226.423238,31.042 C221.977238,31.042 220.571238,29.712 220.305238,26.786 L214.757238,27.09 L214.605238,23.784 L220.267238,23.518 L220.267238,22.378 L213.731238,22.378 L213.731238,27.014 C213.731238,29.484 213.617238,32.486 213.237238,35.602 C214.681238,33.702 215.897238,31.384 216.657238,29.028 L220.723238,30.092 C220.533238,30.662 220.305238,31.27 220.077238,31.84 L221.901238,31.84 L222.699238,31.764 L225.359238,32.334 C224.827238,35.906 223.839238,38.794 222.395238,41.112 C223.649238,41.796 225.093238,42.176 226.689238,42.366 C225.891238,41.53 224.371238,40.276 223.611238,39.82 C226.005238,38.148 226.309238,36.134 226.309238,34.386 L226.309238,32.03 L235.771238,32.03 L235.771238,37.844 C235.771238,38.718 235.809238,38.794 236.113238,38.794 L236.531238,38.794 C236.911238,38.794 237.025238,38.3 237.139238,35.944 C237.861238,36.476 239.305238,36.97 240.293238,37.198 C240.027238,40.618 239.153238,41.682 237.025238,41.682 L235.315238,41.682 C232.617238,41.682 231.819238,40.808 231.819238,37.844 L231.819238,35.944 Z" id="醉象獨特之處" fill="#DCFC25" fill-rule="nonzero"></path>
            </g>
        </g>
    </g>
</svg>